<?xml version="1.0" encoding="utf-8"?>
<!-- Generator: Adobe Illustrator 19.0.0, SVG Export Plug-In . SVG Version: 6.00 Build 0)  -->
<svg version="1.1" id="Q52" xmlns="http://www.w3.org/2000/svg" xmlns:xlink="http://www.w3.org/1999/xlink" x="0px" y="0px"
	 viewBox="0 0 595 595" style="enable-background:new 0 0 595 595;" xml:space="preserve">
<style type="text/css">
	.st0{fill:#E8EAE4;}
	.st1{fill:#8F8A78;}
	.st2{fill:#D8DAD3;}
	.st3{fill:#655F50;}
	.st4{fill:#635D4D;}
	.st5{fill:#B8B3A1;}
	.st6{fill:#BAB5A3;}
	.st7{fill:#F2633D;}
	.st8{fill:#A89D87;}
	.st9{fill:#B6AE9D;}
	.st10{fill:#76705E;}
</style>
<path class="st0" d="M119.9,582c-1.5-19.1-0.6-38.2-0.6-57.4c-0.1-167.5,0-335,0-502.4c0-2.5,0.1-5,0.1-7.5c0.1-5,2.6-7.5,7.5-7.8
	c2.5-0.1,5-0.1,7.5-0.1c108.5,0,217,0,325.6,0c2.5,0,5,0,7.5,0.1c5.2,0.1,8.2,2.6,8.1,8.1c0,1.9,0,3.8,0,5.6
	c0,181.9,0.1,363.8,0,545.7c0,5.8,1.6,12-2.7,17.2c-3.4,0.2-6.8,0.7-10.3,0.7c-86.5,0-172.9,0.1-259.4,0c-27.3,0-54.5-0.3-81.8-0.4
	l0.1,0.2C121.1,583.4,120.5,582.7,119.9,582z M419.6,201.2c-0.3-1.7-1.5-2.4-3.1-2.4c-5.9-1.7-10.8,0.6-15.5,3.7
	c-3.3,2-5.2,5.3-3.8,8.7c2.8,6.9,2.7,14,3.3,21.1c0.7,7.3,5.3,11.3,11.5,11c7.5-0.3,9.2-5.8,9.6-11.6c0.5-6.9,0.7-13.7,3.5-20.1
	c1.2-2.9,0.2-4.8-3-5.5c-0.4-0.3-0.5-0.6-0.2-1C422,203.2,421.5,201.8,419.6,201.2C419.3,201.4,421.2,200.3,419.6,201.2z
	 M379.7,534.9c2.2-9.2,2.1-18.4,0-27.6c-0.6-6.5-5.2-9.1-10.8-9.9c-8.4-1.1-16.9-0.9-25.2,0c-6.8,0.7-10.7,5-11,11.8
	c-0.3,7.5-0.4,15,0,22.5c0.4,7.7,4.8,12.2,12.4,12.7c7.5,0.4,15,0.4,22.5,0C373.6,544.3,378.3,541.5,379.7,534.9z M298.5,177.5
	c41.4,0,82.8,0,124.2,0c11.6,0,13.1-1.4,13.2-12.9c0.1-22,0.1-43.9,0-65.9c0-10.6-1.1-11.7-12.1-11.7c-83.7,0-167.5,0-251.2,0
	c-10.6,0-11.6,1.1-11.6,12.1c-0.1,21.6-0.1,43.3,0,64.9c0,12.7,0.6,13.3,13.3,13.3C215.7,177.5,257.1,177.5,298.5,177.5z M436,342
	c0-2.8,0-5.6,0-8.5c-0.2-11-4.5-15.5-15.3-15.8c-6.3-0.2-12.6-0.3-18.8,0.1c-9,0.5-13,4.7-13.5,13.6c-0.1,2.5-0.1,5-0.1,7.5
	c-0.1,26.2,0.4,26.7,26.9,26.7c17.7,0,20.8-3.1,20.7-20.8C436,343.9,436,342.9,436,342z M161,341.1c0,22.8,1.6,24.4,24.3,24.5
	c0.6,0,1.2,0,1.9,0c19,0,21.6-2.5,21.6-21.5c0-0.6,0-1.2,0-1.9c0-23.2-1.2-24.5-24.2-24.5C162.7,317.7,161,319.4,161,341.1z
	 M161,521.2c0,2.5,0,5,0,7.5c0.2,11.5,4.4,15.7,16,15.9c6.3,0.1,12.6,0.3,18.8,0c7.8-0.4,12.1-4.6,12.7-12.4
	c0.4-6.6,0.3-13.2,0.2-19.8c-0.2-11.1-4.3-15.1-15.5-15.4c-2.5-0.1-5,0-7.5,0C162.5,497,161,498.4,161,521.2z M208.7,461.3
	c0-2.5,0-5,0-7.5c-0.2-12.3-4.2-16.4-16.3-16.6c-5.3-0.1-10.7-0.1-16,0c-10.9,0.2-15.2,4.6-15.5,15.6c-0.1,2.5,0,5,0,7.5
	c0,23.4,1.2,24.6,24.3,24.5C207.4,484.8,208.8,483.4,208.7,461.3z M436,520.6c-0.1-21.9-1.7-23.6-23.4-23.6c-0.3,0-0.6,0-0.9,0
	c-21.8,0-23.3,1.5-23.3,23.6c0,22.7,1.4,24.1,23.8,24.1C434.4,544.7,436.1,543,436,520.6z M300.9,497c-22-0.1-23.7,1.5-23.7,23.2
	c0,0.3,0,0.6,0,0.9c0,21.7,1.8,23.5,23.5,23.5c22.6,0,24.1-1.5,24.2-23.8C324.9,498.5,323.5,497.1,300.9,497z M266.4,461.1
	c0-22.2-1.6-23.8-24-23.8c-0.3,0-0.6,0-0.9,0c-20,0-22.4,2.4-22.4,22.7c0,23.3,1.3,24.6,24.1,24.5
	C265.2,484.5,266.5,483.3,266.4,461.1z M332.6,401.1C332.6,401.1,332.6,401.1,332.6,401.1c0,2.2-0.1,4.4,0,6.6
	c0.3,12.9,4.8,17.5,17.6,17.9c5.6,0.2,11.3,0.3,16.9-0.2c8.9-0.8,13-4.9,13.7-13.8c0.5-6.8,0.5-13.8-0.1-20.6
	c-0.7-8.9-4.8-12.7-13.9-13.5c-5.9-0.5-11.9-0.4-17.8-0.2c-11.4,0.5-15.6,4.9-16.3,16.3C332.5,396.1,332.6,398.6,332.6,401.1z
	 M436,401.3c0-2.5,0.1-5,0-7.5c-0.3-12.1-4.4-16.3-16.6-16.4c-5.6-0.1-11.3-0.2-16.9,0c-9.3,0.4-13.8,4.8-14,14
	c-0.2,6.6-0.2,13.2,0,19.8c0.2,8.9,4.3,13.4,13.1,14c6.6,0.4,13.2,0.3,19.8,0.1c10.2-0.4,14.5-5,14.7-15.4
	C436.1,407,436,404.2,436,401.3z M324.4,283.7c0-2.5,0-5,0-7.5c-0.2-11.6-4.4-15.9-15.9-16.1c-5.6-0.1-11.3-0.1-16.9,0
	c-10.1,0.3-14.4,4.3-15.1,14c-0.2,3.1-0.1,6.3-0.1,9.4c0,22.3,1.9,24.2,24,24.2C322.7,307.8,324.4,306.1,324.4,283.7z M388.3,282.7
	c0,3.1-0.1,6.3,0,9.4c0.3,11.2,4.4,15.4,15.3,15.6c6.3,0.1,12.6,0.2,18.8-0.1c8.7-0.4,13.1-4.9,13.4-13.7c0.3-6.6,0.3-13.2,0-19.8
	c-0.4-9.3-4.8-13.8-14-14.1c-6.6-0.2-13.2-0.2-19.8,0c-9.2,0.3-13.5,4.7-13.9,14.1C388.2,277.1,388.3,279.9,388.3,282.7z
	 M411.7,484.8c2.8,0,5.6,0,8.5,0c11.6-0.2,15.6-4.3,15.8-16c0.1-6,0.2-11.9-0.1-17.9c-0.4-8.8-4.8-13.2-13.5-13.6
	c-6.9-0.3-13.8-0.3-20.7,0c-8.7,0.4-12.9,4.9-13.3,13.7c-0.2,5,0,10,0,15c0.1,15.8,3,18.7,18.7,18.7
	C408.6,484.8,410.2,484.8,411.7,484.8z M356.9,318.3c-3.1,0-6.3-0.1-9.4,0c-10.1,0.4-14.2,4.3-14.8,14.3c-0.3,6.2-0.4,12.6,0.1,18.8
	c0.8,9.3,5.3,13.7,14.4,14.1c6.6,0.3,13.2,0.3,19.7-0.1c8.4-0.5,12.5-4.5,13.6-12.8c0.5-3.4,0.3-6.9,0.3-10.3
	C381,320,379.2,318.3,356.9,318.3z M241.9,318.3c-1.8,0-4.9-0.1-8,0c-10.9,0.4-14.5,4-14.7,14.9c-0.1,6.2-0.2,12.5,0.1,18.7
	c0.4,8.5,4.1,12.6,12.6,13.4c6.5,0.6,13.1,0.5,19.7,0.2c10-0.4,14.6-5.3,14.9-15.4c0.1-2.8-0.1-5.6,0-8.4
	C267.3,318.8,262.2,317.6,241.9,318.3z M266.4,400.9c0-2.6,0.2-6.1,0-9.5c-0.5-8.2-4.6-13.2-12.5-13.8c-7.5-0.6-15.1-0.6-22.6,0.1
	c-8.1,0.7-11.6,4.9-12,13c-0.3,6.9-0.3,13.8-0.1,20.7c0.3,8.5,4.8,13.2,13.4,14.1c3.4,0.4,6.9,0.2,10.3,0.2
	C259.8,425.9,268.2,424.3,266.4,400.9z M356.5,307.7c21.9,0,23.7-1.8,23.7-23.4c0-0.3,0-0.6,0-0.9c0-21.9-1.5-23.3-23.6-23.3
	c-22.6,0-24.1,1.5-24.2,23.8C332.4,306.2,334,307.8,356.5,307.7z M186,377.4C186,377.4,186,377.4,186,377.4
	c-3.1-0.1-6.2-0.2-9.4-0.1c-10.9,0.3-15.4,4.6-15.6,15.4c-0.2,6.2-0.2,12.5,0,18.7c0.4,8.6,4.8,13.3,13.3,13.8
	c6.8,0.4,13.7,0.3,20.6,0c8.7-0.4,13.3-5,13.7-13.4c0.3-7.2,0.3-14.4,0-21.5c-0.4-7.6-4.8-12-12.3-12.8
	C192.9,377.1,189.4,377.4,186,377.4z M185.2,307.7c2.5,0,5,0,7.5,0c11.7-0.2,15.7-4.2,16-15.9c0.1-6.3,0.2-12.6-0.2-18.8
	c-0.5-8.2-4.9-12.5-13.2-12.8c-6.3-0.3-12.5-0.2-18.8-0.1c-10.9,0.2-15.2,4.5-15.5,15.4c-0.1,2.8,0,5.6,0,8.5
	C161,306.2,162.6,307.8,185.2,307.7z M356.6,484.6C356.6,484.6,356.6,484.7,356.6,484.6c2.5,0.1,5,0.1,7.5,0.1
	c11.9-0.2,16.4-4.6,16.8-16.4c0.1-5,0.2-10,0-15c-0.4-10.8-4.9-15.5-15.5-15.9c-5.9-0.2-11.9-0.3-17.8,0c-9.7,0.5-14.4,5-14.9,14.5
	c-0.3,5.9-0.3,11.9,0,17.8c0.5,10,5.3,14.4,15.5,14.8C351,484.7,353.8,484.6,356.6,484.6z M324.7,461.7
	C324.8,461.7,324.8,461.7,324.7,461.7c0.1-2.8,0.1-5.6,0.1-8.5c-0.3-11.1-4.4-15.4-15.4-15.8c-6.6-0.2-13.2-0.3-19.7,0.1
	c-7.3,0.5-11.6,4.7-12,12c-0.3,7.5-0.4,15.1,0,22.6c0.5,7.9,4.7,11.9,12.6,12.3c7.2,0.4,14.4,0.3,21.6,0c7.5-0.4,12-4.9,12.7-12.4
	C325,468.6,324.7,465.1,324.7,461.7z M277.5,401.5c0,2.8-0.1,5.6,0,8.5c0.4,10.7,4.3,15,14.7,15.5c6.6,0.3,13.2,0.4,19.7-0.3
	c8.3-0.9,12.3-5.4,12.7-13.7c0.3-6.9,0.3-13.8,0-20.7c-0.4-7.6-4.5-12.1-12.1-13.2c-3.4-0.5-6.9-0.3-10.3-0.3
	C279.1,377.2,277.4,378.8,277.5,401.5z M266.5,285.2C266.5,285.2,266.5,285.2,266.5,285.2c0-3.4,0.1-6.9,0-10.3
	c-0.3-10.3-4.6-14.6-15.1-14.8c-6.6-0.1-13.2-0.2-19.7,0.1c-7.8,0.4-12.1,4.6-12.5,12.4c-0.4,7.2-0.4,14.4-0.1,21.6
	c0.3,8.8,4.7,13,13.6,13.4c6.6,0.3,13.2,0.3,19.7,0c9.7-0.4,13.8-4.9,14.1-14.9C266.6,290.2,266.5,287.7,266.5,285.2z M277.4,341.4
	c0,2.5,0,5,0,7.5c0.3,12.3,4.1,16.3,16.2,16.7c5.9,0.2,11.9,0.3,17.8-0.2c8-0.7,12.6-5.3,13.1-13.3c0.5-7.1,0.4-14.4,0-21.5
	c-0.5-8-4.5-11.7-12.5-12.2c-5-0.3-10-0.1-15-0.1c-17.2,0-19.5,2.4-19.6,19.4C277.4,338.9,277.4,340.2,277.4,341.4z M266.4,520.8
	C266.4,520.8,266.4,520.8,266.4,520.8c0-2.5,0-5,0-7.5c-0.3-11.7-4.2-15.7-15.8-16c-5.9-0.1-11.9-0.2-17.8,0.1
	c-9.1,0.4-13.2,4.4-13.6,13.3c-0.3,6.9-0.4,13.8,0,20.6c0.4,8.3,4.7,12.8,12.8,13.2c7.2,0.4,14.4,0.4,21.5,0
	c7.7-0.4,12.4-5.5,12.9-13.4C266.6,527.7,266.4,524.2,266.4,520.8z M241.8,198.3c-6-0.1-10.9,4.8-10.8,10.7
	c0.1,5.5,4.7,10.2,10.2,10.4c6,0.2,11.1-4.4,11.3-10.2C252.6,203.3,247.8,198.4,241.8,198.3z M186,219.1c6.1,0,10.8-4.8,10.6-10.7
	c-0.2-5.7-5.5-10.4-11.4-10.1c-5.5,0.3-10.2,5-10.2,10.3C174.9,214.3,180,219.1,186,219.1z M242.3,242.5c2.8-1.2,6.1-2.9,5.9-6.8
	c-0.2-4.1-3.6-5.5-7.3-5.5c-3.5,0-6.2,1.6-5.8,5.6C235.5,239.6,237.8,242,242.3,242.5z M191.9,236.1c-0.3-3.6-2.4-5.6-6-5.7
	c-3.2-0.1-5.5,1.7-5.8,4.9c-0.4,3.6,1.7,6,5.3,6.2C189,241.7,191.2,239.8,191.9,236.1z"/>
<path class="st1" d="M121.5,583.9c27.3,0.2,54.5,0.4,81.8,0.4c86.5,0.1,172.9,0,259.4,0c3.4,0,6.8-0.5,10.3-0.7
	c0.9,2.6-1,3.5-2.8,3.8c-3.1,0.5-6.2,0.6-9.3,0.6c-109,0-218,0-327-0.1C129.4,587.9,124,590,121.5,583.9z"/>
<path class="st1" d="M119.9,582c0.6,0.7,1.1,1.4,1.7,2.1C120.5,583.9,119.3,583.6,119.9,582z"/>
<path class="st2" d="M298.5,177.5c-41.4,0-82.8,0-124.2,0c-12.6,0-13.3-0.7-13.3-13.3c0-21.6-0.1-43.3,0-64.9
	c0-11.1,1-12.1,11.6-12.1c83.7,0,167.5,0,251.2,0c11,0,12,1.1,12.1,11.7c0.1,22,0.1,43.9,0,65.9c-0.1,11.4-1.6,12.8-13.2,12.9
	C381.2,177.5,339.9,177.5,298.5,177.5z M300.3,102.3c-3.1,0-6.3,0-9.4,0c-33.9,0-67.7,0-101.6,0c-12.7,0-13,0.4-13,13.4
	c0,8.5,0,16.9,0,25.4c0,13.5,0.3,13.7,13.7,13.7c70.6,0,141.1,0,211.7,0c4.4,0,8.8-0.2,13.2,0c5.7,0.2,7.8-2.5,7.7-8
	c-0.2-10.3,0-20.7,0-31c0-13-0.3-13.4-13-13.4C373.1,102.3,336.7,102.3,300.3,102.3z"/>
<path class="st3" d="M436,342c0,0.9,0,1.9,0,2.8c0,17.7-3.1,20.7-20.7,20.8c-26.5,0-27-0.5-26.9-26.7c0-2.5-0.1-5,0.1-7.5
	c0.5-8.9,4.5-13.1,13.5-13.6c6.3-0.4,12.5-0.3,18.8-0.1c10.8,0.3,15.1,4.8,15.3,15.8C436.1,336.4,436,339.2,436,342z"/>
<path class="st3" d="M161,341.1c0-21.7,1.7-23.4,23.5-23.4c23,0,24.2,1.3,24.2,24.5c0,0.6,0,1.2,0,1.9c0,19-2.6,21.6-21.6,21.5
	c-0.6,0-1.2,0-1.9,0C162.6,365.5,161,363.9,161,341.1z M190.5,333.1c-0.6,1.3-1.3,2.6-1.9,3.8c-2.3,3.4-4.8,6.7-4.8,11.8
	c3.9-3.1,4.7-7,6.5-10.4c0.6-1.2,1.2-2.4,1.8-3.5c0.6-0.8,2.4-1.3,1.2-2.6C192.4,331.2,191.3,332,190.5,333.1z"/>
<path class="st3" d="M161,521.2c0-22.8,1.5-24.2,24.7-24.2c2.5,0,5,0,7.5,0c11.1,0.3,15.2,4.3,15.5,15.4c0.1,6.6,0.3,13.2-0.2,19.8
	c-0.5,7.8-4.8,12-12.7,12.4c-6.3,0.3-12.5,0.1-18.8,0c-11.6-0.2-15.8-4.4-16-15.9C161,526.2,161,523.7,161,521.2z"/>
<path class="st3" d="M208.7,461.3c0,22.1-1.4,23.5-23.4,23.5c-23.1,0-24.3-1.2-24.3-24.5c0-2.5-0.1-5,0-7.5
	c0.3-10.9,4.6-15.3,15.5-15.6c5.3-0.1,10.7-0.1,16,0c12.1,0.2,16.1,4.3,16.3,16.6C208.8,456.3,208.7,458.8,208.7,461.3z M180,467.6
	c0.6-0.6,1.3-1.2,1.9-1.8c0.6-0.6,1.3-1.2,1.9-1.9c0.7-0.6,1.3-1.2,2-1.8c1.3-0.4,2.7-1.2,1.6-2.5c-1.1-1.3-2.1,0.2-2.8,1.2
	c-0.7,0.6-1.3,1.2-2,1.8c-0.6,0.6-1.3,1.3-1.9,1.9c-0.8,0.6-1.6,1.2-2.4,1.8c-0.4,0.7-1.2,1.9-1.1,2.1
	C178.5,469.5,179.3,468.7,180,467.6z M174.1,471.1c-0.4,0.4-1.1,1.1-1,1.2c0.7,0.9,1.5,0.6,2.2,0c0.4-0.8,2.3-1.3,0.6-2.5
	C175.6,469.6,174.7,470.6,174.1,471.1z"/>
<path class="st4" d="M436,520.6c0.1,22.4-1.7,24.1-23.9,24.1c-22.4,0-23.8-1.4-23.8-24.1c0-22.1,1.5-23.6,23.3-23.6
	c0.3,0,0.6,0,0.9,0C434.3,497,436,498.7,436,520.6z"/>
<path class="st4" d="M300.9,497c22.6,0.1,24,1.4,24,23.9c0,22.2-1.6,23.7-24.2,23.8c-21.7,0-23.5-1.8-23.5-23.5c0-0.3,0-0.6,0-0.9
	C277.2,498.6,278.9,496.9,300.9,497z"/>
<path class="st5" d="M266.4,461.1c0,22.1-1.2,23.4-23.2,23.5c-22.8,0.1-24.1-1.3-24.1-24.5c0-20.3,2.4-22.7,22.4-22.7
	c0.3,0,0.6,0,0.9,0C264.8,437.3,266.4,438.9,266.4,461.1z"/>
<path class="st6" d="M332.6,401.1c0-2.5-0.1-5,0-7.5c0.6-11.4,4.8-15.7,16.3-16.3c5.9-0.3,11.9-0.3,17.8,0.2
	c9.1,0.8,13.2,4.6,13.9,13.5c0.6,6.8,0.6,13.8,0.1,20.6c-0.6,8.9-4.7,12.9-13.7,13.8c-5.6,0.5-11.3,0.4-16.9,0.2
	c-12.8-0.4-17.2-5-17.6-17.9C332.5,405.5,332.6,403.3,332.6,401.1C332.6,401.1,332.6,401.1,332.6,401.1z M355.8,396
	c-3.4,4.8-7.2,8.3-3,13.2c1.6,1.9,4,2,5.9,0.2C364,404.1,357.5,401.3,355.8,396z"/>
<path class="st3" d="M436,401.3c0,2.8,0.1,5.6,0,8.5c-0.3,10.5-4.5,15.1-14.7,15.4c-6.6,0.2-13.2,0.3-19.8-0.1
	c-8.8-0.6-12.9-5.1-13.1-14c-0.2-6.6-0.2-13.2,0-19.8c0.3-9.2,4.7-13.6,14-14c5.6-0.3,11.3-0.1,16.9,0c12.2,0.2,16.3,4.3,16.6,16.4
	C436.1,396.3,436,398.8,436,401.3z M406.6,394.3c-0.9-0.3-1.9-0.7-2.3,0.6c-0.1,0.3,0.7,0.9,1.1,1.3c0.6,0.6,1.2,1.3,1.8,1.9
	c2.3,2.3,1.8,4.5-0.1,6.7c-0.6,0.6-1.2,1.3-1.8,1.9c-0.6,0.5-1.4,1.1-0.5,1.7c0.4,0.3,1.4-0.1,2.1-0.2c0.6-0.6,1.1-1.1,1.7-1.7
	c3.2-4.3,5.5-0.7,8.1,0.9c0.4,0.9,1.2,1.5,2,0.9c1-0.6,0.2-1.5-0.2-2.2c-1.2-2.3-5.1-3.9-2.1-7.4c0.6-0.7,1.3-1.3,1.9-2
	c0.2-0.7,0.9-1.8,0.6-2.1c-1-1.1-1.9-0.3-2.5,0.7c-0.6,0.6-1.3,1.3-1.9,1.9c-2.3,1.4-4.2,0.5-6-1C408,395.6,407.3,395,406.6,394.3z"
	/>
<path class="st3" d="M324.4,283.7c0,22.4-1.7,24.1-24,24c-22,0-23.9-1.9-24-24.2c0-3.1-0.1-6.3,0.1-9.4c0.7-9.7,5-13.7,15.1-14
	c5.6-0.2,11.3-0.2,16.9,0c11.4,0.2,15.6,4.6,15.9,16.1C324.5,278.7,324.4,281.2,324.4,283.7z M302.2,279.3c-2.4,0.8-5.9,1.2-5.3,4.1
	c0.7,3,1.1,8.3,4.4,8c2.7-0.3,7.9-2.3,8.2-6.4C310,280.8,305.1,280.8,302.2,279.3z"/>
<path class="st3" d="M388.3,282.7c0-2.8-0.1-5.7,0-8.5c0.4-9.4,4.6-13.8,13.9-14.1c6.6-0.2,13.2-0.2,19.8,0
	c9.2,0.3,13.6,4.8,14,14.1c0.3,6.6,0.3,13.2,0,19.8c-0.4,8.8-4.7,13.3-13.4,13.7c-6.3,0.3-12.5,0.2-18.8,0.1
	c-11-0.2-15.1-4.5-15.3-15.6C388.3,289,388.3,285.9,388.3,282.7z M424,273c-0.7,0.6-1.4,1.2-2.1,1.7c-0.7,0.5-1.4,1-2.1,1.5
	c-0.6,0.6-1.3,1.3-1.9,1.9c-0.5,0.7-1.5,1.9-1.4,2c1.2,1.4,2,0.3,2.7-0.7c0.6-0.6,1.3-1.2,1.9-1.9c0.7-0.6,1.3-1.2,2-1.8
	c1.1-0.3,1.7-0.9,1.8-2c0.4-0.4,1.2-1,1.1-1.1C425.1,271.5,424.6,272.2,424,273z M413.1,282.7c-0.7,0.6-1.3,1.2-2,1.8
	c-0.7,0.6-1.3,1.2-2,1.8c-0.7,0.6-1.3,1.2-2,1.8c-1.6,1.8-3.2,3.5-5.1,5.6c2.3-1.7,4.9-2.1,6.3-4.4c0.7-0.6,1.4-1.1,2.1-1.7
	c0.7-0.6,1.4-1.2,2.1-1.8c0.7-0.6,1.3-1.3,2-1.9c0.4-0.7,1.3-1.9,1.1-2C414.5,280.8,413.7,281.6,413.1,282.7z"/>
<path class="st4" d="M411.7,484.8c-1.6,0-3.1,0-4.7,0c-15.7,0-18.6-2.9-18.7-18.7c0-5-0.2-10,0-15c0.4-8.8,4.7-13.3,13.3-13.7
	c6.9-0.3,13.8-0.3,20.7,0c8.7,0.4,13.1,4.8,13.5,13.6c0.3,5.9,0.2,11.9,0.1,17.9c-0.2,11.7-4.2,15.8-15.8,16
	C417.4,484.9,414.6,484.8,411.7,484.8z M420.8,462.2c-5.2-2.3-10.3-2.7-15.3,0.1C410.6,464.4,415.8,464.2,420.8,462.2z"/>
<path class="st6" d="M356.9,318.3c22.3,0,24,1.7,24,24c0,3.4,0.1,6.9-0.3,10.3c-1.1,8.3-5.2,12.3-13.6,12.8
	c-6.6,0.4-13.2,0.4-19.7,0.1c-9.1-0.5-13.6-4.8-14.4-14.1c-0.5-6.2-0.5-12.5-0.1-18.8c0.6-10,4.7-13.9,14.8-14.3
	C350.6,318.2,353.8,318.3,356.9,318.3z M354.7,350.1c3.3-3.3,5-6.2,5.8-9.5c0.6-2.3,0.1-4.3-1.9-5.7c-1.7-1.1-3.5-1.2-5.2,0
	c-2.3,1.6-3.3,4.2-1.9,6.5C353,343.9,354.6,346.3,354.7,350.1z"/>
<path class="st6" d="M241.9,318.3c20.4-0.7,25.4,0.5,24.6,23.4c-0.1,2.8,0,5.6,0,8.4c-0.4,10.1-4.9,15-14.9,15.4
	c-6.5,0.3-13.2,0.4-19.7-0.2c-8.5-0.8-12.2-4.9-12.6-13.4c-0.3-6.2-0.2-12.5-0.1-18.7c0.2-10.9,3.9-14.5,14.7-14.9
	C237,318.2,240.1,318.3,241.9,318.3z M245.5,339.2c-2.9,2.6-4.5,5.7-4.6,9.4c3-2.3,4.8-5.1,5.5-8.6c1.5-1.6,3.7-3.5,2-5.5
	c-1.6-1.8-4.4-1.4-6.8-0.1C242.5,336.6,245.8,336.4,245.5,339.2z"/>
<path class="st6" d="M266.4,400.9c1.8,23.5-6.6,25.1-23.6,24.8c-3.5-0.1-6.9,0.1-10.3-0.2c-8.5-0.9-13.1-5.6-13.4-14.1
	c-0.2-6.9-0.2-13.8,0.1-20.7c0.4-8.1,4-12.3,12-13c7.5-0.7,15.1-0.7,22.6-0.1c8,0.6,12.1,5.6,12.5,13.8
	C266.6,394.8,266.4,398.2,266.4,400.9z M243.4,394.9c-3,0.8-4.2,3.4-5.7,5.7c-1.1,1.7-3.5,3.7-0.9,5.5c2.1,1.5,5.1,3.1,7.3,2.7
	c2.6-0.5,2.6-3.7,1.7-6.3C244.9,400,246.1,396.8,243.4,394.9z"/>
<path class="st3" d="M356.5,307.7c-22.5,0-24.1-1.6-24.1-23.9c0-22.3,1.5-23.8,24.2-23.8c22.1,0,23.6,1.5,23.6,23.3
	c0,0.3,0,0.6,0,0.9C380.2,306,378.4,307.7,356.5,307.7z M359.7,280.1c-4.2,0.3-8.2,0.9-9,6.1c-0.7,2.6-5.1-0.3-4.9,3.3
	c0.1,0.9,1.2,2.4,2.1,2.6c3.1,0.7,3-2.2,3.9-3.9c0.1-0.3,0.2-0.6,0.3-0.9c3.4-0.3,4.2,5,8.1,3.6c2.7,2.7,5.6,4.3,9.7,0.7
	c-3.4-0.9-5.9-1.5-8.4-2.2c-1.5-2.6-1.3-5.3-0.4-8.1c0.7-0.4,1.4-1,0.7-1.8C361.5,279.4,360.4,279.9,359.7,280.1z"/>
<path class="st3" d="M186,377.4c3.4,0,6.9-0.3,10.3,0.1c7.5,0.8,12,5.2,12.3,12.8c0.4,7.2,0.3,14.4,0,21.5c-0.4,8.5-5,13-13.7,13.4
	c-6.9,0.3-13.7,0.4-20.6,0c-8.6-0.5-13-5.2-13.3-13.8c-0.3-6.2-0.2-12.5,0-18.7c0.3-10.8,4.7-15.1,15.6-15.4
	C179.8,377.3,182.9,377.3,186,377.4C186,377.4,186,377.4,186,377.4z M190.3,392.8c-0.6,0.8-1.1,1.6-1.7,2.4
	c-0.5,0.7-1.1,1.4-1.6,2.2c-0.7-1-1.4-2-2.1-2.9c-2.2-2.8-5.2-3.9-7.9-1.2c-3.1,3.1-2,6.3,1.8,8.1c1.6,0.8,2.6,1.4,2.3,3.3
	c-0.5,0.7-1.1,1.4-1.6,2.1c-1,0.7-1.9,1.9-0.8,2.8c1.2,0.9,1.8-0.7,2.6-1.4c0.4-0.7,0.9-1.4,1.3-2.1c3.8,0.9,6.2,9,11.2,2.8
	c5-6.2-4.1-6.4-5.2-10.1c0.5-0.7,1.1-1.4,1.6-2c0.5-0.8,0.9-1.6,1.4-2.4c0.3-0.4,0.9-1,0.7-1.3C191.8,392.2,191,392.4,190.3,392.8z"
	/>
<path class="st3" d="M185.2,307.7c-22.6,0.1-24.2-1.5-24.2-23.7c0-2.8-0.1-5.6,0-8.5c0.3-11,4.6-15.2,15.5-15.4
	c6.3-0.1,12.5-0.2,18.8,0.1c8.3,0.3,12.7,4.6,13.2,12.8c0.4,6.3,0.3,12.5,0.2,18.8c-0.2,11.8-4.2,15.7-16,15.9
	C190.2,307.7,187.7,307.7,185.2,307.7z M185.9,285.3c0.7,1.6,1.5,3.3,2.2,4.9c6.7-4.1,2.4-7.9,0.2-12c-2.7,1.5-3.2,3.7-3.8,5.8
	c-0.1,0.8-0.6,1.9-0.3,2.2C185.1,286.9,185.5,285.9,185.9,285.3z M177.6,287c0.2,0.9,0.3,1.9,0.8,2.5c1.1,1.5,2,4.6,4.4,1.9
	c1.7-1.9-0.5-2.8-2.2-3.6c-0.7-0.3-1.2-1.3-1.7-2c-1.5-2.6-1.8-6.3-6.4-7.3c0.2,4.7-0.8,8.8,1,13.7C175.2,290,176.4,288.5,177.6,287
	z"/>
<path class="st6" d="M356.6,484.6c-2.8,0-5.6,0.1-8.5,0c-10.2-0.4-15-4.8-15.5-14.8c-0.3-5.9-0.3-11.9,0-17.8
	c0.5-9.5,5.2-14,14.9-14.5c5.9-0.3,11.9-0.3,17.8,0c10.6,0.4,15.1,5.1,15.5,15.9c0.2,5,0.1,10,0,15c-0.3,11.8-4.8,16.2-16.8,16.4
	C361.6,484.7,359.1,484.7,356.6,484.6C356.6,484.7,356.6,484.6,356.6,484.6z M360.8,463c0-5.9-1-8.7-3.5-9.6c-1.7-0.6-4.2,0.4-4,1.1
	c1.4,5,0.7,9.7-0.5,14.6c-0.2,1,3.5,2.1,5.6,0.7C360.7,468.2,361,465.8,360.8,463z"/>
<path class="st6" d="M324.7,461.7c0,3.4,0.3,6.9-0.1,10.3c-0.7,7.6-5.2,12.1-12.7,12.4c-7.2,0.3-14.4,0.4-21.6,0
	c-7.9-0.4-12.2-4.5-12.6-12.3c-0.4-7.5-0.4-15.1,0-22.6c0.3-7.4,4.7-11.6,12-12c6.6-0.4,13.2-0.4,19.7-0.1
	c11,0.4,15.1,4.8,15.4,15.8C324.9,456,324.8,458.8,324.7,461.7C324.8,461.7,324.8,461.7,324.7,461.7z M301.5,464.8
	c2.9-2.5,5.7-5.2,2.7-9.2c-2.5-3.4-5.5-3.3-8.2,0c-0.3,0.5-0.9,1.2-0.7,1.5c0.6,1.2,1.4,0.6,2.1,0c7.9-0.8,3.2,3.5,2.5,6.2
	c-2.2,1.8-4.2,3.9-1.9,6.8c1,1.2,2.9,1.1,4.2,0.4C305.9,468.2,299.2,467,301.5,464.8z"/>
<path class="st7" d="M379.7,534.9c-1.4,6.6-6.1,9.3-12.2,9.6c-7.5,0.3-15,0.4-22.5,0c-7.6-0.4-12-4.9-12.4-12.7
	c-0.4-7.5-0.3-15,0-22.5c0.3-6.9,4.2-11.1,11-11.8c8.4-0.9,16.9-1.1,25.2,0c5.6,0.7,10.1,3.3,10.8,9.9
	C379.7,516.5,379.7,525.7,379.7,534.9z M356.7,525.5c2.1-0.7,5.9,1.2,5.7-2.7c-0.1-3.1-3-4.5-6.2-4.3c-2.9,0.1-6.3,0.3-6.2,4
	C350.2,526.7,354.2,524.8,356.7,525.5z"/>
<path class="st6" d="M277.5,401.5c-0.1-22.7,1.6-24.3,24.7-24.3c3.4,0,6.9-0.2,10.3,0.3c7.6,1.1,11.8,5.6,12.1,13.2
	c0.3,6.9,0.4,13.8,0,20.7c-0.4,8.3-4.4,12.8-12.7,13.7c-6.5,0.7-13.2,0.6-19.7,0.3c-10.4-0.5-14.3-4.8-14.7-15.5
	C277.4,407.2,277.5,404.4,277.5,401.5z M295.4,400.9c-0.3,3.7-1.3,7.7,3.5,9.5c2.7,1,5-0.1,6.3-2.5c2.3-4.3,0-6.9-3.7-8.9
	c-0.9-0.5-2.4-1.3-0.8-2.7c1-0.9,4.7-0.8,1.3-3.1c-1.8-1.2-4.3-0.6-5.8,1.4C294.7,396.6,295.2,398.9,295.4,400.9z"/>
<path class="st3" d="M266.5,285.2c0,2.5,0.1,5,0,7.5c-0.3,10-4.4,14.5-14.1,14.9c-6.6,0.3-13.2,0.3-19.7,0
	c-8.9-0.4-13.3-4.6-13.6-13.4c-0.3-7.2-0.3-14.4,0.1-21.6c0.4-7.8,4.7-12,12.5-12.4c6.6-0.4,13.2-0.2,19.7-0.1
	c10.5,0.2,14.8,4.4,15.1,14.8C266.6,278.3,266.5,281.8,266.5,285.2C266.5,285.2,266.5,285.2,266.5,285.2z M235.9,285.2
	c0.5,0.7,1,1.5,1.5,2.2c0.8,2.1,1,4.7,4.2,5.7c1.4-2.6,2.8-5.2,4.3-7.8c1.5,1,1.2,2.7,1.5,4.2c0.2,0.8,0.7,1.5,1.1,2.3
	c1.1-2.5,3.5-2.9,5.7-3.8c0.5-0.2,0.1-1.2-0.7-1.1c-4.9,0.1-3.9-3.5-4.2-6.4c-0.1-1.3-0.9-2.6-2.3-1.5c-0.8,0.6-1,2.1-1.5,3.1
	c-2.7,0.9-1.5,8.1-7.1,4.4c-0.3-0.8-0.6-1.7-0.9-2.5c-1-1.7-1.6-5.7-3.5-4.1c-3.1,2.6-1.5,7-1,11.1
	C235.7,289.4,233.9,286.4,235.9,285.2z"/>
<path class="st6" d="M277.4,341.4c0-1.2,0-2.5,0-3.7c0.1-17,2.5-19.4,19.6-19.4c5,0,10-0.2,15,0.1c8,0.5,12,4.2,12.5,12.2
	c0.5,7.2,0.5,14.4,0,21.5c-0.5,8-5.1,12.6-13.1,13.3c-5.9,0.5-11.9,0.3-17.8,0.2c-12.2-0.3-15.9-4.3-16.2-16.7
	C277.4,346.4,277.4,343.9,277.4,341.4z M306.4,345.3c-0.9-5.6,0.5-11.4-5.4-11.1c-5.7,0.3-3.8,6.1-4.4,9.7c-0.6,3.4,0.6,6.5,4.6,6.5
	C305.8,350.5,306.6,347.2,306.4,345.3z"/>
<path class="st6" d="M266.4,520.8c0,3.4,0.2,6.9,0,10.3c-0.5,7.9-5.2,12.9-12.9,13.4c-7.2,0.4-14.4,0.4-21.5,0
	c-8.1-0.4-12.4-4.9-12.8-13.2c-0.3-6.9-0.3-13.7,0-20.6c0.4-8.8,4.5-12.8,13.6-13.3c5.9-0.3,11.9-0.2,17.8-0.1
	c11.6,0.3,15.6,4.3,15.8,16C266.4,515.8,266.4,518.3,266.4,520.8C266.4,520.8,266.4,520.8,266.4,520.8z M236.6,522.3
	c0.6,3.1,0.8,7.3,5.3,7.3c5.7,0,5.9-4.7,5.9-8.8c0-3.6-0.9-7.6-5.1-7.7C237.1,513,237.2,518,236.6,522.3z"/>
<path class="st2" d="M422.2,206c3.1,0.7,4.2,2.7,3,5.5c-2.8,6.4-3,13.2-3.5,20.1c-0.4,5.8-2.1,11.3-9.6,11.6
	c-6.2,0.3-10.8-3.7-11.5-11c-0.6-7.1-0.6-14.2-3.3-21.1c-1.4-3.4,0.5-6.7,3.8-8.7c0.1,4-1.7,8.1,1.2,11.8c2.9,3.8,6.8,5.7,11.5,4.7
	C420.3,217.4,421.7,211.9,422.2,206z"/>
<path class="st7" d="M241.8,198.3c6,0.1,10.8,5,10.6,10.8c-0.2,5.8-5.3,10.4-11.3,10.2c-5.5-0.2-10.1-4.9-10.2-10.4
	C230.9,203.1,235.8,198.3,241.8,198.3z"/>
<path class="st7" d="M422.2,206c-0.5,5.9-1.8,11.4-8.6,12.9c-4.7,1.1-8.5-0.8-11.5-4.7c-2.9-3.7-1-7.9-1.2-11.8
	c4.7-3.1,9.6-5.4,15.5-3.7c0.7,1.3,1.7,2.1,3.1,2.4c1.6-0.9-0.3,0.2,0,0c0.2,1.6,1,2.9,2.4,3.7C421.7,205.4,421.8,205.7,422.2,206z"
	/>
<path class="st8" d="M186,219.1c-6,0-11.1-4.8-11-10.5c0.1-5.3,4.8-10.1,10.2-10.3c5.9-0.3,11.1,4.3,11.4,10.1
	C196.9,214.3,192.1,219.1,186,219.1z"/>
<path class="st2" d="M242.3,242.5c-4.6-0.6-6.8-2.9-7.2-6.7c-0.4-4,2.3-5.6,5.8-5.6c3.7,0,7.1,1.4,7.3,5.5
	C248.4,239.7,245.1,241.4,242.3,242.5z"/>
<path class="st9" d="M191.9,236.1c-0.6,3.7-2.9,5.6-6.4,5.4c-3.7-0.2-5.7-2.6-5.3-6.2c0.3-3.1,2.5-5,5.8-4.9
	C189.4,230.5,191.5,232.5,191.9,236.1z"/>
<path class="st6" d="M379.7,534.9c0-9.2,0-18.4,0-27.6C381.8,516.5,381.9,525.7,379.7,534.9z"/>
<path class="st2" d="M421.9,205c-1.3-0.9-2.1-2.2-2.4-3.7C421.5,201.8,422,203.2,421.9,205z"/>
<path class="st2" d="M419.6,201.2c-1.4-0.3-2.5-1.1-3.1-2.4C418.1,198.8,419.3,199.4,419.6,201.2z"/>
<path class="st5" d="M300.3,102.3c36.4,0,72.8,0,109.1,0c12.7,0,13,0.4,13,13.4c0,10.3-0.1,20.7,0,31c0.1,5.5-2,8.2-7.7,8
	c-4.4-0.2-8.8,0-13.2,0c-70.6,0-141.1,0-211.7,0c-13.4,0-13.7-0.2-13.7-13.7c0-8.5,0-16.9,0-25.4c0-13,0.4-13.4,13-13.4
	c33.9,0,67.7,0,101.6,0C294.1,102.3,297.2,102.3,300.3,102.3z M377.5,124.7c1.9-0.9,3.8-0.9,5.7,0c2.9,2.1,4.7,1.2,5.2-2.1
	c0.7-4-0.7-6.8-5.1-7.1c-5-0.3-10.4-1.1-11.4,6.1c-0.2,1.8-1,4,0.9,5.1C374.7,128,375.8,125.3,377.5,124.7z M324.4,138.2
	c1.3-1.2,1.7-2.5,0.5-4c0-3.5-1.5-5.9-4.8-7.2c-2.3-0.9-6.2,0.3-5.8-4.2c0.3-4.2,4-2.9,6.4-3.7c1.2-0.4,2.5-0.7,2.2-2.4
	c-10.9-2.7-13.2-1.2-13.1,9.1c0,2.2-0.3,4.2-0.7,6.4c-0.7,3.5-2.4,8.1,2.6,9.5C316.1,143.1,321.6,144.6,324.4,138.2z M352.7,141.9
	c12.9,0.5,13,0.5,13.1-11.8c0-2,1.2-3.5,1.6-5.2c1-4.6,1.4-8.8-5.2-9.5c-7.4-0.8-10.6,1.1-11.1,7.5c-0.2,2.4,0,4.9,0.1,7.4
	C349.2,134.5,347.3,138.7,352.7,141.9z M249.3,141.4c12.3,1.3,13.2,0.7,13.6-10.1c0.1-1.8,0.5-3.7,0.8-5.5c0.7-3.4,1.9-7.3-1.7-9.4
	c-3.4-1.9-7.4-2.1-10.8,0.6c1.8,4.3,7.9,0.5,8.3,5.4c0.6,6.2-7.2,2.2-8.6,6.4c1.3,3.6,7.6,0.4,7.5,5.4
	C258.4,140.2,250.7,135.8,249.3,141.4z M290.5,141.5c5.4,0.7,10.8,3.2,13.4-3.3c1.8-4.4,0.6-8.6-4-11.2c-2.2-1.2-6.5,0.7-6.2-3.8
	c0.3-3.9,4.1-3,6.6-3.9c1.2-0.4,2.4-0.8,2.2-3.2c-4.9-1-10.4-2.9-12.9,3.8c-2,5.4-0.1,9.9,6.4,11c2.4,0.4,4.2,1.2,3.9,4.1
	c-0.3,2.5-2.2,2.6-4.1,2.8C293.9,138,292,138.2,290.5,141.5z M393.1,131.4c-2.4,3.5-3.7,7.3,0,9.9c3.7,2.6,8.7,2.7,12.4,0
	c3.5-2.5,3.5-6.5,1.2-10.8C400.4,139.9,400.3,139.9,393.1,131.4z M393.4,125.8c7.9-6.5,7.9-6.5,14.6,1.5c1.3-4,3-7.6-0.5-10.5
	c-3.3-2.8-7.8-2.2-11.5-0.6C391.9,118,392,121.9,393.4,125.8z M231.3,127.4c-5.7,4-7.6,8.3-5.2,12.2c2.5,4.2,7.4,4,12.6,2
	C229.6,140.9,231.1,134.3,231.3,127.4z M239.9,128.2c5-3.6,4.9-7.6,2.8-10.5c-2.9-4.1-7.3-2.3-11.4-0.6
	C236.1,119.2,240.7,121,239.9,128.2z M384.7,131c-0.1,7-7.5,6-11,9.8C385.8,143.6,388.5,141.4,384.7,131z M345.3,127.6
	c2.5-5,3.1-8.3,0-10.7c-3.1-2.3-6.7-1.9-10.6,1.2C340.7,117.9,343.7,121.2,345.3,127.6z"/>
<path class="st6" d="M190.4,338.4c-1.8,3.4-2.7,7.4-6.5,10.4c-0.1-5.1,2.5-8.4,4.8-11.8C189.2,337.4,189.8,337.9,190.4,338.4z"/>
<path class="st6" d="M192.2,334.8c-0.6,1.2-1.2,2.4-1.8,3.5c-0.6-0.5-1.2-0.9-1.8-1.4c0.6-1.3,1.3-2.6,1.9-3.8
	C191.1,333.7,191.6,334.3,192.2,334.8z"/>
<path class="st6" d="M190.5,333.1c0.7-1.1,1.9-1.9,2.9-0.9c1.2,1.3-0.6,1.8-1.2,2.6C191.6,334.3,191.1,333.7,190.5,333.1z"/>
<path class="st2" d="M184.6,460.9c0.7-1,1.7-2.5,2.8-1.2c1.1,1.3-0.3,2.1-1.6,2.5C185.4,461.7,185,461.3,184.6,460.9z"/>
<path class="st2" d="M175.2,472.3c-0.8,0.6-1.6,0.9-2.2,0c-0.1-0.1,0.7-0.8,1-1.2C174.4,471.5,174.8,471.9,175.2,472.3z"/>
<path class="st2" d="M182.7,462.7c0.7-0.6,1.3-1.2,2-1.8c0.4,0.4,0.8,0.9,1.2,1.3c-0.7,0.6-1.3,1.2-2,1.8
	C183.5,463.5,183.1,463.1,182.7,462.7z"/>
<path class="st2" d="M183.8,464c-0.6,0.6-1.3,1.2-1.9,1.9c-0.4-0.4-0.8-0.8-1.2-1.3c0.6-0.6,1.3-1.3,1.9-1.9
	C183.1,463.1,183.5,463.5,183.8,464z"/>
<path class="st2" d="M178.4,466.4c0.8-0.6,1.6-1.2,2.4-1.8c0.4,0.4,0.8,0.8,1.2,1.3c-0.6,0.6-1.3,1.2-1.9,1.8
	C179.5,467.2,178.9,466.8,178.4,466.4z"/>
<path class="st2" d="M180,467.6c-0.6,1.1-1.5,1.9-2.6,0.8c-0.1-0.1,0.7-1.4,1.1-2.1C178.9,466.8,179.5,467.2,180,467.6z"/>
<path class="st2" d="M174.1,471.1c0.6-0.5,1.6-1.5,1.8-1.3c1.8,1.2-0.2,1.7-0.6,2.5C174.8,471.9,174.4,471.5,174.1,471.1z"/>
<path class="st3" d="M355.8,396c1.7,5.3,8.3,8.1,2.9,13.4c-1.9,1.8-4.3,1.7-5.9-0.2C348.6,404.3,352.4,400.8,355.8,396z"/>
<path class="st2" d="M416.5,398.8c-3,3.5,0.9,5.1,2.1,7.4c-0.6,0.4-1.2,0.8-1.9,1.2c-2.6-1.6-4.9-5.2-8.1-0.9
	c-0.5-0.6-1-1.2-1.5-1.7c1.9-2.2,2.4-4.5,0.1-6.7c0.5-0.6,1-1.2,1.5-1.9c1.8,1.6,3.7,2.4,6,1.1C415.3,397.8,415.9,398.3,416.5,398.8
	z"/>
<path class="st2" d="M418.6,406.3c0.4,0.7,1.2,1.6,0.2,2.2c-0.9,0.6-1.6-0.1-2-0.9C417.4,407.1,418,406.7,418.6,406.3z"/>
<path class="st2" d="M407,408.3c-0.7,0.1-1.7,0.6-2.1,0.2c-0.9-0.6-0.1-1.3,0.5-1.7C405.9,407.3,406.4,407.8,407,408.3z"/>
<path class="st2" d="M408.7,406.6c-0.6,0.6-1.1,1.1-1.7,1.7c-0.5-0.5-1.1-1-1.6-1.5c0.6-0.6,1.2-1.3,1.8-1.9
	C407.7,405.4,408.2,406,408.7,406.6z"/>
<path class="st2" d="M418.4,396.8c-0.6,0.7-1.3,1.3-1.9,2c-0.6-0.5-1.2-1-1.8-1.5c0.6-0.6,1.3-1.3,1.9-1.9
	C417.2,395.9,417.8,396.4,418.4,396.8z"/>
<path class="st2" d="M406.6,394.3c0.7,0.7,1.4,1.3,2.1,2c-0.5,0.6-1,1.2-1.5,1.8c-0.6-0.6-1.2-1.3-1.8-1.9
	C405.8,395.5,406.2,394.9,406.6,394.3z"/>
<path class="st2" d="M416.6,395.4c0.6-1,1.5-1.8,2.5-0.7c0.2,0.3-0.4,1.4-0.6,2.1C417.8,396.4,417.2,395.9,416.6,395.4z"/>
<path class="st2" d="M405.4,396.2c-0.4-0.4-1.2-1-1.1-1.3c0.4-1.2,1.4-0.9,2.3-0.6C406.2,394.9,405.8,395.5,405.4,396.2z"/>
<path class="st5" d="M302.2,279.3c2.9,1.4,7.7,1.5,7.3,5.8c-0.4,4-5.5,6.1-8.2,6.4c-3.3,0.3-3.7-5.1-4.4-8
	C296.3,280.5,299.8,280.1,302.2,279.3z"/>
<path class="st2" d="M408.4,289.4c-1.4,2.2-4,2.6-6.3,4.3c1.9-2.1,3.5-3.9,5.1-5.6C407.6,288.6,408,289,408.4,289.4z"/>
<path class="st2" d="M410.5,287.7c-0.7,0.6-1.4,1.1-2.1,1.7c-0.4-0.4-0.8-0.9-1.2-1.3c0.7-0.6,1.3-1.2,2-1.8
	C409.6,286.8,410.1,287.3,410.5,287.7z"/>
<path class="st2" d="M412.6,285.9c-0.7,0.6-1.4,1.2-2.1,1.8c-0.4-0.5-0.9-0.9-1.3-1.4c0.7-0.6,1.3-1.2,2-1.8
	C411.6,285,412.1,285.4,412.6,285.9z"/>
<path class="st2" d="M411.2,284.5c0.7-0.6,1.3-1.2,2-1.8c0.5,0.4,0.9,0.8,1.4,1.2c-0.7,0.6-1.3,1.3-2,1.9
	C412.1,285.4,411.6,285,411.2,284.5z"/>
<path class="st2" d="M413.1,282.7c0.6-1.1,1.4-1.9,2.6-0.8c0.1,0.1-0.7,1.3-1.1,2C414.1,283.6,413.6,283.2,413.1,282.7z"/>
<path class="st2" d="M419.2,279.4c-0.7,1-1.5,2.1-2.7,0.7c-0.1-0.1,0.9-1.3,1.4-2C418.3,278.5,418.7,279,419.2,279.4z"/>
<path class="st2" d="M421.1,277.5c-0.6,0.6-1.3,1.2-1.9,1.9c-0.4-0.4-0.9-0.9-1.3-1.3c0.6-0.6,1.3-1.3,1.9-1.9
	C420.2,276.6,420.6,277.1,421.1,277.5z"/>
<path class="st2" d="M423,275.7c-0.7,0.6-1.3,1.2-2,1.8c-0.4-0.4-0.9-0.9-1.3-1.3c0.7-0.5,1.4-1,2.1-1.5
	C422.3,275,422.7,275.4,423,275.7z"/>
<path class="st2" d="M424.8,273.7c-0.1,1.1-0.7,1.8-1.8,2c-0.4-0.3-0.7-0.7-1.1-1c0.7-0.6,1.4-1.2,2.1-1.7
	C424.3,273.2,424.6,273.5,424.8,273.7z"/>
<path class="st2" d="M424,273c0.5-0.8,1.1-1.5,1.9-0.3c0,0.1-0.7,0.7-1.1,1.1C424.6,273.5,424.3,273.2,424,273z"/>
<path class="st6" d="M420.8,462.2c-5.1,2-10.2,2.2-15.3,0.1C410.5,459.5,415.6,459.9,420.8,462.2z"/>
<path class="st3" d="M354.7,350.1c-0.2-3.7-1.7-6.2-3.2-8.8c-1.4-2.3-0.4-4.9,1.9-6.5c1.6-1.1,3.5-1.1,5.2,0
	c2.1,1.4,2.5,3.3,1.9,5.7C359.7,343.9,358.1,346.8,354.7,350.1z"/>
<path class="st3" d="M246.4,340.1c-0.6,3.5-2.5,6.3-5.5,8.6c0.1-3.8,1.8-6.9,4.6-9.4C245.8,339.5,246.1,339.8,246.4,340.1z"/>
<path class="st3" d="M245.5,339.2c0.3-2.8-3-2.7-3.9-4.7c2.4-1.3,5.2-1.7,6.8,0.1c1.7,1.9-0.6,3.9-2,5.5
	C246.1,339.8,245.8,339.5,245.5,339.2z"/>
<path class="st10" d="M243.4,394.9c2.7,2,1.5,5.1,2.4,7.6c0.9,2.5,0.9,5.8-1.7,6.3c-2.2,0.4-5.2-1.2-7.3-2.7
	c-2.5-1.8-0.1-3.9,0.9-5.5C239.1,398.3,240.3,395.7,243.4,394.9z"/>
<path class="st9" d="M361,281.4c-0.8,2.7-1.1,5.5,0.4,8.1c-0.4,0.5-0.9,1-1.3,1.5c-3.9,1.4-4.8-3.9-8.1-3.6
	c-0.4-0.4-0.9-0.7-1.3-1.1c0.8-5.3,4.9-5.8,9-6.1C360.1,280.6,360.5,281,361,281.4z"/>
<path class="st9" d="M361.4,289.5c2.5,0.7,5,1.3,8.4,2.2c-4.1,3.5-6.9,1.9-9.7-0.7C360.5,290.5,360.9,290,361.4,289.5z"/>
<path class="st9" d="M352,287.4c-0.1,0.3-0.1,0.6-0.3,0.9c-0.9,1.7-0.8,4.6-3.9,3.9c-0.9-0.2-2-1.7-2.1-2.6
	c-0.2-3.6,4.2-0.7,4.9-3.3C351.1,286.6,351.5,287,352,287.4z"/>
<path class="st9" d="M359.7,280.1c0.7-0.2,1.8-0.8,2-0.5c0.7,0.8-0.1,1.3-0.7,1.8C360.5,281,360.1,280.6,359.7,280.1z"/>
<path class="st6" d="M188.5,398.8c1.1,3.7,10.2,3.9,5.2,10.1c-5,6.2-7.4-1.9-11.2-2.8c-0.5-0.5-1-1-1.4-1.4c0.3-1.9-0.7-2.5-2.3-3.3
	c-3.8-1.9-4.9-5-1.8-8.1c2.7-2.7,5.6-1.6,7.9,1.2c0.7,0.9,1.4,1.9,2.1,2.9C187.5,397.9,188,398.3,188.5,398.8z"/>
<path class="st6" d="M181.1,408.2c-0.7,0.8-1.4,2.4-2.6,1.4c-1.1-0.9-0.2-2.1,0.8-2.8C180,407.2,180.6,407.7,181.1,408.2z"/>
<path class="st6" d="M179.4,406.8c0.5-0.7,1.1-1.4,1.6-2.1c0.5,0.5,1,1,1.4,1.4c-0.4,0.7-0.9,1.4-1.3,2.1
	C180.6,407.7,180,407.2,179.4,406.8z"/>
<path class="st6" d="M190.1,396.7c-0.5,0.7-1.1,1.4-1.6,2c-0.5-0.5-1-0.9-1.5-1.4c0.5-0.7,1.1-1.4,1.6-2.2
	C189.1,395.7,189.6,396.2,190.1,396.7z"/>
<path class="st6" d="M188.5,395.2c0.6-0.8,1.1-1.6,1.7-2.4c0.4,0.5,0.8,1,1.2,1.5c-0.5,0.8-0.9,1.6-1.4,2.4
	C189.6,396.2,189.1,395.7,188.5,395.2z"/>
<path class="st6" d="M190.3,392.8c0.7-0.4,1.5-0.6,2,0.3c0.1,0.2-0.5,0.8-0.7,1.3C191.1,393.9,190.7,393.3,190.3,392.8z"/>
<path class="st9" d="M177.6,287c-1.2,1.5-2.4,3-4.1,5.2c-1.8-4.9-0.8-9-1-13.7c4.6,1,4.9,4.7,6.4,7.3
	C178.4,286.2,178,286.6,177.6,287z"/>
<path class="st9" d="M184.5,284c0.6-2.1,1.1-4.2,3.8-5.8c2.2,4.2,6.5,7.9-0.2,12c-0.7-1.6-1.5-3.3-2.2-4.9
	C185.5,284.8,185,284.4,184.5,284z"/>
<path class="st9" d="M178.8,285.9c0.6,0.7,1,1.7,1.7,2c1.7,0.8,3.9,1.6,2.2,3.6c-2.4,2.7-3.3-0.4-4.4-1.9c-0.5-0.7-0.5-1.7-0.8-2.5
	C178,286.6,178.4,286.2,178.8,285.9z"/>
<path class="st9" d="M185.9,285.3c-0.4,0.6-0.8,1.6-1.7,0.9c-0.3-0.3,0.2-1.4,0.3-2.2C185,284.4,185.5,284.8,185.9,285.3z"/>
<path class="st10" d="M360.8,463c0.3,2.8,0,5.2-2.4,6.8c-2.1,1.4-5.8,0.4-5.6-0.7c1.2-4.9,1.9-9.6,0.5-14.6c-0.2-0.7,2.3-1.7,4-1.1
	C359.7,454.3,360.7,457.1,360.8,463z"/>
<path class="st10" d="M296,455.6c2.7-3.4,5.7-3.4,8.2,0c2.9,4,0.2,6.7-2.7,9.2c-0.5-0.5-1.1-1-1.6-1.5c0.7-2.7,5.4-7-2.5-6.2
	C296.9,456.6,296.4,456.1,296,455.6z"/>
<path class="st10" d="M301.5,464.8c-2.3,2.2,4.4,3.4,0.7,5.7c-1.3,0.8-3.2,0.9-4.2-0.4c-2.3-2.9-0.3-4.9,1.9-6.8
	C300.4,463.8,301,464.3,301.5,464.8z"/>
<path class="st10" d="M297.4,457.1c-0.7,0.6-1.5,1.2-2.1,0c-0.2-0.3,0.5-1,0.7-1.5C296.4,456.1,296.9,456.6,297.4,457.1z"/>
<path class="st6" d="M356.7,525.5c-2.4-0.7-6.5,1.2-6.7-3c-0.2-3.7,3.3-3.9,6.2-4c3.2-0.1,6.1,1.3,6.2,4.3
	C362.6,526.7,358.8,524.8,356.7,525.5z"/>
<path class="st10" d="M295.4,400.9c-0.1-2.1-0.7-4.4,0.7-6.2c1.5-2,4-2.6,5.8-1.4c3.4,2.3-0.4,2.2-1.3,3.1c-1.6,1.4-0.1,2.2,0.8,2.7
	c3.7,2,6.1,4.6,3.7,8.9c-1.3,2.4-3.6,3.5-6.3,2.5C294.1,408.7,295.1,404.7,295.4,400.9z M302,405.3c0.1-1-0.4-1.6-1.4-1.6
	c-0.5,0-1.3,0.6-1.3,0.8c0.2,0.7,0.4,1.7,1,2C301.2,407,301.7,406.2,302,405.3z"/>
<path class="st9" d="M245.5,282c0.5-1.1,0.7-2.5,1.5-3.1c1.4-1.1,2.2,0.1,2.3,1.5c0.3,2.9-0.7,6.6,4.2,6.4c0.8,0,1.2,0.9,0.7,1.1
	c-2.2,0.9-4.6,1.3-5.7,3.8c-0.4-0.8-0.9-1.5-1.1-2.3c-0.3-1.5,0-3.1-1.5-4.2C245.8,284.2,245.6,283.1,245.5,282z"/>
<path class="st6" d="M245.5,282c0.1,1.1,0.3,2.2,0.4,3.2c-1.4,2.6-2.9,5.2-4.3,7.8c-3.2-0.9-3.4-3.5-4.2-5.7
	c0.3-0.3,0.6-0.6,0.9-0.9C243.9,290.1,242.7,282.9,245.5,282z"/>
<path class="st6" d="M235.9,285.2c-2,1.2-0.2,4.3-3.1,5.7c-0.5-4-2.1-8.5,1-11.1c1.9-1.6,2.6,2.4,3.5,4.1
	C236.9,284.3,236.4,284.7,235.9,285.2z"/>
<path class="st6" d="M237.5,287.4c-0.5-0.7-1-1.5-1.5-2.2c0.5-0.4,1-0.8,1.5-1.3c0.3,0.8,0.6,1.7,0.9,2.5
	C238.1,286.8,237.8,287.1,237.5,287.4z"/>
<path class="st3" d="M306.4,345.3c0.2,1.9-0.7,5.2-5.2,5.2c-4,0-5.2-3.1-4.6-6.5c0.6-3.6-1.3-9.4,4.4-9.7
	C307,333.9,305.5,339.7,306.4,345.3z"/>
<path class="st10" d="M236.6,522.3c0.6-4.3,0.5-9.2,6-9.2c4.2,0.1,5.2,4.1,5.1,7.7c0,4.1-0.2,8.8-5.9,8.8
	C237.4,529.6,237.2,525.4,236.6,522.3z"/>
<path class="st10" d="M351.2,130.3c0-2.5-0.3-4.9-0.1-7.4c0.5-6.4,3.7-8.3,11.1-7.5c6.5,0.7,6.2,4.9,5.2,9.5
	c-0.4,1.8-1.6,3.2-1.6,5.2c-0.1,12.3-0.1,12.3-13.1,11.8c0.7-1.3,1.4-2.5,2.2-3.8c2.7-0.6,6.9,1,7.1-3.6c0.2-5-4.2-3-6.7-3.7
	c-0.7-0.2-1.4-0.3-2.1-0.5c-0.7,0-1.4,0-2.1,0L351.2,130.3z M362.1,123.9c-0.2-1.8-1.1-2.7-3-2.6c-1.8,0.1-2.9,1.4-3.1,2.7
	c-0.3,2,1.5,2.2,3,2.3C360.7,126.4,361.9,125.8,362.1,123.9z"/>
<path class="st10" d="M324.4,138.2c-2.8,6.4-8.2,4.8-12.8,3.5c-4.9-1.4-3.3-6-2.6-9.5c0.4-2.1,0.7-4.2,0.7-6.4
	c0-10.3,2.3-11.8,13.1-9.1c0.3,1.7-1,2-2.2,2.4c-2.4,0.8-6.1-0.5-6.4,3.7c-0.4,4.5,3.5,3.3,5.8,4.2c3.3,1.3,4.8,3.8,4.8,7.2
	c-1.3-0.6-2.8-1.1-4-2c-1.9-1.6-4-1.6-6-0.6c-1.6,0.8-1.6,2.5-1.1,4c0.9,2.8,3.3,2,5.3,2.1c1.2,0.1,2.5,0.1,3.7,0.2
	C323.4,138.1,323.9,138.2,324.4,138.2z"/>
<path class="st10" d="M249.3,141.4c1.4-5.6,9-1.2,9.2-7.1c0.1-5.1-6.2-1.8-7.5-5.4c1.4-4.2,9.1-0.2,8.6-6.4
	c-0.4-4.9-6.5-1.1-8.3-5.4c3.4-2.7,7.4-2.5,10.8-0.6c3.7,2,2.4,6,1.7,9.4c-0.4,1.8-0.7,3.7-0.8,5.5
	C262.5,142.1,261.7,142.7,249.3,141.4z"/>
<path class="st10" d="M290.5,141.5c1.4-3.4,3.4-3.5,5.2-3.7c1.9-0.2,3.8-0.3,4.1-2.8c0.4-2.9-1.5-3.7-3.9-4.1
	c-6.5-1.1-8.4-5.6-6.4-11c2.5-6.7,8-4.8,12.9-3.8c0.2,2.4-1,2.8-2.2,3.2c-2.5,0.9-6.3-0.1-6.6,3.9c-0.3,4.5,4,2.6,6.2,3.8
	c4.6,2.5,5.8,6.8,4,11.2C301.3,144.7,295.9,142.2,290.5,141.5z"/>
<path class="st10" d="M393.1,131.4c7.2,8.5,7.3,8.5,13.6-0.9c2.3,4.3,2.3,8.3-1.2,10.8c-3.7,2.6-8.8,2.6-12.4,0
	C389.4,138.7,390.7,134.9,393.1,131.4z"/>
<path class="st10" d="M377.5,124.7c-1.7,0.5-2.8,3.2-4.8,2c-1.8-1.1-1.1-3.4-0.9-5.1c1-7.2,6.4-6.4,11.4-6.1
	c4.4,0.3,5.8,3.2,5.1,7.1c-0.6,3.3-2.4,4.2-5.2,2.1c-0.1-1.6-0.3-3.1-2.3-3.4C378.3,121,377.8,122.8,377.5,124.7z"/>
<path class="st10" d="M393.4,125.8c-1.4-3.9-1.5-7.8,2.7-9.6c3.7-1.6,8.2-2.2,11.5,0.6c3.4,2.8,1.8,6.5,0.5,10.5
	C401.3,119.3,401.3,119.3,393.4,125.8z"/>
<path class="st1" d="M231.3,127.4c-0.2,6.9-1.7,13.5,7.4,14.2c-5.2,2.1-10.1,2.2-12.6-2C223.7,135.7,225.6,131.4,231.3,127.4z"/>
<path class="st10" d="M239.9,128.2c0.7-7.2-3.8-9-8.6-11.1c4.1-1.7,8.5-3.5,11.4,0.6C244.8,120.6,244.9,124.6,239.9,128.2z"/>
<path class="st10" d="M384.7,131c3.8,10.4,1.1,12.6-11,9.8C377.2,137,384.6,138.1,384.7,131z"/>
<path class="st3" d="M345.3,127.6c-1.7-6.4-4.6-9.7-10.6-9.5c3.9-3.1,7.5-3.5,10.6-1.2C348.4,119.3,347.8,122.6,345.3,127.6z"/>
<path class="st9" d="M319.2,137.7c-2-0.1-4.5,0.7-5.3-2.1c-0.5-1.5-0.5-3.2,1.1-4c2-1,4-1,6,0.6c1.1,0.9,2.6,1.3,4,2
	c1.2,1.5,0.8,2.8-0.5,4c-0.5,0-1-0.1-1.5-0.3C321.7,136.8,320.5,136.6,319.2,137.7z"/>
<path class="st1" d="M354.9,138.1c-0.7,1.3-1.4,2.5-2.2,3.8c-5.4-3.2-3.6-7.4-1.5-11.6l-0.1,0c0.7,0,1.4,0,2.1,0
	c0.7,0.2,1.4,0.3,2.1,0.5C355.1,133.2,355,135.6,354.9,138.1z"/>
<path class="st6" d="M377.5,124.7c0.3-1.9,0.8-3.7,3.4-3.4c2,0.3,2.2,1.8,2.3,3.4C381.3,123.9,379.4,123.9,377.5,124.7z"/>
<path class="st6" d="M302,405.3c-0.3,0.9-0.8,1.7-1.7,1.2c-0.6-0.3-0.8-1.3-1-2c0-0.1,0.8-0.7,1.3-0.8
	C301.6,403.7,302.1,404.3,302,405.3z"/>
<path class="st9" d="M354.9,138.1c0.1-2.4,0.2-4.9,0.4-7.3c2.6,0.7,7-1.3,6.7,3.7C361.8,139,357.6,137.5,354.9,138.1z"/>
<path class="st6" d="M362.1,123.9c-0.1,1.9-1.3,2.5-3,2.4c-1.5-0.1-3.3-0.3-3-2.3c0.2-1.4,1.3-2.7,3.1-2.7
	C360.9,121.3,361.9,122.2,362.1,123.9z"/>
<path class="st5" d="M353.2,130.3c-0.7,0-1.4,0-2.1,0C351.8,130.3,352.5,130.3,353.2,130.3z"/>
<path class="st5" d="M319.2,137.7c1.3-1.1,2.5-1,3.7,0.2C321.7,137.9,320.4,137.8,319.2,137.7z"/>
</svg>
