<?xml version="1.0" encoding="utf-8"?>
<!-- Generator: Adobe Illustrator 19.0.0, SVG Export Plug-In . SVG Version: 6.00 Build 0)  -->
<svg version="1.1" id="C07" xmlns="http://www.w3.org/2000/svg" xmlns:xlink="http://www.w3.org/1999/xlink" x="0px" y="0px"
	 viewBox="0 0 842 842" style="enable-background:new 0 0 842 842;" xml:space="preserve">
<style type="text/css">
	.st0{fill-rule:evenodd;clip-rule:evenodd;fill:#ED2225;}
	.st1{fill:#ED2225;}
</style>
<g>
	<path class="st0" d="M451.2,369.2c3.2,2.4,4.9,5.7,6.3,8.3c0.4,0.8,0.9,1.6,1.2,2.3c0.4,0.6,0.7,1.2,0.9,1.6c1.5,1.3,3,2.7,4.4,4
		c0.5,0.4,0.9,0.8,1.4,1.2c14.7-13.4,49.1-41.9,56.7-48.5c8.2-7,59.4-43.9,68-50.9c8.6-7,11.6-10.2,11.6-10.2s15.9,15.3,20.9,21.5
		c5,6.2,24.7,30.4,26.2,31.9s6.5,3.2,9.5,2.9c6.6-0.8,30.6-19.5,35.9-24.4s21.3-22.6,22.5-24.8s0.9-11.7-1.5-15.1s-32.8-39.9-36-44
		c-3.2-4.1-4.5-9.1-7.5-12.5c-2.9-3.4-7.5-8.4-10.5-11.9c-3.1-3.5-9.3-11-15.2-17.8c-5.9-6.8-10.5-11.9-13.6-15
		c-3.1-3-4.7-3.4-6.7-5.5c-9.8-10-28.4-32.6-34.5-39.2c-6.1-6.6-10.3-9.7-11.7-10.5s-7-1.8-8.4-0.8s-21.1,14.3-33.2,25.4
		c-12.2,11-23.8,23.7-24.9,25.6c-1.1,1.8-0.1,6.5,0.3,8.8c0.4,2.3,1.6,4.5,4.5,7.7c2.9,3.2,20.6,23.4,27.1,31.5
		c6.5,8.2,14.8,17.9,14.8,17.9s-2.1,1.3-3.8,3.1c-1.7,1.7-5.6,5.6-15.4,15.3c-9.9,9.7-35.8,35-50,48.8s-32.7,29.8-48.4,43.1
		c-3.8,3.3-9.1,7.5-15,12.2C435.1,357.2,443.2,363.2,451.2,369.2z"/>
	<path class="st0" d="M413.2,421.6c-12-10.4-24-20.9-36-31.3c-2.7,2.2-5.3,4.2-7.5,6c-18.1,14.8-47.1,37.1-63.9,52.3
		c-16.8,15.2-52.6,46-66.7,58.5C225,519.6,193,544.7,178,557.3s-48.3,37.6-50,40.1c-1.6,2.3-1.6,6.5-2.2,8.8
		c-0.6,2.3-2.4,5.5-2.7,7.8c-0.2,2.2,10.2,15.9,15.4,21.4c5.3,5.5,15.8,15.8,17.5,16.2c2.2,0.5,16.8-0.1,19.4-1.4
		c2.7-1.4,22.4-18.9,31.3-27.8c8.9-8.9,50.1-48,60-56.7s64.1-55,81.2-69.9c17-14.9,45.7-41.1,55.2-50.2c3.3-3.2,10.1-9.6,18-17
		C418.5,426.2,415.8,423.9,413.2,421.6z"/>
</g>
<g>
	<path class="st1" d="M421,830.2c-55.2,0-108.8-10.8-159.3-32.2c-48.7-20.6-92.5-50.1-130.1-87.7C94,672.8,64.5,629,43.9,580.3
		C22.6,529.8,11.8,476.2,11.8,421s10.8-108.8,32.2-159.3C64.5,213,94,169.2,131.6,131.6S213,64.5,261.7,43.9
		C312.2,22.6,365.8,11.8,421,11.8s108.8,10.8,159.3,32.2C629,64.5,672.8,94,710.4,131.6c37.6,37.6,67.1,81.3,87.7,130.1
		c21.3,50.5,32.2,104.1,32.2,159.3s-10.8,108.8-32.2,159.3c-20.6,48.7-50.1,92.5-87.7,130.1c-37.6,37.6-81.3,67.1-130.1,87.7
		C529.8,819.4,476.2,830.2,421,830.2z M421,19.8c-54.2,0-106.7,10.6-156.2,31.5c-47.8,20.2-90.7,49.1-127.5,86
		c-36.9,36.9-65.8,79.8-86,127.5c-20.9,49.5-31.5,102-31.5,156.2c0,54.2,10.6,106.7,31.5,156.2c20.2,47.8,49.1,90.7,86,127.5
		c36.9,36.9,79.8,65.8,127.5,86c49.5,20.9,102,31.5,156.2,31.5c54.2,0,106.7-10.6,156.2-31.5c47.8-20.2,90.7-49.1,127.5-86
		c36.9-36.8,65.8-79.8,86-127.5c20.9-49.5,31.5-102,31.5-156.2c0-54.2-10.6-106.7-31.5-156.2c-20.2-47.8-49.1-90.7-86-127.5
		c-36.8-36.9-79.8-65.8-127.5-86C527.7,30.4,475.2,19.8,421,19.8z"/>
</g>
<path class="st1" d="M675.2,684.2c-3.8,0-7.3-2.1-10.7-6.4c-4.4-5.6-8.5-11.4-12.9-17.6c-0.4-0.6-0.9-1.2-1.3-1.9l-2.7,8.4l-4.7-5.6
	c-2.6-3.1-5.5-7.3-4.4-11.5c0.5-1.9,1.6-3.2,2.9-4.3l-6.2-9.1c-7.5-11-15-21.9-22.6-32.9c-0.8-1.2-1.7-2.4-2.5-3.6
	c-1.2-1.8-2.5-3.6-3.7-5.4c-4.8-7.1-11.1-11-19.3-12c-2.9-0.3-5.7-0.8-7.8-1.1c-7.4-1.2-12.7-4.2-15.9-8.8c-3.1-4.5-4-10.3-2.6-17.3
	c2.3-11.4-1.1-20.5-10.7-28.6c-1.3-1.1-1.8-1.1-2.1-1.1c-0.5,0-1.3,0.2-2.4,0.6c-4.2,1.7-8.5,2.6-12.9,2.6
	c-15.3,0-27.5-10.8-28.9-25.6c-1.2-11.9-8.1-17-17.2-22.9l-13.8,15.1l2-8.4c-1.2,0.6-2.5,1.1-4,1.1c-2.8,0-5.4-1.4-7.9-4.4
	c-7.3-8.4-15-16.7-22.4-24.8c-1.9-2-3.7-4-5.6-6.1c-6-6.5-3.2-12.1-1-14.9c0.5-0.6,0.9-1.3,1.4-2.1c-1.5-1.3-3-2.6-4.4-3.9
	c-4.9-4.4-10.1-9-15.1-13.3c-15.5-13.5-31.1-27-46.6-40.5c-13.6-11.8-27.3-23.7-40.9-35.5c-1.6-1.4-2.3-1.4-2.4-1.4
	c-0.3,0-1.1,0.6-2,2.1l-3.1,5l-9.8-13.3l4.7-2.9c-0.8-0.7-1.6-1.4-2.4-2.1c-7.4-6-14.8-11.9-22.2-17.9
	c-17.9-14.4-36.4-29.2-54.5-44.1c-0.6-0.5-1.1-0.9-1.7-1.4c-4.7-3.8-10.4-8.4-12.1-16.1c-0.1,0-0.1-0.1-0.2-0.1
	c-0.5-0.3-1-0.7-1.6-1.2c-0.8-0.8-1.8-1.5-2.9-2.3c-3.1-2.2-6.9-5-8.2-11.1c-0.4-1.9-2.6-2.1-3.6-2.1c-1.8,0-3.7,0.7-5.1,1.9
	l-2.4,1.9L180.8,224l1.5-3c1.3-2.6,1.3-4.5-2.5-7.2c-3.9-2.8-7.8-5.8-11.6-8.6c-5.7-4.3-11.5-8.7-17.4-12.8
	c-5.8-4.1-11.8-8.1-17.6-12c-5.1-3.4-10.5-7-15.6-10.6c-1.9-1.3-3.2-3.2-4.3-4.8c-0.4-0.6-0.8-1.2-1.2-1.7l-2-2.4l9.1-12.3l9.1,3.9
	l8.6-7.1l-2.2,6.6l5.8-4.8l-2,5.8l3.8-3.5l-1.8,6.8l5.4-4.9l-2.3,7.8l6.6-5.6l-1.8,5.2l3.1-3.1l-1.6,6.8l6.4-6.9l-2.8,9.7l4.3-4.1
	l-3.1,12.9l61.9,45.8c0.1-1,0.4-2.1,0.8-3.1c1.2-3,4.6-3,6-3c0.7,0,1.5,0,2.4,0.1c0.7,0,1.5,0.1,2.3,0.1c2-2.3,5.1-5.7,10.1-5.7
	c2.6,0,5.2,1,7.9,2.9c4.1,3,7.9,7.9,5,15.3l30.2,22.3c18.4,13.6,36.9,27.2,55.3,40.8l19.3,14.3c30.4,22.5,61.9,45.7,92.7,68.7
	c2.5,1.9,3.9,4.6,5.2,7c0.5,0.9,0.9,1.8,1.4,2.5c0.3,0.5,0.6,1.1,0.8,1.5c0.1,0.1,0.1,0.3,0.2,0.4c1.7,1.5,3.4,3,5,4.5
	c5.5,4.9,11.2,10,16.9,14.7c6.6,5.4,14.2,10.9,23.1,17c0.8,0.6,2.3,0.9,3.8,1.3c1.2,0.3,2.4,0.6,3.7,1c2.1,0.8,3.8,2.1,4.9,3
	c1.9,1.7,3.9,3.5,5.7,5.2c3.8,3.5,7.6,7.1,11.6,10.2c0.7,0.6,2.4,1.2,3.7,1.2c0.3,0,0.5,0,0.5,0c1.5-0.7,3-1.1,4.4-1.1
	c3.1,0,5.1,1.8,6.6,3.1c0.4,0.3,0.8,0.7,1.3,1.1c2.9,2.2,6.1,4.1,9.5,6c3.7,2.1,7.6,4.4,11.1,7.2l0.1,0.1c3.9,3.1,7,5.6,11.4,6.2
	c5.3,0.7,5.1,10.4,5,11.5c-0.1,2.5,0,3.5,0.1,3.9c0.3,0.1,1.1,0.3,3,0.3c0.8,0,1.7,0,2.9-0.1l7.1-0.4l-3.4,6.3
	c-0.9,1.7-1.7,3.3-2.5,4.9c-1.7,3.5-3.4,6.8-5.6,9.8c-2.3,3-2.4,3.2,0.2,5.8c6,5.9,10.4,13.1,14.8,20.1l0.1,0.2
	c4.4,7.1,9.1,10.5,15.7,11.4c9.9,1.3,17.2,6.8,24.4,12.7c14.3,11.8,29,23.7,43.1,35.3c12.8,10.5,26.1,21.3,39.1,32
	c3.6,3,7.4,6.7,7.5,11.6c0.2,5-3.5,9.2-7.2,12.6c-5.8,5.5-11.7,11-17.5,16.5c-7.1,6.7-14.2,13.4-21.3,20.1
	C681.9,682.6,678.5,684.2,675.2,684.2z M520.5,505.6c-0.6,0-1.4,0.2-2.4,1.4c-0.5,0.6-0.6,1.6-0.5,2.3c0.3,2.5,2.2,5.3,4.8,7.2
	c0.8,0.5,3,2.2,3.9,2.3c0.1-0.1,0.3-0.4,0.6-0.9l0.2-0.3l0.2-0.3c1-1.3,1.4-3,1-4.8c-0.4-2.1-1.6-3.9-3.4-5.1
	C523,506.2,521.5,505.6,520.5,505.6z"/>
</svg>
