<?xml version="1.0" encoding="utf-8"?>
<!-- Generator: Adobe Illustrator 19.0.0, SVG Export Plug-In . SVG Version: 6.00 Build 0)  -->
<svg version="1.1" id="H02" xmlns="http://www.w3.org/2000/svg" xmlns:xlink="http://www.w3.org/1999/xlink" x="0px" y="0px"
	 viewBox="0 0 842 595" style="enable-background:new 0 0 842 595;" xml:space="preserve">
<style type="text/css">
	.st0{fill:#ED1966;}
</style>
<path class="st0" d="M315.1,324.1L310,106c-1.5-0.9-2.5-2.8-2.5-5.1c0-1,0.2-1.9,0.5-2.7c-0.3-0.1-0.6-0.2-0.8-0.3l-23.6,1.3
	c0.3,4.6-2,7.3-4.1,8.8L315.1,324.1z M369.9,385.9l6.4-283.9c-1.3-0.9-2.2-2.8-2.2-5c0-0.8,0.1-1.6,0.4-2.3c-1-0.1-1.4-0.3-1.4-0.3
	l-57,3c-0.2,0.1-0.5,0.3-0.9,0.4c0.4,0.9,0.7,1.9,0.7,3c0,2.2-1,4.1-2.4,5l5.9,244.4l11.5,69.9c3,4,7.6,9.9,9,9.8
	c4.9-0.3,18.2-23.1,18.2-23.1s1.4-2.5,4.9-3.8L369.9,385.9z M404.7,299.3l-3.3-199.5c-0.9-1-1.5-2.5-1.5-4.1c0-0.7,0.1-1.4,0.3-2.1
	c-0.7-0.2-1.2-0.4-1.5-0.6l-15.8,0.8c-0.3,0.2-0.8,0.4-1.5,0.6c0.3,0.8,0.5,1.7,0.5,2.6c0,2.1-0.8,4-2.1,4.9l-6.5,275.4L404.7,299.3
	z M375,403.3c-0.1-1.4-0.6-3.7-2.7-5.9l-2,5C372.3,402.5,373.8,402.9,375,403.3z M321.2,411.3c-1-2.7-2.2-5.4-2.9-5.1
	c-4.6,2.2-5.2,6.1-5.2,7.7c1.2-0.3,2.9-0.6,5.4-0.6c1.1,0,2.1,0.1,3.1,0.3L321.2,411.3z M458.5,165l1.9-67.7c-1.2-0.8-2-2.4-2-4.2
	c0-0.9,0.2-1.7,0.5-2.4c-1.4-0.3-1.9-0.8-1.9-0.8l-48.7,2.6c-0.2,0.2-0.6,0.5-1.4,0.7c0.3,0.7,0.4,1.6,0.4,2.4c0,2.3-1.1,4.3-2.6,5
	l2.8,191.2L458.5,165z M463.9,97.4l-1.8,58.5L485,99.1c-0.1-1.5,0-4.6,1.2-10.8l-18.9,1c0,0-0.2,0.6-1.8,1c0.4,0.8,0.6,1.7,0.6,2.7
	C466.1,95,465.2,96.7,463.9,97.4z M403.3,387.5c1.3-0.4,3.2-0.7,6.3-0.7c1,0,1.9,0.1,2.7,0.3c0-1.7-0.7-4.7-4.9-7.2
	C403.7,382.1,403.3,385.9,403.3,387.5z M458.7,374.8c-0.1-1.8-0.9-4.6-4.9-6.9c-2.6,1.6-3.6,4-4,5.8c0.4,0,0.9-0.1,1.4-0.1
	C454.8,373.6,457.2,374.1,458.7,374.8z M447.9,374c0.5-3,3.4-6.5,4.9-8.2L458,183l-50.1,125.3l1,69.9c2.3,2.2,6.2,6.3,5.7,9.6
	c7.1,2.9,10.3,11.3,12,11.2c4.9-0.3,14.8-20.8,14.8-20.8S443.2,375.1,447.9,374z M527.6,151.1l-0.9-58.5c-0.9-0.9-1.5-2.4-1.5-4
	c0-0.6,0.1-1.2,0.2-1.8c-0.7-0.2-1.2-0.4-1.4-0.6l-16.5,0.9c0.6,3.9,1,8.7,0.2,11.4L527.6,151.1z M530.2,93.4l0.9,67l40.8,108
	l4.4-178.1c-1.1-0.7-1.9-2.2-1.9-3.9c0-0.7,0.1-1.3,0.3-1.9c-1.3-0.2-2-0.5-2.3-0.7l-38.6,2.1c-0.2,0.2-0.5,0.5-1.3,0.7
	c0.2,0.6,0.4,1.4,0.4,2.1C533,90.9,531.8,92.8,530.2,93.4z M536.6,360.1c-0.5-1.6-1.7-3.7-4.7-5.5c-2.6,1.6-3.6,3.9-4,5.7
	c1.3-0.3,3.1-0.6,5.8-0.6C534.8,359.7,535.8,359.9,536.6,360.1z M576,353.4c0.2-1.5-0.1-5-4.9-7.9c-3.1,1.9-3.9,4.8-4.1,6.6
	c0.5-0.1,1.1-0.1,1.7-0.1C572.5,352,574.8,352.6,576,353.4z M577.2,354.1l-0.4,0c0.1,0.1,0.2,0.3,0.3,0.4L577.2,354.1z M573.1,344.2
	c2,1.9,4.6,5,4.5,8.3l8.5-27.8l-11.7-30.8L573.1,344.2z M565.1,352.7c-0.1-3.3,3.4-7.5,5.1-9.4l1.4-57l-40.1-105.8l2.4,172.7
	c1.8,1.7,4.3,4.5,4.7,7.6c6.8,3.3,8.6,13.3,10.3,13.2c4.9-0.3,10.6-15.2,10.6-15.2S560.8,354.4,565.1,352.7z M598.5,284.1
	l-3.5-196.2c-0.8-0.8-1.3-2.1-1.3-3.5c0-0.5,0.1-1,0.2-1.4c-0.6-0.1-1.1-0.3-1.5-0.4l-10,0.5c-0.2,0.2-0.7,0.6-1.8,0.9
	c0.3,0.7,0.5,1.4,0.5,2.3c0,1.3-0.4,2.5-1.2,3.3l-5,186.6l14.4,38.1L598.5,284.1z M605.7,339.2c-0.4-1.7-1.6-3.8-4.7-5.7
	c-1.5,0.9-2.5,2.1-3.1,3.3l1,2.6c1.2-0.2,2.8-0.4,4.9-0.4C604.4,339,605.1,339.1,605.7,339.2z M597.1,335c0.7-1.1,1.5-2.1,2.2-2.9
	l-0.5-30.4l-6.4,20.8L597.1,335z M641.2,331.3c-0.1-1.8-1.1-4.5-4.9-6.8c-2.7,1.7-3.7,4.1-4,5.9c1-0.3,2.1-0.4,3.4-0.4
	C638.3,330,640.1,330.5,641.2,331.3z M638.3,153.3l1.3-67.1c-1-0.7-1.6-2.1-1.6-3.7c0-0.5,0.1-1,0.2-1.5c-1.2-0.2-1.8-0.6-2.1-0.7
	l-34.9,1.9c-0.3,0.2-0.7,0.4-1.4,0.6c0.2,0.5,0.3,1.1,0.3,1.7c0,1.6-0.7,3.1-1.7,3.8l3,186.2L638.3,153.3z M635,322.7l2.9-148.3
	l-36.2,117.8l0.6,39.4c1.8,1.6,4.7,4.7,5.2,8c6.9,2.2,7,10.3,8.7,10.2c4.9-0.3,9.5-14.2,9.5-14.2s1.4-2.7,4.6-4.3
	C630.5,328.2,633.3,324.7,635,322.7z M641.5,162.8l-3.5,160c2.2,2.1,5.7,6,4.8,10c1.4,2.5,0,5.7,0,5.7S636.2,357,624,357
	c-3.3,0-12-0.2-16-2.1c-1.5-0.7-2.9-1.4-4.1-2.1l41.8,110.7h-7l-49.5-130.7l-12.7,41.4l-5.5,0.2l2.5-8.1c-3.1,6-8.5,13.1-17,13.1
	c-3.3,0-13-0.9-18.4-3.9c-14.2-7.8-12.7-14-12.7-14s0.1-0.2,0.6-0.5c0.4-3,3.3-6.7,4.9-8.5L528,171.3l-27.3-72
	c-2.1-0.2-4.1-0.7-5.1-1.7c-1.3,1.1-2.9,1.8-4.4,2.2l-29.6,74.1l-5.9,192.6c2.2,2,5.2,5.6,4.6,9.3c1.8,1.6,1.2,3.5,1.2,3.5
	s-8.6,26.2-23.5,26.2c-3.3,0-20.1-0.3-25.5-3.2c-14.2-7.8-11.2-13.6-11.2-13.6s0.1-0.2,0.4-0.4c-1.1-3.1,2.3-7.7,4.3-10l0-1l-1-61.5
	l-31.8,79.6c2.1,2.8,4.5,6.6,3.8,9.1c1.8,1.6,1.2,3.5,1.2,3.5s-12.3,28.3-27.2,28.3c-2.1,0-11-1.2-17.8-2.5L351.7,547l-8,1
	l-19.3-117.3c-15.4-11.8-14.1-15.1-14.1-15.1s0.1-0.4,0.9-0.9c-1-4,3.3-8.5,5.7-10.7l-0.5-21.8l-44.8-272.3l-5,0.3l-137.2,405
	l-7.8-0.5l137.9-407.6c-1.6-5.9,5.5-17.8,11.8-18.3c6.5-0.5,8.7,0.3,9.4,0.9l25.8-1.3c0.2-0.2,1.3-1.1,4.8-1.4
	c3.6-0.3,5,0.7,5.2,0.9l56.5-2.7c0.4-0.3,1.6-1,4.7-1.3c3.2-0.3,4.7,0.5,5.1,0.8l15.5-0.8c0.5-0.3,1.7-0.9,4.6-1.2
	c2.9-0.2,4.4,0.4,5,0.7l49.1-2.4c0.4-0.3,1.7-1,4.6-1.2c3-0.3,4.5,0.5,5,0.8l23.3-1.1c1.4-0.7,3.6-1.2,6.8-1.4
	c3.9-0.2,6.3,0.2,7.6,0.7l19.7-1c0.5-0.3,1.8-0.9,4.6-1.2c2.9-0.2,4.4,0.4,4.9,0.7l38.9-1.9c0.5-0.3,1.8-0.9,4.5-1.1
	c2.8-0.2,4.3,0.3,4.9,0.7l10.3-0.5c0.7-0.3,1.9-0.8,4.2-1c2.4-0.2,3.9,0.2,4.6,0.5l36-1.7c0.7-0.3,1.9-0.7,3.9-0.8
	c2.1-0.2,3.5,0.1,4.3,0.4l16.9-0.8c0.8-0.3,2.2-0.6,4.8-0.7c3.9-0.2,10.1,4.1,8.1,14.7l70.7,308.9l-5.5,0.8L670,87.1
	c-0.7-0.1-1.5-0.2-2.1-0.4c-1-0.4-2.1-0.4-3-0.3L641.5,162.8z M643.1,86l-1.2,55.4l17.4-57.1c-0.5-2-0.6-3.7-0.5-5.3l-12.7,0.7
	c-0.2,0.2-0.6,0.6-1.9,1c0.2,0.5,0.3,1.1,0.3,1.8C644.5,83.9,644,85.2,643.1,86z"/>
</svg>
