<?xml version="1.0" encoding="utf-8"?>
<!-- Generator: Adobe Illustrator 19.0.0, SVG Export Plug-In . SVG Version: 6.00 Build 0)  -->
<svg version="1.1" id="Q52" xmlns="http://www.w3.org/2000/svg" xmlns:xlink="http://www.w3.org/1999/xlink" x="0px" y="0px"
	 viewBox="0 0 595 595" style="enable-background:new 0 0 595 595;" xml:space="preserve">
<style type="text/css">
	.st0{fill:#FCFCFC;}
</style>
<g>
	<path class="st0" d="M493.2,422c-0.1,1.7,1.1,3.3,1.4,4.9c0.4,1.8,0.7,3.7,0.7,3.7l6.7-5c0,0-3.5-4.7-5.2-5.5
		C495,419.3,493.2,420.3,493.2,422z M350,459.1l11.9,3c0,0-1.1-4.4-1.3-7.9c-0.3-4.7,7.2-12.1,7.2-12.1l0.7-4.3l-2.6-7
		c0,0-3.8-1.2-5.2-2.3c-1.5-1.3,0.9-4.8,1.8-7.5c0.9-2.7,1.8-7.3,1.9-11.5c0-4.5,1.4-11,1.4-11l-4.7-1.6L350,459.1z M414.3,467.4
		c0,0,6.7-3.8,7.9-8.1c1.2-4.6,5.2-6.7,5.2-6.7l2-12.5c0,0-3.3-2.5-5.3-3.4l-11.5,24.8L414.3,467.4z M408.5,450.8l5.5-12.6
		c0,0-2.8,0.3-4.4,0.7c-1.6,0.4-1.3,3.7-1.5,5.6C407.8,446.4,408.5,450.8,408.5,450.8z M448.1,481.3c8.1-1.1,13.8-4.3,13.8-4.3
		l8.9-68.1c0,0-2.3,0.9-3.9,1.3c-1.6,0.4-3.3-0.1-3.3-0.1s-3,13.8-3,15.9c0,2.1-2.8,8.8-3.8,10.8c-1,2-1.8,9.4-2.1,11.1
		c-0.3,1.7-3.3,2.5-3.3,2.5s-1.6,2.8-2.1,4.7c-0.5,1.9,0.2,3.8-0.1,5.9c-0.2,2.1-2.3,4.7-2.3,4.7s0.4,1.4,0.3,3
		c-0.1,1.7-0.7,3.4-0.1,5.7C448.2,478.9,448.1,481.3,448.1,481.3z M475,479.9c0,0,2.1-16.2,2.9-19.6c0.7-2.8,5-4.3,5-4.3
		s1.6-12,2.1-15.8c0.7-4.8-2.2-13.9-2.8-17.6c-0.6-3.7,2.1-6.6,2.1-6.6l-6.4,0.4l-7.7,62.8L475,479.9z M485,409.8l5.7,0.8
		c0,0,4-2.6,6.8-0.2c0,0,10,9.6,11.6,9.9c1.7,0.3,4.1-1.6,4.1-1.6L501,406.7c-3.6-3.5-7.5-1.8-7.5-1.8L485,409.8z M541.7,284.5
		c1.1-2.5,3.7-8.6,4-12.3c-4.3,1.8-8.3,3.4-8.3,3.4l-0.8,10L541.7,284.5z M84.5,409.3l-1.3,0l-7.3,26.1c1.9-0.3,4.9-0.5,9.1,0.2
		c0,0,0.6-9.2,0.5-12.5C85.4,420.6,84.9,415.1,84.5,409.3z M299.6,393.7l1.4-12.5c0.2-2.2-2-2.5-2-2.5l-3.3-0.3l1.5,15.3
		L299.6,393.7z M564.4,467.3c5.8-12.9,11.9-43.6,14.2-72.1c2.4-28.8,0.2-55.8-1.9-65.2c-0.7-3.2-1.4-6.1-2.1-8.6
		c2.4,17.4,2.8,42.1,1.9,74.4C575.8,421.6,570.1,451,564.4,467.3z M97.5,274.8c-1.1,4-3.1,7.4-5.2,11.9c3.6,0.9,7.3,1.8,11.3,3.1
		c1.4-0.6,2.5-0.9,3-0.9c2.1,0.2,2.7-2.9,4.7-3.3c2-0.4,3.1-2.1,3.1-2.1s-3.3-5.3-5.6-13.5C109,269.9,101.9,273.1,97.5,274.8z
		 M71.8,272c-1.1,2.4-2.1,4.5-3,7.3c5.8,2.7,11.2,4.3,16.7,5.7c1-2.8,2.7-4.4,3.8-7.4c0.2-0.5,0.3-1.1,0.4-1.7
		c-4.8-0.1-11.9-0.4-13.5-0.7c-2.1-0.4-2.4-3-2.4-3S72.9,272.2,71.8,272z M502.3,91l-0.2-0.5l-0.5-0.4c0.1,0.2,0.1,0.3,0.2,0.4
		C502,90.7,502.2,90.8,502.3,91z M503.6,93c0.4,0.4,0.9,0.9,1.4,1.4C504.5,93.9,504.1,93.5,503.6,93z M503.1,91.4l0.1,0.4
		c1.2,1.1,2.3,2.5,3.1,3.9c0.6,0.5,1.1,1,1.7,1.5C506.8,95.1,505.1,93.1,503.1,91.4z M503.4,129.9c4.2,0.2,8.8-1.2,10.2-5.6
		l-0.2,0.2c-0.6,1-1.1,1.7-1.7,2.3C509.6,128.8,505.7,129.5,503.4,129.9z M514.2,123.6c-0.4,2.1-2.4,6.8-10.9,6.3
		c-0.7,0.1-1.3,0.2-1.6,0.4c-1.4,0.6-3.1,2.2-3.1,2.2s4.6,3.5,7.2,4.6c2.9,1.1,8,2.8,8.8,4.5c0,0,2.6-0.4,4.2,0.1
		c3.3,1.2,3.5,2.8,5.5,4.4c1.6,1.2,9.7,4.9,12,6.7c3.5,2.6,9.6,12.3,10.6,16.6c1.2,5,2,22.9,2,31.7c0,8.2-2.4,34.1-3.4,35.9
		c-1,1.9,1.7,4-4.4,6.6l-2.8,16.6c0,0,3.4-0.9,5.1-0.9c1.8,0,9.3,0.2,11.5,1.9c1.2,0.9,1.8,5,0.9,6.3c-0.3,0.4-2.6,1.6-5.5,2.9
		c-0.2,1.9-1,8.9-4,15.1l-0.4,7.6c3.9-2.9,7.9-4.1,11.8-3.4c6,1,10.3,6.2,13.3,15.6c3.2,1.2,7.7,8.9,9.7,18.3
		c2.2,10.1,5.5,40.3,2.8,71.2c-2.4,28.2-9.6,75-21.1,84.1c-1.5,1.2-3.1,1.9-4.6,2c-4.8,7.4-10.1,12.2-12.1,13.5
		c-1.9,1.2-6.4,1.2-8.6,0.6c-11.5-3.2-16.8-31.5-18.4-67.8l-15.5,9.6c-3.3,2-5,3.9-5,3.9l-4,4.5l-0.6,8.6c0,0,1.9,1.1,2,4.9
		c0,0,7.8,1.9,7.4,8.5c0,0-1.3,23.4-1.8,26.7c-0.4,2.8-1.3,4.5-1.3,4.5s-1.7,13.7-3.1,17.5c-1.4,3.8-5.6,8.5-7.9,9
		c-2.2,0.5-8.8-1.1-10-3c-1.7-2.7-2.3-9.3-2.2-13.8c0.1-4.1,0.4-14.2,0.4-14.2l-3.2,1.2c0,0-0.3,3.5-4.1,3.5c-4.6,0.1-4.9-4-4.9-4
		l-0.3-2.8c0,0-2.6-0.2-2.5-4c0,0-8.2,3-13.8,3.8c0,0,1.2,2.2-1.4,4.2c-3.2,2.4-7.7,3.4-7.7,3.4s-1.3,3-7.2,3.6c0,0-2.4,3.6-4.5,4.2
		c-3.2,1-24.1-1.5-25.9-2.2c-3.2-1.3,0.3-4.3,0.3-4.3s-6.3-1.5-6.5-3.6c-0.2-2.1,0.8-3.2,0.8-3.2s-6.2,1.6-8.8,1.4
		c-1.9-0.1-4.8-0.7-4.8-0.7s0.9,8.2-1.5,10.5c-2.3,2.4-9.8,3.2-11.6,1.9c-1.8-1.2-4.1-9.5-4.1-9.5s-13.9-1.8-15.8-2.6
		c-2-0.7-12-3.9-12.8-5.3c-0.8-1.3,0.2-8.2,1.6-8.8c1.3-0.6,4.4-1.6,4.4-1.6l1.3-5.3l-2.9-1c-1.6-0.6-0.9-2.9-0.9-2.9l4.1-18
		c0,0-1.9-0.6-1.6-2.2l11.2-56.6c0,0-1.5-0.6-1-2.7l8.6-33c0.4-1.4,1.9-1.6,1.9-1.6s3.5-14,5.7-16.4c2.2-2.3,4.4-2.1,4.4-2.1
		s-2.1-3.4-3.2-7c-1-3.4-0.6-10.4,0.2-15.9c0.5-3.4,3.8-23.4,3.8-23.4c0.3-2,1.8-2.5,1.8-2.5l3.9-19.3c0,0-4.3-0.5-5-4.9
		c-0.4-2.8,1.1-7.7,3.1-8.8c2-1.2,25.8-5.3,29.8-5.7c4-0.4,10.3-0.8,10.3-0.8s0.4-2.9,2.1-2.8c1.7,0.1,1.7-2.1,0.5-3.6
		c0.3-1.9-11.2-3.8-13.8-17.2l-1.4,2.1c-0.8,1.1-2.4,0.9-2.4,0.9s-8.5,17.1-19,22.2c-4.2,2-8.3,3.5-10.7,3.8
		c-2.4,0.3-6.9,1.1-10.1,1.2c-3.2,0.2-9.2,0.1-12,0.1c-3.8,0-9.1,0.8-12,0.1c-2.9-0.6-11.3-2.2-16.6-2c0,0-2.1,4-3.6,6.2l0.3,2.5
		c0.3,3-2.3,3.1-2.3,3.1l-11.8,2.4c-3.2,0.7-3.4,3.7-3.4,3.7l1.3,32.6c0.1,2.1-1.5,3.5-1.5,3.5s1,14.3,1.2,16.4
		c0.3,2.6-0.4,9.9-1.1,11.9c-0.6,1.5-2.9,3.8-4,4.4c-0.9,0.5-3,0.8-3,0.8l0.2,11.5c0.1,4.2-2.7,7.8-2.7,7.8s4.5-0.7,4.9,1.4
		c0.8,5.1-3,7.2-3,7.2l0.4,4.5l7.4,0.7c0,0,3.3,0.4,2.9,4.5l-1.5,14.9l3,0c0.9-2,1.8-3.4,2.4-4.1c2.5-2.9,5.2-4.6,11.6-4.3
		c6.4,0.3,10.2,1.3,13.4,5.6c4.5,6.1,5.9,24.6,4.8,48.9c-1.4,27.9-9.1,43-14.2,46.1c-5.1,3.1-12.6,3.4-18.1,0.5
		c-5.5-3-7.9-11.9-9.1-17.4c-0.8-3.3-1.7-11-2-20.6l-12.2,0c0,0-9.9,4.3-13.3,5.6c-10.9,4.2-16.8-2.5-17.9-6.4c-1.1-3.9,0-8.7,0-8.7
		l-6.8,0.5l-1.5,7.9c-0.6,3.1-3.4,3.7-3.4,3.7l-4.7-0.2c0,0,0.7,1.8-0.7,2.7c-1.3,0.8-1.2,2-1.2,2s9.6,1.4,11.8,2.5
		c2.1,1.1,8.2,6.4,9.4,9.1c0.4,0.9,0.9,2.4,1.3,4c5.5,6.2,9,17.4,8.8,30.3c-0.3,15.3-5.4,28-12.9,33.4c-2.2,1.6-5.4,2.3-7.9,2.4
		c-2.7,0-5-0.4-7.3-2.1c-7.1-5.1-11.7-17.4-11.4-32.5c0.2-8.6,2-16.5,4.9-22.8c-0.6-2.3-1.4-5.9-1.5-9.6c0,0-12.5,0.7-24.6-0.6
		c-12.4-1.3-20.8-4.3-21.4-5.2c-0.6-0.9-0.6-4.1-0.6-4.1l-30.1-3.5c0,0,0,2.1-0.6,3.6c-0.6,1.5-7.4-0.9-7.4-0.9s1.2,4.6,0.5,8.9
		c0,0,2.2,0.7,2.6,2.1c0.4,1.4-0.7,4.3-0.7,4.3s2,1,3.2,1.5c1.2,0.6,2.3,1.9,1.8,3.8c-0.5,1.9-0.8,6-2.6,6.4
		c-1.8,0.4-15.8,0.2-17.8-0.7c-0.6-0.3-7.7-2.6-17.3-5.7c0.5,1.6,0.8,3.3,1,5.1c1.6,13.8-5.9,27.4-16.6,30.3
		c-10.8,2.9-20.8-6-22.4-19.8c-1.1-9.7,2.2-19.3,8-25.1c-14.1-4.5-25.9-8.2-25.9-8.2c-2.2-0.7-3.1-1.6-2.7-3.5l1.4-6.7
		c0.4-1.9,3.6-2.2,5.4-2.4c1-0.1,2.8-0.3,4.3-0.6l-4.1-0.6c0,0-1.8-0.4-1.1-3.3l2.2-9c0,0-0.9-1.5-0.5-2.7c0,0,13.9-42.4,15.4-43.1
		c0.8-0.4,3.6-0.4,5.9-0.2c0.1-2.2,0.1-3.9-0.2-4.6c-6-2.7-7.6-1.8-14.5-2.6c-6.3-0.7-12.9-3.4-19.2-4.5c-6.6-1.1-9.9-3.8-15.3-7.6
		c-2.7-1.9-5.2-1.9-7.9-3.7c-3.6-2.4-5.3-4.9-9.6-6.1c-3.4-1.5-7.2-2.4-7.6-6.2c-0.2-1.7,1.4-5.7,1.7-7.3c1.6-11.8,7.2-14.1,8-25.7
		c1.6-11.8,6.2-17.7,10.7-28.6c1.6-3.9,4.2-6.2,5.4-10.3c1.9-4.3,2.8-7,5.6-10.8c1.3-1.8,1.8-4,4.2-4.2c6.5-0.7,9.8,4.2,15.6,7.2
		c0.7,0.4,1.3,0.8,2,1.1c0.8-1.8,1.5-3.2,2.3-5.2c0.5-1.2,0.6-2.7,1.2-3.6c-1.4-1.7-2.8-3.5-3.7-4.4c-1.6-1.7-0.6-5.6,1.5-6.3
		c0,0-0.8-2.5-0.9-4.1c-0.2-1.6,1.6-4.9,3.7-5.6c1.1-0.4,1.1-0.8,1.2-2.5c0.1-1.7,0.5-4.3,2.7-5.7c0,0,1.8-4.9,5.2-6.4
		c0,0,1.8-2.8,6.8-4.3c0,0,0.2-2.6,1.5-3.9c1.6-1.7,4.6-1.2,4.6-1.2s-0.1-14.1-0.8-16.7c-1.2-4.4,2.2-6.4,2.2-6.4s3.2-5.3,4.5-8.5
		c1.3-3.2,5.6-16.6,6.5-19.1c0.9-2.5,4.1-8.9,6.1-11.5c3.5-4.6,19.8-20.4,28.3-22.1c10.4-2,22.5,0.7,22.5,0.7s-2.2-7.8-2.1-13.2
		c-0.3-3-0.1-5.3-1-7.2c-0.5-1-1.2-3.7-1.4-5.6c-0.2-2.2-1-4.3,0.8-5.6c0,0-0.7-3-0.4-4.7c0.3-1.7-1.5-5.7-1.8-8.1
		c-0.2-2.3,1.9-8.5,3.1-12.8c1.2-4.4,8.2-11.2,12.9-13.9c4.7-2.6,13.3-3.5,19.9-3.5c6.6,0,14.1,3.5,17,4.8
		c7.9,3.6,11.3,13.4,12.2,15c0.9,1.6-0.1,5.7,0.8,7.2c0.9,1.6,1.6,8.8,1.6,10.9c0,2.1-1.8,4.9-1.8,4.9s3-0.8,4.3,0.5
		c1.3,1.3,0.5,7.5,0.7,9.4c0.4,3.5,0.9,6,0.9,8.9c0.1,3.5-2.1,4.7-3.7,4.9c-1.6,0.2-4.2-1.9-4.2-1.9c0.5,7-1.6,13.8-1.6,13.8
		s1.6-0.6,3.3,0.4c1.8,1,0.9,1.8,2.6,2.1c1.7,0.3,4-0.2,5.7,0.8c1.8,1,4,1.9,5.7,2.5c1.7,0.5,4.8,0.7,6.5,1.7c1.8,1,5.3,3.4,7.2,3.7
		c1.9,0.3,4.5-0.2,5.8,1.3c1.3,1.5,4.3,2.4,6.1,3.8c1.8,1.5,14.8,12.6,16.4,14.8c1.6,2.2,6,5.3,6.6,7.1c0.7,1.8,4.6,6.1,6.6,8.5
		c0.7,0.9,2.3,2.9,4.1,5.3l0-0.9c0,0-0.5-0.8-0.5-1.3c-0.1-0.5,0.7-1.3,0.7-1.3s-0.2-5.3,1.5-7.2c1.3-1.5,3.4-3.1,8.2-2.6
		c2.8,0.5,5.2,0.9,7.5,1.5c2.2,0.5,3.1,2.8,2.7,4.8c-0.4,2.1-1.3,3.8-4.9,3.5c-2.4-0.2-3.4-0.4-5.8-0.6c-2.4-0.1-3.5,1.5-3.5,1.5
		s0.4,1,0.4,1.5c0,0.5-0.8,1.1-0.8,1.1l0.6,7.8c0.8,1.1,1.4,2,1.9,2.6c2.2,3.3,10.6,13.3,11.7,15.3c1.2,2,3.8,5,4.7,6.3
		c0.8,1.3-0.9,2.2-0.9,2.2s-0.9,2.1-2.5,3.1c-2.9,1.7-8,2.3-8,2.3l0.4,3.9c2.5-0.4,5.1-0.7,6-0.7c2,0,5.7,0.5,7.6,0.3
		c1.8-0.2,11.5-2.9,13.9-3.4c2.4-0.4,14.5-2.3,17.4-3.1c2.9-0.9,12.3-5.1,16.5-6.6c2.4-0.9,5.1-0.9,6-1.9c0.9-1.1,3.6-6.8,3.6-6.8
		s-4.2-2.4-4.8-4.4c-0.6-2-0.6-4.5,1.3-4.5c1.9,0,3-0.3,3.1-1.4c0.1-1.1,3.1-8.5,4.3-10.5c1.3-2,9.2-12.8,10-14.4
		c0.8-1.6,8.5-21.7,10.6-25.1c2.1-3.4,8.2-10.1,11-13.8c2.3-3.1,7.5-3.8,11.4-4.2c3.9-0.4,10.4-0.1,10.4-0.1s-0.8-1.4-0.7-2.8
		c0.2-2.1,1.6-2.3,1.3-3.5c-0.3-1.3-1.3-3.2-1.8-4.3c-0.5-1.1-0.8-2.1-0.5-2.8c0.4-0.7-0.7-1.1-1-2.4c-0.3-1.3,0.8-3.9,0.6-6.3
		c-1.1,0.2-2.4-1.4-3.7-2.1c-2.2-1.3,1.1-5.3,1.9-6.5c0.5-0.8,1.5-2.9,2.2-4.7c-0.6-0.4-1.1-0.7-1.1-0.7s0.5,0.2,1.3,0.3
		c0.3-0.7,0.5-1.4,0.5-1.8c0.2-1.4-1.1-2.2-1.2-3.6c-0.1-1.3,0.9-3.2,1.2-4.4c0.3-1.1,0.6-10.2,1.3-11.2c0,0-3.4-2.2-2.9-4.3
		c0.5-2.1,2.9-4.4,3.2-5.8c0.2-1.4,2.6-7.1,5-7.7c2.4-0.6,6.1,0.7,7.7-0.1c1.6-0.7,5.4-2.8,7.9-2.7c2.4,0.1,6.4-0.4,8.5-1.1
		c2.2-0.6,12.1-3.5,15.7-1.6c3.6,1.9,4.7,3.1,4.7,3.1s1.7-0.4,3.3,1.1c1.6,1.5,2.5,2.9,5.2,4.7c2.7,1.8,6.6,4.8,7.7,8.1
		c1.1,3.3,2.2,9.1,2,11.2c0.4,0.8,0.7,1.6,1.1,2.4c2.4,2.3,4.7,5.2,6.1,8.2c0.7,0.6,1.5,1.2,2.2,1.7c3.2,2.3,6.8,10.6,6.2,15.4
		c-0.1,0.8-0.3,1.7-0.5,2.5C516.5,118.5,516.3,121.2,514.2,123.6z M514.4,122.7c0.7-1,1.1-2.1,1.3-3.4
		C515.3,120.4,514.8,121.6,514.4,122.7L514.4,122.7z"/>
</g>
</svg>
