<?xml version="1.0" encoding="utf-8"?>
<!-- Generator: Adobe Illustrator 19.0.0, SVG Export Plug-In . SVG Version: 6.00 Build 0)  -->
<svg version="1.1" id="H02" xmlns="http://www.w3.org/2000/svg" xmlns:xlink="http://www.w3.org/1999/xlink" x="0px" y="0px"
	 viewBox="0 0 230.2 512" style="enable-background:new 0 0 230.2 512;" xml:space="preserve">
<style type="text/css">
	.st0{fill:#1EADCB;}
	.st1{fill:#121615;}
	.st2{fill:#AF4D26;}
	.st3{fill:#82903B;}
	.st4{fill:#2FB2CD;}
	.st5{fill:#141818;}
	.st6{fill:#F8FBF9;}
	.st7{fill:#31312E;}
	.st8{fill:#1DABCC;}
	.st9{fill:#8D4826;}
	.st10{fill:#723C23;}
	.st11{fill:#918B36;}
	.st12{fill:#7F833A;}
	.st13{fill:#2CADCA;}
	.st14{fill:#1A2022;}
	.st15{fill:#1B1E1F;}
	.st16{fill:#9C8D6B;}
	.st17{fill:#7D944B;}
	.st18{fill:#787845;}
	.st19{fill:#172322;}
	.st20{fill:#141D1F;}
	.st21{fill:#44362E;}
	.st22{fill:#AA6229;}
	.st23{fill:#1B1F21;}
	.st24{fill:#4A4442;}
	.st25{fill:#857F7E;}
	.st26{fill:#255D73;}
	.st27{fill:#9C8132;}
	.st28{fill:#B57D33;}
	.st29{fill:#8EC5BC;}
	.st30{fill:#DBD1A9;}
	.st31{fill:#705529;}
	.st32{fill:#D2C289;}
	.st33{fill:#6D6561;}
	.st34{fill:#695F3D;}
	.st35{fill:#DFE3DF;}
	.st36{fill:#6A713F;}
	.st37{fill:#A89876;}
	.st38{fill:#7DBABF;}
	.st39{fill:#363736;}
	.st40{fill:#41403E;}
	.st41{fill:#3F4342;}
	.st42{fill:#29323C;}
	.st43{fill:#1B1F23;}
	.st44{fill:#403E44;}
	.st45{fill:#08323F;}
	.st46{fill:#184256;}
	.st47{fill:#054E69;}
	.st48{fill:#208AA3;}
	.st49{fill:#985425;}
	.st50{fill:#8E993A;}
	.st51{fill:#191B18;}
	.st52{fill:#91993B;}
	.st53{fill:#936E2E;}
	.st54{fill:#867C32;}
	.st55{fill:#906729;}
	.st56{fill:#98AF51;}
	.st57{fill:#77873D;}
	.st58{fill:#6E5E30;}
	.st59{fill:#44502C;}
	.st60{fill:#908733;}
	.st61{fill:#A4BFA4;}
	.st62{fill:#96742E;}
	.st63{fill:#1B6C7E;}
	.st64{fill:#1EAFCF;}
	.st65{fill:#31B2CC;}
	.st66{fill:#277F94;}
	.st67{fill:#87913B;}
	.st68{fill:#1386A5;}
	.st69{fill:#149BBA;}
	.st70{fill:#E7EFED;}
	.st71{fill:#BBDFD6;}
	.st72{fill:#707275;}
	.st73{fill:#95B1A9;}
	.st74{fill:#AC4A26;}
	.st75{fill:#161A18;}
	.st76{fill:#8FA443;}
	.st77{fill:#8FCFCB;}
	.st78{fill:#1A2320;}
	.st79{fill:#66C1C3;}
	.st80{fill:#9B8A33;}
	.st81{fill:#A44E26;}
	.st82{fill:#976029;}
	.st83{fill:#1F416C;}
	.st84{fill:#596C37;}
	.st85{fill:#7E9341;}
	.st86{fill:#656F36;}
	.st87{fill:#427962;}
	.st88{fill:#3D8177;}
	.st89{fill:#6A7F3C;}
	.st90{fill:#3D846A;}
</style>
<g>
	<path class="st0" d="M13.3,317.6c-1.4-3,0.3-6.2-0.7-9.2c-2.4-2.9-1.8-6.4-1.7-9.7c0.2-5.8-0.1-11.3-4.3-15.8
		c1.3-11.8,2.5-23.6,2.6-35.5c0-1.3,0.1-2.5,0.9-3.6C14,233.8,20,225,27,216.9c1.5-1.8,3.3-6.5,7.1-2c0.6,7.3,1.7,14.6,1.7,21.9
		c0.1,19.1,2,38.2,2.7,57.3c2.4,8.3,0.1,16.9,1.8,25.2c0.6,4.8,1.1,9.7,1.1,14.5c-0.3,1.3-1.2,2.9-2.3,2.7c-4.5-0.7-8,1.9-11.8,3.3
		c-3-8-3.6-16.2-2.8-24.6c0.2-0.8-0.8-0.5,0-0.3c0,0-0.1,0.2,0,0.5c0.2,3.2-1.2,4.3-4.2,3.3C18.1,317.9,15.9,316.8,13.3,317.6z"/>
	<path class="st1" d="M84.5,476.4c3,5.6,1.8,13.1-3.9,18.7c-2.9,2.9-4.8,11-12.3,3.2c0.8,3.9,3.1,4.9,4.8,6c2.9,1.8,1.9,4.2,0,4.7
		c-4.9,1-9.5,5.2-14.9,1.6c-2.5-1.7-4.7-2.6-7.9-0.5c-3.9,2.6-15.7,0-16.4-4c-1.5-8.1-9.9-14-7.1-23.2c2.3-2.6,5.3-4.3,8.2-6
		c2.7-1.7,5.1,0.1,7.5,0.9c2.6-0.1,5.1-1.1,7-2.4c10.8-7.4,21.7-2.3,32.5-0.8C83.2,474.6,83.9,475.5,84.5,476.4z"/>
	<path class="st2" d="M34.3,102.1c7.3-9.1,15.9-16.9,24.8-24.4c1-0.4,2.2-0.6,2.8-1.3c5.1-6.8,11.6-5.3,18.1-2.9
		c4.2,1.5,8.6,2.8,11.8,6.3c-1.1,5.5-4.8,10.2-5,16c0,0.6-0.6,1.5-1.1,1.4c-3.8-0.8-5.3,0.6-6.2,4.5c-0.8,3.4-5.6,3.6-7.6,6.1
		c-3.4,4.2-8.1,6.1-12.8,7.5c-6.4,1.8-12,4.7-17.4,8.3c-2.4,1.6-5.1,1.8-7.8,2.2c-6.4-1.4-8.9-8.8-5.2-14.9
		C30.5,107.9,32.8,105.3,34.3,102.1z"/>
	<path class="st3" d="M155.6,123.3c0.5,3.4-2.4,5-3.7,7.5c-0.4,0.6-0.8,0.7-1.4,0.4c-2.5-6.6-9.4-9-13.5-14
		c-0.5-6,2.9-11.1,3.6-16.9c0.5-4.2,1.1-8.2,0.3-12.3c-1-3.3-2.5-6.3-6.2-7.4c-6.1-1.9-8.6,2.9-11.6,6.4c-3.2,3.7-4.5,9.3-10.3,10.4
		c-4.5-1.1-3.3-3.9-1.3-6.1c2.5-2.8,5.7-4.7,5.1-9.3c-0.2-1.8,2.8-2,4.3-3.2c-4.1-2.2-7.4,0.8-11,1.1c-1.3-0.5-1.8-1.4-1.9-2.7
		c0-0.9,0.3-1.7,0.6-2.5c-0.8-3.6-2.7-1-4-0.6c-2.9,1-5.2,1-6.2-2.6c1.3-1.8,1.9-3.6,1-5.8c-0.5-1.2-0.3-2.5,1-3.3
		c1.1-0.6,2.2-0.2,2.7,0.7c2.2,3.8,5,1.4,6.8,0.2c4.1-2.8,10.2-4,9.7-11c0.3-1.4,1.3-1.8,2.6-1.8c3.2,1.8,5.6,1.2,7-2.3
		c4.9-1.8,7-7.8,12.6-8.7c2.8,1.9,0.8,3.3-0.4,5.1c-1.4,2.2-5.1,3.3-3.5,7c2.6,4.1,2.6,4.1-1.9,7.2c4.1,1.5,5.2,6,10,7.1
		c2.7,0.6,3.5,4.9,3.7,8.1c0.2,2.3-0.1,4.6,2.4,5.9c1.1,1.4,1.2,3,1.4,4.7c0.1,1.9,1.4,0.3,2,0.7c1.1,0.7,1.3,1.8,1.4,3
		c-0.9,5.1-1,10.3-0.9,15.5c0.1,4.8,0.3,9.5-1.8,14.1C153.4,119.9,153.6,121.9,155.6,123.3z"/>
	<path class="st4" d="M84.5,476.4c-7.4-1.7-15.3-1.2-22.4-4.5c-2.2-1-3.8,1.1-5.6,2.1c-4.7,2.6-9.4,5-14.9,5.5
		c-10.9-11.5-3.9-22.6,0.8-33.8c-6.7,9.8-8.9,20.5-7.2,32.2c-2.7,1.9-4.9,4.5-8.4,5.1c-2.2-9.7,0.3-18.7,4-27.4
		c2.6-6.1,6.5-11.7,9.8-17.5c0.2-0.1,0.4-0.4,0.5-0.4c4.2,3,8.1,4,11.4-1.3c0.3-0.5,1.1-0.4,1.7-0.2c1.6,1.9,0.5,4.2,0.9,6.2
		c0.5,2.5,1.6,5,1.2,7c0.6-2-0.7-4.5-1.1-7c0.1-1.5-0.8-3.2,0.7-4.5c5.1,4.4,10.8,8,16.1,12.1C80.2,456.5,84.1,465.8,84.5,476.4z"/>
	<path class="st5" d="M2.6,223.6c-3.4,2-2.5-0.8-2.5-2.3c-0.1-14.5,2.5-28.7,5.8-42.8c0.3-1.4,0.6-2.9,0.8-4.3
		c3.8-4.7,6.1-9.9,4.4-16.1c0.6-2.4,1.3-4.8,1.9-7.2c3.5,0.5,2.7-3.9,5.5-4.7c2.8,2.2,1.7,5.1,1.1,7.9c-1.2,5.9-3.6,11.5-3.7,17.7
		c1.2,3,3.5,4.5,6.7,4.7c2.3,0.2,4.5,0.6,6.5,1.9c4.2,2-0.5,6.4,2.3,8.8c2.4,1.1,4.9,0.6,7.4,0.8c1.7,0.1,4.1-0.4,4.8,0.8
		c3.5,6.4,6.5,1.6,9.7-0.2c0.9-0.5,1.9-0.9,2.9-1.1c2.5-0.1,2.6,2.3,3.8,3.6c-0.2,1.6-1.5,2.3-2.6,3c-3.3,1.4-6.6,2.9-9.3,5.2
		c-2.1,1.3-3.8,3.1-5.5,4.9c-1.7,2-4.4,3.2-5.4,5.9c-0.3,0.8-0.6,1.5-1.1,2.2c-1.4,1-3.3-0.4-4.7,1c-4.3,4.6-9.1,8.7-13.8,13
		c-1.9,1.8-3.9,4-7.2,2.9c-3.3-2.8-4.8-4.8,0.7-7.3c4.5-2,3.7-8,6.3-11.7c0.7-0.9-1.1-2-2.4-2.2c-1.7-0.3-3.3-0.6-4.2-2.2
		c-0.8-1.2-0.5-2.9-2.2-3.9C5.1,208.7,7.1,217,2.6,223.6z"/>
	<path class="st6" d="M53.4,436.7c-5.8,7.3-5.8,7.3-12.8,1.3c-4-19.9-6.8-39.9-9-60c-0.3-4.6-1.7-9.1-1.3-13.8
		c-0.4-1.3-0.8-2.7-1.2-4c-0.4-4.7-0.5-9.4-1.6-14c-0.5-2.1-1.1-4.4,0.6-6.4c2.2-3.6,4.4-7.2,9.5-3.6c0.5,0.3,1.8-0.6,2.7-0.9
		c2.7,2.3,1.4,5.6,1.7,8.3c1,12.3,3.1,24.5,4.2,36.8c1.2,10,3,20,4.4,30c1,6.3,1.5,12.7,3.2,18.9C53.4,431.7,54.7,434.2,53.4,436.7z
		"/>
	<path class="st7" d="M158.6,3.1c7,3.5,14.9,5.7,20.1,12.1c1.6,1.9,3.7,1.7,5.7,1.8c8.2,0.3,16.3,0.9,24.3,3
		c-3.4,2.9-7.3,2.3-9.4,1.9c8.3-1.4,17.2,2.5,26.1,6.5c1.1,0.9,2.2,1.8,4.8,4c-7.2,0-13-0.6-18.6,0.1c-10.2,1.2-21,1-29.7,7.6
		c-4.4,3.3-8.2,7.5-12.2,11.2c-0.4-0.4-0.8-0.9-0.9-1.5c-0.2-2.4,1-3.9,2.9-5.1c0.7-0.4,0.3-1.2,0-0.4c-0.2,0.4-0.7,0.4-1.1,0.5
		c-3.2-0.1-5.4-1.9-7.7-3.8c-1.2-1.2-2.8-2.1-3.6-3.8c2.2-2.9-2-0.8-1.8-2.3c-1.7-2.5-1.6-4.3,2-4.5c8.4,0.7,16.9-0.4,24.1,0
		c2.1-0.3,1.1-1.5,1.4-0.8c0.1,0.3,0,0.5-0.4,0.5c-5.6,0.1-11.1,1-16.6-0.6c-0.5-0.3-0.9-0.8-1.2-1.4c1.4-3.7,5.3-2.7,7.8-4.4
		c1.2-0.8,3-1.4,2.3-3.2c-0.5-1.4-2.2-1.1-3.4-0.9c-6.9,1.1-12.8-0.9-17.9-5.7c-2.3-2.2-5.6-2.7-8.6-3.6c-0.8-0.4-1.6-0.9-2.2-1.5
		c-1.2-2.4-6.6-2.5-4.6-6.3c1.5-2.8,5.3-1.3,8.1-1.4C151.8,1.1,155.1,3,158.6,3.1z"/>
	<path class="st8" d="M35.2,212.1c0.2-0.8,0.3-1.6,0.5-2.4c3.9-3.4,4.4,0.4,5,2.7c1.3,4.5,1,9.1,1.3,13.7c0.6,8.4,2.8,16.6,2.9,25
		c0,1.8,0.8,3.2,2.3,4.2c4.6,4.5,4.9,10.7,6.4,16.4c0.5,1.9,0.1,5.3-3.6,5.6c-4.6-2.9-1.1-8.4-3.5-11.1c1.1,3.7,0.8,8.5,2.5,13
		c0.3,8.3,0.8,16.6,3.8,24.4c-3.3,2.2-1.4,5.5-1.8,8.4c-0.2,0.8-0.2,1.7-0.6,2.4c-2.2,3.1-4.9,6.7-8.8,5.7c-3.8-1-1.7-5.4-2.2-8.2
		c-0.2-7-0.6-14-1.9-20.9c0-20.8-2.3-41.4-2.1-62.2C35.3,223.2,32.9,217.6,35.2,212.1z"/>
	<path class="st9" d="M150.6,130.8c0.4,0,0.9,0,1.3,0c-0.5,7.3-4.8,13.2-7.8,19.5c-6,12.3-14,23.3-23.7,33.1
		c-9.3,9.3-21.1,11.2-33.1,13.5c-3.2-3.9,0.7-5.1,2.7-5.1c2.9,0.1,4.2-1.3,6.1-2.9c3-2.5,7.5-1.4,11-3.4c1.7-1,3.7-1.6,5.6-2.5
		c3-1.5-1.1-1.6-0.4-2.6c-1.1-6.2,3.9-9.5,7.1-13.3c4.6-5.5,8.2-11.5,11.8-17.6c0.4-0.7,0.5-1.7,1.1-2.2c6.7-5.9,5.1-11.2-1.1-16.2
		c-0.3-1.3,0.1-2.4,1-3.3c1.5-1.2,3.5-1.6,4.9-2.8c3.2-2.9,5.8-1.4,7.3,1.3C145.8,129,148,130,150.6,130.8z"/>
	<path class="st10" d="M112.7,180.4c2,0,2.7,1.7,3.6,2.6c-2.8,4.9-10.9,0.6-12.8,7.5c-5.3-5.7-7.1,3.8-11.3,2.6
		c-3.2-0.9-5,0.2-4.8,3.8c-0.4,0.1-0.8,0.3-1.2,0.4c-2.7,1.6-4.2,4.7-7.5,5.5c-0.4,0.4-0.9,0.7-1.4,0.9c-0.6,0.1-1.1,0.1-1.7-0.1
		c-1.8-1.3-3.8-2.2-6.1-2c-1.2-0.2-2.1-0.8-3-1.6c-4.4-3.2-3.1-8-3.3-12.4c4.8-4.3,10.3-7.2,16.1-9.9c3.2-0.8,5.5-2.8,7.9-4.8
		c1.9-1.6,3.7-3.5,6.6-2.8c1.8,2.5-0.1,4.5-1.2,6.4c-2.7,4.4-2,7,3.3,7.8c1-0.4,2-0.9,3.1-1.1c4.6,1.2,8.4-0.6,12-3.1
		C111.6,179.9,112.2,180.1,112.7,180.4z"/>
	<path class="st11" d="M22.6,123c0.1-1.7-0.1-3.6,1.7-4.6c1.7,0.2,1.6,1.7,1.9,2.8c2.2,7.7,4.3,8.7,12.2,5.7
		c3.1-2.2,6.5-4.1,10.4-3.5c6.4,1.1,10.7-5.3,16.9-4.5c3.5,0.9,5.3-1.8,7.5-3.7c3.8-3,7.8-5.4,13-4.7c0.7,1.3,0.4,3-0.6,3.4
		c-5.5,2.5-7.7,7.5-10.3,12.4c-0.7,1.4-2.5,2.2-3.8,3.1c-1.7,1.3-3.5,2.4-5.8,1.6c-2.1-0.8-4.2-0.3-6,0.9c-3.2,2.2-6.2,4.3-9.6,0.2
		c-0.7-0.9-2.7-0.8-3.6-0.1c-3.4,2.8-8.3,2.8-11.5,5.9c-3.4,1.1-5.2,3.9-7.4,6.5c-2.5,3-4.4,3-6.5-0.8c-2.1-3.6-2.9-6.9-1.2-10.6
		C21.5,130,21.9,126.5,22.6,123z"/>
	<path class="st12" d="M74.5,62.5c5.3-8.9,6.8-19.3,11.5-28.4c4.7-9,9.1-18,17.5-24.1c2.1,1.7,2,4.5,3.1,6.6
		c0.3,2.8-1.7,3.8-3.6,4.9c-5,2.6-8,6.8-8.4,12.4c-0.4,5.3-4.9,8.8-5.2,14c-0.1,0.6-0.2,1.1-0.4,1.7c-1.1,5,1.1,10.7-3.4,15
		c-0.9,0.8-1.4,2-2.7,2.5C79.4,67.2,76.3,66.1,74.5,62.5z"/>
	<path class="st13" d="M50.5,276.8c5.5-8.1-2.3-13.6-3.8-20.3c-1.8-1.1-2.3-3-2.3-4.9c-0.6-12.8-3.1-25.3-3.8-38.1
		c-0.2-3.5-0.8-7.2,1.1-10.5c1.2-2,3.1-3.3,5-4.6c2.8,5.1,1.8,10.8,2.5,16.2c0.4,3.4,0.6,7,0.5,10.5c0.1,0.9,0.5,1.7,0.7,2.5
		c-2,16,2.7,31.2,4.8,46.8c0.1,1,0.2,2.1,0.3,3.1c-1.1,2-2.8,1.7-4.5,1C50.4,278.1,50.2,277.5,50.5,276.8z"/>
	<path class="st14" d="M40.3,312.4c0.1,2.3,0.3,4.6,0.4,7.4c4.5-1.6,7.2-4.8,10.1-7.8c2.4,8.2,2.5,16-4.4,22.4
		c-3,2.8-4.1,6.1-3.6,10.1c1.2,9.9,2.4,19.9,3.5,29.8c0.2,2.1,0.1,4.2,0.1,6.2c-0.3,0-0.6,0-0.9,0c-2.4-15.1-4.2-30.2-5.5-45.4
		c-0.7-5.1-1.5-10.2-1.2-15.4C38.9,317.3,37.1,314.4,40.3,312.4z"/>
	<path class="st15" d="M28.1,339.7c-0.5,5.4,1.3,10.5,1.7,15.7c0.1,1.6,1.8,3.5-0.6,4.7c-0.8-4.8-2.2-9.6-2.4-14.5
		c-0.2-3.8-1.6-6.2-4.5-8.2c-7-4.8-9.8-11.5-9-19.9c0.3-2-0.2-4.2,3.5-2.3c2,1.1,4,2.8,6.5,3.1c1.3-2.1-0.3-4.7,1.4-6.5
		C25.8,321.2,26.9,330.4,28.1,339.7z"/>
	<path class="st16" d="M75.9,203c0.4,0.2,0.9,0.3,1.3,0.5c6.6,0,12,3.4,17.5,6.5c1.3,0.7,2.7,2.5,1.7,3.7
		c-3.7,4.8-4.6,11.5-10.2,14.9c-1.2-3,2.8-6.4,0.7-8.6c-5.3-5.6-11.6-10.3-18.5-14c-2.4-1.2-5.1-1.9-7.6-2.8
		c0.5-4.2,3.1-4.5,6.4-3.6c0.8,0.4,1.6,0.8,2.5,1.2C71.1,203.1,73.7,202.5,75.9,203z"/>
	<path class="st17" d="M22.6,123c0.4,3.4,0.4,6.6-1.2,9.8c-2.4,4.9,0.3,9,2.9,13.2c4-2.6,4.7-9.3,11-8.9c0.2,0.2,0.3,0.5,0.5,0.7
		c-2.3,6.8-7.9,11.2-11.9,16.8c-2.6,2-3.4,4.8-3.9,7.8c-0.8,4.1-1.1,8.5-5.7,10.4c-0.4-7,2.9-13.2,3.9-19.9c0.3-1.8,0.9-3.6,0.6-5.6
		c-2.3,0.6-1.5,6.6-5.8,3.4c3-4.5,2.9-10,4.9-14.8C19.7,131.8,21,127.4,22.6,123z"/>
	<path class="st18" d="M106.4,17.1c-4.3-1-1.8-4.7-2.8-7c0.1-0.5,0.3-0.7,0.8-0.7c4.5-1.9,9.5-2.3,13.6-5.1
		c5.8-3.8,12.4-3.2,18.8-3.6c-0.9,3.6-3.2,1.9-4.8,1.8c1,0.9,3.1,0.8,4.8,1.5c2,0.8,4,1.7,2.6,4.5c-4.3,2-9.3,1.6-13.6,3.6
		c-5.6,0-10.8,1-15.4,4.4C109.2,17.5,107.9,18.3,106.4,17.1z"/>
	<path class="st19" d="M169.5,49.6c0.1,0.6,0.1,1.1,0.2,1.7c-7.8,11.4-8,23.7-6.8,37.1c0.8,9,0.2,18.9-4.5,27.5
		c-2.6,0.3-2.5-1.8-2.5-3.3c-0.2-4.8-1.3-10.1,0.3-14.3c1.8-4.8,0.5-9.1,0.8-13.5c-0.6-7.4,0.8-14.5,2.8-21.5
		C161.4,57.5,163.4,52.1,169.5,49.6z"/>
	<path class="st20" d="M50.7,278c1.6-0.1,3.2-0.3,4.8-0.4c0.6,2.8,0.8,5.8,1.8,8.5c2.5,7,0.5,12.6-4.6,17.5c-1-0.2-2.7-0.3-2.8-0.7
		c-1.4-7.9-3.2-15.7-1.9-23.8C48.7,278.2,49.6,278,50.7,278z"/>
	<path class="st21" d="M11.1,205.7c1.4,0.7,2.7,0.4,4.2,0.3c3.3-0.2,5.1,4.1,4.3,4.6c-5.1,3.5-2.3,12.5-10.4,14
		c-2.3,0.4,1.7,2.3,0.9,3.9c0.3,0.3,0.4,0.6,0.3,0.9c-0.1,0.3-0.3,0.4-0.4,0.4c-3.3-0.8-3.8-3.8-5.1-6.2
		C3.2,215.6,5.4,209.2,11.1,205.7z"/>
	<path class="st22" d="M91.2,80.4c-6.3-3.4-12.8-6.3-19.9-7.5c-2.2-0.4-4.1,0.3-5.6,2c-1.7,2-3.7,3.4-6.5,2.8
		c3.4-3.3,6.9-6.7,10.3-10c3.5-3,6.9-3.1,10.7-0.1c2.4,1.9,5.7,2.4,8.7,3.2c3.4,0.9,6.3,2.3,7.8,5.7c0.1,0.6,0,1.2-0.2,1.7
		C94.9,79.7,93.8,82,91.2,80.4z"/>
	<path class="st23" d="M6.6,282.8c5.6,1.4,6.6,5.3,6.1,10.5c-0.5,5-0.1,10-0.1,15c-5.6,0.1-8.7-3.5-8-9.4
		C5.2,293.6,5.9,288.2,6.6,282.8z"/>
	<path class="st24" d="M86.1,228.5c3.2-3.9,3.4-9.5,8.1-12.7c2.3-1.6,1.9-3.8-1.2-5.1c-5.3-2.3-10.6-4.7-15.8-7.1
		c0.1-0.5,0.2-1.1,0.3-1.6c10-2.2,16.6,4.9,24.3,9c1.9,1,0.9,2.9-0.5,4.1c-0.9,0.8-1.8,1.4-2.7,2.1c-1.3,1.1-2,2.6-2.7,4.1
		c-0.8,1.5-1.6,2.9-3.1,3.8c-0.8,2.4,1.4,6.5-4.4,5.9c-1.8-0.2-0.1,3.9-1.3,6C84.3,234.2,85.4,231.4,86.1,228.5z"/>
	<path class="st25" d="M99.9,214.6c0.1-1.1,3.6-1.7,0.9-3c-7.5-3.8-14.3-9.5-23.3-9.7c3.3-0.6,4.9-4.6,8.6-4.5
		c-1.2,3.7,2.2,3.2,3.8,4c7.9,3.8,15.9,7.4,21.6,14.5c-0.8,1.8,1.8,3.9-0.3,5.7C105.8,221.8,102.7,218.4,99.9,214.6z"/>
	<path class="st26" d="M10,229.8c0-0.4,0.1-0.8,0.1-1.2c7.9-2.6,12.1-10,18.6-14.4c1-0.7,1.6-1.9,2.9-2.1c1.4,0,1.9,0.5,0.9,1.8
		c-8.3,8.4-16.1,17.2-19.8,28.8c-0.6,1.8-1.3,1.7-2.6,1.3C9.6,239.1,11.2,234.5,10,229.8z"/>
	<path class="st27" d="M96.3,76.7c-3.2-3.4-7.7-4.6-11.9-5.6c-2.8-0.6-4.8-1.5-6.8-3.4c-2.7-2.6-5.5,0-8.2,0.1
		c1.7-1.7,3.4-3.5,5.1-5.2c3,1.3,5.6,3.6,9,3.8c3.2,0.9,6.3,2,9.8,1.4c2.6-0.4,5.1,0.3,5.4,3.8c1.9,2.2,3.7,2.6,6.2,0.4
		c1.2-1.1,3.4-1.7,5.2-0.2c1.5,1.2,1.5,2.4-0.1,3.5C105.7,77.4,101.3,80,96.3,76.7z"/>
	<path class="st28" d="M39.2,128.5c-3.8,3.3-8,0.6-12,0.9c-2.1,0.2-1.2-1.4-1.4-2.6c-0.4-2.8-1-5.6-1.5-8.4
		c1.8-6.4,4.9-11.9,10-16.3c-0.3,3.7-2.5,6.5-4.4,9.5c-3.2,5.1-1,12,4.2,13.1C36.2,125.5,39,125.2,39.2,128.5z"/>
	<path class="st29" d="M158,84.2c0,0.2,0.1,0.4,0.1,0.6c2.9,8.5-2.7,16.6-1.1,25.1c0.4,2-0.6,4.2,1.2,5.9c-0.4,2.7-1.1,5.2-2.7,7.5
		c-1.7-2.2-2.3,1-4.2,0.6c4.6-11.7,1.6-24.1,4.3-36C157.3,87.3,155.1,84.2,158,84.2z"/>
	<path class="st30" d="M99.9,214.6c4.1,1.6,6.9,5.4,11.2,6.6c1.7-0.2,1.9,1.4,2.7,2.3c-0.8,2.4-1.1,5-3.6,6.3
		c-5.1-0.4-8.6-4.3-12.9-6.5c-2.3-1.2-1-4.5,0.1-6.8C98.3,215.9,99.1,215.2,99.9,214.6z"/>
	<path class="st31" d="M67.1,199.6c-2.2,1.1-5.5,0.2-6.4,3.6c-0.9,1.2-1.8,2.5-2.8,3.7c-2.8,1.2-4.5,0.7-4.2-2.8
		c1.4-3.6,0.2-8,3.3-11.1c0.9-0.8,1.7-1.5,2.6-2.3c0-2.8,1.2-3.5,3.6-2C66.3,191.7,63,197,67.1,199.6z"/>
	<path class="st32" d="M97.5,216.5c-0.2,3.8-0.6,7,5.1,7.5c2.7,0.2,5.1,3.7,7.7,5.8c2.8,4.6-1.1,6.5-3.6,8.9c-0.6-0.2-1-0.6-1.4-1.1
		c-2-3.9-4.8-7.2-7.9-10.3c-1.7-1.7-3.9-3.4-2.5-6.4C95,219,95.8,217.5,97.5,216.5z"/>
	<path class="st33" d="M225.4,28.4c-3.4,2.5-5.5-1-8-1.9c-7.7-2.9-15.5-4.3-24.2-2.7c0.1-2.8,2.1-2.6,3.8-2.8
		c3.9-0.5,7.9,0.9,11.7-0.9C214.9,21.6,221,23.4,225.4,28.4z"/>
	<path class="st34" d="M139.3,8.1c-1.1-4.2-6.7-1.5-8-5.5c1.5-1.6,4.1,0.2,5.5-1.8c7.5-1,14.9-1.6,21.8,2.3
		c-4.7,1.8-9.3-2.4-14.1-0.2c-1,0.5-3-1.7-3.6,0.6c-0.7,2.5,2.2,1,2.9,2.2c0.5,0.9,1.2,1.7,1.9,2.5C143.5,10,141.4,10.1,139.3,8.1z"
		/>
	<path class="st35" d="M11.1,205.7c-4.3,5.2-7.1,10.8-6.2,17.8c-0.8,0-1.5,0-2.3,0c1.4-8.7,2.9-17.4,4.4-26.7
		C10.9,199.4,11.8,202.2,11.1,205.7z"/>
	<path class="st36" d="M54.4,204.5c-0.3,3,2.6,1.2,3.5,2.4c-2.5,6.9-5,13.8-7.5,20.8c-0.4-0.5-0.7-0.9-1-1.4
		c-1.7-7.1,0.4-13.7,2.7-20.2C52.4,205.1,53.2,204.3,54.4,204.5z"/>
	<path class="st37" d="M94.9,220.9c0.7,4.2,4.7,5.8,6.8,8.8c1.8,2.5,4.4,4.6,4.5,8c-2.9,1.3-3.4-1.5-4.7-2.7
		c-2.9-3.3-5.8-6.7-8.7-10C92.6,223.2,93.8,222.1,94.9,220.9z"/>
	<path class="st38" d="M11.1,158c3.9,4.8,1.8,12.4-4.4,16.1C8.2,168.8,9.6,163.4,11.1,158z"/>
	<path class="st39" d="M45.7,380.6c0.3,0,0.6,0,0.9,0c1.5,9.2,3.6,18.4,4,27.8c0.6,1.3,1.1,2.5-1.1,2.6
		C48.3,400.8,47,390.7,45.7,380.6z"/>
	<path class="st40" d="M101.4,235c2.2-0.2,2.7,2.5,4.7,2.7c0,0.4,0.2,0.7,0.5,1c-2.2,3.3-4.8,5.8-10.5,4.7
		C101.9,242.1,101,238.2,101.4,235z"/>
	<path class="st41" d="M49.6,410.9c0.4-0.9,0.7-1.7,1.1-2.6c2.2,6.6,2.2,13.6,3.5,20.4c-0.4,0.6-0.8,0.6-1.2,0.1
		C50.7,423.1,51,416.9,49.6,410.9z"/>
	<path class="st12" d="M118,4.3c-3.2,5.2-8.8,4.2-13.6,5.1C108.7,7,112.9,4.5,118,4.3z"/>
	<path class="st42" d="M53,428.8c0.4,0,0.8,0,1.2-0.1c0.6,3.1,1.1,6.1,1.7,9.2c-0.1,1.6-0.1,3.1-0.2,4.7c-0.4,0.4-0.8,0.4-1.2,0
		c-0.9-1.9,0.6-4.2-1.1-5.9C53.3,434.1,53.1,431.4,53,428.8z"/>
	<path class="st43" d="M30.3,364.2c0.8,4.6,1.8,9.1,1.3,13.8C29.8,373.5,29.1,368.9,30.3,364.2z"/>
	<path class="st44" d="M113.8,223.5c-0.9-0.8-1.8-1.5-2.7-2.3c0.3-1.2,0.3-2.3-0.8-3.4c-1.8-1.8,0-1.7,1.1-2
		C113.1,218.1,114.5,220.5,113.8,223.5z"/>
	<path class="st45" d="M32.5,213.7c-0.3-0.6-0.6-1.2-0.9-1.8c1.2-1.9,2.4-0.3,3.6,0.1c1.8,26.5,2.9,53.1,2.8,79.7
		c0.5,1.3,1.2,2.6-1.1,2.6c-1.3-24.6-2.5-49.2-3.8-73.8C33,218.3,32.7,216,32.5,213.7z"/>
	<path class="st46" d="M36.9,294.4c0.4-0.9,0.7-1.8,1.1-2.6c2,6.7,1.9,13.7,2.3,20.6c-1.8,2.3-0.4,5.1-1.3,7.5
		C36.7,311.5,38.9,302.8,36.9,294.4z"/>
	<path class="st47" d="M23.5,289c1.2,6.2,0.7,12.4,0,18.6C22.7,301.3,22.3,295.2,23.5,289z"/>
	<path class="st48" d="M35.2,477.8c-3.5-3-2-6.9-2-10.6c0-8.4,3.7-15.7,7-23c0.6-1.3,1.3-3,3.2-1.6c1.2,0.9,2.2,1.9,1.4,3.7
		c-0.7,1.5-0.8,3.5-1.8,4.5c-5.7,5.5-4.7,12.5-5.3,19.4c-0.4,4.4,4.3,5.5,3.9,9.3C39.7,478.2,38.1,475.6,35.2,477.8z"/>
	<path class="st49" d="M39.2,128.5c-1.7-1.3-3.4-2.5-5.1-3.8c4.7-0.1,7.7-3.5,11.3-5.6c5.4-3.2,11.3-5.1,17.2-6.8
		c6-1.8,8.9-7.7,14.5-9.8c2.5-0.9,2.4-3.5,1.5-6c-0.5-1.4-0.4-3.2,1.4-3.7c1.6-0.4,1.9,1.2,2.3,2.4c0.4,1.1,1.1,1.8,2.4,1.4
		c0.9-0.3,0.8-1.2,0.8-2c0.2-5.3,2.2-10,5.6-14.1c1.7-0.8,3.3-1.6,5-2.5c7.3,3.8,7,4.1,4.6,10.9c-3.3,9.3-9.6,15.3-18.1,19.6
		c-5.1,2.6-9.6,5.8-13.2,10.4c-0.9,1.2-2.2,2-3.8,0.9c-2.5,1.6-7.1-0.3-7.3,4.9c0,1-1.7,0.3-2.7,0.2C49.9,124.2,44,124.1,39.2,128.5
		z"/>
	<path class="st50" d="M98.8,71.6c-1.8-2.3-4.2-3.3-7-2.2c-3.7,1.4-6.3,0.1-8.3-3c4.9-5,2.4-12,5-17.6c1.2,1.3,0,3.3,1.8,4.7
		c-1.5-1.5-0.7-3.4-1.8-4.7c-1.8-2,0.1-4,0.8-5.1c4.1-5.9,2.8-13.9,7.8-19.4c1.5-1.7,2.6-3.9,5.4-3.5c0.8,2.2,0.4,4.4,0.5,6.6
		c-1.5,8.2,1.9,15.2,5.9,21.9c1.6,2.7,4.6,2.5,7.2,2.9c1.3-0.2,2.7-1,4,0.2c1.9,2.5,3,3.4-0.9,6.5c-4.6,3.7-10,5.6-14.6,9.1
		c-1.8-1.1-0.8-4.6-4.2-4.8C99.4,65.9,106.2,70.5,98.8,71.6z"/>
	<path class="st51" d="M120.2,52.5c-1.3,0.6-2.7,1.2-4,1.9c-1-0.2-1.5-0.8-1.4-1.8c1.3-3,4.3-4.6,5.8-7.5c2.5-3.9,5.9-7.1,7.4-11.6
		c1.2-3.7,0.8-6.6-3.6-7.8c-2.6-1.4-6.7,0.8-8.2-3.3c3.5-4.5,8.7-1.2,12.8-2.8c3.7-1.6,7.4-3.1,11.6-2.9
		c10.3-0.1,19.5,2.6,26.5,10.7c0,0.4,0,0.8,0,1.2c-1.3,4.3-4.6,3-7.5,2.7c-3.4-0.2-2.4,1.6-1.4,3.3c-4,3.5-9.9,1.1-13.8,4.7
		c-0.8,0.6-1.6,1-2.6,0.7c-4.7,2.3-6.5,8.7-12.7,8.9c-1.7,1.9-3.6,3.1-6.3,2.4C121.8,51.3,120.8,51.4,120.2,52.5z"/>
	<path class="st52" d="M70.9,128.5c2.4-2.4,5.9-3.8,5.7-8.4c-0.1-1.9,1.7-4.6,4.8-4.9c2.8-0.2,3.8-2.3,4.6-4.5
		c-0.3-0.6-0.2-1.1,0.4-1.5c1.7,0,2.6,1.2,3.3,2.3c-0.3-2.3,1-4.2,2.7-5.2c10-5.8,13-16,16.5-25.8c0.2-0.6,0.7-1,1.2-1.4
		c4.2-1.6,8.2-4.6,13-1.2c-0.5,1.6-1.5,2.7-3.3,3.1c-0.6,0.1-1.2,0.4-1.8,0.5c2.3,7-5.4,8.5-7.3,13.2c-0.4,1,0.8,1.8,1.8,2.2
		c1.3,2-2.3,4.7,0.9,6.4c6,4,1.7,8,0.1,12.1c-0.1,0.6-0.3,1.1-0.5,1.6c-0.4,0.8-1,1.3-1.9,1.6c-2.2,0-4.3-0.7-6.5-0.4
		c-3.2,0.2-3.3-5.9-7.5-3.7c-5.5,2.7-10.1,6.5-14.1,11.1C79.8,129.3,75.7,130.8,70.9,128.5z"/>
	<path class="st53" d="M141.8,40c0.5-0.5,0.9-1,1.4-1.4c5.3-2.5,10.7-3.4,16.3-1.2c1.8,0,3.2,0.8,3.9,2.5c0,3.9-0.7,7.7-1.1,11.5
		c-0.4,3.7-4.9,4.6-7.5,6.8c-4.3-1.5-9.4-0.7-12.7-5c-1.1-1.4-3.4-1.1-5.3-0.6c-3.4-0.8-2.6-1.8-0.9-4.1
		C137.9,45.7,141.8,44.1,141.8,40z"/>
	<path class="st54" d="M136.7,52.5c2.5-2.4,5.4-2.6,7.4,0.1c2.7,3.8,8.2,1,10.4,5c1.2,1.1,1.7,2.6,1.3,4c-1.1,4.7-1,9.5-0.8,14.3
		c0.1,1.8,0.1,4.5-3.1,4.4c-3,0-4.8-0.5-3.6-4.4c0.8-2.5-0.5-5.3-1.9-7.8c-0.3-0.5-0.8-1.6-0.9-1.6c-7.6,2.7-6-8.7-12.1-7.4
		C132.4,55.5,144.1,59.2,136.7,52.5z"/>
	<path class="st55" d="M86.2,109.6c-0.1,0.4-0.1,0.7-0.2,1.1c-6.1,1.7-11.5,4.8-16,9.2c-1.6,1.6-2.9,2.4-4.2-0.2
		c4.6-0.2,4.8-5.3,8.3-7.5c5.5-3.4,10.9-7,16.6-10.2c4.2-2.3,4.7-7.6,7.7-11c4.6-5.1,2.4-9.4-2.2-13.2c0-0.4,0-0.8,0.1-1.2
		c4.6-0.3,9.5,0.3,13.6-2.6c0.1,0.4,0.2,0.8,0.3,1.2c-0.4,0.5-0.8,0.9-1.3,1.4c-1.5,8.1-5.5,15-9.4,22.1
		C96.5,104.3,90.8,106.3,86.2,109.6z"/>
	<path class="st56" d="M112.6,104.5c-4.6-2.6-1.2-5,0.1-7.6c4.3-2.8,6.3-7.4,9.5-11.2c3.3-3.8,5.9-9.7,12.9-6.5
		c3.3,3.9,0.3,7.5-2.1,8.9c-4.7,2.9-6.5,7.7-9.7,11.6c-1.7,2.8-4.5,3.6-7.5,4C114.8,104,113.5,103.5,112.6,104.5z"/>
	<path class="st57" d="M122.7,99.4c-2.1-3.6,1.9-4.1,3.3-5.7c1.7-2,0-7.6,6-5.8c0.9,0.3,3.9-4.9,3.1-8.6c4.1,0.8,5.8,3.6,6.7,7.3
		c-0.3,3.6,1.9,7.4-1,10.8c-1.2,0.6-2.7,1-3.6,0.3c-2.7-2.2-3.9-0.3-5.7,1.3C128.8,101.3,125.8,102.7,122.7,99.4z"/>
	<path class="st58" d="M151.9,80.4c1.6-1,2.1-3.2,1.7-4.4c-2-6.3,1.1-12.2,0.8-18.4c2.2-1.2,1.6-5.5,5.7-4.7c1.6,0.3,0.8-1.8,0.8-3
		c-0.2-3.6-0.7-7.4,2.5-10.2c2.4,1.5,4.5,3.6,7.5,4c0.6,2.4-1.5,3.4-2.6,4.7c-7.4,8.9-11.5,19-10.7,30.7c0.2,2.6-1.7,4.2-3,6
		c-0.4,1.6-1,3.3-2.2,0.6C151.7,84.2,152.1,82.2,151.9,80.4z"/>
	<path class="st59" d="M140.4,96.8c1.9-3.2-0.4-7,1.4-10.2c3.7,8.5-0.4,16.4-2.1,24.4c-0.5,2.5-1.4,4.8-2.1,7.2
		c-0.3,0.4-0.7,0.5-1.1,0.4c-0.6-0.2-1.2-0.4-1.8-0.1c-1,0.6-1.8,1.7-3.2,1.6c-3.3-1.6-6.8-1.2-10.4-1.2c-2.8,0-6.6,0.7-8.3-3.1
		l-0.2,0.1c-0.5-1.4,0.6-2.1,1.5-1.9c5.5,1.1,9.8-1.8,14.3-4.2c1.6-0.8,1.3-3.1,3.1-3.6c0.5-0.2,1.1-0.3,1.7-0.3
		C139.4,105.8,138.1,99.8,140.4,96.8z"/>
	<path class="st60" d="M86.2,109.6c-0.2-2.3,1.2-3.6,3.1-4.1c5-1.4,6.9-5.6,9.8-9.4c4.6-6,5.1-13.8,9.8-19.5c0.1,1,0.3,2,1.3,2.5
		c0.5,6.6-4.4,11.3-6.1,17c-2.3,7.5-9.7,9.7-13.9,15.2C88,114.2,88.1,108.9,86.2,109.6z"/>
	<path class="st61" d="M154.6,85.1c1.8-15.2,3.6-30.4,16.3-41.4c1.6-0.3,2.8-2.7,5-1.1c-1.9,2.6-5.6,3.4-6.4,6.9
		c-7,6.4-8.3,15.4-11.1,23.8c-1.2,3.6,2.6,7.3-0.4,10.8c-0.8,1.3-1.6,2.5-2.4,3.8C155.3,87.1,155,86.1,154.6,85.1z"/>
	<path class="st62" d="M136.7,118.4c0.3,0,0.6-0.1,0.9-0.1c4.8,0.2,12.6,7.8,13,12.6c-2.3,0.4-5,1.6-6.2-1.7c-1.8-5-4.8-5.2-8.6-2.2
		c-1,0.8-1.7,1.7-3.1,1.7C132.1,124.5,133.8,121.2,136.7,118.4z"/>
	<path class="st50" d="M122.8,51.3c2.1-0.8,3.7-2.9,6.3-2.4c1.4,2.3-0.2,3.5-1.8,4.4C125.2,54.4,123.8,53.2,122.8,51.3z"/>
	<path class="st63" d="M54.5,442.6c0.4,0,0.8,0,1.2,0c2.3,2.5,1.4,5.4,0.3,8.3C55.5,448.2,55,445.4,54.5,442.6z"/>
	<path class="st64" d="M56.9,187.8c-2.9,2-5.7,4-8.7,5.9c-1.3,0.8-2.9,1.3-4.6,2c2.6-6.1,2.5-6.2-4.2-6.5c-3-0.1-6.2,0.7-9-1.2
		c-0.7-1.2-0.7-2.7,0.1-3.6c5.5-5.7,6.7-14.7,14.1-18.9c1.5-0.9,1.7-2.3,2.2-3.6c0.3-0.5,0.6-1,1-1.4c3.8-0.7,3.3-4.3,4.5-6.8
		c2.5-3.7,5.5-6.1,10.3-4.4c1,1.3,1.8,1.2,3.5,0.7c7.8-2.3,15.8-3.9,24.1-3.4c3.7,0.2,5,1.8,4.4,5.1c-0.5,3.3-1.4,6.6-0.5,9.9
		c-0.2,2.1-1.7,3.3-3.3,4.3c-10,5.6-18.8,13.1-28.3,19.4C60.8,186.5,59,187.5,56.9,187.8z"/>
	<path class="st65" d="M14.2,172.9c1.9-3.3,3.8-6.6,5.6-9.9c2.8-0.3,5.1,1.6,7.8,1.8c1.7,0.1,3.5,0,4.3-1.7c1.1-2.3-1.2-2.7-2.4-3.6
		c-1.4-0.9-2.9-1.6-3.5-3.4c1.8-6.2,6.3-10.7,10-15.6c1.5-2,3.9-3.2,6.7-2.6c3.5,1.9,3.8,6,5.9,8.9c0.9,2.4,2.8,4.2,3.7,6.6
		c-0.6,3.1-3.3,5.1-4.3,8l0,0c-4.6,4.6-9.1,9.2-12.6,14.7c-1.4,2.3-3.1,4.7-6.5,3.1C24.3,176.7,17,179.9,14.2,172.9z"/>
	<path class="st66" d="M56.9,187.8c10.9-8.5,22.1-16.5,33.9-23.7c1-0.6,1.9-1.6,2.8-2.4c2.5-2.3,6.2-5.2,8.5-2.4
		c2.2,2.7-2.4,4.5-4.4,6.2c-5.9,5-12,9.6-18.5,13.7c-5.3,3.1-10.6,6.3-15.8,9.4c-1.3,0.6-2.9,0.6-3.6,2
		C56.9,191.5,58.1,188.5,56.9,187.8z"/>
	<path class="st67" d="M54.4,204.5c-2.3,7.1-5.7,14-5.1,21.8c-2.4-9.2-2.4-18.6-2.7-27.9c3-2.7,6.3-4.7,10.3-5.4
		C56,196.8,57,201,54.4,204.5z"/>
	<path class="st68" d="M41.6,202.9c0.1,15.9,2.9,31.6,3.9,47.4c0.1,2.1,0.2,4.2,1.2,6.1c-4.2-1-3.4-4.4-3.7-7.4
		c-1.3-12.1-2.5-24.3-3.8-36.4c-0.2-2.1-0.2-4.6-3.6-3C36.1,206,39.8,205.3,41.6,202.9z"/>
	<path class="st69" d="M29,179.3c4.2-0.7,6.1-4.1,8.2-7.2c2.9-4.3,5.9-8.5,11-10.6c-0.7,1.9,0.1,3.7-2.8,5.5
		c-3.7,2.3-7.8,5.7-8.3,11.6c-0.3,3.6-6.1,4.9-6.6,9.4c-2.6-0.1-3.7-1.2-2-3.5C29.6,182.8,31.1,181.3,29,179.3z"/>
	<path class="st70" d="M167.1,27.4c-5.7,0.1-7.5-6.4-13.3-7.1c-4.4-0.5-8.9-1.7-13.4-2.1c-3.2-2.4-1.4-5-0.1-7.2
		c1.5-2.7,4.1-2.4,6.7-1.5c4.2-0.3,8.2,1.1,10.8,3.9c4.2,4.5,8.9,5.7,14.6,5.2c0.6-0.1,1.2-0.1,1.9-0.1c2.2,0.1,5.3-0.4,5.9,1.7
		c0.7,2.2-2.5,3.4-4.1,4.8C173.6,27.1,170,26.2,167.1,27.4z"/>
	<path class="st71" d="M147,9.4c-6.2-0.2-7.2,3.6-6.6,8.7c-4.2-0.6-7.5,2.3-11.4,2.9c-1.7-2.7-2.1-6.3-5-8.4
		c-0.4-0.3,0.7-1.3,1.4-1.7c4.2-2.9,9.2-2.4,13.9-2.8c2.1,0,4.2,0.1,6.3,0.1C146.1,8.6,146.6,9,147,9.4z"/>
	<path class="st72" d="M159.7,31.3c2.7-0.4,5.6-0.3,7.5-2.7c6.4,0.4,12.7,1.7,19.1,2.1c-8.6,0.7-17.2,1.4-25.8,2
		C160.3,32.7,160,31.8,159.7,31.3z"/>
	<path class="st73" d="M159.5,37.3c-5.4,0.9-11-0.6-16.3,1.2c4-5.1,10-2.9,15.1-4c1.6,0.1,3.1,0.3,4.8,0.4
		C162.2,36.6,160,35.6,159.5,37.3z"/>
	<path class="st68" d="M50.7,278c-0.9,0.3-1.8,0.7-2.8,1c-1.4-4.5-2.1-9.1-2.2-14.1c4.6,3.2-0.2,9.4,4.8,11.9
		C50.6,277.2,50.6,277.6,50.7,278z"/>
	<path class="st74" d="M98.7,184.2c-0.8,0.4-1.7,0.9-2.5,1.3c-5.5-4.6-5.7-6.4-1.4-11.3c6.6-7.6,14.7-13.8,20.2-22.4
		c1.1-1.8,2.5-3.3,2.8-5.5c3.5-6.2,8.7-10.7,14-15.3c2.8,2.1,6.8,3.6,8.1,6.4c1.8,4-4,5.1-5.4,8.2c-4.8,10.9-11.4,20.4-19.7,29
		c-1.3,1.3-1.5,3.8-2.2,5.7c-0.4,0-0.8,0.1-1.2,0.1C107.8,183.8,103.1,183.6,98.7,184.2z"/>
	<path class="st75" d="M131.8,131.1c-2.8,6.3-9.1,9.6-12.7,15.2c-6.9,9.6-14.8,18.2-25.5,23.8c-5.3,2.2-8.3,8.2-14.5,9
		c7.7-6.4,15.4-12.8,24.4-20.3c-4.5,1.1-6.9,3.1-9.9,2.8c-3.1-3.2-0.7-6.5-0.3-9.8c0.3-2.4,1.7-4.2-3.2-3.9c-9.9,0.7-19.7,1.1-29,6
		c0-3,2.2-2.8,2.8-4c-0.1-2.3,1.5-3.6,3-5c3.6-2.1,7.6-2.4,11.6-3c4,0.3,7.7-1.3,11.7-1.4c1.3,0,2.5-0.3,3.7-0.6
		c2.7-0.6,5.6-0.3,8.3-1c2.9,0.1,5.9-0.6,8.8,0.2c4.7,2.1,12.2-1.7,13.8-7c0-1.9,1.2-3.2,2.4-4.5c3.6-2.9,5.3-7.3,8.4-10.6
		c0.3,0.4,0.7,0.8,1,1.2c-1.3,3.4-2.6,6.8-3.9,10.2C131.8,129.2,131.7,130.1,131.8,131.1z"/>
	<path class="st9" d="M93.6,170.2c8.5-7.9,17-15.9,25.5-23.8c-2.2,8.2-8.2,13.9-13.9,19.3c-3.8,3.6-7.1,7.6-10.9,11.3
		c-3.2,3.1,1.5,5.6,1.9,8.6c-4.4,3.1-4.3-3.4-7.5-3.6c-1.7-0.2,0.5-2.2,1.1-3.3C91.1,175.8,92.3,173,93.6,170.2z"/>
	<path class="st9" d="M98.7,184.2c0.4-0.7,1-1.9,1.1-1.9c4.3,2.1,7.8-1.2,11.6-1.8C108.2,185.3,103.8,185.8,98.7,184.2z"/>
	<path class="st31" d="M75.9,203c-2.7,0.9-6.3,4.5-6.3-2.2C72.8,198.4,74.3,200.7,75.9,203z"/>
	<path class="st76" d="M78.5,143.5c-3.8,1.4-8.2,0.9-11.7,3.2c-3.6,1.5-7.6,1.6-11.1,3.5c-3,1.7-5.5-0.3-7.7-2.2
		c-3.3-2.3-2.7-6.8-5.3-9.5c-2.1-2.1-4.9,0.2-7.1-1c0,0-0.4-0.4-0.4-0.4c2.6-4,11.9-7.4,16.3-6.8c2.8,0.4,0.8,3.1,2.5,3.6
		c4.3-2.1,7.7-7.7,13.8-3.7c0.5,0.3,2.1-1.1,3.1-1.7c5.3-0.2,9.5-1.5,13.2-6.2c3.1-4.1,7.4-8.1,13.3-8.9c5.5,4,5.4,3.9-0.1,7
		c-3.6,2-7.5,3.8-10.4,7.1c-2.8,3.2-5.5,5.9-3.3,11C85.9,143.2,81.4,143,78.5,143.5z"/>
	<path class="st77" d="M125.5,10.9c-0.5,0.9-1.2,2.3,0.3,2.5c5.2,0.9,3.9,4.3,3.3,7.6c-3.9,2.4-8.5-1.5-12.4,1.4
		c-2.6,2-6,1.9-8.9,3.3c-1.5,0.3-2.8,2.1-4.7,0.8c-3.2-1.6-0.8-3.8-0.5-5.7c1.2-1.3,3.4-1.6,3.7-3.7
		C112.2,13.5,117.9,9.3,125.5,10.9z"/>
	<path class="st78" d="M26.6,156.1c1.6,0.9,3.5,1.5,4.8,2.8c1.3,1.2,5.1,0.4,3.6,3.6c-1.1,2.3-2.7,4.9-6.1,4.3
		c-3.3-0.5-6.4-1.6-9-3.8c-1.7-3.9,0-6.7,2.9-9.2C24,154.7,26,154.3,26.6,156.1z"/>
	<path class="st79" d="M26.6,156.1c-1.5-0.3-3.2-0.4-3.7-2.3c4.3-5.4,8.5-10.8,12.8-16.3c2.5-0.5,5.4-4.3,7.1,1
		c-7.9,1.4-8.8,9.6-13.6,14C28.1,153.6,27.4,154.9,26.6,156.1z"/>
	<path class="st80" d="M103.1,26.5c1.1-0.5,2.2-1,3.3-1.5c0.9,1,1.1,2.3,1,3.5c-0.4,6.5,1.2,12,6.4,16.5c1.6,1.4,2.8,4.6,1.5,7.5
		c0.3,0.6,0.6,1.2,0.9,1.8c-4.3-1.4-10-0.7-9.7-8.1c0.1-1.6-3-3.3-4.5-5c-1-1-2.5-2.1-1.3-3.7c1.8-2.5,2.3-4.5,0.1-7.2
		C99.5,28.5,102.1,27.7,103.1,26.5z"/>
	<path class="st12" d="M88.6,48.8c0.4,0.5,1.2,1,1.1,1.4c-0.6,2.6,4.7,0.8,2.9,4c-0.3,0.6-1.6,1.4-1.9,1.2c-2.2-1.4-2-3.7-2.1-6
		C88.6,49.2,88.6,49,88.6,48.8C88.6,48.7,88.6,48.8,88.6,48.8z"/>
	<path class="st81" d="M125.6,24.6c5.9,0.8,5.5,4.8,4.2,8.8c-1.6,5-5.2,8.9-8.6,12.8c-1.3,0.9-2.5,0.5-3.4-0.5
		c-3.3-4.1-6.6-8.3-7.7-13.6c-1.2-5.9,1.2-8.6,7.3-8.1C120.2,24.2,122.9,23.5,125.6,24.6z"/>
	<path class="st82" d="M125.6,24.6c-2.7,0-5.5,0.2-8.2,0.1c-4.8-0.3-6.9,2-5.9,6.4c1.4,6.1,4.8,11.1,9.6,15.2
		c-0.9,3-3.5,4.6-5.8,6.4c-1.8-3.5-2.7-7.2-6-10.1c-5.1-4.6-3.6-11.3-2.9-17.4c3.1-1.9,6.4-3.6,10.2-2.7
		C119.2,24.7,123,22.1,125.6,24.6z"/>
	<path class="st83" d="M143.5,21.6c-2.8,2.7-5,1.5-7.7,1.7C138,19.7,140.3,20.9,143.5,21.6z"/>
	<path class="st84" d="M128,128.8c-0.9,1.2-1.8,2.4-2.7,3.5c-2,3.2-5.3,4.4-8.6,5.7c-0.8,0-1.7,0-2.5-0.2c-2.4-0.4-5.7,1.6-6.9-1.3
		c-1.3-3.2-1.5-7-0.5-10.5c0.4-1.4,1.5-2.6,3-3c2.7-0.6,2.7-0.6,2.1-3.3c-0.3-0.5-0.5-1-0.5-1.6c0.5-0.8,1.1-1.5,1.6-2.3
		c8.6,3.2,10.8,2.9,16.4-2.6c-1.8,4,0.5,5.1,2.4,6.4C132.9,123.6,128,125.3,128,128.8z"/>
	<path class="st85" d="M78.5,143.5c4.3-1.1,6.1-3.4,3-7.2c-2-2.5-1.2-3.8,0.6-5.8c5.1-5.7,10.4-10.8,18.2-12.7
		c-0.1-2-3.2-2.2-2.9-4.5c0.8-1,0.9-2.7,3-0.8c1.7,1.5,2,4.5,4.8,4.7c1.1,1.4,1.3,2.9,0.6,4.5c-2.5,1.3-5.9-0.9-8.1,2.6
		c-1.8,2.7-6.7,3.6-2.9,8.8c1.1,1.6-0.4,6.8-3.6,9.1C86.9,142.1,82.8,144.2,78.5,143.5z"/>
	<path class="st57" d="M130.2,110.6c-5.3,3.4-10.9,6-17.5,5.3c-2.8-2.6,1-3.5,1.7-4.9c1.5-3.1,1.1-4.9-1.7-6.5
		c0.4-1.1,1.2-1.3,2.2-1.3c4.3-0.9,8.7-1.3,12.9-2.5c3.9-1.1,6.5,2.3,5.1,6.3c-0.4,0-0.8,0-1.2-0.1
		C125.1,105.6,131.9,109.8,130.2,110.6z"/>
	<path class="st84" d="M105,122.2c0.1-1.7,0.1-3.3,0.2-5c2.2-1.2,4.1-0.4,6,0.9c0,0,0.2,0.3,0.2,0.3C110.6,122,108,122.4,105,122.2z
		"/>
	<path class="st86" d="M132.9,106.9c-1-3.8-2.8-7.1-7.3-4.6c-3.7,2-7.2,0.3-10.8,0.9c2.3-1.9,5.9-1.1,7.9-3.8
		c2.2,0.6,5.1,1.3,6.4-0.4c3.3-4.5,7.2-3,11.3-2.2C140.4,105.4,138.9,107.4,132.9,106.9z"/>
	<path class="st87" d="M128,128.8c-2-4.4,3-6,3.7-9.2c1.7-0.2,1.2-4,4-2.4C134.1,121.7,132.1,126,128,128.8z"/>
	<path class="st86" d="M130.2,110.6c-2.8-1.2-3.5-3.5-3.3-7c1.9,1.3,3.4,2.2,4.9,3.2C129.9,107.6,132.9,110.2,130.2,110.6z"/>
	<path class="st88" d="M48,148.1c4.2,1.3,8.2,2.1,12.1-1.1c1.7-1.3,4.4-0.8,6.6-0.2c-1,1.1-1.9,2.2-2.9,3.3c-4.8-0.9-8.3,1-10.8,5
		c-1.2,0.5-1.6,0-1.5-1.2C50.7,151.8,48,150.8,48,148.1z"/>
	<path class="st69" d="M51.7,153.9c0.5,0.4,1,0.8,1.5,1.2c1.3,4.5-1.9,5.5-5.1,6.4C46.3,157.6,50.6,156.5,51.7,153.9z"/>
	<path class="st89" d="M105,122.2c2.1-1.3,4.3-2.5,6.4-3.8c5.1,4.4,5.1,4.4,1.1,7.4c-0.6,0.4-1,1.6-1.5,0.2c-0.4-1.2-0.2-3-1.9-1.3
		c-0.8,0.8-2.7,2-1.6,3.6c1,1.4,0.7,3.1,0.5,4.1c-0.9,4.6,1,4.9,4.6,3.8c1.4-0.4,2.9-0.4,3.9,1.1c-0.1,3-2.1,2.5-4,2
		c-3.2,0.5-6.4,1.8-9.7,0.6c-3.1,0-6.4-1.7-9.2,1.1c-0.6,1-1.5,1.1-2.5,1c1.8-2.3-0.2-5.8,2.4-8c0.8-0.6,0.6-1.6-0.5-1.7
		c-5.2-0.7-2.2-3.5-1-5.1c2-2.8,5.3-4.4,7.7-7.1C102.1,117.5,102.9,122.4,105,122.2z"/>
	<path class="st90" d="M112.5,139.4c1.2-0.9,3.1-0.4,4-2c2.6-2.3,5.4-4,8.7-5.1c5.6,1.1,1.3,3.4,0.1,4.1c-4.6,2.7-9.5,4.9-14.3,7.3
		C109.5,141.2,111.7,140.6,112.5,139.4z"/>
	<path class="st85" d="M93.7,141.2c2.4-5.7,5.8-3.8,9.2-1.1C100.1,142.4,96.7,140.6,93.7,141.2z"/>
</g>
</svg>
