<?xml version="1.0" encoding="utf-8"?>
<!-- Generator: Adobe Illustrator 19.0.0, SVG Export Plug-In . SVG Version: 6.00 Build 0)  -->
<svg version="1.1" id="Layer_1" xmlns="http://www.w3.org/2000/svg" xmlns:xlink="http://www.w3.org/1999/xlink" x="0px" y="0px"
	 viewBox="0 0 512 512" style="enable-background:new 0 0 512 512;" xml:space="preserve">
<g>
	<path d="M321.8,20.6c3.3,2.2,6.8,4.1,9.9,6.6c1.8,1.4,1.6,3.5-0.6,4.9c-3.8,2.3-7.5,4.7-12.2,7.6c2.3,0,4.1,0.5,5.4-0.1
		c7-2.7,14-5.6,20.8-8.7c9.6-4.4,19.8-4.2,30-4c4.2,0.1,8.2,4.5,9.5,9.5c1.3,5.1,0,8.5-4,11.8c-3,2.5-5.7,5.5-8.5,8.4
		c-7.3,7.4-14.6,14.7-21.8,22.1c-2.3,2.3-4.2,4.9-6.3,7.4c0.2,0.4,0.5,0.7,0.7,1.1c2-0.8,3.9-1.6,5.9-2.3c3.2-1.1,6.4-2.3,9.6-3.3
		c5.4-1.7,10.7-4,16.2-4.8c8-1.1,16.3-1,24.4-1.4c0.9,0,1.8,0.2,2.7,0.5c3.7,1.1,7.5,2.2,8.1,6.9c0.6,4.9-3.6,5.7-6.5,7.9
		c-7,5.3-15.1,7.9-23.5,8.9c-6.7,0.8-13.5,0.1-20.2,0.3c-5.5,0.1-11.1,0.5-16.6,0.6c-2.4,0-4.9-0.3-7.6-0.5c0.2,0.5,0.2,1.2,0.6,1.5
		c3.7,2.6,7.1,6.5,11.1,7.4c5.4,1.2,9.1,4.5,13.2,7.5c12.4,8.9,24,18.6,33.8,30.4c0.9,1.1,2.5,1.9,3.9,2.5c4.3,1.7,8.6,3.4,13,4.7
		c3.6,1.1,5.2,3.2,6,6.8c1.1,4.5,3,8.8,4.6,13.3c0.2,0.6,0.5,1.5,0.2,1.9c-2.7,3.3,0,5,2,6.8c1.7,1.5,2.9,3,1.9,5.4
		c-0.9,2.3,0.2,3.6,2.2,4.7c6.5,3.8,6.8,5.6,1.7,11.1c-2.7,2.9-2.1,5.7-0.8,8.7c4.5,10.6,7.9,21.3,7.3,33.1
		c-0.3,5.8,0.1,11.6,0.8,17.4c1.5,13.1,0.4,26-3.4,38.4c-2.3,7.7-4.9,15.4-7.3,23.1c-1.7,5.5-6.1,10.1-9.1,15.2
		c-6.6,11.3-15.2,20.8-25.6,28.8c-1.3,1-2.3,2.6-3.7,3.6c-3.5,2.6-7,5.5-10.9,7.6c-8.2,4.3-16.7,8.1-25.2,12.2
		c7.7,10.1,15.5,19.8,19.1,33c1.9-1.2,4.1-1.8,4.8-3.2c2.9-5.5,8.2-8.3,12.6-12.1c1.6-1.4,5.6-1.7,7.6-0.7c3.1,1.6,7.3,3.3,6.8,8.2
		c-0.4,3.9,1.6,7.7,0.1,11.8c-1.3,3.4-1.8,7-2.7,10.6c-1.6,6.5-6.7,10.6-10.6,15.6c-0.3,0.4-0.8,0.6-1.3,0.9c-5,3.1-10,6.1-15,9.1
		c-1.8,1.1-2.4,2.3-1.5,4.5c2.1,5.3-0.4,9.7-3.2,14c-4.1,6.3-5.9,7.1-13,4.8c-8.2-2.6-14.2-8.6-18.3-15.6c-1.7-3,0.2-8.3,1.1-12.5
		c0.6-2.7-1.2-6.2-4.9-7.9c-3.4-1.5-4,1-5,3.2c-0.3,0.6-0.4,1.3-0.6,1.9c-1.8,5.7-3.5,5.9-8.3,2.1c-18.5-14.7-34.1-32.4-51.1-48.7
		c-2.3-2.2-4.6-3.7-7.8-4.1c-6.8-0.7-13.6-1.5-20.4-2.5c-4.4-0.6-6.1,1.9-6.6,5.5c-1.3,8.5-6,15.1-11.8,21
		c-9.5,9.6-19,19.2-30.8,25.9c-5.8,3.3-12,5.9-18.6,9.1c1.4,1.6,2.8,3.2,4.3,4.7c2.1,2,4.5,3.7,6.3,6c3.5,4.3,1.6,9.1-3.8,10.1
		c-13.5,2.5-27.5-4.2-33.4-16.5c-1.1-2.4-0.5-5.6-0.6-8.5c-0.1-3-0.3-6-0.4-9c-0.6-0.1-1.1-0.3-1.7-0.4c-1.3,1.3-2.8,2.5-4,3.9
		c-2.2,2.6-3.8,2.7-6,0.1c-3.8-4.5-4.6-9.9-2.2-14.9c4.6-9.3,8.7-18.9,13.3-28.2c2.9-5.8,9-10.2,14-14.8c2.6-2.4,4.8-0.2,5.9,2.2
		c1.2,2.5,1.5,5.3,2.6,7.9c0.7,1.8,2,3.3,3.2,5.2c2.7-2.9,1.6-5,0.1-6.7c-4.5-5.5-4.6-12.7-7-19c-0.5-1.4,0.7-3.9,1.9-5.2
		c0.6-0.6,3,0.4,4.6,0.8c1.4,0.4,2.7,0.9,4.1,1.4c0.2-0.3,0.4-0.7,0.6-1c-1.4-1.3-2.6-2.9-4.2-3.8c-9.2-4.8-17.5-10.3-24.8-18
		c-11.1-11.6-22.1-23.2-28.3-38.1c-2.7-6.6-6.4-11.4-11.9-15.5c-7-5.1-12.2-12-15.1-19.9c-2.6-6.9-2.8-14.5,0.7-21.6
		c1.7-3.6,2.7-7.6,4.9-10.8c2.2-3.1,5.5-5.4,8.6-7.7c1.9-1.4,2.7-2.8,2.6-5.2c0-1.9,0.6-3.9,1.1-5.7c1-3.4,3-6.7,3.1-10.2
		c0.2-7.3,6.3-12,7.2-19c0.4-2.8,3.2-5.3,4.5-8.1c0.4-0.9,0.2-2.7-0.5-3.5c-2.8-3.4-6-6.3-11.1-5.4c-1.7,0.3-3.4,0.4-5.1,0.7
		c-4.7,0.8-8.4-0.5-12.2-3.8c-3.9-3.3-5.9-7.4-8.5-11.4c-2.6-4.1-2.3-7.9,0.6-11.7c1.2-1.6,2.4-3.2,3.7-4.9c-3-3.5-5.6-7.5-9.1-10.4
		c-5.2-4.4-7.9-10-9.6-16.2c0-3.2,0-6.3,0-9.5c0.2-0.6,0.6-1.2,0.7-1.8c1-6.9,5.1-11.1,11.1-14.3c2.8-1.5,5.7-4.1,7.1-7
		c2.5-5.2,3.7-10.9,5.6-16.4c0.4-1.1,1.3-2.3,2.3-3c5.3-3.8,10.5-7.6,16-11c9.6-6,19.6-9.3,30.3-2.6c1.2,0.7,2.7,1.2,4,1.6
		c6.7,2.1,13.3,4.1,20,6.4c1.5,0.5,3.1,1.7,3.9,2.9c1.5,2.3,3.1,3.4,6,3.3c1.7-0.1,4.1,1,5.1,2.3c0.7,0.9-0.6,3.2-1.1,5.3
		c-8.8-3.9-15.9,0.4-23.6,3c-0.2-1.7-0.3-2.9-0.4-3.9c-4.2,1.2-8.3,3.4-12.3,3.3c-5.2-0.1-10.1-0.5-14.7,2.4c-0.7,0.4-2,0.5-2.7,0.1
		c-2.6-1.5-3.7,0.5-5.2,1.9c-2.1,1.9-4.4,4.7-6.8,4.8c-4.5,0.3-5.6,2.9-6.8,6.2c-0.7,1.7-1.5,3.4-2.3,5c-1.6,3.2-4,4.3-7.7,4.3
		c-3.7,0-7.7,0.6-11.1,2c-7.8,3.2-11.1,10.6-7.8,17.3c3.3-4.2,4.7-11,12.5-8.6c0.5,3.9,2,7.5,6.3,9c0.3,0.1,0.7,0.5,0.8,0.8
		c1.6,3.4,3.1,6.9,4.6,10.3c1.7,3.9,0.5,6.3-3.6,7.5c-0.8,0.2-1.5,0.8-2.5,1.3c3.2,3.5,9.3,1.8,11.3,8.4c-3.4-0.9-5.9-1.4-8.4-2.2
		c-5.1-1.6-8.3-0.6-10.7,3.1c-2.6,4.1-2.6,8.7,1,11.9c3.2,2.8,7,5.2,11,6.7c8.5,3.3,13.1,0.9,16.2-7.3c2.8,0.9,2.8,0.9,2.7,5.3
		c-0.2,6,0.4,6.9,6,9.1c3.1-3.9,6.3-7.8,9.3-11.9c4.9-6.6,9.7-13.3,14.6-19.9c3.3-4.4,6.8-8.7,10.3-13c0.5-0.7,1.5-1,2.1-1.6
		c4.2-3.9,8.4-7.9,12.5-11.9c1.6-1.6,2.7-3.8,4.5-5.3c2.4-2,3.9-3.9,2.4-7.1c-1.9-4.3-4.9-6.2-8.5-5.7c-2.9,0.5-5.8,0.7-8.7,0.8
		c-3.1,0.1-4.9-2.2-5.3-6.3c-0.4-3.5,1.9-3.8,4.5-4c2.9-0.3,5.8-0.6,8.7-1c0.1-0.4,0.2-0.8,0.3-1.3c-1.4-1.1-3.1-2-4-3.4
		c-1-1.5-1.2-3.6-1.8-5.4c1.6,0.5,3.8,0.4,4.8,1.4c3.8,4.1,7.3,8.5,10.8,12.8c0.5,0.6,0.5,1.4,0.8,2.2c1.1,2.9,2.1,5.8,3.4,9.3
		c8-4.6,15.3-9.1,22.8-13.2c8.6-4.6,17.3-8.9,26.1-13.2c1.2-0.6,3-0.9,4.1-0.4c8.6,4.4,18,6.1,27.4,7.1c17.8,1.9,35.5,5.7,53.4,1.1
		c3.3-0.8,6.9-1.1,8.9-4.6c-2.3,0-4.4,0.5-6.6,0.9c-6.5,1.3-12.9,3.2-19.5,3.6c-20.5,1.3-40.1-3.5-59.5-9.3
		c-1.3-0.4-2.6-1.3-3.5-2.4c-4.1-4.7-7.7-9.9-12.2-14.1c-5-4.7-9.4-9.8-13.6-15.3c-3.9-5.1-8.9-9.4-13.1-14.3
		c-3.5-4-0.8-11,4.3-11.9c4.3-0.8,8.5-1.9,12.8-2.8c13.8-3,27.6-6,41.4-8.9c3-0.6,5.6-0.5,7.2,3c1.6,3.6,4.7,4.1,8.3,3.1
		c10.8-2.9,21.6-5.8,32.4-8.7C314.9,20.6,318.4,20.6,321.8,20.6z M141.3,208.9c3,2,2.4,4.4,1.1,6.7c-1,1.8-2.1,3.6-3.4,5.3
		c-2.1,2.8-5,5.2-4.2,9.3c0.1,0.5-0.4,1.4-0.9,1.6c-3.2,1.5-2.8,4.3-3.2,7.1c-0.8,6.8,0.6,13.9-3.2,20.2c-2.1,3.5-0.3,5.1,2.8,6.5
		c2.4,1.1,4.8,2.3,6.9,3.8c2.5,1.7,3.1,4.6,1.9,7c-0.5,1-3.3,1-5,1.1c-1.6,0.1-3.2-0.4-4.7-0.2c-1.3,0.2-2.6,1-3.9,1.5
		c0,0.6,0,1.2-0.1,1.8c3.5,1.2,6.9,2.6,10.4,3.7c3.2,1,5.8,2.4,5.9,6.4c-1.1,0-2.1,0.2-2.9,0c-7.8-2.7-15.7-5.3-23.4-8.2
		c-3.6-1.4-5.1-4.3-4.2-8.6c6.5-0.5,13-1,19.6-1.4c0-0.5,0-0.9,0-1.4c-1.9-0.5-3.7-1.2-5.6-1.6c-3.5-0.8-7-1.2-10.5-2.2
		c-5.2-1.5-7-5.1-4.9-10.1c0.9-2.1,2.6-4,4.3-5.5c2.8-2.4,6-4.3,8.8-6.7c1.7-1.4,2.9-3.3,4.3-4.9c-0.4-0.4-0.9-0.9-1.3-1.3
		c-6,4.5-12.2,8.6-17.9,13.5c-6.8,5.8-10.2,13.4-10.2,22.4c0,4.3,1,8.7,0.9,13c0,3.4,1.3,5.9,3.7,7.9c3.8,3.3,7.6,6.5,11.6,9.6
		c0.8,0.7,2.2,0.9,3.3,1c6.2,0.6,12.5,1.1,19.3,1.7c-2.9,5.3-2.1,9.9,1.7,13.9c0.3,0.4,0.5,0.9,0.7,1.4c1.8,3.7,3.4,7.5,7.8,9
		c0.5,0.2,1.1,0.9,1.1,1.5c0.3,3.2,2.7,4.1,5.3,5.1c1.1,0.4,2.5,1.5,2.6,2.4c0.8,5.6,4,9.1,9,11.5c3.1,1.5,5.8,3.7,8.7,5.5
		c7.3,4.5,14.4,9.3,22,13.1c8.8,4.4,17.9,8.5,27.3,11.2c13.9,4,28.2,6.8,42.5,9.7c5.8,1.2,11.9,1.8,17.8,1.6
		c13.1-0.3,26.4,0,39.1-4.4c1-0.3,2.1-0.2,3.1-0.3c4.9-0.9,10.1-1.1,14.6-2.8c8.4-3.2,17.3-4.9,25.1-10.1c6-4,12.9-6.8,19.4-10.2
		c0.7-0.4,1.4-0.8,1.9-1.4c3.7-3.7,7.6-7.2,11-11.2c4-4.6,7.7-9.5,11.2-14.4c2.1-2.9,4-6,5.7-9.2c3.4-6.5,6.9-12.9,9.6-19.6
		c2.7-6.8,4.7-14,6.5-21.2c3.3-13.5,2.7-27.2,1.4-41c-1-11.1-2.5-22-5.9-32.6c-1.4-4.3-2.3-4.8-6.1-3.1c-1.3,0.6-2.7,1-4.2,1.2
		c-2.5,0.4-4.9-2.2-4.4-4.7c0.8-4.7,8.6-10.2,13.3-9.5c0.9,0.1,1.9-0.3,2.9-0.5c-6.7-6.2-11.6,1.9-17.7,1.8
		c-0.5-8.4,9-8.8,11.4-14.8c-3.8-1.8-6.8-0.6-9.5,1.5c-2.3,1.8-4.3,4-6.7,5.6c-2,1.4-4.5,2.1-6.7,3.1c-0.4-0.5-0.8-1-1.2-1.5
		c1.9-2.5,3.5-5.4,5.8-7.5c3.1-2.8,7-4.7,10.2-7.5c1.9-1.6,3.1-4.1,4.7-6.2c-0.4-0.5-0.8-0.9-1.2-1.4c-2.1,1-4.4,1.8-6.4,3
		c-3.3,1.9-6.3,4.4-9.7,6c-1.7,0.7-4.1-0.2-6.1-0.4c0.2-2.2-0.2-4.8,0.7-6.6c1.2-2.4,3.6-4.2,5.3-6.3c1.3-1.5,2.5-3.2,0.7-5.2
		c-4.9-5.5-9.6-11.1-14.7-16.4c-2.7-2.8-6.1-5.1-8.9-7.8c-2.8-2.6-5.3-5.6-8.1-8.3c-2.9-2.7-5.9-5.1-9-7.5c-1.2-1-2.6-1.8-3.9-2.5
		c-6.4-3.3-13-6.2-17.8-12.1c-3-3.7-4.7-3.3-8.9-0.8c-3,1.7-6.4,3.6-9.7,3.8c-8.4,0.5-16.9,0.4-25.3-0.1c-17.5-1-35.1-1.8-51.4-9.6
		c-0.7-0.4-2-0.6-2.5-0.2c-3.3,2.1-6.8,4.1-9.7,6.8c-5.3,4.9-10.2,10.3-15.3,15.5c-0.4,0.4-1,0.8-1.6,1.1c-3.6,2.5-7.4,4.8-10.7,7.7
		c-3,2.6-5.7,5.5-8.2,8.6c-5.5,7-13.4,11.9-17.8,20c-1.7,3.1-5.1,5.3-7.3,8.2c-7.6,10.1-15.1,20.4-22.5,30.6
		C145.5,202.6,143.5,205.7,141.3,208.9z M266.7,74.5c1.8,1.5,3,2.4,4.2,3.5c4.7,4.3,9.5,8.4,10.4,15.4c0.1,0.6,1.4,1.5,2.2,1.6
		c13.7,0.9,27.5,2,41-1.5c2.9-0.8,6.2-1.9,8.3-4c8.8-8.7,17.2-17.9,25.8-26.9c0.6-0.7,1.2-1.5,2.2-2.8c-2.5,0.4-4.1,0.8-5.8,0.9
		c-8.7,0.4-17.4,1.1-26,0.7c-6.4-0.3-7.5-0.4-10.2,5.4c-1.6,3.3-2.9,6.8-4.6,10.1c-1.2,2.3-3.2,4.2-4,6.6c-1.1,3.4-2.9,4.3-6.8,3.3
		c3.1-10.2,9.9-18.3,13.9-28.3c-1.7,0.1-2.8,0-3.7,0.4c-2.5,0.9-4.9,1.9-7.3,2.9c-0.8,0.4-1.6,0.9-2.4,1.3
		c-4.5,2.2-8.7,5.1-13.5,6.4C283,71.7,275.4,72.8,266.7,74.5z M218.3,42.4c0.1,0.3,0.2,0.6,0.4,0.9c4.8,0,9.7,0.3,14.5-0.1
		c10.4-0.8,20.7-2.2,31.1-3c6.2-0.5,12.4,0,18.2,2.8c2.3,1.1,3.8,2.4,3.9,5.3c0.1,2.7,0.7,5.5,1.4,8.2c0.6,2.3,1.9,3.6,4.6,2
		c2.3-1.3,5-1.9,7.1-3.4c2.1-1.5,4.9-3.6,5.3-5.9c1.3-6.7,5.6-10.5,10.9-13.7c1.9-1.1,3.6-2.6,5.4-3.8c-2.6-0.7-4.7-0.7-6.8-0.3
		c-12.8,2-25.6,4-38.3,6.2c-2.8,0.5-4.8,0-6.8-1.8c-3.3-3.1-6.9-4.5-11.8-3.3c-10.3,2.4-20.7,4.1-31,6.4
		C223.7,39.4,221.1,41.1,218.3,42.4z M310.3,51.3c3.5-1.1,6.7-1.9,9.7-3c3.7-1.3,6.8-1.2,8.6,2.7c1.9,4,5.2,4.4,9,3.8
		c5.3-0.9,10.7-1.6,15.9-3.1c7-2,13.8-4.7,20.7-7.2c1.1-0.4,2-1.3,2.8-2.1c2.5-2.5,2.1-5.5-1-7.1c-1.3-0.7-3-0.9-4.5-1.1
		c-11.9-1.7-23,3.3-34.5,4.9c-0.2,0-0.5,0.2-0.7,0.4c-7.3,3.4-14.7,6.4-22.9,6.7C310.6,46.1,309.5,47.5,310.3,51.3z M272.4,91.5
		c-5.8-6.9-11.5-13.1-16.6-19.8c-2.5-3.2-4.1-7.3-5.5-11.2c-1-2.9,0-5.8,2.7-7.7c1.5-1,3.1-1.9,4.7-2.8c-0.5-0.3-0.9-0.7-1.4-1
		c-9.3,0-18.6-0.1-27.9,0.1c-2,0-4.1,1.1-6.6,1.9c1.2,1.4,1.8,2.1,2.4,2.7c6.3,5.9,12.8,11.7,19,17.8c4.6,4.5,8.7,9.6,13.2,14.2
		C260.8,90,265.9,92.3,272.4,91.5z M361.7,461.5c6.4,4,6.4,3.9,10.5-0.9c2.1-2.4,4.1-5.1,6.7-6.8c4.9-3.2,10-6,12.8-11.4
		c1.1-2.2,1.8-4.9,3.6-6.4c4.6-4,3.8-9.1,3.1-13.9c-0.3-2.4-2.1-6-3.7-6.3c-2.2-0.4-5.9,1.3-7,3.2c-4.3,7.5-13.1,12.3-12.5,23.1
		c0.3,4.7-1.8,10.5-7.6,13.3C365.3,456.5,363.8,459.2,361.7,461.5z M354.9,90.8c9.5,2.6,39.6-3.5,42.4-8.4
		C385.2,81.3,361.6,84.1,354.9,90.8z M283,60.3c-0.5-2.7-0.9-5.1-1.3-7.5c-8.4-1.3-17.5,2.4-21.1,8.6
		C266.6,63.6,275.9,63.2,283,60.3z M360.3,482.3c4.7,0.1,9.8-4.5,9.3-9c-0.2-1.6-3.1-3.8-5-4.2c-4.2-0.7-8.5,3.7-8.3,8
		C356.3,479.9,356.9,482.5,360.3,482.3z M366.1,426.5c-0.1-0.4-0.2-0.8-0.3-1.3c-3.5,0.7-7.2,1-10.5,2.2c-1.6,0.5-4,3-3.8,3.8
		c0.7,2.2,2.3,4.3,4.2,5.7c2.2,1.7,4.5,1.5,5.9-1.8C362.8,432.2,364.5,429.4,366.1,426.5z M400.7,174.1c6-0.4,11.9-4.7,13.5-9.9
		c0.3-1.1,0.5-2.9-0.1-3.6c-2.3-2.8-5.2-4.7-9.2-3.9c-1.4,4.1,2.2,4.8,4.3,6.3C408.8,168.7,403.2,170.2,400.7,174.1z M175.1,476.1
		c-2.3-3.2-4.8-5.6-5.9-8.5c-1.4-3.4-4.1-3.2-6.6-3.7c-0.4-0.1-1.6,1.4-1.5,2C161.7,471,168.7,476.3,175.1,476.1z M194.9,398.3
		c0.3-5.2-3.3-5.6-4.9-5.4c-1.6,0.2-4,2.8-4.2,4.5c-0.4,3.3,3.1,4.4,5.4,4.3C192.8,401.6,194.2,398.9,194.9,398.3z M283.1,406.8
		c0,0.5,0.1,1,0.1,1.4c1.5,1,2.9,2.1,4.5,3.1c1.5,1,3.1,1.8,4.6,2.6c3.9-4.2,3.8-4.7-0.8-6.7c-1.2-0.5-2.4-1.3-3.6-1.4
		C286.3,405.8,284.7,406.4,283.1,406.8z M199,403.8c5.6,0.6,5.6-2.8,6.1-5.2c0.2-0.8-1.7-2.7-2.8-3c-2.6-0.5-5.8,2.3-5.4,4.9
		C197.1,401.9,198.6,403.2,199,403.8z M103,104.2c0.9-5.3,1.7-10.2,2.7-16C98.3,95.4,97.3,101.3,103,104.2z M205.1,419.1
		c-4.5-1.2-7.5,0.9-8,5.1c-0.3,2.9,1.1,4,3.7,2.8C204.3,425.5,205,422.5,205.1,419.1z M186,419.9c1.4,3.2,2.4,6,6,4.3
		c3.1-1.4,3.9-3.9,2.7-7.9C191.6,417.6,188.8,418.7,186,419.9z M178.1,390.3c-0.7,0.9-1.8,2.2-2.9,3.6c1.8,1.2,3.5,2.8,5.5,3.5
		c0.6,0.2,2.8-1.5,2.9-2.5C184,391.9,182,390.7,178.1,390.3z M176.5,433c-1.6,2-3.8,3.9-3.5,4.7c0.7,1.6,3,4,4.1,3.7
		c1.7-0.4,3-2.7,4.5-4.3C180.2,436,178.7,434.8,176.5,433z M210.5,406.9c2.1-2.5,3.5-4.1,4.9-5.7c-1.1-0.8-2.8-2.6-3.2-2.4
		c-1.7,1-3.2,2.6-4.4,4.2C207.7,403.4,209.1,404.9,210.5,406.9z M167.3,435.7c0.6,0,1.2,0,1.8,0c1-1.8,2.1-3.5,2.7-5.4
		c0.1-0.4-2.2-2.1-3.2-2c-1.3,0.1-3.5,1.6-3.5,2.3C165.3,432.4,166.6,434,167.3,435.7z M314.1,426.1c-2.1-1.7-3.7-3.2-5.6-4.4
		c-0.7-0.5-2,0-3.1,0.1c0.4,1.3,0.5,3,1.4,3.9c1.4,1.4,3.3,2.4,5.1,3.6C312.8,428,313.4,427.1,314.1,426.1z M158.3,454.1
		c2.7,3.4,3.2,3.4,8.9,0.1c-1.4-1.7-2.7-3.2-4.3-5.1C161.1,451.1,159.7,452.6,158.3,454.1z M178.9,430.8c3.1,0.6,5.2,1.3,7.2,1.2
		c0.6,0,1.8-2.5,1.4-3.2c-0.7-1.4-2.3-2.3-3.6-3.4C182.4,427.1,181.1,428.4,178.9,430.8z M170.2,449.1c1.5-1.5,2.5-2.5,3.6-3.6
		c-1.4-1-2.8-2.7-4.2-2.7c-1.3,0-2.6,1.8-4,2.9C167,446.7,168.3,447.7,170.2,449.1z M165.9,413.5c-1.2,2-2.9,3.7-2.6,4.2
		c1,1.4,2.7,2.3,4.1,3.5c0.9-1.2,2.8-2.7,2.6-3.7C169.7,416.2,167.8,415.3,165.9,413.5z M358.3,409.6c-2.2-4.9-4.3-6-8.5-4.7
		C352,410.2,354.4,411.5,358.3,409.6z M214.5,422.1c-4.3-0.7-5.7,0.3-7.8,5.7C210.9,429.3,212.7,428.1,214.5,422.1z M325.6,404.7
		c1,2.9,2.5,5.3,5.9,4.9c0.6-0.1,1.6-2.4,1.3-3.3C332,403.5,328.8,402.9,325.6,404.7z M190.3,435.3c4.5,1.6,5.7,1.1,8-3.6
		C193.5,429.5,191.1,430.5,190.3,435.3z M170.5,423.7c2.2,2.3,6.1,3.2,7.4,1.4c0.6-0.8,0.4-2.8-0.3-3.6
		C176.1,419.6,172.8,420.8,170.5,423.7z M154.4,429.8c-4.3,3.6-4.2,4.6,0.8,7.1C159.8,432.6,159.7,432.3,154.4,429.8z M331.4,425.8
		c1-1.6,2.1-2.9,1.9-3.2c-1.3-1.7-2.8-3.3-4.5-4.7c-0.1-0.1-2.3,1.8-2.2,1.9C327.9,421.6,329.4,423.3,331.4,425.8z M337.3,425
		c-1.1,2.2-2.1,3.5-1.8,3.9c1.3,1.7,2.9,3.2,4.4,4.7c0.6-0.8,1.9-1.9,1.8-2.2C340.6,429.5,339.2,427.8,337.3,425z M326.1,414.9
		c-1.7-2-2.7-3.9-4.2-4.8c-1.2-0.7-3.1-0.1-5.4-0.1C318.8,414.3,321,416.2,326.1,414.9z M297,412.8c0,1.7-0.6,3.7,0.1,4.4
		c1.3,1.4,3.4,2,5.6,3.1C302.9,415.1,302.2,414.2,297,412.8z M303.2,407.1c0.4,3.6,2.2,5.6,5.9,5.9
		C310.3,408.1,308.3,406.1,303.2,407.1z M204.5,414.5c2.7,1,5.5,2,6.2-1.9c0.2-0.9-1.4-2.9-2.2-3C205.5,409.4,204,411.1,204.5,414.5
		z M175.4,452.2c3-1,5.3,4,7.5-0.5c0.4-0.9,0.2-3-0.3-3.2C179.8,447.3,177.7,448.8,175.4,452.2z M184.6,444.5
		c3.3,1.1,5.7,0.7,6.7-2.5c0.2-0.5-1.1-2.2-1.9-2.3C186.3,439.4,185,441.5,184.6,444.5z M156.6,427.3c2.7,0.6,4.4,1,6,1.3
		c0.1-1.6,0.5-3.3,0.2-4.8c-0.1-0.7-2.4-1.7-2.6-1.5C159,423.5,158.1,425.1,156.6,427.3z M351.1,398.8c0-0.6,0-1.2,0.1-1.8
		c-2-0.7-4-1.6-6.1-2.1c-0.2-0.1-1.5,2-1.3,2.3c0.8,1.1,2,2.5,3.3,2.7C348.3,400.3,349.8,399.3,351.1,398.8z M175.6,416.2
		c2.6,0.9,2.9,5.4,6.6,3.3c0.6-0.4,1-2.8,0.5-3.2C180.8,414.5,178.4,413.5,175.6,416.2z M337.1,410.9c-1.2,1.8-2.2,3-2,3.2
		c1.3,1.4,2.7,2.7,4.3,3.8c0.2,0.1,1.9-1.6,1.9-1.7C340.1,414.6,338.9,413.1,337.1,410.9z M165.6,438.7c-1.8-1.1-3.2-2.5-3.6-2.2
		c-1.2,0.7-2.4,1.9-2.8,3.2c-0.2,0.6,2,2.7,2.2,2.6C162.7,441.5,163.8,440.3,165.6,438.7z M207.5,434.2c-3.7-2.3-5.7-1-6.4,4.1
		C204.7,439.1,206.4,437.2,207.5,434.2z M317.8,420.8c-0.1-3.3-1.4-5.1-4.5-5.4c-0.5,0-1.6,1.5-1.5,2
		C312.6,420.4,314.8,421.1,317.8,420.8z M219.1,410.2c-2.3,2.1-4.1,3.7-6.1,5.6C218,417.9,219.9,416.3,219.1,410.2z M337,397.5
		c-1.1,1.4-2.2,2.5-2.1,2.7c1.2,1.4,2.5,2.7,3.9,3.8c0.2,0.1,1.9-1.5,1.9-1.6C339.8,400.8,338.6,399.4,337,397.5z M342.2,408.4
		c0.8,2.4,1,5.3,4.4,5.3c0.4,0,1.2-1.8,1-2.3C346.7,409.2,345.9,406.3,342.2,408.4z M153.9,450.3c2.1-1.4,4.6-2.5,2.8-5.6
		c-0.3-0.5-2.4-0.6-2.9-0.1C152.1,446.3,151.4,448.4,153.9,450.3z M309.6,402.1c1.1,4.1,2.8,5.2,5.3,4.5c0.7-0.2,1-2,1.4-3
		C314.4,403.1,312.5,402.7,309.6,402.1z M346.2,421.7c-0.5,0-1.1,0.1-1.6,0.1c-0.8,0.8-1.5,1.6-3,3.1c2.5,1,4.5,1.8,6.4,2.7
		C347.4,425.6,346.8,423.6,346.2,421.7z M327.7,446.2c0.6-6.2-1.2-8-6.1-6.1C323.7,442.2,325.4,443.9,327.7,446.2z M218.3,406.4
		c3.8,0.9,5.3-0.7,5.7-3c0.1-0.8-1.5-1.8-2.7-3.3C220,402.8,219.2,404.4,218.3,406.4z M194.4,445.6c0.2,0.5,0.4,1.1,0.6,1.6
		c2.1-0.8,4.3-1.6,6.4-2.4C197.8,441.5,195.9,442.8,194.4,445.6z M322.7,424.4c-0.5,0.2-0.9,0.4-1.4,0.6c0,1.3-0.5,3.4,0.1,3.7
		c1.4,0.8,3.2,0.8,4.8,1.1c0.3-0.5,0.6-1,0.8-1.5C325.7,427,324.2,425.7,322.7,424.4z M365.5,419.8c-2.3-2.1-4-3.6-5.7-5.1
		c-0.5,0.8-1.5,1.8-1.3,2.3C359.4,419.6,361.1,421.1,365.5,419.8z M330,432.3c-0.5,0.3-1,0.6-1.5,0.9c1.1,1.7,2.1,3.4,3.3,4.9
		c0.3,0.3,1.3,0,2,0c-0.1-0.8,0.2-1.8-0.2-2.2C332.5,434.5,331.2,433.4,330,432.3z M319.3,436.7c1.8-3.8,1-5.5-1.6-5.9
		c-0.7-0.1-1.5,0.8-2.3,1.3C316.5,433.4,317.6,434.7,319.3,436.7z M201.1,408.1c-2.4-0.2-4.5-0.5-7.3-0.7
		C196.7,411.5,199.3,411.7,201.1,408.1z M190,407.2c0.3-0.7,0.6-1.5,0.9-2.2c-1.8-0.7-3.6-1.3-5.4-2c-0.3,0.6-0.5,1.2-0.8,1.8
		C186.5,405.6,188.2,406.4,190,407.2z"/>
	<path d="M216.5,473.9c6.8,0.5,13.3,1,19.8,1.3c14.8,0.7,29.5,1.6,44.3,1.7c10.8,0.1,21.6-1.1,32.4-1.2c5.4-0.1,10.8,0.8,16.1,1.7
		c4.1,0.7,7.9,2.4,10,6.4c1.8,3.2,1.3,5.3-2.2,5.9c-4.8,0.8-9.9,0.8-14.8,0.7c-6.1-0.1-12.5-2.2-18.1-0.8
		c-12.8,3.3-25.5,0.7-38.2,1.2c-11.7,0.5-23.5-0.6-35.1-1.9c-8.9-1-13.5-5.7-14.3-12.4C216.4,476,216.5,475.3,216.5,473.9z"/>
	<path d="M125.4,145.3c-4.9,0-7.8-3.7-6.5-7.3c1.9-5.2,4.7-9.7,9.6-12.7c2.5-1.5,5-1.7,7.2,0.5c1.9,1.8,2.6,3.5,0.5,6
		c-3.1,3.7-5.7,7.9-8.6,11.8C127,144.5,125.8,145,125.4,145.3z"/>
	<path d="M106.7,177.6c0.4-2.1,0.7-3.4,1.1-5.4c-4.6,0-8.9,0-14.4,0c1.7-1.7,2.5-3.2,3.7-3.7c4.4-2,9-2,13.3,0.4
		c2.3,1.2,3.6,3.3,2.6,5.9C111.9,177.5,109.7,178.1,106.7,177.6z"/>
	<path d="M152.6,148.9c-6.1,5.2-10.5,11.1-16.3,15.5C136.5,157.2,145.1,149.1,152.6,148.9z"/>
	<path d="M173.3,132.3c-3.5-0.2-3.9-2.2-4-4.3c-0.1-2.5,1.2-4.1,3.8-4c2.8,0.2,4.5,2.2,4.1,4.7C176.9,130.2,174.6,131.2,173.3,132.3
		z"/>
	<path d="M144.1,146.9c-1.4,1-2.8,2.6-4.3,2.7c-1.2,0.1-3.6-1.5-3.7-2.5c-0.3-2.4,1-4.9,3.9-4.9c1.4,0,2.8,1.8,4.2,2.7
		C144.1,145.7,144.1,146.3,144.1,146.9z"/>
	<path d="M166,138.8c-0.7-1.1-1.9-2.2-2.1-3.3c-0.4-3.6-0.4-7.3-0.5-11c0-0.5,0.9-1,1.4-1.5c0.5,0.5,1.3,0.9,1.4,1.5
		c0.4,4.6,0.6,9.3,0.9,13.9C166.7,138.4,166.4,138.6,166,138.8z"/>
	<path d="M288.3,205.2c2.9,7.5,5.6,14.8,8.4,22c1.1,2.8,2.8,3.8,6,3.6c13-0.5,25.5,1.3,36.6,8.9c5.9,4.1,8.7,9.3,7.3,16.6
		c-0.6,3.1-0.9,6.3-1.9,9.3c-0.6,2-2.2,3.7-3.4,5.4c-0.4,0.6-1.4,1.1-1.5,1.8c-1.1,7.2-8.3,9.2-12,14.1c-1.3,1.7-4,2.2-5.7,3.6
		c-0.8,0.6-1.3,2.3-1.1,3.2c1.1,3.9,2.8,7.6,3.7,11.5c0.9,3.8,1.3,7.7,1.5,11.5c0,1-1.7,2-2.9,3.2c-6.6-7-5.4-16.3-9.4-24.4
		c-4.4,0.9-9.1,1.8-13.7,2.8c-1.7,0.4-3.3,0.9-5,1.3c-4.9,1-5.2,1.2-3.6,6.2c0.9,3,2.3,5.9,3.3,8.9c0.5,1.5,1,3.1,0.8,4.6
		c-0.1,1.7-1,3.3-1.5,4.9c-1.8-1.1-4.5-1.8-5.2-3.4c-1.5-3.4-1.9-7.3-2.7-11c-0.3-1.4-0.5-2.8-0.8-4.3c-0.9-3.7-2.9-5.3-7.1-5.1
		c-8.8,0.5-17.7,0.7-26.2-2.3c-2.6-0.9-5-2.2-7.5-3.5c-4.1-2-4.8-5.8-4.3-9.8c0.6-4.8,5-7.3,9.8-5.2c4.3,1.9,8.1,4.8,12.4,6.9
		c4.2,2,8.6,3.8,13,5.1c1.4,0.4,3.4-0.7,5.3-1.2c-2.4-8.8-4.6-17.1-6.9-25.3c-0.8-2.8-2.3-4.1-5.7-3.7c-9.5,1.1-18.7-0.1-26.8-6
		c-11-7.9-12.8-20.3-8.6-29.9c2.5-5.8,7.3-11.9,14.2-14.7c4.9-2,5.7-3.2,4-8c-1.3-3.6-3.3-6.8-5.1-10.2c-1.8-3.4-2.6-6.9-1.4-10.8
		c3.8,0.2,5.5,2.9,6.6,5.8c1.3,3.4,2,7.1,3.2,10.6c1.9,5.6,2.8,6.3,8.2,4.5c5.3-1.7,10.4-4.2,16.2-6.5c-1.6-3.5-3.3-6.6-4.6-9.8
		c-1-2.8-1.8-5.7-2.1-8.7c-0.1-1,1.4-2.3,2.2-3.4c1.1,0.9,2.6,1.5,3.1,2.6c2.2,4.7,4.2,9.6,6.2,14.5c1,2.5,2.7,2.9,5.4,2.5
		c12.3-2.2,24.5-1,36.4,2.4c3.2,0.9,6.2,4.2,8.3,7.1c2.3,3.2-1.8,8.8-6.3,9.2c-5.3,0.4-10-1.3-14.6-3.9c-3.3-1.8-6.8-3.4-10.3-4.9
		C297.5,201.8,293.1,203.4,288.3,205.2z M301.1,254c-0.5,0.6-1.1,1.1-1.6,1.7c-3.2,0.6-6.5,1.1-9.7,1.9c-3.1,0.8-6.3,1.7-9.2,3.2
		c-1.1,0.6-2,3-1.7,4.4c0.8,4,2.1,7.8,3.3,11.7c1.2,3.6,2.3,7.3,3.8,10.7c0.5,1.1,2.2,2.4,3.1,2.2c6.3-1.3,12.5-2.9,18.7-4.6
		c2.7-0.7,3.3-2.3,2.3-5.1c-2.5-7.2-4.6-14.4-7-21.6C302.7,257,301.8,255.6,301.1,254z M283.1,207.9c-5.4-0.5-17.3,3-20.8,6.4
		c-0.6,0.5-0.8,2-0.5,2.7c2.2,5.5,4.6,10.9,6.9,16.3c1.5,3.5,3.9,4.1,7.6,2.9c5.3-1.7,10.8-2.8,16.8-4.2
		C289.6,223.5,286.4,215.8,283.1,207.9z M317.1,280.9c3-1.6,5.5-2.7,7.8-4.1c4.5-2.9,8.4-6.3,9.9-11.8c2.1-7.4-0.7-11.5-8.3-12.1
		c-2.9-0.2-5.8-0.8-8.6-0.6c-2.4,0.1-5,0.7-7.2,1.8c-2.8,1.3-4.2,3.5-1.7,6.6c1.1,1.4,1.7,3.2,2.3,5
		C313.4,270.5,315.1,275.4,317.1,280.9z M264.7,239.4c-1.8-8.5-4.4-15.6-9.8-21.4c-3,2.4-6.2,4.4-8.6,7.1c-2,2.2-3.4,5.1-4.7,7.9
		c-1.5,3.4,0.2,6,3.6,6.2C251.5,239.7,257.8,239.4,264.7,239.4z"/>
	<path d="M139.3,293.4c0,1.5,0,2.5,0,3.5c-0.4,0.2-0.7,0.4-0.9,0.3c-7.2-0.8-14.4-1.3-21.6-2.4c-4.4-0.7-4.6-1.4-4-6
		C121.6,290.3,130.3,291.8,139.3,293.4z"/>
	<path d="M114.5,299.3c3.4-1.8,21.2,1.2,24.4,4.1C135.7,306.6,118.1,303.7,114.5,299.3z"/>
	<path d="M163.4,317c-0.7-8.7,1.4-12.2,7.3-12.7C172.8,311.3,169.5,317.3,163.4,317z"/>
	<path d="M197.1,341.2c-0.8,2.1-1.4,4.1-2.5,5.8c-0.5,0.8-1.9,1.7-2.7,1.6c-0.9-0.2-2.3-1.5-2.2-2.3c0-2.3,0.3-4.7,1.3-6.7
		c0.7-1.3,2.8-1.8,4.3-2.6C195.8,338.3,196.4,339.7,197.1,341.2z"/>
	<path d="M245.7,336.1c4.2,2.6,3.6,5.4,1,7.6c-1.5,1.2-4.1,1.1-6.1,1.6c0.4-2.2,0.3-4.5,1.2-6.4
		C242.4,337.6,244.4,336.9,245.7,336.1z"/>
</g>
</svg>
