<?xml version="1.0" encoding="utf-8"?>
<!-- Generator: Adobe Illustrator 19.0.0, SVG Export Plug-In . SVG Version: 6.00 Build 0)  -->
<svg version="1.1" id="Layer_1" xmlns="http://www.w3.org/2000/svg" xmlns:xlink="http://www.w3.org/1999/xlink" x="0px" y="0px"
	 viewBox="0 0 512 512" style="enable-background:new 0 0 512 512;" xml:space="preserve">
<style type="text/css">
	.st0{fill:#333333;}
	.st1{fill:#EDB401;}
	.st2{fill:#D6D6D5;}
	.st3{fill:#343434;}
	.st4{fill:#376AA8;}
</style>
<g>
	<path class="st0" d="M261.5,262.1c-0.3,3.5-0.7,7-0.7,10.6c0,74.1-0.1,148.3,0.2,222.4c0,8.2-2.1,10-10.1,10
		c-116.2,0-221.2-89.8-240.2-206C-11.4,164.5,71.5,41.8,204.5,12.1c5.5-1.2,10.9-1.2,16.4-1c-1.4,3.2-4.7,2.8-7.3,3.8
		c-47.2,17.7-80.6,64.7-82.3,112.5c-2.2,61,35.8,107.2,80,124.8C227.5,258.7,244.5,260,261.5,262.1z"/>
	<path class="st1" d="M261.7,7.2c78.2,2.1,141.4,34,190.1,95c-0.4,0.9-1,1.7-1.2,2.6c-8.1,43.1-24.3,83-47.9,119.9
		c-7.8,12.2-16.4,23.9-24.7,35.8c-15.1,2-30.3,0.6-45.5,0.8c-23.6,0.4-47.2,0.4-70.8,0.6c-0.2-32.2-0.4-64.4-0.7-96.6
		c17.4-2.4,27.4-11.8,28.1-26.4c0.8-17-7.1-27-24.8-31.3c-1.2-0.3-2.4-0.9-3.6-1.4c0.1-3.8,0.2-7.7,0.3-11.5
		C261.3,65.6,261.5,36.4,261.7,7.2z"/>
	<path class="st2" d="M261.2,165.4c0.2,32.2,0.4,64.4,0.7,96.6c0,0-0.3,0-0.3,0c-17-2-34-3.4-50.2-9.8
		c-44.2-17.6-82.2-63.8-80-124.8c1.7-47.9,35-94.8,82.3-112.5c2.5-0.9,5.9-0.6,7.3-3.8c9.4-4.1,19.6-2.4,29.3-3.8
		c3.8-0.6,7.7-0.1,11.6-0.1c-0.2,29.2-0.4,58.4-0.6,87.6c0,3.8-0.2,7.7-0.2,11.5c-3.4,0.9-6.9,1.7-10.2,2.8
		c-12.1,4.3-20.4,17.4-18.9,29.6C233.6,154.6,243.1,163.2,261.2,165.4z"/>
	<path class="st3" d="M378.1,260.7c8.3-11.9,16.9-23.6,24.7-35.8c23.6-36.9,39.7-76.8,47.9-119.9c0.2-0.9,0.8-1.8,1.2-2.6
		c34.4,44.1,52.1,93.9,53,149.9c0.1,6.3-0.9,9-8.2,8.9C457.2,260.6,417.6,260.7,378.1,260.7z"/>
	<path class="st4" d="M261.2,165.4c-18.1-2.2-27.5-10.8-29.4-26.7c-1.5-12.2,6.8-25.3,18.9-29.6c3.3-1.2,6.8-1.9,10.2-2.8
		c1.2,0.5,2.3,1.1,3.6,1.4c17.7,4.3,25.7,14.3,24.8,31.3C288.5,153.6,278.5,163,261.2,165.4z"/>
</g>
</svg>
