<?xml version="1.0" standalone="no"?>
<!DOCTYPE svg PUBLIC "-//W3C//DTD SVG 1.1//EN" "http://www.w3.org/Graphics/SVG/1.1/DTD/svg11.dtd" >
<svg xmlns="http://www.w3.org/2000/svg">
<metadata></metadata>
<defs>
<font id="_.regular" horiz-adv-x="1127" >
<font-face units-per-em="2048" ascent="1536" descent="-512" />
<missing-glyph horiz-adv-x="479" />
<glyph unicode="&#xfb01;" horiz-adv-x="1249" d="M-239 -460q254 87 374 778q26 146 71 533q1 9 2 16h-137l7 93l150 49q12 72 27.5 133.5t40 126t54.5 114.5t74 96t96 76t122 48t152 18q112 0 185.5 -33.5t73.5 -101.5q0 -44 -32.5 -76t-85.5 -32q-35 0 -70.5 21.5t-58 47t-54 47t-62.5 21.5q-30 0 -55 -19t-44 -58 t-33 -82t-25.5 -108.5t-19.5 -117.5t-17 -128h365q174 0 283 57l6 -6q0 -102 -83 -477.5t-83 -413.5q0 -50 40 -50q21 0 52.5 14.5t53.5 29.5l20 15l9 -76q-6 -5 -15.5 -13.5t-39.5 -29.5t-62.5 -37t-79.5 -29t-93 -13q-77 0 -122.5 36.5t-45.5 100.5q0 69 70.5 363.5 t70.5 349.5q0 53 -48 53h-285l-29 -20q-15 -126 -27 -220t-32 -212.5t-41 -207.5t-53 -188.5t-67.5 -172t-85 -144t-106.5 -118t-130 -77.5t-157 -40z" />
<glyph unicode="&#xfb02;" horiz-adv-x="1258" d="M-239 -460q63 22 117.5 79.5t94.5 138t73 181.5t56 208.5t41.5 220.5t31.5 216t24 197q6 59 9 86h-137l7 93l150 49q17 103 41.5 186t68.5 165.5t103 137.5t148.5 89t202.5 34q171 0 257 -42q149 33 225 71l7 -6q-8 -146 -57 -370l-215 -971q-25 -109 -25 -139 q0 -52 44 -52q23 0 62 20t60 39l9 -76q-6 -5 -15 -13.5t-39 -29.5t-63 -37t-83.5 -29t-99.5 -13q-76 0 -117 40.5t-41 96.5q0 23 6 57.5t20 95t16 71.5l211 956q2 12 6 32l7 35t4 25q-38 6 -77 28t-66.5 45.5t-64 41.5t-73.5 18q-42 0 -74 -37t-54 -114t-36 -157.5 t-28 -199.5h236l-31 -131h-196l-27 -17q-16 -130 -29.5 -231t-34 -219t-42.5 -209t-53.5 -188t-68 -169t-85 -140t-105.5 -113t-128 -75t-153 -39z" />
<glyph unicode="&#xfb03;" horiz-adv-x="1868" d="M-239 -460q63 22 116.5 78.5t93 132.5t72.5 177t55.5 202.5t41.5 216.5t31.5 213t23.5 197q9 76 13 110h-137l7 93l150 49q17 93 43.5 169.5t71.5 150.5t104.5 124.5t147.5 81.5t197 31q188 0 270 -69q138 124 352 124q112 0 185 -33.5t73 -101.5q0 -45 -32 -76.5 t-85 -31.5q-35 0 -70.5 21.5t-58.5 47t-54.5 47t-62.5 21.5q-30 0 -55 -19t-44 -58t-33 -82t-26 -108.5t-19.5 -117.5t-16.5 -128h365q173 0 283 57l6 -6q0 -102 -82.5 -477.5t-82.5 -413.5q0 -50 40 -50q21 0 52.5 14.5t52.5 29.5l20 15l10 -76q-6 -5 -15.5 -13.5 t-40.5 -29.5t-62.5 -37t-79 -29t-93.5 -13q-78 0 -122.5 36.5t-44.5 100.5q0 69 70.5 363.5t70.5 349.5q0 53 -48 53h-286l-29 -20q-14 -126 -26 -220t-32 -212.5t-41.5 -207.5t-53 -188.5t-67.5 -172t-85 -144t-106 -118t-130 -77.5t-157 -40l-21 64q49 16 92 55t76.5 87 t64.5 122t53 138t43.5 160t34.5 163t28 169.5t22 158.5t19 153t16 130h-320l-29 -20q-16 -129 -29.5 -230t-34 -219.5t-42.5 -209t-53.5 -187.5t-68 -169t-85 -140t-105.5 -112.5t-128 -74.5t-153 -38zM496 1002h349q32 189 92 321q-34 14 -73 50.5t-76 62.5t-81 26 q-35 0 -64.5 -16.5t-49.5 -41.5t-36 -66t-25 -76.5t-17 -88.5t-11.5 -86.5t-7.5 -84.5z" />
<glyph unicode="&#xfb04;" horiz-adv-x="1885" d="M-239 -460q63 22 116.5 78.5t93 132.5t72.5 177t55.5 202.5t41.5 216.5t31.5 213t23.5 197q9 76 13 110h-137l7 93l150 49q17 93 43.5 169.5t71.5 150.5t104.5 124.5t147.5 81.5t197 31q188 0 272 -71q133 126 350 126q174 0 258 -44q158 40 226 73l6 -6 q-8 -144 -57 -370l-215 -971q-24 -103 -24 -139q0 -52 44 -52q24 0 65 23t68 44l9 -75q-6 -6 -15.5 -14.5t-41.5 -31t-66 -40t-85.5 -31.5t-103.5 -14q-76 0 -116.5 40.5t-40.5 96.5q0 39 49 253l183 838q34 151 38 181q-39 6 -78.5 28t-66.5 45.5t-64.5 41.5t-74.5 18 q-42 0 -74.5 -37.5t-54.5 -113.5t-36 -158t-27 -199h236l-30 -131h-194l-29 -20q-18 -156 -36 -284t-46.5 -260.5t-62 -236.5t-81 -202t-104.5 -168.5t-132 -123.5t-165 -79l-32 60q44 32 84.5 86.5t71.5 113.5t59 146t47.5 155.5t39 173t30 169.5t24 173.5t18.5 154.5 t15 142h-323l-29 -20q-16 -129 -29.5 -230t-34 -219.5t-42.5 -209t-53.5 -187.5t-68 -169t-85 -140t-105.5 -112.5t-128 -74.5t-153 -38zM496 1002h353q30 195 91 319q-35 14 -74 51t-76.5 63.5t-82.5 26.5q-35 0 -64.5 -16.5t-49.5 -41.5t-36 -66t-25 -76.5t-17 -88.5 t-11.5 -86.5t-7.5 -84.5z" />
<glyph horiz-adv-x="2048" />
<glyph horiz-adv-x="2048" />
<glyph unicode="&#xd;" horiz-adv-x="2048" />
<glyph unicode=" "  horiz-adv-x="479" />
<glyph unicode="&#x09;" horiz-adv-x="479" />
<glyph unicode="&#xa0;" horiz-adv-x="479" />
<glyph unicode="!" horiz-adv-x="616" d="M44 95q0 85 51.5 153t145.5 68q62 0 94 -34t32 -85q0 -85 -52.5 -154.5t-148.5 -69.5q-60 0 -91 35t-31 87zM224 454l77 1004q88 17 179 40t140 37l47 14l10 -19q-50 -81 -107 -260l-256 -816h-90z" />
<glyph unicode="&#x22;" horiz-adv-x="798" d="M162 887l117 588h236l-15 -82l-192 -506h-146zM540 887l117 588h236l-15 -82l-192 -506h-146z" />
<glyph unicode="#" horiz-adv-x="1397" d="M0 270l31 133h292l84 300h-289l30 133h295l123 443h139l-121 -443h334l124 443h140l-123 -443h319l-31 -133h-323l-84 -300h320l-30 -133h-325l-128 -467h-142l129 467h-335l-128 -467h-142l128 467h-287zM464 403h334l84 300h-333z" />
<glyph unicode="$" horiz-adv-x="937" d="M-19 171q0 37 21.5 96t42.5 100l23 40h78q-11 -68 -11 -104q0 -79 44.5 -139.5t132.5 -74.5l91 413q-40 25 -60 38.5t-56 39.5t-55.5 44.5t-45.5 47.5t-39 55.5t-23 60.5t-10 71q0 143 124.5 255t327.5 123l42 192h102l-45 -192q47 -4 101 -10.5t113.5 -16t62.5 -9.5 l-91 -329h-77q8 58 2 111t-40 94.5t-92 53.5l-87 -388q65 -42 105 -72.5t87 -78.5t70 -105t23 -124q0 -110 -63 -195t-164.5 -129.5t-225.5 -51.5l-39 -184h-103l40 184q-80 7 -147 28t-113 62t-46 94zM342 969q0 -47 32.5 -87t94.5 -82l73 333q-83 -10 -141.5 -55.5 t-58.5 -108.5zM414 91q83 12 140.5 59.5t57.5 115.5q0 49 -31 90t-90 85z" />
<glyph unicode="%" horiz-adv-x="1627" d="M137 0l1290 1500l86 -75l-1224 -1425h-152zM164 1062q0 100 52.5 195.5t143.5 156.5t193 61q134 0 215 -80.5t81 -208.5q0 -79 -34 -154.5t-88.5 -131t-126.5 -89.5t-144 -34q-134 0 -213 78t-79 207zM329 1081q0 -69 38.5 -115t99.5 -46q82 0 149.5 75t67.5 172 q0 70 -38 116t-97 46q-84 0 -152 -75.5t-68 -172.5zM829 259q0 101 52.5 196.5t144 156.5t192.5 61q134 0 215.5 -81t81.5 -210q0 -104 -57 -200t-148.5 -152.5t-188.5 -56.5q-134 0 -213 79t-79 207zM996 279q0 -69 38 -115t99 -46q82 0 149 75t67 172q0 69 -38 115t-97 46 q-83 0 -150.5 -75t-67.5 -172z" />
<glyph unicode="&#x26;" horiz-adv-x="1384" d="M2 294q0 60 21 115.5t52 98t84.5 88.5t100 77t116.5 74q-68 176 -68 321q0 84 26 159t78.5 138t143.5 100t210 37q150 0 237.5 -61t87.5 -176q0 -45 -14 -87.5t-35 -78.5t-57.5 -74.5t-69 -67t-81.5 -63t-84 -57t-87 -54.5q98 -222 279 -473q113 97 182.5 213.5 t69.5 237.5q0 131 -128 155v66q44 25 137 25q79 0 118.5 -30t39.5 -121q0 -143 -100.5 -313t-262.5 -309q78 -102 150.5 -179t119.5 -110l-34 -53q-212 49 -411 214q-223 -133 -436 -133q-102 0 -187.5 34t-141.5 109t-56 178zM261 350q0 -121 65.5 -182.5t171.5 -61.5 q104 0 247 73q-207 208 -331 473q-64 -58 -108.5 -141.5t-44.5 -160.5zM578 1131q0 -114 48 -251q106 80 164.5 169.5t58.5 215.5q0 62 -24 103t-69 41q-78 0 -128 -84.5t-50 -193.5z" />
<glyph unicode="'" horiz-adv-x="420" d="M162 887l117 588h236l-15 -82l-192 -506h-146z" />
<glyph unicode="(" horiz-adv-x="660" d="M62 487q0 104 16 206t43.5 187.5t63 166.5t75 145t78.5 120.5t74.5 97t63 70.5t43.5 45l17 14l85 -37q-14 -18 -36.5 -51.5t-81 -143t-103 -225t-81 -288t-36.5 -340.5q0 -140 23 -275.5t56.5 -229.5t67.5 -168t58 -109l23 -37l-91 -46q-7 7 -20 20.5t-50.5 60t-71.5 98 t-75 133t-70.5 166t-50 196t-20.5 224.5z" />
<glyph unicode=")" horiz-adv-x="618" d="M-49 -365q8 10 22 27t53.5 77.5t75.5 126t80.5 167t76.5 206t53.5 240.5t21.5 271q0 124 -17.5 246.5t-43 208t-50 153t-42.5 100.5l-17 32l93 49q12 -13 32 -37.5t72 -106.5t90.5 -171.5t71 -229.5t32.5 -284q0 -141 -28.5 -278t-75 -245t-102 -206t-112 -168 t-102.5 -122t-75 -78l-29 -24z" />
<glyph unicode="*" horiz-adv-x="1123" d="M232 1135q-24 4 -27 32.5t6.5 60t25.5 57.5q24 43 64.5 74t63.5 4l175 -215q12 -14 20 -28t10 -22l2 -7q-28 -7 -65 0zM234 962l273 45q17 3 33.5 3t24.5 -1l7 -2q-7 -29 -32 -58l-175 -215q-23 -27 -63.5 4t-64.5 74q-16 26 -25.5 58t-5.5 60t28 32zM513 648l99 259 q6 16 14.5 30t13.5 21l6 6q20 -19 33 -57l100 -259q12 -32 -35.5 -52.5t-97.5 -20.5t-97.5 20.5t-35.5 52.5zM513 1448q-12 33 35.5 53.5t97.5 20.5t97.5 -20.5t35.5 -53.5l-100 -258q-5 -17 -13.5 -31t-14.5 -21l-5 -5q-21 22 -34 57zM719 1007q26 6 66 0l274 -45 q24 -4 27.5 -32t-6.5 -60t-25 -58q-25 -43 -65.5 -74t-62.5 -4l-175 215q-11 13 -19 27.5t-12 22.5zM719 1091q6 26 33 57l175 215q22 27 62.5 -4t65.5 -74q15 -26 25 -57.5t6 -60t-29 -32.5l-272 -44q-17 -3 -33.5 -3t-23.5 1z" />
<glyph unicode="+" horiz-adv-x="1149" d="M62 487v157h427v458h165v-458h421v-157h-421v-487h-165v487h-427z" />
<glyph unicode="," horiz-adv-x="494" d="M-118 -283q113 73 170.5 134.5t57.5 115.5q0 36 -29 72t-58 54l-29 17l21 114l232 114q69 -101 69 -207q0 -140 -106.5 -268.5t-271.5 -229.5z" />
<glyph unicode="-" horiz-adv-x="826" d="M108 475v177h589v-177h-589z" />
<glyph unicode="." horiz-adv-x="505" d="M6 95q0 85 51.5 153t145.5 68q63 0 94.5 -34t31.5 -85q0 -85 -52 -154.5t-148 -69.5q-61 0 -92 35t-31 87z" />
<glyph unicode="/" horiz-adv-x="648" d="M-192 -433l834 1908h174l-833 -1908h-175z" />
<glyph unicode="0" horiz-adv-x="1220" d="M82 414q-2 118 39.5 236t116 213t191 154.5t252.5 59.5q201 0 313.5 -120.5t117.5 -306.5q4 -119 -38.5 -238.5t-119 -217.5t-193.5 -159.5t-252 -61.5q-200 0 -312 123t-115 318zM348 391q0 -120 41 -200.5t126 -80.5q84 0 161.5 82t123 209.5t45.5 259.5 q0 122 -42 200.5t-128 78.5q-90 0 -166.5 -84t-118.5 -209.5t-42 -255.5z" />
<glyph unicode="1" horiz-adv-x="815" d="M-6 -11v87q95 0 137 31.5t57 109.5l135 617q15 76 -15 103t-133 27v87h627l-8 -82l-182 -25l-158 -727q-6 -29 -15 -58.5t-16 -44.5l-5 -15l201 -21l-7 -78z" />
<glyph unicode="2" horiz-adv-x="1023" d="M-22 80q113 77 328 254q144 121 209 208.5t65 181.5q0 86 -44 127.5t-114 41.5q-57 0 -113.5 -19t-86.5 -37l-28 -18l-42 63q7 8 19.5 21.5t54 47t86 59t112.5 46.5t138 21q127 0 210.5 -65.5t83.5 -177.5q0 -36 -10 -72t-23.5 -67.5t-43 -70t-52 -66t-69 -69.5 t-73.5 -65.5t-85.5 -70t-88 -69t-95.5 -71.5h262q39 0 72.5 12t55 27.5t44.5 45t34.5 49.5t31.5 58h98l-156 -405h-777z" />
<glyph unicode="3" horiz-adv-x="859" d="M-171 -345q91 2 187 33.5t179 87.5t136 141.5t53 184.5q0 59 -18.5 100t-54 61.5t-74.5 29t-91 8.5q-15 0 -26.5 -1.5t-15.5 -2.5l-5 -1v118q81 14 171 64.5t158 134t68 170.5q0 67 -38 96.5t-93 29.5q-50 0 -111.5 -22.5t-97.5 -45.5l-36 -22l-40 66q6 7 19 20 t54.5 46.5t86.5 59t112 46t133 20.5q124 0 209 -63t85 -174q0 -61 -30 -121t-73 -104.5t-104 -86.5t-111 -68.5t-105 -50.5q148 -15 233.5 -90t85.5 -195q0 -109 -72 -215t-183 -181t-247.5 -120.5t-263.5 -45.5l-80 5v88z" />
<glyph unicode="4" horiz-adv-x="1156" d="M-55 66v75l779 899l238 41l2 -6q-35 -95 -71 -252l-127 -582h281l-70 -175h-249l-31 -139q-46 -197 -53 -341l-272 -19q2 106 48 311l42 188h-517zM175 241h327l87 394q7 40 42 146z" />
<glyph unicode="5" horiz-adv-x="878" d="M-133 -345q137 0 269.5 57.5t217 154t84.5 201.5q0 53 -22.5 98t-58 75t-79 54t-87 37t-79 21.5t-58.5 11.5l-23 2l184 684h479q37 0 74 3t55 7l19 3l-55 -222h-511l-65 -243q10 -2 28 -5t69.5 -19.5t98 -37t103.5 -58t98 -82.5t69 -112.5t28 -145.5q0 -124 -67 -233 t-175.5 -183t-245 -116t-276.5 -42l-74 2v88z" />
<glyph unicode="6" horiz-adv-x="1123" d="M84 458q0 133 39.5 274.5t123 279.5t201 246.5t288 176t368.5 67.5v-84q-111 -12 -208 -53t-170.5 -102t-133.5 -141t-100.5 -168t-68 -185t-39.5 -191.5t-12 -188.5q0 -323 141 -323q56 0 106.5 52.5t82 130.5t50 164.5t18.5 158.5q0 107 -39 179t-105 72l-29 -4v86 q51 35 137 35q151 0 233 -98t82 -245q0 -80 -25 -166t-74.5 -167t-116 -146.5t-157 -105t-189.5 -39.5q-191 0 -297 134.5t-106 350.5z" />
<glyph unicode="7" horiz-adv-x="1017" d="M-17 -350q1 16 10.5 32.5t20 29t40.5 44t52 56.5q164 187 504 714l173 270q-84 -9 -133 -9h-272q-96 0 -133.5 -23.5t-98.5 -124.5h-89l137 412h735q41 0 77.5 2t51.5 4l17 2v-59q-98 -106 -144 -179l-676 -1062q-75 -119 -110.5 -159.5t-80.5 -40.5q-42 0 -63.5 26.5 t-17.5 64.5z" />
<glyph unicode="8" horiz-adv-x="1102" d="M38 289q0 74 30 142.5t86.5 128t120 108.5t147.5 100q-79 93 -122 174t-43 173q0 173 132.5 280t325.5 107q166 0 271 -78t105 -206q0 -42 -12.5 -81t-38 -74t-55 -65t-73 -61.5t-82 -56.5t-91.5 -55q54 -60 83.5 -96t67.5 -92t55 -111.5t17 -114.5q0 -124 -73.5 -225.5 t-192 -157t-255.5 -55.5q-62 0 -120.5 12t-109.5 38t-89.5 62.5t-61 89t-22.5 114.5zM276 306q0 -106 43 -173t137 -67q103 0 167.5 81t64.5 191q0 62 -30.5 127t-65 109.5t-96.5 113.5q-217 -169 -220 -382zM531 1182q0 -71 36.5 -136.5t103.5 -142.5q83 58 131.5 127 t48.5 173q0 93 -40 149.5t-110 56.5q-52 0 -92 -36t-59 -86.5t-19 -104.5z" />
<glyph unicode="9" horiz-adv-x="1142" d="M25 -356q152 17 277.5 88t207.5 174t138.5 233t81 261t24.5 263q0 323 -142 323q-54 0 -102 -52.5t-78 -130.5t-47.5 -164.5t-17.5 -158.5q0 -102 35.5 -170.5t97.5 -68.5l28 4v-86q-51 -35 -137 -35q-145 0 -223.5 94.5t-78.5 237.5q0 80 24 165.5t72.5 167t114 146.5 t154 104.5t185.5 39.5q192 0 297.5 -134t105.5 -350q0 -109 -28.5 -225t-82.5 -232.5t-141.5 -220.5t-196.5 -184t-256 -127t-312 -47v85z" />
<glyph unicode=":" horiz-adv-x="568" d="M31 95q0 85 51.5 153t145.5 68q63 0 94.5 -34t31.5 -85q0 -85 -53 -154.5t-149 -69.5q-60 0 -90.5 35t-30.5 87zM177 812q0 85 51.5 152.5t145.5 67.5q62 0 94 -33t32 -85q0 -85 -53 -154.5t-149 -69.5q-60 0 -90.5 35t-30.5 87z" />
<glyph unicode=";" horiz-adv-x="565" d="M-66 -283q112 73 170 134.5t58 115.5q0 36 -29 72t-60 54l-29 17l22 114l232 114q69 -101 69 -207q0 -140 -107 -268.5t-271 -229.5zM157 812q0 85 51.5 152.5t145.5 67.5q63 0 94.5 -33t31.5 -85q0 -85 -52.5 -154.5t-148.5 -69.5q-61 0 -91.5 35t-30.5 87z" />
<glyph unicode="&#x3c;" horiz-adv-x="1149" d="M31 511v101l942 507l44 -161l-768 -396l768 -418l-44 -159z" />
<glyph unicode="=" horiz-adv-x="1149" d="M78 283v155h969v-155h-969zM78 671v154h969v-154h-969z" />
<glyph unicode="&#x3e;" horiz-adv-x="1149" d="M124 144l767 418l-767 396l44 161l942 -507v-101l-942 -526z" />
<glyph unicode="?" horiz-adv-x="785" d="M49 99q0 82 51.5 149.5t144.5 67.5q64 0 95.5 -34t31.5 -90q0 -48 -20 -96t-67.5 -85.5t-111.5 -37.5q-65 0 -94.5 34.5t-29.5 91.5zM224 544q0 58 32.5 119t80 111.5t94.5 98t80 95t33 85.5q0 39 -32 79.5t-79 70.5t-93.5 54.5t-79.5 36.5l-32 13l120 257q11 -4 29 -12 t72 -33.5t102.5 -52.5t108.5 -67.5t103 -80.5t72.5 -89.5t29.5 -95.5q0 -54 -40 -115t-100 -114.5t-130 -111.5t-130 -105.5t-100 -97.5t-40 -89q0 -18 7 -44l-80 -11q-28 43 -28 99z" />
<glyph unicode="@" horiz-adv-x="1813" d="M9 342q0 129 38.5 255.5t108 234.5t166.5 200t210 157t243.5 101.5t262.5 36.5q154 0 287.5 -49.5t227.5 -137t147.5 -213.5t53.5 -273q0 -220 -114.5 -380t-303.5 -232q-76 -28 -154 -40t-179.5 -17.5t-162.5 -13.5l-11 10q-1 4 3.5 15.5t13 39.5t15.5 63l13 72 q-72 -101 -136 -149.5t-141 -48.5q-96 0 -156.5 74.5t-60.5 211.5q0 131 58 265t153.5 240t231.5 173t281 67q40 0 93.5 -5t85.5 -10l34 -5q-37 -93 -57 -195l-93 -473q-19 -97 -19 -141q0 -34 18 -55t54 -21q49 0 102.5 39t100 105t77 167.5t30.5 213.5q0 123 -34.5 229 t-100.5 187t-170.5 127.5t-236.5 46.5q-213 0 -386.5 -116.5t-270.5 -311.5t-97 -425q0 -143 40.5 -262.5t110 -198.5t159 -125t190.5 -51l-22 -100q-205 9 -365.5 103.5t-249 255t-88.5 359.5zM673 310q0 -148 66 -148q23 0 58 18.5t58 35.5l23 18l133 671 q-84 -4 -163.5 -94.5t-127 -227.5t-47.5 -273z" />
<glyph unicode="A" horiz-adv-x="1298" d="M-133 0v76q96 9 146 99l745 1294l124 19l215 -1245q14 -76 27.5 -109.5t30.5 -43.5t55 -17l-7 -73h-110l-361 -9v82q46 3 73.5 25.5t19.5 67.5l-46 288h-445l-36 -23l-186 -332l164 -26l-6 -73h-403zM376 570h382l-68 430q-3 15 -5 33l-4.5 40.5t-3.5 34.5z" />
<glyph unicode="B" horiz-adv-x="1326" d="M9 -6v82q61 8 106.5 41.5t55.5 83.5l205 1033q15 81 15 94q-2 37 -46 57q-31 11 -93 24v66h509q261 0 381.5 -78.5t120.5 -212.5q0 -130 -96.5 -231.5t-254.5 -163.5q36 -9 70.5 -22t80 -40t78 -60t55 -85t22.5 -113q0 -203 -177.5 -336t-472.5 -133h-161 q-109 0 -208.5 -1.5t-144.5 -2.5zM431 110h84q90 0 161 21t114.5 54t72 77.5t40 87.5t11.5 88q0 70 -22.5 121t-53.5 78.5t-75 43.5t-77.5 20t-70.5 4h-31l-31 -26l-86 -440q-6 -29 -15 -61.5t-16 -50.5zM580 816h146q82 6 156 107t74 223q0 40 -8.5 75.5t-29.5 69.5 t-60.5 54t-96.5 20h-46l-34 -29z" />
<glyph unicode="C" horiz-adv-x="1416" d="M93 615q0 168 71 329t193.5 284t299 198.5t373.5 75.5q93 0 259 -23t186 -25l-97 -361h-86q2 23 2 40q0 134 -66.5 197t-210.5 63q-116 0 -220.5 -40.5t-180 -109.5t-130.5 -159t-82.5 -191.5t-27.5 -204.5q0 -129 39.5 -230.5t109 -164.5t160 -96t195.5 -33 q90 0 183.5 25t141.5 50l49 25l29 -61q-9 -10 -24 -25t-69 -55t-114 -70t-155.5 -55t-196.5 -25q-153 0 -275.5 54t-198.5 144.5t-116.5 204t-40.5 239.5z" />
<glyph unicode="D" horiz-adv-x="1600" d="M9 -6v82q61 8 106.5 41.5t55.5 83.5l205 1033q15 81 15 94q-2 37 -46 57q-31 11 -93 24v66h548q123 0 230.5 -19.5t206 -64.5t168.5 -115t111 -176t41 -241q0 -185 -75 -344.5t-207.5 -272.5t-323.5 -177.5t-413 -64.5h-217zM431 110h118q141 0 259 40t198 109.5 t136.5 163.5t82 200.5t25.5 223.5q0 248 -118 383t-338 135h-82l-28 -27l-217 -1099q-6 -29 -15 -61.5t-16 -50.5z" />
<glyph unicode="E" horiz-adv-x="1269" d="M9 -6v82q67 9 110 43t54 92l203 1023q15 81 15 94q-2 37 -46 57q-31 11 -93 24v66h898q39 0 80 2.5t63 4.5l21 2l-107 -391h-86q32 151 -10.5 211.5t-170.5 60.5h-223l-33 -27l-104 -533h351l40 142h93l-84 -419h-111l34 166h-319l-33 -27l-84 -428q-6 -29 -15 -61.5 t-16 -50.5l-5 -17h288q54 0 91 7.5t67 21.5t61 48.5t59 74.5t73 114h87l-135 -376h-653z" />
<glyph unicode="F" horiz-adv-x="1180" d="M9 -6v82q67 9 110 43t54 92l203 1023q15 81 15 94q-2 37 -46 57q-31 11 -93 24v66h898q39 0 80 2.5t63 4.5l21 2l-109 -391h-86q32 151 -9.5 211.5t-169.5 60.5h-223l-33 -27l-106 -542h351l40 141h93l-85 -418h-110l34 167h-319l-33 -27l-85 -429q-6 -32 -15 -65 t-15 -49l-5 -17l230 -19l-9 -74z" />
<glyph unicode="G" horiz-adv-x="1523" d="M95 606q0 129 37.5 256.5t115 243t187 204t265.5 140.5t338 52q109 0 291.5 -23.5t192.5 -24.5l-97 -361h-87q2 28 2 55q0 81 -26.5 132.5t-100 82t-198.5 30.5q-140 0 -258 -63t-194 -168t-118 -238t-42 -276q0 -254 111.5 -403.5t319.5 -149.5q73 0 188 29l57 281 q16 82 -12 114t-125 47v67h527l6 -31q-3 -3 -9.5 -6t-23.5 -19t-32.5 -38t-32 -61.5t-26.5 -86.5l-72 -360q-32 -2 -216.5 -30t-273.5 -28q-198 0 -353 70.5t-248 216t-93 346.5z" />
<glyph unicode="H" horiz-adv-x="1739" d="M9 -6v82q67 9 110 43t54 92l207 1043q20 77 3 105t-113 50v66h163q118 0 202.5 2.5t110.5 4.5l26 2l9 -9q-3 -3 -9 -10t-23.5 -31.5t-32 -52.5t-31 -75t-26.5 -99l-79 -397h650l30 28l85 416q19 77 2.5 105t-113.5 50v66h164q117 0 202 2.5t111 4.5l26 2l8 -9 q-3 -3 -9 -10t-23 -31.5t-32 -52.5t-31.5 -75t-26.5 -99l-194 -977q-7 -32 -16 -65t-14 -49l-6 -17l175 -19l-8 -74l-587 -12v82q67 9 110 43t54 92l95 481h-648l-33 -31l-87 -431q-6 -32 -15 -65t-15 -49l-5 -17l175 -19l-9 -74z" />
<glyph unicode="I" horiz-adv-x="775" d="M9 -6v82q67 9 110 43t54 92l207 1043q20 77 3 105t-113 50v66h163q118 0 202.5 2.5t110.5 4.5l26 2l9 -9q-3 -3 -9 -10t-23.5 -31.5t-32 -52.5t-31 -75t-26.5 -99l-195 -977q-6 -32 -15 -65t-15 -49l-5 -17l175 -19l-9 -74z" />
<glyph unicode="J" horiz-adv-x="711" d="M-173 -296q92 14 179 125t123 293l225 1132q20 77 2.5 105t-113.5 50v66h164q118 0 202.5 2.5t109.5 4.5l26 2l9 -9q-10 -9 -24.5 -28t-47 -88t-49.5 -152l-198 -981q-59 -293 -219.5 -440t-374.5 -147z" />
<glyph unicode="K" horiz-adv-x="1443" d="M9 -6v82q67 9 110 43t54 92l207 1043q20 77 3 105t-113 50v66h163q118 0 202.5 2.5t110.5 4.5l26 2l9 -9q-3 -3 -9 -10t-23.5 -31.5t-32 -52.5t-31 -75t-26.5 -99l-77 -386h44q44 24 75 53l464 422q26 24 36 46t-6 41.5t-62 25.5v66h429l8 -42q-4 0 -11 -1.5t-33.5 -12.5 t-56.5 -28.5t-79.5 -54t-102.5 -84.5l-420 -385v-33l325 -610q40 -77 70.5 -107t73.5 -33l25 -2l-8 -82h-404l-5 6q1 7 -0.5 21.5t-23 74.5t-64.5 139l-248 462h-51l-93 -473q-6 -32 -15 -65t-15 -49l-5 -17l175 -19l-9 -74z" />
<glyph unicode="L" horiz-adv-x="1184" d="M9 -6v82q67 9 110 43t54 92l207 1043q20 77 3 105t-113 50v66h163q118 0 202.5 2.5t110.5 4.5l26 2l9 -9q-3 -3 -9 -10t-23.5 -31.5t-32 -52.5t-31 -75t-26.5 -99l-188 -943q-7 -33 -17 -71.5t-17 -60.5l-6 -22h266q32 0 56.5 2t49 11.5t41 16.5t40 30t37 38.5t42 56 t46.5 66t57 85.5h86l-150 -416h-677z" />
<glyph unicode="M" horiz-adv-x="1929" d="M-11 -6v82q140 17 165 137l247 1045q21 71 0 99.5t-131 51.5v66h201q74 0 149.5 2.5t111.5 4.5l38 2l4 -9q7 -103 22 -203l118 -726q12 -90 13 -111l504 888l82 152h47q88 0 170 2.5t121 4.5l38 2l9 -9q-4 -4 -10 -11t-21.5 -33.5t-29.5 -56t-28.5 -78t-23.5 -99.5 l-148 -967q-4 -32 -13 -65t-16 -49l-6 -17l175 -19l-10 -74l-585 -12v82q141 21 163 135l152 994l-685 -1205l-88 27l-202 1214q-8 -23 -20 -71l-226 -957l-33 -120l186 -13l-7 -74z" />
<glyph unicode="N" horiz-adv-x="1651" d="M9 -6v82q68 8 111.5 43t54.5 94l194 984q27 109 6 153t-123 59v66h69l298 9q12 -51 54 -115l553 -852q21 -35 57 -103l163 823q10 48 10.5 81.5t-31 54t-104.5 29.5v73h420l4 -31l-15 -6t-36 -21t-48.5 -40t-45.5 -65t-34 -94l-245 -1229h-91l-688 1062q-35 54 -60 101 l-186 -939q-5 -29 -13.5 -59.5t-13.5 -45.5l-5 -15l185 -13l-6 -74z" />
<glyph unicode="O" horiz-adv-x="1676" d="M99 626q0 127 37.5 252.5t112 238t177 198.5t244 136.5t301.5 50.5q307 0 484 -174.5t177 -460.5q0 -135 -40.5 -266t-119 -244t-183 -199.5t-242.5 -135.5t-289 -49q-200 0 -350.5 85.5t-229.5 233.5t-79 334zM407 617q0 -144 39.5 -263.5t125 -196.5t202.5 -77 q143 0 270.5 110t203 292.5t75.5 384.5q0 78 -12.5 152t-41 143t-70 120.5t-105 82t-140.5 30.5q-118 0 -223 -70.5t-174.5 -183t-109.5 -250t-40 -274.5z" />
<glyph unicode="P" horiz-adv-x="1264" d="M9 -6v82q67 9 110 43t54 92l203 1023q15 81 15 94q-2 37 -46 57q-31 11 -93 24v66h567q81 0 152.5 -11.5t136 -40t111 -70t73.5 -104t27 -141.5q0 -94 -38 -176.5t-101 -141.5t-144 -101t-169.5 -61.5t-176.5 -17.5v80q157 24 239 131.5t82 255.5q0 138 -77.5 213 t-190.5 75h-26l-33 -27l-220 -1108q-7 -39 -16.5 -72t-13.5 -46l-5 -13l197 -19l-9 -74z" />
<glyph unicode="Q" horiz-adv-x="1676" d="M99 626q0 127 37.5 252.5t112 238t177 198.5t244 136.5t301.5 50.5q308 0 484.5 -174.5t176.5 -466.5q0 -159 -55.5 -305t-149.5 -259.5t-222 -210.5t-267.5 -165t-291.5 -113q243 -95 493 -95q298 0 518 128l19 -67q-114 -124 -268.5 -202.5t-343.5 -78.5 q-157 0 -345.5 62t-461.5 193v75q413 72 524 150h-23q-200 0 -350.5 85.5t-229.5 233.5t-79 334zM407 617q0 -143 40 -261.5t125 -196t200 -77.5q144 0 272 110t203.5 291.5t75.5 381.5q0 79 -12.5 153t-41 143t-70 120t-105 81.5t-140.5 30.5q-118 0 -223 -70t-174.5 -182 t-109.5 -249.5t-40 -274.5z" />
<glyph unicode="R" horiz-adv-x="1379" d="M9 -6v82q67 9 110 43t54 92l203 1023q15 81 15 94q-2 37 -46 57q-31 11 -93 24v66h542q133 0 234.5 -28t159 -76t86 -106t28.5 -123q0 -68 -25 -130.5t-63 -108t-90 -85.5t-98 -65.5t-95 -45.5v-34l217 -454q37 -76 69.5 -102.5t78.5 -32.5l23 -2l-10 -82h-393l-9 6 q-27 102 -93 243l-181 382h-63l-32 -27l-74 -374q-7 -39 -16.5 -72t-13.5 -46l-5 -13l175 -19l-9 -74zM566 741h105q50 2 105 26.5t105 68.5t82.5 117t32.5 159q0 107 -64 180t-178 73h-37l-33 -27z" />
<glyph unicode="S" horiz-adv-x="1087" d="M29 181q0 41 21 107t43 112l21 45h87q0 -32 1 -54.5t3 -55.5t7 -55.5t15 -51t23.5 -47.5t34.5 -39.5t46.5 -32.5t62 -19.5t79.5 -7.5q99 0 166.5 59.5t67.5 164.5q0 60 -28 116t-73 101t-100 89.5t-110 91.5t-100 97t-73.5 117t-28.5 141q0 89 37 169.5t104 141.5 t168.5 96.5t222.5 35.5q109 0 386 -42l-99 -367h-86q51 300 -212 300q-109 0 -188.5 -57t-79.5 -157q0 -56 28.5 -106.5t74 -92t100.5 -84t110.5 -90t101 -100.5t74 -127t28.5 -159q0 -109 -43.5 -196t-117.5 -141t-166.5 -82t-195.5 -28t-193.5 21t-154.5 70t-64 117z" />
<glyph unicode="T" horiz-adv-x="1348" d="M102 1093l97 395q53 -13 139 -13h1025q39 0 76.5 3.5t57.5 6.5l18 3l-99 -395h-87q11 159 -19.5 215.5t-148.5 56.5h-177l-33 -27l-219 -1108q-6 -32 -15.5 -65t-14.5 -49l-5 -17l208 -19l-10 -74l-619 -12v82q67 9 110.5 43t54.5 92l230 1154h-152q-113 0 -187 -56.5 t-144 -215.5h-86z" />
<glyph unicode="U" horiz-adv-x="1562" d="M173 431q0 86 13 147l135 676q16 81 -1.5 107t-108.5 48v66h163q117 0 202 2.5t111 4.5l25 2l9 -9q-3 -3 -9 -10t-23 -32.5t-31.5 -53.5t-31.5 -75t-27 -97l-132 -669q-16 -78 -16 -139q0 -146 79.5 -224t206.5 -78q75 0 150.5 27t147.5 80.5t127 147t79 214.5l133 668 q32 159 -124 168v73h413l7 -42q-6 -2 -15.5 -7t-35 -23t-46.5 -40.5t-42.5 -61t-30.5 -83.5l-137 -687q-35 -174 -133.5 -301.5t-234 -192t-292.5 -64.5q-256 0 -393 120.5t-137 337.5z" />
<glyph unicode="V" horiz-adv-x="1296" d="M131 1409v66h139q85 0 157.5 2.5t101.5 4.5l30 2l7 -9q-58 -106 -44 -203l128 -810q8 -62 11 -110l511 878q42 65 30 108t-94 71v66h363l9 -31q-9 -5 -24.5 -18t-64.5 -73.5t-97 -145.5l-716 -1226l-120 25l-226 1281q-6 44 -31.5 74t-47.5 39z" />
<glyph unicode="W" horiz-adv-x="1961" d="M118 1409v66h139q85 0 156.5 2.5t100.5 4.5l28 2l7 -9q-59 -106 -45 -203l125 -783q4 -27 8 -102l370 752l-27 148q-8 44 -33.5 74t-46.5 39l-22 9v66h139q86 0 157 2.5t100 4.5l28 2l7 -9q-58 -106 -44 -203l124 -776q7 -58 11 -105l409 839q38 68 27.5 109.5 t-91.5 69.5v66h359l8 -31q-3 -2 -9.5 -6t-27 -21t-41.5 -41t-50.5 -68.5t-56.5 -100.5l-600 -1226l-122 25l-165 938l-474 -963l-121 25l-226 1281q-7 44 -32.5 74t-47.5 39z" />
<glyph unicode="X" horiz-adv-x="1321" d="M-78 0v82q122 12 177 82l467 541l-270 606q-16 36 -48 60t-56 31l-24 7v66h124q88 0 162 2.5t104 4.5l31 2l6 -9q-3 -11 -7 -28t-5 -59.5t12 -70.5l175 -408l319 370q39 41 28 80t-82 50v66h392l10 -35q-8 -3 -23 -9t-60 -41t-86 -85l-447 -516l312 -698l97 -18l-6 -73 h-103l-395 -9v82q54 9 74 29t2 60l-183 424l-422 -489l185 -19l-6 -78h-454z" />
<glyph unicode="Y" horiz-adv-x="1213" d="M139 1409v66h104q79 0 151.5 2.5t105.5 4.5l34 2l6 -9q-1 -3 -3 -9.5t-6 -25t-5.5 -36.5t0.5 -42.5t10 -44.5l139 -393q9 -25 37 -130l363 489q21 28 26.5 53t-14 45.5t-67.5 27.5v66h371l9 -31q-9 -3 -24.5 -10t-58 -42.5t-78.5 -84.5l-467 -630l-88 -447 q-7 -32 -16 -65t-15 -49l-5 -17l175 -19l-9 -74l-586 -12v82q141 21 163 135l94 464l-251 636q-15 38 -38.5 62.5t-39.5 30.5z" />
<glyph unicode="Z" horiz-adv-x="1291" d="M-53 71q55 39 146 157l798 1037q27 33 84 100h-356q-121 0 -185 -53t-151 -219h-86l95 382h918q37 0 69 2.5t45 4.5l14 2l23 -68q-56 -49 -149 -169l-794 -1036q-54 -68 -86 -101h402q33 0 57 2t49 11.5t41 16.5t40 30t37.5 38.5t42 56t46.5 66t57 85.5h86l-150 -416 h-954q-36 0 -68 -2t-46 -4l-14 -3z" />
<glyph unicode="[" horiz-adv-x="684" d="M133 -342l95 1817h453l-4 -112h-261l-87 -1593h262l-5 -112h-453z" />
<glyph unicode="\" horiz-adv-x="868" d="M84 1475h165l638 -1908h-168z" />
<glyph unicode="]" horiz-adv-x="716" d="M11 -342l4 112h261l87 1593h-261l4 112h453l-95 -1817h-453z" />
<glyph unicode="^" horiz-adv-x="1216" d="M68 553l474 949h155l473 -949h-179l-374 752l-374 -752h-175z" />
<glyph unicode="_" horiz-adv-x="1138" d="M-131 -82h1106v-131h-1106v131z" />
<glyph unicode="`" horiz-adv-x="1105" d="M480 1507v59l244 -25l103 -378l-93 -46z" />
<glyph unicode="a" d="M15 294q0 98 28.5 200.5t86.5 198.5t135.5 172t186.5 121.5t229 45.5q57 0 160.5 -12.5t146.5 -12.5q29 0 67 6l4 -6q-33 -66 -71 -239l-97 -439q-30 -139 -30 -165q0 -52 46 -52q26 0 60.5 18.5t62.5 44.5l8 -80q-129 -122 -288 -122q-48 0 -81 13t-49 35.5t-22.5 46 t-6.5 50.5q0 17 3.5 46.5t8.5 51.5l3 21h-4q-6 -11 -17.5 -29t-47.5 -63.5t-74.5 -80t-96 -63t-114.5 -28.5q-107 0 -172 85.5t-65 235.5zM303 329q0 -167 84 -167q53 0 104 52.5t89 132.5t63.5 151.5t40.5 134.5l63 274q-42 30 -93 30q-74 0 -156 -89t-138.5 -232.5 t-56.5 -286.5z" />
<glyph unicode="b" horiz-adv-x="1089" d="M22 2q0 74 62 359l203 929q21 92 21 112q0 69 -87 69h-44v70q112 12 242 46t189 63l7 -6q-8 -146 -58 -370l-66 -301l-46 -192h4q7 10 19.5 27t51.5 60.5t79.5 76.5t99 60t113.5 27q100 0 163 -85t63 -232q0 -99 -25 -202t-78.5 -200t-127.5 -172.5t-182.5 -121.5 t-233.5 -46q-35 0 -146.5 16.5t-213.5 4.5zM306 95q46 -27 101 -27q90 0 170.5 89t126.5 229.5t46 288.5q0 170 -77 170q-49 0 -111.5 -59t-114 -148.5t-69.5 -175.5l-26 -122q-12 -47 -24 -108.5t-17 -99.5z" />
<glyph unicode="c" horiz-adv-x="912" d="M22 372q0 88 28 181.5t82 179t126 153t169 107t202 39.5q45 0 92 -7t94.5 -22.5t77 -47t29.5 -73.5q0 -40 -29 -71.5t-72 -31.5q-34 0 -60 16.5t-43.5 40.5l-35 48t-41.5 41t-55 17q-73 0 -141 -75.5t-107.5 -189t-39.5 -226.5q0 -83 23.5 -150t80 -112t140.5 -45 q55 0 116 25t94 51l33 25l9 -77q-6 -7 -16 -20.5t-46 -47t-78 -59.5t-110.5 -47t-142.5 -21q-176 0 -277.5 114t-101.5 285z" />
<glyph unicode="d" horiz-adv-x="1140" d="M11 294q0 96 30 199.5t89.5 199t138.5 172t186 122t222 45.5q41 0 108 -8l57 266q21 96 21 112q0 69 -86 69h-45v70q113 12 242.5 46t188.5 63l7 -6q-8 -138 -58 -370l-215 -971q-23 -116 -23 -141q0 -23 12.5 -36.5t29.5 -13.5q26 0 63.5 19.5t60.5 39.5l9 -76 q-6 -5 -15.5 -13.5t-40.5 -29.5t-63.5 -37t-80 -29t-93.5 -13q-80 0 -117 39.5t-37 95.5q0 23 3 53.5t6 50.5l4 20h-5q-6 -11 -17.5 -28t-48.5 -62t-77 -79t-100 -62t-120 -28q-104 0 -170 85.5t-66 235.5zM298 336q0 -174 89 -174q85 0 174.5 137.5t135.5 333.5l48 221 q9 41 -22 62t-71 21q-74 0 -156.5 -88.5t-140 -231t-57.5 -281.5z" />
<glyph unicode="e" horiz-adv-x="914" d="M19 352q0 119 47 240t126.5 218.5t195.5 159.5t243 62q47 0 89 -9t80 -29t60 -59t22 -93t-24 -103t-62 -85t-92 -68.5t-103.5 -54t-108 -40.5t-95 -28t-74.5 -18l-27 -29q3 -268 221 -268q44 0 87.5 11t74.5 26.5t56 31.5t38 27l12 11l7 -71q-4 -5 -9 -12.5t-24 -29.5 t-41 -41.5t-58.5 -44t-75.5 -42t-92.5 -29.5t-109.5 -12q-180 0 -271.5 107.5t-91.5 271.5zM303 524q51 12 91 25.5t84.5 38.5t74 57.5t49 83.5t19.5 113q0 95 -64 95q-81 0 -156.5 -124t-97.5 -289z" />
<glyph unicode="f" horiz-adv-x="673" d="M-239 -460q63 22 117.5 79.5t94.5 138t73 181.5t56 208.5t41.5 220.5t31.5 216t24 197q6 59 9 86h-137l7 93l150 49q17 103 41.5 186t67.5 165.5t101 137.5t145.5 89t197.5 34q106 0 175.5 -32t69.5 -96q0 -48 -31.5 -81.5t-78.5 -33.5q-37 0 -70.5 21.5t-55.5 47t-52 47 t-59 21.5q-27 0 -49.5 -17t-40 -53.5t-30.5 -77.5t-24.5 -105t-19 -119t-17.5 -136h258l-30 -131h-219l-27 -17q-13 -114 -25.5 -203.5t-30 -196t-36.5 -190t-44 -175.5t-55.5 -162.5t-67.5 -141.5t-83 -122t-99.5 -93.5t-118.5 -66.5t-139 -32z" />
<glyph unicode="g" horiz-adv-x="1078" d="M-36 -334q0 35 20.5 69.5t44 56t68.5 60.5q9 8 13 11h84q-26 -76 -26 -146q0 -155 121 -155q147 0 228 201q28 74 42 166.5t21.5 177t18.5 125.5h-4q-5 -11 -16 -28t-46.5 -62t-74 -79t-96 -62t-115.5 -28q-106 0 -171 86t-65 235q0 98 29.5 201t88.5 199.5t138 172 t186.5 120.5t225.5 45q54 0 155 -12.5t141 -12.5q41 0 74 6l4 -6q-31 -78 -96.5 -365.5t-78.5 -400.5q-2 -14 -5 -49q-26 -229 -77 -359q-137 -356 -507 -357q-154 0 -239.5 55.5t-85.5 134.5zM298 329q0 -167 89 -167q53 0 104.5 55.5t89.5 137.5t63.5 153t36.5 125l62 274 q-44 30 -93 30q-73 0 -155 -87.5t-139.5 -231.5t-57.5 -289z" />
<glyph unicode="h" horiz-adv-x="1169" d="M22 -13q0 97 56 349l211 954q21 92 21 112q0 69 -86 69h-45v70q113 12 242.5 46t188.5 63l7 -6q-8 -146 -58 -370l-61 -299q-12 -54 -28 -109t-27 -82l-10 -28h5q76 117 181 196.5t219 79.5q102 0 149.5 -55t47.5 -143q0 -79 -60.5 -351t-60.5 -317q0 -54 40 -54 q21 0 52.5 14.5t51.5 29.5l21 15l10 -76q-6 -5 -15 -13.5t-40 -29.5t-63 -37t-80.5 -29t-94.5 -13q-78 0 -121.5 38t-43.5 107q0 63 59.5 316t59.5 320q0 41 -18 62.5t-51 21.5q-47 0 -99 -40.5t-92.5 -99.5t-69.5 -122.5t-40 -113.5l-26 -120q-43 -201 -51 -338z" />
<glyph unicode="i" horiz-adv-x="621" d="M68 118q0 59 71.5 357.5t71.5 345.5q0 31 -12.5 46t-46.5 15h-68v72q117 10 244 42.5t183 62.5l6 -6q0 -100 -82.5 -477t-82.5 -410q0 -54 39 -54q22 0 53 14.5t53 29.5l20 15l9 -76q-5 -5 -14.5 -13.5t-40 -29.5t-62.5 -37t-80 -29t-95 -13q-78 0 -122 38t-44 107z M285 1349q0 80 46.5 134t124.5 54q66 0 103.5 -35t37.5 -95q0 -79 -48.5 -130t-121.5 -51q-65 0 -103.5 34t-38.5 89z" />
<glyph unicode="j" horiz-adv-x="578" d="M-296 -460q97 13 195 133t134 285l170 768q16 73 16 95q0 32 -12 46.5t-45 14.5h-73v72q116 10 245 42.5t185 62.5l7 -6q-9 -134 -57 -363l-129 -580q-70 -313 -230 -473.5t-393 -160.5zM292 1349q0 80 46 134t124 54q66 0 104 -35t38 -95q0 -79 -48.5 -130t-122.5 -51 q-65 0 -103 34t-38 89z" />
<glyph unicode="k" horiz-adv-x="1094" d="M22 -13q0 103 62 374l205 929q21 92 21 112q0 69 -86 69h-45v70q113 12 242.5 46t188.5 63l7 -6q-8 -146 -58 -370l-145 -662h44l188 74q77 30 114.5 71.5t37.5 84.5q0 65 -81 65h-31v70l302 49q7 -5 9.5 -9.5t4.5 -20.5t2 -47q0 -103 -65.5 -182t-239.5 -146l-32 -13 v-22q27 -46 64 -134t63.5 -155.5t62.5 -120t70 -52.5q15 0 40.5 10.5t43.5 19.5l17 10l10 -75q-6 -5 -16.5 -13t-42 -28t-61 -35t-70 -27.5t-74.5 -12.5q-64 0 -113 36.5t-80.5 101.5t-54.5 131t-50 148t-52 129h-33l-37 -171q-45 -196 -53 -344z" />
<glyph unicode="l" horiz-adv-x="591" d="M36 110q0 23 6 57.5t20 95t16 71.5l209 956q21 92 21 112q0 69 -87 69h-44v70q112 12 242 46t189 63l7 -6q-8 -146 -58 -370l-215 -971q-23 -103 -23 -139q0 -52 44 -52q23 0 61.5 20t60.5 39l9 -76q-6 -5 -15 -13.5t-40 -29.5t-64 -37t-83 -29t-100 -13 q-75 0 -115.5 40.5t-40.5 96.5z" />
<glyph unicode="m" horiz-adv-x="1775" d="M59 -15q0 104 80 457.5t80 378.5q0 61 -51 61h-79v72q310 43 426 105l7 -6q0 -46 -12.5 -120t-25.5 -125l-13 -52h4q74 116 177 196t213 80q102 0 149.5 -55t47.5 -143q0 -15 -3.5 -34.5t-6.5 -31.5l-3 -12h4q73 116 177 196t214 80q101 0 149.5 -55t48.5 -143 q0 -79 -61 -351t-61 -317q0 -23 10 -38.5t30 -15.5q21 0 52.5 14.5t52.5 29.5l21 15l9 -76q-6 -5 -15 -13.5t-40 -29.5t-63.5 -37t-80.5 -29t-94 -13q-78 0 -121.5 38t-43.5 107q0 63 59 316t59 320q0 41 -17.5 62.5t-50.5 21.5q-57 0 -119 -60t-107 -146.5t-63 -169.5 l-25 -112q-44 -194 -53 -346l-281 -19q0 92 34.5 251.5t69 307t34.5 210.5q0 41 -18.5 62.5t-51.5 21.5q-55 0 -117 -60t-108 -146.5t-64 -169.5l-24 -112q-47 -223 -54 -346z" />
<glyph unicode="n" horiz-adv-x="1207" d="M59 -15q0 104 80 457.5t80 378.5q0 61 -51 61h-79v72q310 43 426 105l7 -6q0 -46 -12.5 -120t-25.5 -125l-13 -52h4q75 117 180.5 196.5t220.5 79.5q101 0 148.5 -55t47.5 -143q0 -79 -60.5 -351t-60.5 -317q0 -54 40 -54q22 0 53.5 14.5t51.5 29.5l21 15l8 -76 q-5 -5 -14 -13.5t-40 -29.5t-63 -37t-80 -29t-94 -13q-79 0 -123 38t-44 107q0 63 60 316t60 320q0 41 -17.5 62.5t-50.5 21.5q-50 0 -102.5 -41.5t-92 -102t-67.5 -122.5t-39 -110l-24 -112q-46 -201 -54 -346z" />
<glyph unicode="o" horiz-adv-x="1114" d="M25 372q0 86 24 176.5t75.5 177.5t123.5 155t176.5 109.5t225.5 41.5q202 0 303.5 -105t101.5 -279q0 -85 -24 -177t-76 -181t-124.5 -160t-177 -114t-224.5 -43q-197 0 -300.5 111t-103.5 288zM312 281q0 -217 126 -217q71 0 134 63t104 159t65.5 207.5t24.5 209.5 q0 239 -131 239q-76 0 -139.5 -64.5t-102.5 -165t-60 -213t-21 -218.5z" />
<glyph unicode="p" d="M-53 -536q10 137 49 315l201 920q22 102 22 122q0 61 -51 61h-79v72q310 43 426 105l7 -6q0 -96 -40 -272h5q7 10 18.5 27t50.5 60.5t78.5 76.5t98 60t114.5 27q100 0 164 -84t64 -231q0 -100 -25 -203t-78.5 -200.5t-127.5 -173t-181.5 -121.5t-231.5 -46q-43 0 -119 10 l-46 -215q-2 -11 -7.5 -34t-7.5 -32.5t-4 -26.5t2.5 -24.5t11.5 -17t21.5 -12.5t36.5 -3q17 0 39.5 2.5t36.5 5.5l14 2l5 -77q-130 -13 -266 -41.5t-192 -53.5zM348 146q-10 -39 25.5 -58.5t77.5 -19.5q88 0 167 89.5t124 230t45 287.5q0 170 -77 170q-76 0 -169 -123 t-123 -260z" />
<glyph unicode="q" horiz-adv-x="1102" d="M11 296q0 97 30 199.5t89.5 198t139 172t187.5 121.5t227 45q68 0 165.5 -12.5t141.5 -12.5q35 0 79 6l5 -6q-37 -80 -113 -425l-179 -808q-21 -93 -15 -117q10 -38 68 -39q17 0 40 2.5t37 5.5l14 2l4 -77q-130 -13 -266 -41.5t-192 -53.5l-9 8q10 143 49 323l46 215 l51 224h-4q-7 -11 -18.5 -28t-49.5 -60.5t-77.5 -76.5t-97 -60.5t-114.5 -27.5q-106 0 -172 85.5t-66 237.5zM298 338q0 -176 89 -176q81 0 173.5 136t136.5 331l64 278q-47 30 -102 30q-76 0 -160 -88.5t-142.5 -230.5t-58.5 -280z" />
<glyph unicode="r" horiz-adv-x="844" d="M59 -15q0 104 80 457.5t80 378.5q0 61 -51 61h-79v72q310 43 426 105l7 -6q0 -52 -12.5 -126.5t-25.5 -122.5l-13 -48h4q75 124 151.5 200t145.5 76q64 0 102 -39t38 -90t-35.5 -94t-102.5 -43q-26 0 -61 15t-63 15q-57 0 -130.5 -105.5t-95.5 -201.5l-30 -139 q-49 -214 -54 -346z" />
<glyph unicode="s" horiz-adv-x="800" d="M-42 124q0 43 27.5 73.5t80.5 31.5q33 0 57.5 -13t37.5 -31t27.5 -39.5t28 -39t38.5 -30t59 -12.5q61 0 103.5 38.5t42.5 94.5q0 40 -26.5 76t-66 64t-86 64t-85.5 73.5t-65.5 94.5t-26.5 125q0 145 109 241.5t306 96.5q43 0 83.5 -5t84.5 -17.5t71 -40t27 -66.5 q0 -44 -30 -75.5t-76 -31.5q-30 0 -53 15t-38.5 36t-30.5 43t-38 37t-55 15q-51 0 -97 -37t-46 -91q0 -34 20 -65.5t51 -57.5t69.5 -52.5t77 -57.5t69.5 -67t51 -86t20 -109q0 -146 -108 -246t-299 -100q-46 0 -94.5 6.5t-101 22t-85.5 47.5t-33 75z" />
<glyph unicode="t" horiz-adv-x="781" d="M82 186q0 42 9 84l95 454l35 143h-130l8 93q93 17 150 66q53 82 80 206l213 49q0 -57 -31 -274h312l-36 -131h-272l-30 -25l-109 -530q-9 -50 -9 -69q0 -102 100 -102q47 0 101 24.5t84 47.5l32 25l10 -76q-6 -8 -17 -21.5t-48 -47.5t-77 -60t-100 -47.5t-120 -21.5 q-125 0 -187.5 55.5t-62.5 157.5z" />
<glyph unicode="u" horiz-adv-x="1195" d="M84 173q0 91 59.5 351t59.5 297q0 61 -51 61h-68v74q96 14 156 24t135.5 31t124.5 48l7 -6q0 -109 -34.5 -278.5t-69 -317.5t-34.5 -205q0 -41 18.5 -62.5t50.5 -21.5q57 0 120.5 65t108.5 151t61 160q59 279 68 358q4 38 6 80l284 40q2 -85 -38.5 -275.5t-82 -364.5 t-41.5 -216q0 -54 40 -54q22 0 54 14.5t52 29.5l21 15l8 -76q-5 -5 -14 -13.5t-40 -29.5t-63 -37t-80 -29t-94 -13q-75 0 -115.5 38t-40.5 107q0 25 4.5 55t8.5 47l6 19h-6q-72 -113 -175 -189.5t-209 -76.5q-102 0 -149.5 55.5t-47.5 144.5z" />
<glyph unicode="v" horiz-adv-x="963" d="M29 882v72q96 14 228.5 48t171.5 57l6 -6q-21 -139 -9 -365.5t51 -440.5q200 252 281 434q97 216 -43 216v67l313 68l7 -12q-53 -148 -135 -303.5t-169.5 -283.5t-141.5 -200.5t-102 -130.5q-23 -29 -47 -63.5t-38 -53.5l-13 -21l-117 30q-83 250 -128 802 q-4 49 -18.5 67.5t-63.5 18.5h-33z" />
<glyph unicode="w" horiz-adv-x="1499" d="M29 882v72q96 14 228.5 48t171.5 57l6 -6q-18 -138 -8.5 -359t42.5 -435q90 132 165.5 274.5t70.5 200.5l-4 62q-3 49 -17.5 67.5t-64.5 18.5h-28v72q95 14 226 48t169 57l8 -6q-19 -137 -9.5 -361t41.5 -437q184 237 264 419q99 223 -40 223v67l314 68l6 -12 q-52 -148 -132 -303t-167 -285t-138.5 -200t-100.5 -130q-22 -29 -46.5 -63.5t-37.5 -53.5l-13 -21l-116 30q-59 190 -91 506q-44 -82 -81.5 -146.5t-75 -122t-59 -88.5t-66 -92.5t-62.5 -86.5l-123 30q-73 237 -117 802q-4 49 -18.5 67.5t-63.5 18.5h-33z" />
<glyph unicode="x" horiz-adv-x="1051" d="M-53 66q0 40 24.5 68t61.5 34q13 3 39.5 4.5t41.5 4.5t44 21.5t63 53.5q73 72 144 197q-71 214 -131 351q-14 32 -25.5 49t-27.5 24t-26 8t-35 1h-42v72q99 13 194 43.5t155 61.5l6 -6q17 -51 59.5 -175t64.5 -190q110 188 197 276q65 68 137 68q49 0 78 -25t29 -67 q0 -44 -25.5 -69t-63.5 -33q-7 -1 -35.5 -3.5t-46 -7t-48.5 -23t-60 -50.5q-68 -77 -126 -165q78 -214 126 -328q35 -81 56.5 -111t47.5 -30q51 0 126 59l9 -75q-5 -6 -15.5 -14.5t-42.5 -31t-63.5 -40t-77.5 -31.5t-88 -14q-73 0 -114.5 39.5t-81.5 135.5q-15 33 -74 200 q-125 -217 -213 -306q-69 -69 -137 -69q-47 0 -75.5 26t-28.5 67z" />
<glyph unicode="y" horiz-adv-x="977" d="M-249 -420q0 53 35.5 87.5t111.5 34.5q89 0 149 27t112 79l18 17q64 64 64 175q0 205 -21.5 467.5t-57.5 357.5q-19 57 -96 57h-41v72q302 55 389 105l8 -4q69 -466 72 -816q137 204 229.5 377t92.5 229q0 27 -23 43.5t-61 16.5v62l310 65l7 -12q-32 -80 -118 -237 q-37 -67 -77.5 -138.5t-139 -232.5t-191 -296t-215.5 -288.5t-230 -251.5q-55 -50 -103 -75t-103.5 -25t-88 33t-32.5 71z" />
<glyph unicode="z" horiz-adv-x="948" d="M-64 53q88 64 161 148l507 576h-197h-11q-132 0 -170 -13.5t-69 -82.5l-66 13l86 313h568q44 0 80.5 4t51.5 9l14 4l31 -57q-110 -106 -145 -148l-520 -591q159 -25 245 -25q104 0 176.5 42.5t117.5 150.5h69q-17 -78 -36 -138t-47.5 -116t-63.5 -91.5t-84.5 -56.5 t-109.5 -21q-64 0 -213 26t-199 26q-27 0 -60 -6t-52 -13l-19 -6z" />
<glyph unicode="{" horiz-adv-x="749" d="M-4 536v90q50 1 93 25t72 59t52.5 89t37 102t24 112.5t15 105.5t9 96t7.5 70q43 354 502 354l2 -90q-66 -6 -112.5 -17t-78 -37t-49.5 -47.5t-31 -73t-18 -86t-13 -111.5v-3t-0.5 -3t-0.5 -4q-5 -43 -8 -69t-11 -77t-18.5 -87.5t-26 -85.5t-37.5 -85t-49.5 -73 t-64.5 -63.5t-81 -42.5v-4q83 -32 140.5 -144t57.5 -310q0 -59 -7.5 -158.5t-7.5 -142.5q0 -120 52 -170.5t193 -63.5l-20 -91q-104 0 -182 16t-138 52.5t-91 98.5t-31 149q0 34 10 149t10 189q0 380 -201 382z" />
<glyph unicode="|" horiz-adv-x="645" d="M219 -498v2155h188v-2155h-188z" />
<glyph unicode="}" horiz-adv-x="738" d="M-80 -409q66 6 112 18.5t76.5 34.5t50 49t31 68.5t18 86.5t12.5 109q1 10 1 14q6 46 10 80.5t15.5 95t25 106.5t37 102t51.5 96.5t69.5 76t89.5 52.5v4q-39 14 -73.5 44t-64 79.5t-46 129t-16.5 180.5q0 54 6.5 153t6.5 139q0 125 -51 177t-192 63l19 90q208 0 325.5 -78 t117.5 -244q0 -30 -10 -140.5t-10 -182.5q0 -365 203 -368v-90q-51 -1 -94 -26t-72 -63t-53 -93.5t-37.5 -107.5t-24 -116.5t-15 -109t-9.5 -97.5t-7 -69q-22 -193 -148 -273.5t-352 -80.5z" />
<glyph unicode="~" horiz-adv-x="1258" d="M112 372q0 189 81.5 281t222.5 92q70 0 125.5 -23.5t91.5 -57t67 -67.5t70.5 -58t85.5 -24q45 0 76.5 22t47 58.5t21.5 71t6 70.5h158q0 -189 -81 -281.5t-221 -92.5q-70 0 -126 23.5t-91.5 57.5t-66.5 67.5t-70.5 57.5t-86.5 24q-44 0 -76 -22t-47 -58.5t-21 -71 t-6 -69.5h-160z" />
<glyph unicode="&#xa1;" horiz-adv-x="599" d="M-110 -524q48 81 106 260l256 817h90l-76 -1004q-88 -18 -179.5 -40.5t-140.5 -36.5l-48 -14zM199 810q0 83 53 152.5t149 69.5q60 0 90.5 -34.5t30.5 -85.5q0 -86 -51.5 -154t-145.5 -68q-63 0 -94.5 34t-31.5 86z" />
<glyph unicode="&#xa2;" horiz-adv-x="937" d="M59 502q0 75 22.5 152t67.5 150.5t108 132t151.5 96.5t188.5 44l45 200h97l-45 -200q44 -3 81.5 -11.5t73.5 -23t57 -39.5t21 -56q0 -34 -26 -62.5t-63 -28.5q-41 0 -69 17.5t-56 52t-42 45.5l-152 -670q20 -3 43 -3q57 0 116 21.5t89 43.5l31 21l23 -74q-5 -5 -14 -15 t-41 -35t-67.5 -45t-92.5 -38.5t-119 -24.5l-44 -201h-98l44 201q-150 13 -240 112t-90 238zM334 568q0 -166 97 -232l149 662q-64 -9 -121.5 -76.5t-91 -163.5t-33.5 -190z" />
<glyph unicode="&#xa3;" horiz-adv-x="1116" d="M-27 76q5 2 13.5 6t31.5 21.5t43.5 38t43 56t36.5 76.5l85 266h-135v99h166l62 195q61 198 188 312t322 114q45 0 87 -7t80.5 -21t61.5 -40t23 -59q0 -49 -29.5 -79t-78.5 -30q-28 0 -50.5 13.5t-38 33t-31 39.5t-38 33.5t-51.5 13.5q-56 0 -88.5 -62.5t-95.5 -267.5 l-58 -188h343l-36 -99h-338q-23 -85 -66 -167t-73 -122l-31 -40q14 -8 38.5 -19.5t102 -29.5t155.5 -18q241 0 316 223h84q-14 -114 -63.5 -207.5t-141.5 -154t-210 -60.5q-81 0 -228 47.5t-197 47.5q-21 0 -43.5 -4t-37 -7.5t-44.5 -13.5t-48 -15z" />
<glyph unicode="&#xa5;" horiz-adv-x="1146" d="M95 363v95h316l34 144h-293v95h268l-150 398q-11 28 -30.5 46.5t-33.5 22.5l-14 3v67h93q65 0 125 2t87 4l27 1l4 -7q-1 -2 -3 -6.5t-6 -19t-6 -28.5t-1.5 -32t5.5 -33l91 -254q29 -89 38 -131l285 342q19 25 24.5 42.5t-10.5 32t-58 20.5v67h305l11 -35 q-4 -1 -13.5 -4.5t-39.5 -26t-61 -60.5l-344 -411h277l-22 -95h-314l-34 -144h315l-23 -95h-313l-34 -150q-6 -29 -16 -59.5t-15 -45.5l-7 -15l165 -17l-7 -70l-523 -12v74q134 15 162 145l33 150h-294z" />
<glyph unicode="&#xa6;" horiz-adv-x="536" d="M194 394h205v-793h-205v793zM194 737v791h205v-791h-205z" />
<glyph unicode="&#xa7;" horiz-adv-x="1158" d="M-179 -382l53 63q3 -3 9.5 -8.5t30 -18.5t51 -23t74 -18.5t98.5 -8.5q74 0 136 29.5t106 78.5t77.5 117t53.5 142t30 155l68 591q5 40 7 54t9 60t13 69t18 67.5t25 71t33.5 62.5t44 59t54.5 45t68 34l7 -11q-64 -127 -87 -341l-101 -807q-22 -174 -91 -308t-190 -215 t-277 -81q-64 0 -121 14.5t-91.5 35t-60.5 42t-36 35.5zM124 -249q59 117 87 340l101 806q16 129 60.5 238.5t113.5 191.5t167.5 128.5t215.5 46.5q65 0 122 -14.5t91.5 -35t60.5 -41.5t36 -35l11 -15l-53 -65q-3 3 -9.5 8.5t-30 18.5t-51.5 23t-74 19t-98 9q-74 0 -136 -30 t-106 -79t-77.5 -117t-53.5 -142t-30 -155l-68 -590q-7 -50 -9.5 -71.5t-13.5 -80t-21.5 -92t-32 -85t-47 -84t-64 -63.5t-84.5 -46z" />
<glyph unicode="&#xa8;" horiz-adv-x="1105" d="M281 1349q0 77 44.5 128t117.5 51q62 0 98.5 -34t36.5 -90q0 -73 -47 -122.5t-115 -49.5q-61 0 -98 32.5t-37 84.5zM758 1349q0 77 45 128t117 51q63 0 99 -34t36 -90q0 -73 -47 -122.5t-115 -49.5q-60 0 -97.5 32.5t-37.5 84.5z" />
<glyph unicode="&#xa9;" horiz-adv-x="1684" d="M106 736.5q0 206.5 102.5 382.5t278.5 278.5t382 102.5q155 0 296.5 -60.5t243.5 -163t162.5 -244t60.5 -296t-60.5 -296t-162.5 -244t-243.5 -163t-296.5 -60.5q-206 0 -382 102.5t-278.5 278.5t-102.5 382.5zM219 736.5q0 -180.5 86 -332t235.5 -240t329 -88.5 t329 88.5t235.5 240t86 332t-86 332t-235.5 240.5t-329 89t-329 -89t-235.5 -240.5t-86 -332zM420 728q0 68 18.5 134.5t58.5 127.5t96 107.5t138.5 74t180.5 27.5q49 0 103 -11.5t107 -28t68 -20.5l-38 -257h-80q-7 133 -59 180.5t-135 47.5q-100 0 -164 -95.5t-64 -233.5 q0 -160 81.5 -255t208.5 -95q65 0 130.5 23t98.5 47l32 23l25 -75q-53 -69 -149 -112t-180 -43q-198 0 -337.5 119t-139.5 315z" />
<glyph unicode="&#xaa;" horiz-adv-x="899" d="M152 986q0 68 20.5 140.5t62 139.5t97.5 120t132 84.5t160 31.5q37 0 99.5 -9t95 -9t70.5 6l4 -6q-17 -45 -44 -167l-66 -300q-19 -95 -19 -112q0 -31 28 -31q15 0 37 13.5t37 26.5l14 13l11 -76q-41 -39 -97 -66t-115 -27q-62 0 -95 32t-33 82l6 48h-4q-4 -6 -11 -17 t-31 -39t-49 -49.5t-63 -39t-76 -17.5q-75 0 -123 61t-48 167zM374 1004q0 -107 44 -107q49 0 111 106t88 223l42 192q-24 9 -49 9q-53 0 -108.5 -61t-91.5 -160.5t-36 -201.5z" />
<glyph unicode="&#xab;" horiz-adv-x="1083" d="M46 557v9q41 30 123.5 108.5t364.5 357.5l72 -21l-292 -449q18 -35 214 -452l-72 -21q-165 199 -253.5 302t-109.5 124t-47 42zM480 557v9q41 30 123 108.5t364 357.5l73 -21l-293 -449q19 -35 215 -452l-73 -21q-165 199 -253 302t-109.5 124t-46.5 42z" />
<glyph unicode="&#xac;" horiz-adv-x="1149" d="M51 717v155h1002v-627h-164v472h-838z" />
<glyph unicode="&#xad;" horiz-adv-x="826" d="M108 475v177h589v-177h-589z" />
<glyph unicode="&#xae;" horiz-adv-x="908" d="M175 1174q0 158 112.5 270.5t270 112.5t270 -112.5t112.5 -270.5t-112.5 -270t-270 -112t-270 112t-112.5 270zM257 1174q0 -125 89 -218t211 -93q120 0 211 93.5t91 217.5t-91 217t-211 93q-123 0 -211.5 -92.5t-88.5 -217.5zM374 1340v27h162q165 0 165 -93 q0 -53 -72 -95q13 -29 30 -54l48 -70q5 -7 10.5 -12t8.5 -8t8.5 -5t7.5 -2.5t8.5 -1t7.5 -0.5l-2 -38l-123 -2q-11 29 -36 67l-59 89h-19v-83l-4 -27l55 -6l-2 -35l-188 -5v40q16 2 27 11.5t11 21.5v239q0 21 -7 28t-37 14zM519 1186h36q13 2 26.5 20t13.5 50q0 28 -18 47.5 t-51 19.5h-7v-137z" />
<glyph unicode="&#xaf;" horiz-adv-x="1105" d="M126 1281l36 163h570l-35 -163h-571z" />
<glyph unicode="&#xb0;" horiz-adv-x="663" d="M179 1236.5q0 110.5 79 188t191.5 77.5t191 -77.5t78.5 -188t-78.5 -188t-191 -77.5t-191.5 77.5t-79 188zM306 1236.5q0 -62.5 41.5 -105t102 -42.5t102 42.5t41.5 105t-41.5 104t-102 41.5t-102 -41.5t-41.5 -104z" />
<glyph unicode="&#xb1;" horiz-adv-x="1149" d="M82 686v156h382v392h167v-392h376v-156h-376v-420h-167v420h-382zM114 0v157h903v-157h-903z" />
<glyph unicode="&#xb2;" horiz-adv-x="726" d="M84 891q146 108 277 228q43 39 70.5 67t63.5 73t54.5 92.5t18.5 96.5q0 53 -25.5 86.5t-53 43.5t-56.5 10q-37 0 -75.5 -18.5t-59.5 -38.5l-22 -18l-39 62q5 6 14.5 17.5t42.5 40t69 50.5t89 40t107 18q100 0 171.5 -53.5t71.5 -143.5q0 -57 -29.5 -117t-96.5 -132 t-137 -135.5t-187 -161.5h201q29 0 50 6t34 12t28 26.5t21.5 31t25.5 45.5h69l-91 -287h-595z" />
<glyph unicode="&#xb3;" horiz-adv-x="682" d="M86 918q0 30 22.5 49t55.5 19q30 0 53 -16t35 -35.5t30 -36t41 -16.5q54 0 104 65.5t50 149.5q0 64 -30.5 106t-85.5 42l-65 -6l16 88q34 13 42.5 16.5t39 17t41.5 21.5t33 24.5t31 32.5t17 38t8 47q0 82 -77 82q-32 0 -69 -13.5t-56 -26.5l-21 -13l-33 64q5 5 14.5 13 t39.5 30t62 38t79.5 29.5t93.5 13.5q92 0 151.5 -42.5t59.5 -119.5q0 -45 -27.5 -87.5t-73.5 -74t-84 -52t-79 -38.5q106 -13 166 -69.5t60 -136.5q0 -83 -62 -154t-161 -111t-206 -40q-34 0 -67.5 5t-68.5 15.5t-57 31.5t-22 50z" />
<glyph unicode="&#xb4;" horiz-adv-x="1105" d="M405 1167l254 374l253 25v-59l-423 -395z" />
<glyph unicode="&#xb5;" horiz-adv-x="1242" d="M-62 -409q0 29 11 73t29.5 106.5t27.5 103.5l178 783q40 185 47 274q2 25 3 51l283 40q0 -105 -69.5 -405.5t-69.5 -364.5q0 -41 18.5 -62.5t50.5 -21.5q56 0 120 65t108.5 151t61.5 160q5 24 17 80.5t15 72.5t11.5 56.5t11 54t7.5 42.5t6.5 46t3.5 39.5t3 46.5l283 40 q1 -85 -39.5 -275.5t-81.5 -364.5t-41 -216q0 -54 40 -54q24 0 58 17t57 33l22 17l9 -75q-6 -6 -15.5 -14.5t-41 -31t-64 -40t-82 -31.5t-97.5 -14q-78 0 -118 38t-40 109q0 23 4.5 52.5t8.5 47.5l5 19h-4q-64 -107 -166 -186.5t-199 -79.5q-79 0 -144 52q-4 -37 -4 -88 t2 -118.5t2 -101.5q0 -124 -27 -182.5t-95 -58.5q-56 0 -81 33t-25 82z" />
<glyph unicode="&#xb6;" horiz-adv-x="1406" d="M99 842q0 94 30 186t90.5 172.5t143 142t196.5 97t243 35.5h521q123 0 167 9l-46 -135h-154l-268 -1349h-144l268 1349h-158l-230 -1161q-41 -213 -78 -319q-65 -189 -171 -289q-112 -104 -230 -104q-59 0 -89.5 28t-30.5 76q0 50 32.5 77t69.5 27q17 0 52.5 -9t60.5 -9 q27 0 49 10t38 23.5t31.5 42t25 52t21.5 70t19 78t20 91.5l64 319h-30q-123 0 -223 40.5t-162 109t-95 156t-33 184.5z" />
<glyph unicode="&#xb7;" horiz-adv-x="523" d="M93 515q0 85 51 153.5t145 68.5q63 0 95 -34t32 -86q0 -85 -52.5 -154t-148.5 -69q-62 0 -92 34.5t-30 86.5z" />
<glyph unicode="&#xb8;" horiz-adv-x="1105" d="M110 -435l61 81q6 -7 18.5 -16.5t52 -26.5t79.5 -17q42 0 79.5 18.5t37.5 50.5q0 22 -21 41.5t-46 32.5t-46.5 33.5t-21.5 43.5q0 31 32.5 79.5t65.5 82.5l32 32h82q-44 -70 -44 -106q0 -24 23 -42t52 -30.5t52 -43.5t23 -76q0 -91 -87 -158.5t-196 -67.5 q-67 0 -123.5 22t-80.5 44z" />
<glyph unicode="&#xb9;" horiz-adv-x="596" d="M102 827l2 68q67 2 105 16.5t48.5 30t14.5 40.5l108 515q10 56 3.5 69t-35.5 6l-120 -28v81q120 26 232.5 57.5t165.5 49.5l53 20l2 -5q-22 -61 -42 -154l-130 -611l-22 -73l159 -12l-7 -61z" />
<glyph unicode="&#xba;" horiz-adv-x="842" d="M154 1042q0 77 29 156t82 148t141 112.5t196 43.5q141 0 215 -75t74 -195q0 -76 -29 -157t-82 -153t-140.5 -118t-192.5 -46q-141 0 -217 79.5t-76 204.5zM376 982q0 -148 80 -148q59 0 109.5 73t76 174.5t25.5 199.5q0 146 -83 146q-61 0 -111 -74.5t-73.5 -175 t-23.5 -195.5z" />
<glyph unicode="&#xbb;" horiz-adv-x="1094" d="M38 110l291 449q-18 35 -215 452l74 21q169 -204 253.5 -302.5t107 -122t48.5 -43.5v-9q-41 -30 -123 -108.5t-364 -357.5zM471 110l293 449q-19 35 -215 452l72 21q170 -204 254 -302.5t106.5 -122t48.5 -43.5v-9q-40 -29 -120.5 -105.5t-365.5 -360.5z" />
<glyph unicode="&#xbc;" horiz-adv-x="1866" d="M93 589l2 68q67 2 105.5 16t48.5 29.5t15 40.5l108 515q9 56 2.5 69t-36.5 7l-119 -29v82q120 26 233 57t166 51l53 18l2 -4q-23 -63 -42 -156l-131 -610q-4 -17 -9.5 -35.5t-8.5 -27.5l-5 -9l160 -12l-6 -62zM321 0l1190 1509l121 -34l-1161 -1475h-150zM1009 329 l504 553l232 32l2 -5q-18 -42 -40 -145l-90 -419h135l-32 -111h-125l-18 -84l-20 -79l102 -12l-4 -55l-408 -8v61q87 11 100 80l20 97h-354zM1139 345h250l59 281l23 89z" />
<glyph unicode="&#xbd;" horiz-adv-x="1925" d="M89 589l2 68q67 2 105 16t48.5 29.5t14.5 40.5l108 515q10 56 3.5 69t-36.5 7l-119 -29v82q120 26 233 57t165 51l52 18l2 -4q-21 -63 -41 -156l-130 -610q-5 -17 -10 -35.5t-9 -27.5l-4 -9l160 -12l-7 -62zM316 0l1191 1509l121 -34l-1161 -1475h-151zM1104 59 q146 108 276 228q43 39 71 67t64 73t54.5 92.5t18.5 97.5q0 40 -14 69.5t-36.5 43.5t-43 20t-40.5 6q-37 0 -76.5 -18.5t-59.5 -37.5l-22 -19l-40 62q5 7 15 18t43 39.5t68.5 51t89 40t107.5 17.5q99 0 171.5 -54t72.5 -143q0 -46 -22.5 -96.5t-57 -97t-98 -109 t-121.5 -113.5t-152 -130h200q36 0 59.5 6t42 25.5t28 34.5t30.5 55h68l-90 -287h-595z" />
<glyph unicode="&#xbe;" horiz-adv-x="1881" d="M76 667q0 31 21.5 50.5t54.5 19.5q31 0 53.5 -16.5t34.5 -36t30.5 -35.5t41.5 -16q54 0 104.5 64.5t50.5 149.5q0 63 -31 106t-86 43q-15 0 -31.5 -2.5t-24.5 -4.5l-9 -1l16 89q32 12 42.5 16t40 17t41.5 21.5t33.5 25.5t30.5 32.5t16.5 38t7.5 46.5q0 81 -78 81 q-32 0 -69 -13.5t-57 -26.5l-20 -13l-32 65q5 6 14.5 14t39.5 29t62 37t79.5 29.5t93.5 13.5q92 0 151 -42t59 -119q0 -45 -27.5 -87t-73 -74.5t-83 -53t-78.5 -37.5q105 -13 165 -69.5t60 -135.5q0 -84 -62.5 -155t-161.5 -111t-206 -40q-34 0 -67.5 5t-68 15t-56 31 t-21.5 50zM329 0l1191 1509l122 -34l-1162 -1475h-151zM1020 329l504 553l232 32l2 -5q-18 -42 -40 -145l-90 -419h135l-31 -111h-126l-18 -84l-20 -79l102 -12l-5 -55l-407 -8v61q87 11 100 80l20 97h-354zM1150 345h250l60 281l22 89z" />
<glyph unicode="&#xbf;" horiz-adv-x="802" d="M-108 -126q0 54 40 115t100 114.5t129.5 111t129.5 105t100 98t40 89.5q0 18 -7 44l80 11q30 -46 30 -100q0 -57 -33 -118t-80 -112t-94.5 -98.5t-80.5 -95t-33 -84.5q0 -39 32.5 -79.5t78.5 -71t92.5 -54.5t79.5 -37l32 -13l-119 -256q-10 4 -28.5 11.5t-72.5 33.5 t-102.5 53t-108.5 67.5t-103 80.5t-72.5 89t-29.5 96zM384 814q0 78 53 148t147 70q123 0 123 -125q0 -82 -51.5 -149.5t-144.5 -67.5q-64 0 -95.5 34t-31.5 90z" />
<glyph unicode="&#xc0;" horiz-adv-x="1298" d="M-133 0v76q96 9 146 99l745 1294l124 19l215 -1245q14 -76 27.5 -109.5t30.5 -43.5t55 -17l-7 -73h-110l-361 -9v82q46 3 73.5 25.5t19.5 67.5l-46 288h-445l-36 -23l-186 -332l164 -26l-6 -73h-403zM376 570h382l-68 430q-3 15 -5 33l-4.5 40.5t-3.5 34.5zM553 1705v64 l118 158h10l396 -251l-42 -91z" />
<glyph unicode="&#xc1;" horiz-adv-x="1298" d="M-133 0v76q96 9 146 99l745 1294l124 19l215 -1245q14 -76 27.5 -109.5t30.5 -43.5t55 -17l-7 -73h-110l-361 -9v82q46 3 73.5 25.5t19.5 67.5l-46 288h-445l-36 -23l-186 -332l164 -26l-6 -73h-403zM376 570h382l-68 430q-3 15 -5 33l-4.5 40.5t-3.5 34.5zM657 1678 l440 249h11l74 -158v-64l-490 -120z" />
<glyph unicode="&#xc2;" horiz-adv-x="1298" d="M-133 0v76q96 9 146 99l745 1294l124 19l215 -1245q14 -76 27.5 -109.5t30.5 -43.5t55 -17l-7 -73h-110l-361 -9v82q46 3 73.5 25.5t19.5 67.5l-46 288h-445l-36 -23l-186 -332l164 -26l-6 -73h-403zM376 570h382l-68 430q-3 15 -5 33l-4.5 40.5t-3.5 34.5zM485 1657 l351 270h162l236 -281l-82 -61l-259 165h-21l-319 -165z" />
<glyph unicode="&#xc3;" horiz-adv-x="1298" d="M-133 0v76q96 9 146 99l745 1294l124 19l215 -1245q14 -76 27.5 -109.5t30.5 -43.5t55 -17l-7 -73h-110l-361 -9v82q46 3 73.5 25.5t19.5 67.5l-46 288h-445l-36 -23l-186 -332l164 -26l-6 -73h-403zM376 570h382l-68 430q-3 15 -5 33l-4.5 40.5t-3.5 34.5zM464 1637 q4 11 10 28.5t29.5 62t53 79t83 63t116.5 28.5q45 0 90 -18.5t76 -41.5t71.5 -41t76.5 -18q26 0 50 12.5t38.5 29.5t26 34.5t16.5 30.5l4 12l100 -11q-3 -11 -8 -29.5t-29 -65t-54 -82t-87 -64.5t-125 -29q-48 0 -93.5 19t-74 41t-66 41t-71.5 19q-40 0 -74 -30.5t-48 -60.5 l-13 -29z" />
<glyph unicode="&#xc4;" horiz-adv-x="1298" d="M-133 0v76q96 9 146 99l745 1294l124 19l215 -1245q14 -76 27.5 -109.5t30.5 -43.5t55 -17l-7 -73h-110l-361 -9v82q46 3 73.5 25.5t19.5 67.5l-46 288h-445l-36 -23l-186 -332l164 -26l-6 -73h-403zM376 570h382l-68 430q-3 15 -5 33l-4.5 40.5t-3.5 34.5zM467 1725 q0 76 44.5 127.5t117.5 51.5q62 0 98.5 -33.5t36.5 -89.5q0 -75 -47 -124t-115 -49q-61 0 -98 32.5t-37 84.5zM1002 1725q0 76 44.5 127.5t116.5 51.5q63 0 99 -33.5t36 -89.5q0 -75 -46.5 -124t-114.5 -49q-60 0 -97.5 32.5t-37.5 84.5z" />
<glyph unicode="&#xc5;" horiz-adv-x="1298" d="M-133 0v76q96 9 146 99l745 1294l124 19l215 -1245q14 -76 27.5 -109.5t30.5 -43.5t55 -17l-7 -73h-110l-361 -9v82q46 3 73.5 25.5t19.5 67.5l-46 288h-445l-36 -23l-186 -332l164 -26l-6 -73h-403zM376 570h382l-68 430q-3 15 -5 33l-4.5 40.5t-3.5 34.5zM657 1723 q0 78 64.5 141t185.5 63q103 0 153 -44.5t50 -111.5q0 -83 -67 -144t-182 -61q-103 0 -153.5 43t-50.5 114zM783 1725q0 -70 82 -70q42 0 81.5 29.5t39.5 78.5q0 31 -21 53t-62 22q-61 0 -90.5 -35.5t-29.5 -77.5z" />
<glyph unicode="&#xc6;" horiz-adv-x="1883" d="M-150 0v76q93 9 165 103l779 1081q34 47 34 74.5t-30.5 44t-103.5 30.5v66h1071q39 0 80 2.5t62 4.5l22 2l-106 -391h-86q32 151 -10.5 211.5t-171.5 60.5h-223l-34 -27l-108 -555h351l44 164h93l-83 -419h-111l29 145h-319l-33 -27l-80 -407q-5 -29 -14 -61.5t-15 -50.5 l-5 -17h287q67 0 108 9.5t82 42t73 77.5t89 137h85l-134 -376h-653l-360 -6v82q142 21 163 135l91 462h-338l-42 -25l-390 -549l166 -23l-8 -76h-416zM593 783h308l110 557q-47 -34 -91 -97z" />
<glyph unicode="&#xc7;" horiz-adv-x="1416" d="M93 615q0 168 71 329t193.5 284t299 198.5t373.5 75.5q93 0 259 -23t186 -25l-97 -361h-86q2 23 2 40q0 134 -66.5 197t-210.5 63q-116 0 -220.5 -40.5t-180 -109.5t-130.5 -159t-82.5 -191.5t-27.5 -204.5q0 -129 39.5 -230.5t109 -164.5t160 -96t195.5 -33 q90 0 183.5 25t141.5 50l49 25l29 -61q-9 -10 -24 -25t-69 -55t-114 -70t-155.5 -55t-196.5 -25q-6 0 -17 1t-17 1q-29 -56 -29 -81q0 -24 23.5 -42t52 -30.5t52 -43.5t23.5 -76q0 -91 -87.5 -158.5t-196.5 -67.5q-42 0 -81 9.5t-64.5 22t-44.5 25.5t-28 22l-9 10l60 81 q6 -7 18.5 -16.5t52 -26.5t79.5 -17q42 0 80 18.5t38 50.5q0 22 -21.5 41.5t-46.5 32.5t-46 33.5t-21 43.5q0 36 35.5 87t74.5 90q-124 19 -223 79t-161 146t-94.5 190t-32.5 217z" />
<glyph unicode="&#xc8;" horiz-adv-x="1269" d="M9 -6v82q67 9 110 43t54 92l203 1023q15 81 15 94q-2 37 -46 57q-31 11 -93 24v66h898q39 0 80 2.5t63 4.5l21 2l-107 -391h-86q32 151 -10.5 211.5t-170.5 60.5h-223l-33 -27l-104 -533h351l40 142h93l-84 -419h-111l34 166h-319l-33 -27l-84 -428q-6 -29 -15 -61.5 t-16 -50.5l-5 -17h288q54 0 91 7.5t67 21.5t61 48.5t59 74.5t73 114h87l-135 -376h-653zM544 1705v64l117 158h12l395 -251l-42 -91z" />
<glyph unicode="&#xc9;" horiz-adv-x="1269" d="M9 -6v82q67 9 110 43t54 92l203 1023q15 81 15 94q-2 37 -46 57q-31 11 -93 24v66h898q39 0 80 2.5t63 4.5l21 2l-107 -391h-86q32 151 -10.5 211.5t-170.5 60.5h-223l-33 -27l-104 -533h351l40 142h93l-84 -419h-111l34 166h-319l-33 -27l-84 -428q-6 -29 -15 -61.5 t-16 -50.5l-5 -17h288q54 0 91 7.5t67 21.5t61 48.5t59 74.5t73 114h87l-135 -376h-653zM648 1678l441 249h10l73 -158v-64l-488 -120z" />
<glyph unicode="&#xca;" horiz-adv-x="1269" d="M9 -6v82q67 9 110 43t54 92l203 1023q15 81 15 94q-2 37 -46 57q-31 11 -93 24v66h898q39 0 80 2.5t63 4.5l21 2l-107 -391h-86q32 151 -10.5 211.5t-170.5 60.5h-223l-33 -27l-104 -533h351l40 142h93l-84 -419h-111l34 166h-319l-33 -27l-84 -428q-6 -29 -15 -61.5 t-16 -50.5l-5 -17h288q54 0 91 7.5t67 21.5t61 48.5t59 74.5t73 114h87l-135 -376h-653zM475 1657l352 270h161l238 -281l-82 -61l-259 165h-22l-319 -165z" />
<glyph unicode="&#xcb;" horiz-adv-x="1269" d="M9 -6v82q67 9 110 43t54 92l203 1023q15 81 15 94q-2 37 -46 57q-31 11 -93 24v66h898q39 0 80 2.5t63 4.5l21 2l-107 -391h-86q32 151 -10.5 211.5t-170.5 60.5h-223l-33 -27l-104 -533h351l40 142h93l-84 -419h-111l34 166h-319l-33 -27l-84 -428q-6 -29 -15 -61.5 t-16 -50.5l-5 -17h288q54 0 91 7.5t67 21.5t61 48.5t59 74.5t73 114h87l-135 -376h-653zM458 1725q0 76 44 127.5t117 51.5q62 0 98.5 -33.5t36.5 -89.5q0 -75 -46.5 -124t-114.5 -49q-61 0 -98 32.5t-37 84.5zM994 1725q0 76 44 127.5t117 51.5q62 0 98.5 -33.5t36.5 -89.5 q0 -75 -47 -124t-115 -49q-61 0 -97.5 32.5t-36.5 84.5z" />
<glyph unicode="&#xcc;" horiz-adv-x="775" d="M9 -6v82q67 9 110 43t54 92l207 1043q20 77 3 105t-113 50v66h163q118 0 202.5 2.5t110.5 4.5l26 2l9 -9q-3 -3 -9 -10t-23.5 -31.5t-32 -52.5t-31 -75t-26.5 -99l-195 -977q-6 -32 -15 -65t-15 -49l-5 -17l175 -19l-9 -74zM272 1705v64l117 158h12l395 -251l-42 -91z " />
<glyph unicode="&#xcd;" horiz-adv-x="775" d="M9 -6v82q67 9 110 43t54 92l207 1043q20 77 3 105t-113 50v66h163q118 0 202.5 2.5t110.5 4.5l26 2l9 -9q-3 -3 -9 -10t-23.5 -31.5t-32 -52.5t-31 -75t-26.5 -99l-195 -977q-6 -32 -15 -65t-15 -49l-5 -17l175 -19l-9 -74zM376 1678l440 249h11l74 -158v-64l-490 -120z " />
<glyph unicode="&#xce;" horiz-adv-x="775" d="M9 -6v82q67 9 110 43t54 92l207 1043q20 77 3 105t-113 50v66h163q118 0 202.5 2.5t110.5 4.5l26 2l9 -9q-3 -3 -9 -10t-23.5 -31.5t-32 -52.5t-31 -75t-26.5 -99l-195 -977q-6 -32 -15 -65t-15 -49l-5 -17l175 -19l-9 -74zM203 1657l352 270h162l237 -281l-82 -61 l-260 165h-21l-319 -165z" />
<glyph unicode="&#xcf;" horiz-adv-x="775" d="M9 -6v82q67 9 110 43t54 92l207 1043q20 77 3 105t-113 50v66h163q118 0 202.5 2.5t110.5 4.5l26 2l9 -9q-3 -3 -9 -10t-23.5 -31.5t-32 -52.5t-31 -75t-26.5 -99l-195 -977q-6 -32 -15 -65t-15 -49l-5 -17l175 -19l-9 -74zM241 1725q0 76 44.5 127.5t117.5 51.5 q62 0 98.5 -33.5t36.5 -89.5q0 -75 -47 -124t-115 -49q-61 0 -98 32.5t-37 84.5zM665 1725q0 76 45 127.5t117 51.5q63 0 99 -33.5t36 -89.5q0 -75 -47 -124t-115 -49q-60 0 -97.5 32.5t-37.5 84.5z" />
<glyph unicode="&#xd0;" horiz-adv-x="1602" d="M11 -6v82q61 8 106.5 41.5t55.5 83.5l97 489h-177l21 122h180l84 422q2 11 6.5 31.5t5.5 27.5t2.5 23t0 20.5t-5 15.5t-11 15t-17 11.5t-25 11.5t-34.5 9t-45 10v66h547q124 0 231 -19.5t205.5 -64.5t168.5 -115t111.5 -176t41.5 -241q0 -185 -75.5 -344.5t-208 -272.5 t-323.5 -177.5t-413 -64.5h-217zM433 110h118q141 0 259 40t198.5 109.5t136.5 163.5t81.5 200.5t25.5 223.5q0 248 -118 383t-338 135h-81l-29 -27l-104 -526h303l-22 -122h-306l-88 -451q-6 -29 -15 -61.5t-16 -50.5z" />
<glyph unicode="&#xd1;" horiz-adv-x="1651" d="M9 -6v82q68 8 111.5 43t54.5 94l194 984q27 109 6 153t-123 59v66h69l298 9q12 -51 54 -115l553 -852q21 -35 57 -103l163 823q10 48 10.5 81.5t-31 54t-104.5 29.5v73h420l4 -31l-15 -6t-36 -21t-48.5 -40t-45.5 -65t-34 -94l-245 -1229h-91l-688 1062q-35 54 -60 101 l-186 -939q-5 -29 -13.5 -59.5t-13.5 -45.5l-5 -15l185 -13l-6 -74zM642 1637q3 11 9 28.5t29.5 62t53.5 79t83 63t116 28.5q45 0 90 -18.5t76 -41.5t71.5 -41t76.5 -18q26 0 50 12.5t38.5 29.5t26 34.5t16.5 30.5l4 12l100 -11q-2 -11 -7.5 -29.5t-29.5 -65t-54 -82 t-87 -64.5t-125 -29q-48 0 -93.5 19t-74 41t-66 41t-71.5 19q-40 0 -74 -30.5t-48 -60.5l-13 -29z" />
<glyph unicode="&#xd2;" horiz-adv-x="1676" d="M99 626q0 127 37.5 252.5t112 238t177 198.5t244 136.5t301.5 50.5q307 0 484 -174.5t177 -460.5q0 -135 -40.5 -266t-119 -244t-183 -199.5t-242.5 -135.5t-289 -49q-200 0 -350.5 85.5t-229.5 233.5t-79 334zM407 617q0 -144 39.5 -263.5t125 -196.5t202.5 -77 q143 0 270.5 110t203 292.5t75.5 384.5q0 78 -12.5 152t-41 143t-70 120.5t-105 82t-140.5 30.5q-118 0 -223 -70.5t-174.5 -183t-109.5 -250t-40 -274.5zM741 1705v64l118 158h10l396 -251l-41 -91z" />
<glyph unicode="&#xd3;" horiz-adv-x="1676" d="M99 626q0 127 37.5 252.5t112 238t177 198.5t244 136.5t301.5 50.5q307 0 484 -174.5t177 -460.5q0 -135 -40.5 -266t-119 -244t-183 -199.5t-242.5 -135.5t-289 -49q-200 0 -350.5 85.5t-229.5 233.5t-79 334zM407 617q0 -144 39.5 -263.5t125 -196.5t202.5 -77 q143 0 270.5 110t203 292.5t75.5 384.5q0 78 -12.5 152t-41 143t-70 120.5t-105 82t-140.5 30.5q-118 0 -223 -70.5t-174.5 -183t-109.5 -250t-40 -274.5zM845 1678l440 249h11l73 -158v-64l-489 -120z" />
<glyph unicode="&#xd4;" horiz-adv-x="1676" d="M99 626q0 127 37.5 252.5t112 238t177 198.5t244 136.5t301.5 50.5q307 0 484 -174.5t177 -460.5q0 -135 -40.5 -266t-119 -244t-183 -199.5t-242.5 -135.5t-289 -49q-200 0 -350.5 85.5t-229.5 233.5t-79 334zM407 617q0 -144 39.5 -263.5t125 -196.5t202.5 -77 q143 0 270.5 110t203 292.5t75.5 384.5q0 78 -12.5 152t-41 143t-70 120.5t-105 82t-140.5 30.5q-118 0 -223 -70.5t-174.5 -183t-109.5 -250t-40 -274.5zM673 1657l351 270h162l236 -281l-82 -61l-259 165h-22l-318 -165z" />
<glyph unicode="&#xd5;" horiz-adv-x="1676" d="M99 626q0 127 37.5 252.5t112 238t177 198.5t244 136.5t301.5 50.5q307 0 484 -174.5t177 -460.5q0 -135 -40.5 -266t-119 -244t-183 -199.5t-242.5 -135.5t-289 -49q-200 0 -350.5 85.5t-229.5 233.5t-79 334zM407 617q0 -144 39.5 -263.5t125 -196.5t202.5 -77 q143 0 270.5 110t203 292.5t75.5 384.5q0 78 -12.5 152t-41 143t-70 120.5t-105 82t-140.5 30.5q-118 0 -223 -70.5t-174.5 -183t-109.5 -250t-40 -274.5zM652 1637q4 11 9.5 28.5t29.5 62t53.5 79t83 63t116.5 28.5q45 0 90 -18.5t75.5 -41.5t71 -41t77.5 -18q26 0 50 12.5 t38.5 29.5t25.5 34.5t17 30.5l4 12l100 -11q-3 -11 -8 -29.5t-29 -65t-54 -82t-87 -64.5t-125 -29q-48 0 -93.5 19t-74 41t-66 41t-71.5 19q-40 0 -74 -30.5t-49 -60.5l-12 -29z" />
<glyph unicode="&#xd6;" horiz-adv-x="1676" d="M99 626q0 127 37.5 252.5t112 238t177 198.5t244 136.5t301.5 50.5q307 0 484 -174.5t177 -460.5q0 -135 -40.5 -266t-119 -244t-183 -199.5t-242.5 -135.5t-289 -49q-200 0 -350.5 85.5t-229.5 233.5t-79 334zM407 617q0 -144 39.5 -263.5t125 -196.5t202.5 -77 q143 0 270.5 110t203 292.5t75.5 384.5q0 78 -12.5 152t-41 143t-70 120.5t-105 82t-140.5 30.5q-118 0 -223 -70.5t-174.5 -183t-109.5 -250t-40 -274.5zM654 1725q0 76 45 127.5t117 51.5q63 0 99 -33.5t36 -89.5q0 -75 -46.5 -124t-115.5 -49q-60 0 -97.5 32.5 t-37.5 84.5zM1190 1725q0 76 44.5 127.5t116.5 51.5q63 0 99 -33.5t36 -89.5q0 -75 -46.5 -124t-114.5 -49q-60 0 -97.5 32.5t-37.5 84.5z" />
<glyph unicode="&#xd7;" horiz-adv-x="1149" d="M51 162l403 402l-397 396l114 108l393 -393l396 397l108 -112l-393 -396l406 -402l-112 -111l-405 403l-402 -405z" />
<glyph unicode="&#xd8;" horiz-adv-x="1676" d="M99 626q0 127 37.5 252.5t112 238t177 198.5t244 136.5t301.5 50.5q196 0 350 -80l91 119h137l-135 -178q106 -82 162 -210t56 -286q0 -135 -40.5 -266t-119 -244t-183 -199.5t-242.5 -135.5t-289 -49q-189 0 -342 80l-91 -119h-139l137 180q-108 89 -166 221.5 t-58 290.5zM407 617q0 -179 60 -314l738 969q-93 123 -251 123q-118 0 -223 -70.5t-174.5 -183t-109.5 -250t-40 -274.5zM528 199q96 -119 246 -119q143 0 270.5 110t203 292.5t75.5 384.5q0 170 -58 303z" />
<glyph unicode="&#xd9;" horiz-adv-x="1562" d="M173 431q0 86 13 147l135 676q16 81 -1.5 107t-108.5 48v66h163q117 0 202 2.5t111 4.5l25 2l9 -9q-3 -3 -9 -10t-23 -32.5t-31.5 -53.5t-31.5 -75t-27 -97l-132 -669q-16 -78 -16 -139q0 -146 79.5 -224t206.5 -78q75 0 150.5 27t147.5 80.5t127 147t79 214.5l133 668 q32 159 -124 168v73h413l7 -42q-6 -2 -15.5 -7t-35 -23t-46.5 -40.5t-42.5 -61t-30.5 -83.5l-137 -687q-35 -174 -133.5 -301.5t-234 -192t-292.5 -64.5q-256 0 -393 120.5t-137 337.5zM724 1705v64l116 158h11l396 -251l-42 -91z" />
<glyph unicode="&#xda;" horiz-adv-x="1562" d="M173 431q0 86 13 147l135 676q16 81 -1.5 107t-108.5 48v66h163q117 0 202 2.5t111 4.5l25 2l9 -9q-3 -3 -9 -10t-23 -32.5t-31.5 -53.5t-31.5 -75t-27 -97l-132 -669q-16 -78 -16 -139q0 -146 79.5 -224t206.5 -78q75 0 150.5 27t147.5 80.5t127 147t79 214.5l133 668 q32 159 -124 168v73h413l7 -42q-6 -2 -15.5 -7t-35 -23t-46.5 -40.5t-42.5 -61t-30.5 -83.5l-137 -687q-35 -174 -133.5 -301.5t-234 -192t-292.5 -64.5q-256 0 -393 120.5t-137 337.5zM827 1678l441 249h11l72 -158v-64l-488 -120z" />
<glyph unicode="&#xdb;" horiz-adv-x="1562" d="M173 431q0 86 13 147l135 676q16 81 -1.5 107t-108.5 48v66h163q117 0 202 2.5t111 4.5l25 2l9 -9q-3 -3 -9 -10t-23 -32.5t-31.5 -53.5t-31.5 -75t-27 -97l-132 -669q-16 -78 -16 -139q0 -146 79.5 -224t206.5 -78q75 0 150.5 27t147.5 80.5t127 147t79 214.5l133 668 q32 159 -124 168v73h413l7 -42q-6 -2 -15.5 -7t-35 -23t-46.5 -40.5t-42.5 -61t-30.5 -83.5l-137 -687q-35 -174 -133.5 -301.5t-234 -192t-292.5 -64.5q-256 0 -393 120.5t-137 337.5zM654 1657l353 270h160l237 -281l-81 -61l-259 165h-22l-318 -165z" />
<glyph unicode="&#xdc;" horiz-adv-x="1562" d="M173 431q0 86 13 147l135 676q16 81 -1.5 107t-108.5 48v66h163q117 0 202 2.5t111 4.5l25 2l9 -9q-3 -3 -9 -10t-23 -32.5t-31.5 -53.5t-31.5 -75t-27 -97l-132 -669q-16 -78 -16 -139q0 -146 79.5 -224t206.5 -78q75 0 150.5 27t147.5 80.5t127 147t79 214.5l133 668 q32 159 -124 168v73h413l7 -42q-6 -2 -15.5 -7t-35 -23t-46.5 -40.5t-42.5 -61t-30.5 -83.5l-137 -687q-35 -174 -133.5 -301.5t-234 -192t-292.5 -64.5q-256 0 -393 120.5t-137 337.5zM637 1725q0 76 44.5 127.5t116.5 51.5q63 0 99 -33.5t36 -89.5q0 -75 -46.5 -124 t-114.5 -49q-60 0 -97.5 32.5t-37.5 84.5zM1172 1725q0 76 44.5 127.5t117.5 51.5q62 0 98.5 -33.5t36.5 -89.5q0 -75 -47 -124t-115 -49q-61 0 -98 32.5t-37 84.5z" />
<glyph unicode="&#xdd;" horiz-adv-x="1213" d="M139 1409v66h104q79 0 151.5 2.5t105.5 4.5l34 2l6 -9q-1 -3 -3 -9.5t-6 -25t-5.5 -36.5t0.5 -42.5t10 -44.5l139 -393q9 -25 37 -130l363 489q21 28 26.5 53t-14 45.5t-67.5 27.5v66h371l9 -31q-9 -3 -24.5 -10t-58 -42.5t-78.5 -84.5l-467 -630l-88 -447 q-7 -32 -16 -65t-15 -49l-5 -17l175 -19l-9 -74l-586 -12v82q141 21 163 135l94 464l-251 636q-15 38 -38.5 62.5t-39.5 30.5zM619 1678l440 249h11l74 -158v-64l-490 -120z" />
<glyph unicode="&#xde;" horiz-adv-x="1253" d="M9 -6v82q67 9 110 43t54 92l207 1043q20 77 3 105t-113 50v66h163q118 0 202.5 2.5t110.5 4.5l26 2l9 -9q-3 -3 -9 -10t-23.5 -31.5t-32 -52.5t-31 -75t-26.5 -99l-13 -65h106q100 0 188 -20t159 -59.5t112 -105t41 -149.5q0 -110 -57.5 -202t-149 -148.5t-201.5 -87 t-220 -28.5v80q158 24 239 121t81 234q0 126 -78 189.5t-205 63.5h-11l-31 -26l-155 -774q-6 -32 -15 -65t-15 -49l-5 -17l175 -19l-9 -74z" />
<glyph unicode="&#xdf;" horiz-adv-x="1213" d="M-211 -471q53 26 100 84.5t81 128t66 171.5t52 189t41.5 208t33 200.5t27 194.5t23.5 162h-135l6 93l155 51q29 132 75.5 240t115 194t165.5 134.5t215 48.5q159 0 258 -73t99 -200q0 -59 -34.5 -115.5t-83.5 -103.5t-97.5 -96t-83 -110t-34.5 -125q0 -41 22.5 -80 t56 -70t73 -69t73 -76t56 -93.5t22.5 -118.5q0 -78 -37 -141.5t-97.5 -102.5t-131 -60t-141.5 -21q-51 0 -94 6t-82.5 19.5t-62 39.5t-22.5 61q0 40 26.5 67.5t66.5 27.5q35 0 62.5 -20t43 -44t39 -44t51.5 -20q51 0 87.5 33t36.5 89q0 54 -29.5 100t-71.5 82.5t-84.5 77.5 t-72 105t-29.5 144q0 58 25.5 114.5t63 99.5t82.5 92t83 93t63 104t25 123q0 89 -45 144t-120 55q-32 0 -60.5 -10t-50 -24.5t-40 -42t-31.5 -52t-25 -65t-19 -70.5t-14.5 -79.5t-12 -81t-11 -86.5t-10.5 -84q-18 -134 -34 -236.5t-37 -219.5t-41.5 -205.5t-47 -183.5 t-56 -165t-66.5 -140t-79.5 -118.5t-92.5 -88.5t-110 -63t-128 -31z" />
<glyph unicode="&#xe0;" d="M15 294q0 98 28.5 200.5t86.5 198.5t135.5 172t186.5 121.5t229 45.5q57 0 160.5 -12.5t146.5 -12.5q29 0 67 6l4 -6q-33 -66 -71 -239l-97 -439q-30 -139 -30 -165q0 -52 46 -52q26 0 60.5 18.5t62.5 44.5l8 -80q-129 -122 -288 -122q-48 0 -81 13t-49 35.5t-22.5 46 t-6.5 50.5q0 17 3.5 46.5t8.5 51.5l3 21h-4q-6 -11 -17.5 -29t-47.5 -63.5t-74.5 -80t-96 -63t-114.5 -28.5q-107 0 -172 85.5t-65 235.5zM303 329q0 -167 84 -167q53 0 104 52.5t89 132.5t63.5 151.5t40.5 134.5l63 274q-42 30 -93 30q-74 0 -156 -89t-138.5 -232.5 t-56.5 -286.5zM416 1507v59l243 -25l105 -378l-93 -46z" />
<glyph unicode="&#xe1;" d="M15 294q0 98 28.5 200.5t86.5 198.5t135.5 172t186.5 121.5t229 45.5q57 0 160.5 -12.5t146.5 -12.5q29 0 67 6l4 -6q-33 -66 -71 -239l-97 -439q-30 -139 -30 -165q0 -52 46 -52q26 0 60.5 18.5t62.5 44.5l8 -80q-129 -122 -288 -122q-48 0 -81 13t-49 35.5t-22.5 46 t-6.5 50.5q0 17 3.5 46.5t8.5 51.5l3 21h-4q-6 -11 -17.5 -29t-47.5 -63.5t-74.5 -80t-96 -63t-114.5 -28.5q-107 0 -172 85.5t-65 235.5zM303 329q0 -167 84 -167q53 0 104 52.5t89 132.5t63.5 151.5t40.5 134.5l63 274q-42 30 -93 30q-74 0 -156 -89t-138.5 -232.5 t-56.5 -286.5zM526 1167l255 374l251 25v-59l-422 -395z" />
<glyph unicode="&#xe2;" d="M15 294q0 98 28.5 200.5t86.5 198.5t135.5 172t186.5 121.5t229 45.5q57 0 160.5 -12.5t146.5 -12.5q29 0 67 6l4 -6q-33 -66 -71 -239l-97 -439q-30 -139 -30 -165q0 -52 46 -52q26 0 60.5 18.5t62.5 44.5l8 -80q-129 -122 -288 -122q-48 0 -81 13t-49 35.5t-22.5 46 t-6.5 50.5q0 17 3.5 46.5t8.5 51.5l3 21h-4q-6 -11 -17.5 -29t-47.5 -63.5t-74.5 -80t-96 -63t-114.5 -28.5q-107 0 -172 85.5t-65 235.5zM303 329q0 -167 84 -167q53 0 104 52.5t89 132.5t63.5 151.5t40.5 134.5l63 274q-42 30 -93 30q-74 0 -156 -89t-138.5 -232.5 t-56.5 -286.5zM323 1167l348 393h116l160 -393l-84 -55l-177 246l-279 -246z" />
<glyph unicode="&#xe3;" d="M15 294q0 98 28.5 200.5t86.5 198.5t135.5 172t186.5 121.5t229 45.5q57 0 160.5 -12.5t146.5 -12.5q29 0 67 6l4 -6q-33 -66 -71 -239l-97 -439q-30 -139 -30 -165q0 -52 46 -52q26 0 60.5 18.5t62.5 44.5l8 -80q-129 -122 -288 -122q-48 0 -81 13t-49 35.5t-22.5 46 t-6.5 50.5q0 17 3.5 46.5t8.5 51.5l3 21h-4q-6 -11 -17.5 -29t-47.5 -63.5t-74.5 -80t-96 -63t-114.5 -28.5q-107 0 -172 85.5t-65 235.5zM303 329q0 -167 84 -167q53 0 104 52.5t89 132.5t63.5 151.5t40.5 134.5l63 274q-42 30 -93 30q-74 0 -156 -89t-138.5 -232.5 t-56.5 -286.5zM329 1258q1 7 3.5 17t10.5 40.5t19 58t29 61t39 57t52.5 40.5t66.5 17q43 0 85.5 -26t71.5 -56.5t67.5 -56t73.5 -25.5q30 0 57 34.5t40 68.5l12 34l99 -11l-2.5 -17.5t-9.5 -41.5t-18.5 -59.5t-29 -63t-40.5 -59t-54.5 -41.5t-68.5 -17q-48 0 -91.5 26 t-71 56t-63.5 56t-70 26q-28 0 -55.5 -34.5t-40.5 -69.5l-13 -33z" />
<glyph unicode="&#xe4;" d="M15 294q0 98 28.5 200.5t86.5 198.5t135.5 172t186.5 121.5t229 45.5q57 0 160.5 -12.5t146.5 -12.5q29 0 67 6l4 -6q-33 -66 -71 -239l-97 -439q-30 -139 -30 -165q0 -52 46 -52q26 0 60.5 18.5t62.5 44.5l8 -80q-129 -122 -288 -122q-48 0 -81 13t-49 35.5t-22.5 46 t-6.5 50.5q0 17 3.5 46.5t8.5 51.5l3 21h-4q-6 -11 -17.5 -29t-47.5 -63.5t-74.5 -80t-96 -63t-114.5 -28.5q-107 0 -172 85.5t-65 235.5zM303 329q0 -167 84 -167q53 0 104 52.5t89 132.5t63.5 151.5t40.5 134.5l63 274q-42 30 -93 30q-74 0 -156 -89t-138.5 -232.5 t-56.5 -286.5zM306 1349q0 77 44 128t117 51q62 0 98.5 -34t36.5 -90q0 -75 -46.5 -123.5t-114.5 -48.5q-61 0 -98 32.5t-37 84.5zM783 1349q0 77 44.5 128t116.5 51q63 0 99 -34t36 -90q0 -75 -46.5 -123.5t-114.5 -48.5q-60 0 -97.5 32.5t-37.5 84.5z" />
<glyph unicode="&#xe5;" d="M15 294q0 98 28.5 200.5t86.5 198.5t135.5 172t186.5 121.5t229 45.5q57 0 160.5 -12.5t146.5 -12.5q29 0 67 6l4 -6q-33 -66 -71 -239l-97 -439q-30 -139 -30 -165q0 -52 46 -52q26 0 60.5 18.5t62.5 44.5l8 -80q-129 -122 -288 -122q-48 0 -81 13t-49 35.5t-22.5 46 t-6.5 50.5q0 17 3.5 46.5t8.5 51.5l3 21h-4q-6 -11 -17.5 -29t-47.5 -63.5t-74.5 -80t-96 -63t-114.5 -28.5q-107 0 -172 85.5t-65 235.5zM303 329q0 -167 84 -167q53 0 104 52.5t89 132.5t63.5 151.5t40.5 134.5l63 274q-42 30 -93 30q-74 0 -156 -89t-138.5 -232.5 t-56.5 -286.5zM467 1358q0 81 68 151t186 70q101 0 150 -49.5t49 -120.5q0 -48 -27 -98.5t-87.5 -88.5t-140.5 -38q-100 0 -149 51t-49 123zM593 1355q0 -34 20 -55t60 -21q52 0 88.5 38t36.5 87q0 36 -20.5 58t-62.5 22q-57 0 -89.5 -39t-32.5 -90z" />
<glyph unicode="&#xe6;" horiz-adv-x="1456" d="M-42 177q0 84 53.5 151.5t146.5 112t197 72.5t227 44q49 214 49 294q0 91 -85 91q-39 0 -71 -21.5t-54 -53t-43.5 -63t-49.5 -53t-62 -21.5q-41 0 -70.5 29.5t-29.5 69.5q0 50 48 90.5t121 64.5t150.5 36t143.5 12q171 0 211 -114q146 114 325 114q67 0 123.5 -15.5 t98.5 -58.5t42 -109q0 -53 -28.5 -100.5t-71.5 -82t-104 -64.5t-115 -48t-117 -34.5t-97.5 -23t-68.5 -11.5q-2 -20 -2 -58q0 -279 226 -279q46 0 91 11t77 26.5t56.5 31.5t37.5 27l12 11l7 -71q-6 -9 -16 -23t-48.5 -50t-82 -64.5t-116.5 -51t-153 -22.5q-257 0 -336 276 q-15 -35 -34.5 -68t-52 -72.5t-70 -68t-91.5 -48t-115 -19.5q-107 0 -183 52t-76 152zM221 241q0 -43 25 -68t66 -25q75 0 141 72.5t89 170.5l15 73q-151 -22 -243.5 -79.5t-92.5 -143.5zM840 580q327 67 327 260q0 97 -70 97q-76 0 -150 -104.5t-107 -252.5z" />
<glyph unicode="&#xe7;" horiz-adv-x="912" d="M6 -435l60 81q6 -7 19 -16.5t52.5 -26.5t79.5 -17q42 0 79.5 18.5t37.5 50.5q0 22 -21 41.5t-46.5 32.5t-46.5 33.5t-21 43.5q0 36 36 87t75 90q-136 28 -212 135t-76 254q0 88 28 181.5t82 179t126 153t169 107t202 39.5q45 0 92 -7t94.5 -22.5t77 -47t29.5 -73.5 q0 -40 -29 -71.5t-72 -31.5q-34 0 -60 16.5t-43.5 40.5l-35 48t-41.5 41t-55 17q-73 0 -141 -75.5t-107.5 -189t-39.5 -226.5q0 -83 23.5 -150t80 -112t140.5 -45q55 0 116 25t94 51l33 25l9 -77q-6 -7 -16 -20.5t-46 -47t-78 -59.5t-110.5 -47t-142.5 -21h-5 q-29 -56 -29 -79q0 -24 23.5 -42t52 -30.5t51.5 -43.5t23 -76q0 -91 -87 -158.5t-196 -67.5q-67 0 -123.5 22t-80.5 44z" />
<glyph unicode="&#xe8;" horiz-adv-x="914" d="M19 352q0 119 47 240t126.5 218.5t195.5 159.5t243 62q47 0 89 -9t80 -29t60 -59t22 -93t-24 -103t-62 -85t-92 -68.5t-103.5 -54t-108 -40.5t-95 -28t-74.5 -18l-27 -29q3 -268 221 -268q44 0 87.5 11t74.5 26.5t56 31.5t38 27l12 11l7 -71q-4 -5 -9 -12.5t-24 -29.5 t-41 -41.5t-58.5 -44t-75.5 -42t-92.5 -29.5t-109.5 -12q-180 0 -271.5 107.5t-91.5 271.5zM303 524q51 12 91 25.5t84.5 38.5t74 57.5t49 83.5t19.5 113q0 95 -64 95q-81 0 -156.5 -124t-97.5 -289zM354 1507v59l243 -25l104 -378l-93 -46z" />
<glyph unicode="&#xe9;" horiz-adv-x="914" d="M19 352q0 119 47 240t126.5 218.5t195.5 159.5t243 62q47 0 89 -9t80 -29t60 -59t22 -93t-24 -103t-62 -85t-92 -68.5t-103.5 -54t-108 -40.5t-95 -28t-74.5 -18l-27 -29q3 -268 221 -268q44 0 87.5 11t74.5 26.5t56 31.5t38 27l12 11l7 -71q-4 -5 -9 -12.5t-24 -29.5 t-41 -41.5t-58.5 -44t-75.5 -42t-92.5 -29.5t-109.5 -12q-180 0 -271.5 107.5t-91.5 271.5zM303 524q51 12 91 25.5t84.5 38.5t74 57.5t49 83.5t19.5 113q0 95 -64 95q-81 0 -156.5 -124t-97.5 -289zM464 1167l255 374l252 25v-59l-422 -395z" />
<glyph unicode="&#xea;" horiz-adv-x="914" d="M19 352q0 119 47 240t126.5 218.5t195.5 159.5t243 62q47 0 89 -9t80 -29t60 -59t22 -93t-24 -103t-62 -85t-92 -68.5t-103.5 -54t-108 -40.5t-95 -28t-74.5 -18l-27 -29q3 -268 221 -268q44 0 87.5 11t74.5 26.5t56 31.5t38 27l12 11l7 -71q-4 -5 -9 -12.5t-24 -29.5 t-41 -41.5t-58.5 -44t-75.5 -42t-92.5 -29.5t-109.5 -12q-180 0 -271.5 107.5t-91.5 271.5zM261 1167l347 393h118l159 -393l-85 -55l-176 246l-279 -246zM303 524q51 12 91 25.5t84.5 38.5t74 57.5t49 83.5t19.5 113q0 95 -64 95q-81 0 -156.5 -124t-97.5 -289z" />
<glyph unicode="&#xeb;" horiz-adv-x="914" d="M19 352q0 119 47 240t126.5 218.5t195.5 159.5t243 62q47 0 89 -9t80 -29t60 -59t22 -93t-24 -103t-62 -85t-92 -68.5t-103.5 -54t-108 -40.5t-95 -28t-74.5 -18l-27 -29q3 -268 221 -268q44 0 87.5 11t74.5 26.5t56 31.5t38 27l12 11l7 -71q-4 -5 -9 -12.5t-24 -29.5 t-41 -41.5t-58.5 -44t-75.5 -42t-92.5 -29.5t-109.5 -12q-180 0 -271.5 107.5t-91.5 271.5zM243 1349q0 77 45 128t117 51q63 0 99 -34t36 -90q0 -73 -47 -122.5t-115 -49.5q-60 0 -97.5 32.5t-37.5 84.5zM303 524q51 12 91 25.5t84.5 38.5t74 57.5t49 83.5t19.5 113 q0 95 -64 95q-81 0 -156.5 -124t-97.5 -289zM721 1349q0 77 44.5 128t116.5 51q63 0 99 -34t36 -90q0 -75 -46.5 -123.5t-114.5 -48.5q-60 0 -97.5 32.5t-37.5 84.5z" />
<glyph unicode="&#xec;" horiz-adv-x="625" d="M68 118q0 59 71.5 357.5t71.5 345.5q0 31 -12.5 46t-46.5 15h-68v72q117 10 244 42.5t183 62.5l6 -6q0 -100 -82.5 -477t-82.5 -410q0 -54 39 -54q24 0 58 17t56 33l23 17l10 -75q-6 -6 -15.5 -14.5t-41.5 -31t-65.5 -40t-83 -31.5t-98.5 -14q-78 0 -122 38t-44 107z M166 1507v59l243 -25l104 -378l-93 -46z" />
<glyph unicode="&#xed;" horiz-adv-x="625" d="M68 118q0 59 71.5 357.5t71.5 345.5q0 31 -12.5 46t-46.5 15h-68v72q117 10 244 42.5t183 62.5l6 -6q0 -100 -82.5 -477t-82.5 -410q0 -54 39 -54q24 0 58 17t56 33l23 17l10 -75q-6 -6 -15.5 -14.5t-41.5 -31t-65.5 -40t-83 -31.5t-98.5 -14q-78 0 -122 38t-44 107z M276 1167l255 374l252 25v-59l-422 -395z" />
<glyph unicode="&#xee;" horiz-adv-x="625" d="M68 118q0 59 71.5 357.5t71.5 345.5q0 31 -12.5 46t-46.5 15h-68v72q117 10 244 42.5t183 62.5l6 -6q0 -100 -82.5 -477t-82.5 -410q0 -54 39 -54q24 0 58 17t56 33l23 17l10 -75q-6 -6 -15.5 -14.5t-41.5 -31t-65.5 -40t-83 -31.5t-98.5 -14q-78 0 -122 38t-44 107z M73 1167l347 393h118l159 -393l-85 -55l-177 246l-278 -246z" />
<glyph unicode="&#xef;" horiz-adv-x="625" d="M68 118q0 59 71.5 357.5t71.5 345.5q0 31 -12.5 46t-46.5 15h-68v72q117 10 244 42.5t183 62.5l6 -6q0 -100 -82.5 -477t-82.5 -410q0 -54 39 -54q24 0 58 17t56 33l23 17l10 -75q-6 -6 -15.5 -14.5t-41.5 -31t-65.5 -40t-83 -31.5t-98.5 -14q-78 0 -122 38t-44 107z M89 1349q0 77 44 128t116 51q63 0 99 -34t36 -90q0 -75 -46 -123.5t-114 -48.5q-61 0 -98 32.5t-37 84.5zM500 1349q0 77 44.5 128t116.5 51q63 0 99 -34t36 -90q0 -75 -46.5 -123.5t-114.5 -48.5q-60 0 -97.5 32.5t-37.5 84.5z" />
<glyph unicode="&#xf0;" d="M13 342q0 118 52.5 241.5t137.5 222.5t206 162.5t248 63.5q76 0 128 -21q-24 150 -88 270l-310 -164l-49 103l295 156q-98 123 -259 188l42 80q236 -51 392 -177l331 175l45 -105l-289 -152q194 -224 194 -543q0 -171 -53.5 -330t-145 -277.5t-221.5 -190t-275 -71.5 q-186 0 -283.5 103t-97.5 266zM301 310q0 -246 130 -246q39 0 83 26t89.5 81t84.5 130.5t67.5 184.5t38.5 233q0 69 -8 112.5t-36.5 73.5t-78.5 30q-92 0 -177.5 -85.5t-139 -231.5t-53.5 -308z" />
<glyph unicode="&#xf1;" horiz-adv-x="1207" d="M59 -15q0 104 80 457.5t80 378.5q0 61 -51 61h-79v72q310 43 426 105l7 -6q0 -46 -12.5 -120t-25.5 -125l-13 -52h4q75 117 180.5 196.5t220.5 79.5q101 0 148.5 -55t47.5 -143q0 -79 -60.5 -351t-60.5 -317q0 -54 40 -54q22 0 53.5 14.5t51.5 29.5l21 15l8 -76 q-5 -5 -14 -13.5t-40 -29.5t-63 -37t-80 -29t-94 -13q-79 0 -123 38t-44 107q0 63 60 316t60 320q0 41 -17.5 62.5t-50.5 21.5q-50 0 -102.5 -41.5t-92 -102t-67.5 -122.5t-39 -110l-24 -112q-46 -201 -54 -346zM401 1258q1 7 3 17t10 40.5t18.5 58t29 61t39.5 57t52 40.5 t66 17q43 0 85.5 -26t72.5 -56.5t68 -56t73 -25.5q30 0 57 34.5t39 68.5l12 34l99 -11l-2.5 -17.5t-9.5 -41.5t-18 -59.5t-28 -63t-40.5 -59t-54.5 -41.5t-69 -17q-48 0 -91.5 26t-71 56t-64 56t-70.5 26q-28 0 -55 -34.5t-40 -69.5l-13 -33z" />
<glyph unicode="&#xf2;" horiz-adv-x="1114" d="M25 372q0 86 24 176.5t75.5 177.5t123.5 155t176.5 109.5t225.5 41.5q202 0 303.5 -105t101.5 -279q0 -85 -24 -177t-76 -181t-124.5 -160t-177 -114t-224.5 -43q-197 0 -300.5 111t-103.5 288zM312 281q0 -217 126 -217q71 0 134 63t104 159t65.5 207.5t24.5 209.5 q0 239 -131 239q-76 0 -139.5 -64.5t-102.5 -165t-60 -213t-21 -218.5zM451 1507v59l243 -25l104 -378l-93 -46z" />
<glyph unicode="&#xf3;" horiz-adv-x="1114" d="M25 372q0 86 24 176.5t75.5 177.5t123.5 155t176.5 109.5t225.5 41.5q202 0 303.5 -105t101.5 -279q0 -85 -24 -177t-76 -181t-124.5 -160t-177 -114t-224.5 -43q-197 0 -300.5 111t-103.5 288zM312 281q0 -217 126 -217q71 0 134 63t104 159t65.5 207.5t24.5 209.5 q0 239 -131 239q-76 0 -139.5 -64.5t-102.5 -165t-60 -213t-21 -218.5zM562 1167l254 374l252 25v-59l-422 -395z" />
<glyph unicode="&#xf4;" horiz-adv-x="1114" d="M25 372q0 86 24 176.5t75.5 177.5t123.5 155t176.5 109.5t225.5 41.5q202 0 303.5 -105t101.5 -279q0 -85 -24 -177t-76 -181t-124.5 -160t-177 -114t-224.5 -43q-197 0 -300.5 111t-103.5 288zM312 281q0 -217 126 -217q71 0 134 63t104 159t65.5 207.5t24.5 209.5 q0 239 -131 239q-76 0 -139.5 -64.5t-102.5 -165t-60 -213t-21 -218.5zM359 1167l346 393h118l159 -393l-85 -55l-176 246l-278 -246z" />
<glyph unicode="&#xf5;" horiz-adv-x="1114" d="M25 372q0 86 24 176.5t75.5 177.5t123.5 155t176.5 109.5t225.5 41.5q202 0 303.5 -105t101.5 -279q0 -85 -24 -177t-76 -181t-124.5 -160t-177 -114t-224.5 -43q-197 0 -300.5 111t-103.5 288zM312 281q0 -217 126 -217q71 0 134 63t104 159t65.5 207.5t24.5 209.5 q0 239 -131 239q-76 0 -139.5 -64.5t-102.5 -165t-60 -213t-21 -218.5zM365 1258q1 7 3 17t10.5 40.5t19 58t29 61t39.5 57t52.5 40.5t65.5 17q43 0 86 -26t72 -56.5t67.5 -56t72.5 -25.5q31 0 58.5 34.5t39.5 68.5l11 34l100 -11q-1 -7 -3 -17.5t-10 -41.5t-18 -59.5 t-28.5 -63t-40.5 -59t-54.5 -41.5t-69.5 -17q-47 0 -91 26t-71.5 56t-63.5 56t-71 26q-28 0 -55 -34.5t-40 -69.5l-13 -33z" />
<glyph unicode="&#xf6;" horiz-adv-x="1114" d="M25 372q0 86 24 176.5t75.5 177.5t123.5 155t176.5 109.5t225.5 41.5q202 0 303.5 -105t101.5 -279q0 -85 -24 -177t-76 -181t-124.5 -160t-177 -114t-224.5 -43q-197 0 -300.5 111t-103.5 288zM312 281q0 -217 126 -217q71 0 134 63t104 159t65.5 207.5t24.5 209.5 q0 239 -131 239q-76 0 -139.5 -64.5t-102.5 -165t-60 -213t-21 -218.5zM340 1349q0 77 45 128t117 51q63 0 99 -34t36 -90q0 -73 -47 -122.5t-115 -49.5q-60 0 -97.5 32.5t-37.5 84.5zM819 1349q0 77 44 128t117 51q62 0 98.5 -34t36.5 -90q0 -75 -46.5 -123.5t-114.5 -48.5 q-61 0 -98 32.5t-37 84.5z" />
<glyph unicode="&#xf7;" horiz-adv-x="1149" d="M73 482v157h991v-157h-991zM416 146q0 65 44.5 111t107.5 46q65 0 110.5 -46t45.5 -111q0 -64 -45.5 -108t-110.5 -44q-63 0 -107.5 44t-44.5 108zM416 973q0 64 44.5 109.5t107.5 45.5q65 0 110.5 -45.5t45.5 -109.5t-45.5 -109t-110.5 -45q-63 0 -107.5 45t-44.5 109z " />
<glyph unicode="&#xf8;" horiz-adv-x="1114" d="M25 372q0 86 24 176.5t75.5 177.5t123.5 155t176.5 109.5t225.5 41.5q108 0 197 -34l54 74h127l-97 -125q124 -105 124 -299q0 -85 -24 -177t-76 -181t-124.5 -160t-177 -114t-224.5 -43q-110 0 -195 38l-53 -77h-130l99 130q-125 106 -125 308zM312 276l433 583 q-31 83 -110 83q-76 0 -139.5 -65t-102.5 -165t-60 -210t-21 -210v-16zM332 141q27 -77 106 -77q71 0 134 63t104 159t65.5 207.5t24.5 209.5v21z" />
<glyph unicode="&#xf9;" horiz-adv-x="1195" d="M84 173q0 91 59.5 351t59.5 297q0 61 -51 61h-68v74q96 14 156 24t135.5 31t124.5 48l7 -6q0 -109 -34.5 -278.5t-69 -317.5t-34.5 -205q0 -41 18.5 -62.5t50.5 -21.5q57 0 120.5 65t108.5 151t61 160q59 279 68 358q4 38 6 80l284 40q2 -85 -38.5 -275.5t-82 -364.5 t-41.5 -216q0 -54 40 -54q22 0 54 14.5t52 29.5l21 15l8 -76q-5 -5 -14 -13.5t-40 -29.5t-63 -37t-80 -29t-94 -13q-75 0 -115.5 38t-40.5 107q0 25 4.5 55t8.5 47l6 19h-6q-72 -113 -175 -189.5t-209 -76.5q-102 0 -149.5 55.5t-47.5 144.5zM456 1507v59l243 -25l103 -378 l-92 -46z" />
<glyph unicode="&#xfa;" horiz-adv-x="1195" d="M84 173q0 91 59.5 351t59.5 297q0 61 -51 61h-68v74q96 14 156 24t135.5 31t124.5 48l7 -6q0 -109 -34.5 -278.5t-69 -317.5t-34.5 -205q0 -41 18.5 -62.5t50.5 -21.5q57 0 120.5 65t108.5 151t61 160q59 279 68 358q4 38 6 80l284 40q2 -85 -38.5 -275.5t-82 -364.5 t-41.5 -216q0 -54 40 -54q22 0 54 14.5t52 29.5l21 15l8 -76q-5 -5 -14 -13.5t-40 -29.5t-63 -37t-80 -29t-94 -13q-75 0 -115.5 38t-40.5 107q0 25 4.5 55t8.5 47l6 19h-6q-72 -113 -175 -189.5t-209 -76.5q-102 0 -149.5 55.5t-47.5 144.5zM566 1167l255 374l251 25v-59 l-422 -395z" />
<glyph unicode="&#xfb;" horiz-adv-x="1195" d="M84 173q0 91 59.5 351t59.5 297q0 61 -51 61h-68v74q96 14 156 24t135.5 31t124.5 48l7 -6q0 -109 -34.5 -278.5t-69 -317.5t-34.5 -205q0 -41 18.5 -62.5t50.5 -21.5q57 0 120.5 65t108.5 151t61 160q59 279 68 358q4 38 6 80l284 40q2 -85 -38.5 -275.5t-82 -364.5 t-41.5 -216q0 -54 40 -54q22 0 54 14.5t52 29.5l21 15l8 -76q-5 -5 -14 -13.5t-40 -29.5t-63 -37t-80 -29t-94 -13q-75 0 -115.5 38t-40.5 107q0 25 4.5 55t8.5 47l6 19h-6q-72 -113 -175 -189.5t-209 -76.5q-102 0 -149.5 55.5t-47.5 144.5zM363 1167l347 393h117l159 -393 l-83 -55l-177 246l-279 -246z" />
<glyph unicode="&#xfc;" horiz-adv-x="1195" d="M84 173q0 91 59.5 351t59.5 297q0 61 -51 61h-68v74q96 14 156 24t135.5 31t124.5 48l7 -6q0 -109 -34.5 -278.5t-69 -317.5t-34.5 -205q0 -41 18.5 -62.5t50.5 -21.5q57 0 120.5 65t108.5 151t61 160q59 279 68 358q4 38 6 80l284 40q2 -85 -38.5 -275.5t-82 -364.5 t-41.5 -216q0 -54 40 -54q22 0 54 14.5t52 29.5l21 15l8 -76q-5 -5 -14 -13.5t-40 -29.5t-63 -37t-80 -29t-94 -13q-75 0 -115.5 38t-40.5 107q0 25 4.5 55t8.5 47l6 19h-6q-72 -113 -175 -189.5t-209 -76.5q-102 0 -149.5 55.5t-47.5 144.5zM345 1349q0 77 44.5 128 t117.5 51q62 0 98.5 -34t36.5 -90q0 -73 -47 -122.5t-115 -49.5q-61 0 -98 32.5t-37 84.5zM823 1349q0 77 44.5 128t116.5 51q63 0 99 -34t36 -90q0 -75 -46.5 -123.5t-114.5 -48.5q-61 0 -98 32.5t-37 84.5z" />
<glyph unicode="&#xfd;" horiz-adv-x="977" d="M-249 -420q0 53 35.5 87.5t111.5 34.5q89 0 149 27t112 79l18 17q64 64 64 175q0 205 -21.5 467.5t-57.5 357.5q-19 57 -96 57h-41v72q302 55 389 105l8 -4q69 -466 72 -816q137 204 229.5 377t92.5 229q0 27 -23 43.5t-61 16.5v62l310 65l7 -12q-32 -80 -118 -237 q-37 -67 -77.5 -138.5t-139 -232.5t-191 -296t-215.5 -288.5t-230 -251.5q-55 -50 -103 -75t-103.5 -25t-88 33t-32.5 71zM536 1167l253 374l253 25v-59l-423 -395z" />
<glyph unicode="&#xfe;" horiz-adv-x="1089" d="M-91 -536q10 137 49 315l312 1422q40 179 40 199q0 34 -19.5 52.5t-66.5 18.5h-45v70q113 12 242.5 46t188.5 63l7 -6q-8 -144 -58 -370l-48 -219l-66 -274h4q7 10 19.5 27t50.5 60.5t78 76.5t98.5 60t114.5 27q100 0 164 -84t64 -231q0 -100 -25 -203t-78.5 -200.5 t-127.5 -173t-181.5 -121.5t-231.5 -46q-44 0 -120 10l-46 -215q-2 -11 -7.5 -34t-7 -32.5t-4 -26.5t2 -24.5t11.5 -17t21.5 -12.5t36.5 -3q17 0 39.5 2.5t36.5 5.5l15 2l4 -77q-130 -13 -266 -41.5t-192 -53.5zM310 146q-10 -39 26 -58.5t78 -19.5q87 0 166 89.5t124.5 230 t45.5 287.5q0 170 -77 170q-76 0 -169.5 -123t-123.5 -260z" />
<glyph unicode="&#xff;" horiz-adv-x="977" d="M-249 -420q0 53 35.5 87.5t111.5 34.5q89 0 149 27t112 79l18 17q64 64 64 175q0 205 -21.5 467.5t-57.5 357.5q-19 57 -96 57h-41v72q302 55 389 105l8 -4q69 -466 72 -816q137 204 229.5 377t92.5 229q0 27 -23 43.5t-61 16.5v62l310 65l7 -12q-32 -80 -118 -237 q-37 -67 -77.5 -138.5t-139 -232.5t-191 -296t-215.5 -288.5t-230 -251.5q-55 -50 -103 -75t-103.5 -25t-88 33t-32.5 71zM314 1349q0 77 44.5 128t116.5 51q63 0 99 -34t36 -90q0 -75 -46.5 -123.5t-114.5 -48.5q-60 0 -97.5 32.5t-37.5 84.5zM792 1349q0 77 44.5 128 t117.5 51q62 0 98.5 -34t36.5 -90q0 -73 -47 -122.5t-115 -49.5q-61 0 -98 32.5t-37 84.5z" />
<glyph unicode="&#x152;" horiz-adv-x="2134" d="M99 626q0 127 37.5 252.5t112 238t177 198.5t244 136.5t301.5 50.5q96 0 256.5 -13.5t222.5 -13.5h565q39 0 79.5 2.5t62.5 4.5l21 2l-105 -391h-87q13 67 13 114q0 87 -46 122.5t-148 35.5h-224l-32 -27l-105 -533h352l40 142h93l-84 -419h-111l33 166h-319l-32 -27 l-84 -428q-6 -29 -15 -61.5t-15 -50.5l-6 -17h287q67 0 108 9.5t82 42t73 77.5t89 137h87l-135 -376h-697q-125 -1 -247.5 -14t-184.5 -13q-200 0 -350.5 85.5t-229.5 233.5t-79 334zM407 617q0 -143 39.5 -261.5t125 -196t202.5 -77.5q54 0 91.5 4.5t77.5 19t64.5 46 t34.5 80.5l192 973q20 100 -41 145t-184 45q-110 0 -207.5 -45.5t-168 -123.5t-122.5 -178.5t-78 -211t-26 -219.5z" />
<glyph unicode="&#x153;" horiz-adv-x="1627" d="M25 372q0 86 24 176.5t75.5 177.5t123.5 155t176.5 109.5t225.5 41.5q117 0 198.5 -45t122.5 -126q164 171 371 171q48 0 90 -9t80.5 -29t60.5 -59t22 -93t-25 -103t-62 -85t-91.5 -68.5t-104 -54t-108 -40.5t-95.5 -28l-74 -18l-26 -29q3 -268 221 -268q43 0 86.5 11 t74.5 26.5t56 31.5t37 27l13 11l7 -71q-3 -5 -8.5 -12.5t-24 -29.5t-40.5 -41.5t-57.5 -44t-73 -42t-89.5 -29.5t-107 -12q-219 0 -308 156q-156 -156 -367 -156q-197 0 -300.5 111t-103.5 288zM312 281q0 -217 126 -217q71 0 134 63t104 159t65.5 207.5t24.5 209.5 q0 239 -131 239q-76 0 -139.5 -64.5t-102.5 -165t-60 -213t-21 -218.5zM1015 524q51 12 91 25.5t85 38.5t74.5 57.5t49 83.5t19.5 113q0 95 -64 95q-81 0 -157 -124t-98 -289z" />
<glyph unicode="&#x178;" horiz-adv-x="1213" d="M139 1409v66h104q79 0 151.5 2.5t105.5 4.5l34 2l6 -9q-1 -3 -3 -9.5t-6 -25t-5.5 -36.5t0.5 -42.5t10 -44.5l139 -393q9 -25 37 -130l363 489q21 28 26.5 53t-14 45.5t-67.5 27.5v66h371l9 -31q-9 -3 -24.5 -10t-58 -42.5t-78.5 -84.5l-467 -630l-88 -447 q-7 -32 -16 -65t-15 -49l-5 -17l175 -19l-9 -74l-586 -12v82q141 21 163 135l94 464l-251 636q-15 38 -38.5 62.5t-39.5 30.5zM429 1725q0 76 44.5 127.5t117.5 51.5q62 0 98.5 -33.5t36.5 -89.5q0 -75 -47 -124t-115 -49q-61 0 -98 32.5t-37 84.5zM964 1725 q0 76 44.5 127.5t116.5 51.5q63 0 99 -33.5t36 -89.5q0 -75 -46.5 -124t-114.5 -49q-60 0 -97.5 32.5t-37.5 84.5z" />
<glyph unicode="&#x2c6;" horiz-adv-x="1105" d="M298 1167l348 393h118l158 -393l-84 -55l-177 246l-279 -246z" />
<glyph unicode="&#x2dc;" horiz-adv-x="1105" d="M306 1258q1 7 3 17t10 40.5t18.5 58t28.5 61t39.5 57t52.5 40.5t66 17q43 0 85.5 -26t72.5 -56.5t68 -56t73 -25.5q30 0 57 34.5t39 68.5l12 34l99 -11l-2.5 -17.5t-9.5 -41.5t-18 -59.5t-28 -63t-40.5 -59t-54.5 -41.5t-69 -17q-48 0 -91.5 26t-71 56t-64 56t-70.5 26 q-28 0 -55 -34.5t-40 -69.5l-13 -33z" />
<glyph unicode="&#x2000;" horiz-adv-x="963" />
<glyph unicode="&#x2001;" horiz-adv-x="1927" />
<glyph unicode="&#x2002;" horiz-adv-x="963" />
<glyph unicode="&#x2003;" horiz-adv-x="1927" />
<glyph unicode="&#x2004;" horiz-adv-x="642" />
<glyph unicode="&#x2005;" horiz-adv-x="481" />
<glyph unicode="&#x2006;" horiz-adv-x="321" />
<glyph unicode="&#x2007;" horiz-adv-x="321" />
<glyph unicode="&#x2008;" horiz-adv-x="240" />
<glyph unicode="&#x2009;" horiz-adv-x="385" />
<glyph unicode="&#x200a;" horiz-adv-x="107" />
<glyph unicode="&#x2010;" horiz-adv-x="826" d="M108 475v177h589v-177h-589z" />
<glyph unicode="&#x2011;" horiz-adv-x="826" d="M108 475v177h589v-177h-589z" />
<glyph unicode="&#x2012;" horiz-adv-x="826" d="M108 475v177h589v-177h-589z" />
<glyph unicode="&#x2013;" horiz-adv-x="1146" d="M110 489v157h907v-157h-907z" />
<glyph unicode="&#x2014;" horiz-adv-x="2009" d="M110 489v157h1770v-157h-1770z" />
<glyph unicode="&#x2018;" horiz-adv-x="441" d="M162 1190q0 241 364 484l49 -70q-104 -84 -157 -147.5t-53 -118.5q0 -81 117 -146l-22 -101l-223 -111q-75 100 -75 210z" />
<glyph unicode="&#x2019;" horiz-adv-x="435" d="M141 1068q104 84 157.5 147.5t53.5 118.5q0 75 -118 146l23 101l223 111q75 -105 75 -210q0 -240 -365 -484z" />
<glyph unicode="&#x201a;" horiz-adv-x="494" d="M-97 -287q103 84 156 147t53 118q0 77 -116 146l21 102l224 110q75 -106 75 -210q0 -240 -365 -485z" />
<glyph unicode="&#x201c;" horiz-adv-x="855" d="M162 1190q0 241 364 484l49 -70q-104 -84 -157 -147.5t-53 -118.5q0 -81 117 -146l-22 -101l-223 -111q-75 100 -75 210zM575 1190q0 240 365 484l48 -70q-103 -84 -156 -147.5t-53 -118.5q0 -81 116 -146l-21 -101l-224 -111q-75 101 -75 210z" />
<glyph unicode="&#x201d;" horiz-adv-x="846" d="M141 1068q104 84 157.5 147.5t53.5 118.5q0 75 -118 146l23 101l223 111q75 -105 75 -210q0 -240 -365 -484zM553 1068q104 84 157.5 147.5t53.5 118.5q0 75 -118 146l21 101l224 111q76 -105 76 -210q0 -240 -365 -484z" />
<glyph unicode="&#x201e;" horiz-adv-x="893" d="M-97 -287q103 84 156 147t53 118q0 77 -116 146l21 102l224 110q75 -106 75 -210q0 -240 -365 -485zM301 -287q104 84 157 147t53 118q0 77 -117 146l22 102l223 110q76 -106 76 -210q0 -240 -365 -485z" />
<glyph unicode="&#x2022;" horiz-adv-x="922" d="M118 565.5q0 142.5 96.5 240t239 97.5t239 -97.5t96.5 -240t-96.5 -239t-239 -96.5t-239 96.5t-96.5 239z" />
<glyph unicode="&#x2026;" horiz-adv-x="1568" d="M2 68q0 66 40 118.5t112 52.5q49 0 73.5 -26t24.5 -67q0 -65 -40.5 -119t-114.5 -54q-48 0 -71.5 27t-23.5 68zM570 68q0 66 40.5 118.5t113.5 52.5q48 0 72.5 -26t24.5 -67q0 -65 -41 -119t-115 -54q-48 0 -71.5 27t-23.5 68zM1135 68q0 66 40 118.5t112 52.5 q49 0 73.5 -26t24.5 -67q0 -65 -40.5 -119t-114.5 -54q-48 0 -71.5 27t-23.5 68z" />
<glyph unicode="&#x202f;" horiz-adv-x="385" />
<glyph unicode="&#x2039;" horiz-adv-x="658" d="M46 557v9q39 28 117.5 101t378.5 365l73 -21l-292 -449q18 -35 215 -452l-74 -21q-173 204 -259 302.5t-109.5 122t-49.5 43.5z" />
<glyph unicode="&#x203a;" horiz-adv-x="669" d="M38 110l291 449q-18 35 -215 452l74 21q171 -200 260 -301.5t111 -123.5t49 -43v-9q-41 -29 -123.5 -105.5t-374.5 -360.5z" />
<glyph unicode="&#x205f;" horiz-adv-x="481" />
<glyph unicode="&#x20ac;" horiz-adv-x="1184" d="M49 438v96h126q8 76 28 143h-101v95h135q86 210 257.5 349t387.5 139q79 0 166 -18.5t135 -37.5l47 -18l-109 -249h-72q19 94 -28 163.5t-149 69.5q-89 0 -163.5 -59.5t-120.5 -145t-77 -193.5h551l-45 -95h-530q-19 -111 -20 -143h491l-44 -96h-450q3 -57 15.5 -107 t39 -98.5t76 -77.5t115.5 -29q55 0 123 18t109 36l40 19l22 -60l-17.5 -17.5t-51 -40t-82 -50.5t-110 -40t-137.5 -18q-104 0 -187 37.5t-136.5 101.5t-81.5 147t-30 179h-122z" />
<glyph unicode="&#x2122;" horiz-adv-x="1751" d="M188 1290l29 190q40 -5 86 -5h442l91 5l-28 -190h-54q0 71 -23 96.5t-74 25.5h-71v-418l-4 -50l102 -9l-3 -53l-329 -4v57q36 1 56.5 18t20.5 41v418h-62q-44 0 -69.5 -24.5t-54.5 -97.5h-55zM854 878v57q28 1 45 16t19 37l17 384q1 31 -9.5 42.5t-51.5 22.5v38h80l194 5 l4 -5q14 -40 30 -82l76 -219l16 -57q7 18 57 152.5t76 205.5h26l206 5l5 -5l-9 -12t-14.5 -37.5t-5.5 -62.5l19 -377q1 -11 0 -23t-3 -17l-1 -6l93 -5l-5 -53l-320 -4v57q77 4 77 51l-15 403l-192 -509l-71 9l-182 498l-15 -399l-6 -48l95 -5l-5 -53z" />
<glyph unicode="&#xe000;" horiz-adv-x="1058" d="M0 1058h1058v-1058h-1058v1058z" />
</font>
</defs>
</svg>
