<?xml version="1.0" standalone="no"?>
<!DOCTYPE svg PUBLIC "-//W3C//DTD SVG 1.1//EN" "http://www.w3.org/Graphics/SVG/1.1/DTD/svg11.dtd" >
<svg xmlns="http://www.w3.org/2000/svg">
<metadata></metadata>
<defs>
<font id="_.regular" horiz-adv-x="1073" >
<font-face units-per-em="2048" ascent="1536" descent="-512" />
<missing-glyph horiz-adv-x="524" />
<glyph unicode="&#xfb01;" horiz-adv-x="1311" d="M84 931v71l147 51v63q0 266 135.5 425t375.5 159q105 0 189.5 -35.5t84.5 -102.5q0 -36 -27 -62.5t-71 -26.5q-38 0 -81.5 29.5t-94.5 60t-109 30.5q-107 0 -158.5 -96.5t-51.5 -317.5v-132h348q217 0 345 65l2 -7q-26 -78 -26 -267v-626q0 -31 -3 -62t-6 -47l-2 -16 l198 -22l-9 -58l-513 -14v67q145 16 145 152v568q0 44 -2 68t-8.5 47.5t-21 33t-39.5 9.5h-385l-23 -23v-703q0 -31 -3 -62t-6 -47l-4 -16l187 -22l-9 -58l-501 -14v67q144 16 144 152v719h-147z" />
<glyph unicode="&#xfb02;" horiz-adv-x="1314" d="M84 931v71l147 51v63q0 266 132.5 425t367.5 159q114 0 198 -33q56 15 101 29t62 21l17 8l7 -7q-24 -86 -24 -266v-1240q0 -31 -3 -62t-6 -47l-2 -16l198 -22l-9 -58l-513 -14v67q145 16 145 152v1187q0 45 -4 76q-33 7 -77 37t-93.5 55.5t-106.5 25.5q-102 0 -150 -96.5 t-48 -317.5v-128h294l-19 -113h-252l-23 -23v-703q0 -31 -3 -62t-6 -47l-4 -16l187 -22l-9 -58l-501 -14v67q144 16 144 152v719h-147z" />
<glyph unicode="&#xfb03;" horiz-adv-x="1981" d="M84 931v71l147 51v5q0 262 142.5 421.5t385.5 159.5q89 0 169.5 -22t114.5 -69q137 152 369 152q105 0 188.5 -34.5t83.5 -101.5q0 -36 -26 -63.5t-70 -27.5q-38 0 -81 29.5t-94.5 60t-109.5 30.5q-108 0 -159.5 -96.5t-51.5 -317.5v-132h349q212 0 345 65l3 -7 q-27 -78 -27 -267v-626q0 -31 -2.5 -62t-6.5 -47l-2 -16l198 -22l-9 -58l-514 -14v67q145 16 145 152v568q0 43 -1 66t-7 47.5t-18.5 34.5t-34.5 10h-394l-24 -23v-703q0 -31 -3 -62t-6 -47l-2 -16l187 -22l-9 -58l-502 -14v67q145 16 145 152v726h-456l-23 -23v-703 q0 -31 -3 -62t-6 -47l-4 -16l187 -22l-9 -58l-501 -14v67q144 16 144 152v719h-147zM423 1047h479v69q0 165 51 287q-26 5 -59 26.5t-61 44t-76 40t-101 17.5q-119 0 -176 -95.5t-57 -314.5v-74z" />
<glyph unicode="&#xfb04;" horiz-adv-x="1983" d="M84 931v71l147 51v5q0 264 142 424t393 160q83 0 161 -24.5t114 -69.5q133 152 360 152q114 0 198 -33q56 15 101 29t62 21l18 8l6 -7q-24 -86 -24 -266v-1240q0 -31 -2.5 -62t-6.5 -47l-2 -16l198 -22l-9 -58l-514 -14v67q145 16 145 152v1187q0 56 -2 76q-33 7 -77 37 t-93.5 55.5t-106.5 25.5q-103 0 -151.5 -96.5t-48.5 -317.5v-128h295l-19 -113h-252l-24 -23v-703q0 -31 -3 -62t-6 -47l-2 -16l187 -22l-9 -58l-502 -14v67q145 16 145 152v726h-456l-23 -23v-703q0 -31 -3 -62t-6 -47l-4 -16l187 -22l-9 -58l-501 -14v67q144 16 144 152 v719h-147zM423 1047h479v69q0 159 51 290q-36 5 -83.5 37.5t-101 61.5t-112.5 29q-119 0 -176 -96t-57 -317v-74z" />
<glyph horiz-adv-x="2048" />
<glyph horiz-adv-x="2048" />
<glyph unicode="&#xd;" horiz-adv-x="2048" />
<glyph unicode=" "  horiz-adv-x="524" />
<glyph unicode="&#x09;" horiz-adv-x="524" />
<glyph unicode="&#xa0;" horiz-adv-x="524" />
<glyph unicode="!" horiz-adv-x="644" d="M176 112q0 58 40 99t98.5 41t99.5 -41t41 -99t-41 -99t-99.5 -41t-98.5 41t-40 99zM187 1531q92 25 159.5 46t88.5 30l22 8l8 -6q-26 -75 -40 -252l-77 -947h-58z" />
<glyph unicode="&#x22;" horiz-adv-x="797" d="M145 1007v550h189v-86l-100 -464h-89zM508 1007v550h190v-86l-101 -464h-89z" />
<glyph unicode="#" horiz-adv-x="1477" d="M67 303l20 105h296l72 356h-299l20 105h301l100 481h112l-101 -481h379l100 481h112l-101 -481h325l-19 -105h-326l-73 -356h329l-18 -105h-332l-102 -510h-115l106 510h-379l-102 -510h-116l105 510h-294zM495 408h378l72 356h-377z" />
<glyph unicode="$" horiz-adv-x="1027" d="M84 198q0 13 3.5 29.5t7.5 30.5t16 54t22 73h72q0 -150 66 -225.5t172 -89.5l20 487q-51 26 -75.5 39t-70.5 39.5t-70 46t-56.5 51.5t-48 62.5t-27.5 71t-12 86.5q0 138 101.5 236t287.5 114l10 205h93l-9 -200q124 -3 332 -40l-65 -328h-73q10 113 -39.5 191.5 t-156.5 89.5l-19 -472q161 -80 220 -122q159 -116 160 -286q0 -159 -115.5 -250.5t-297.5 -104.5l-6 -193h-94l7 193q-91 4 -168.5 26.5t-132 71t-54.5 114.5zM285 1027q0 -75 48.5 -129t138.5 -105l18 426q-91 -11 -148 -60.5t-57 -131.5zM537 67q97 9 161 59t64 137 q0 81 -54.5 138.5t-152.5 110.5z" />
<glyph unicode="%" horiz-adv-x="1673" d="M75 1183.5q0 144.5 103.5 247.5t249 103t249 -103t103.5 -247.5t-103.5 -247.5t-249 -103t-249 103t-103.5 247.5zM201 1183q0 -98 66.5 -169t160 -71t159.5 71t66 169t-66 169.5t-159.5 71.5t-160 -71.5t-66.5 -169.5zM234 0l1090 1569l91 -63l-1048 -1506h-133z M902 320.5q0 144.5 103 247t249 102.5t249 -102.5t103 -247t-103 -248t-249 -103.5t-249 103.5t-103 248zM1027 320q0 -98 67 -169t160 -71t159.5 71t66.5 169t-66.5 169.5t-159.5 71.5t-160 -71.5t-67 -169.5z" />
<glyph unicode="&#x26;" horiz-adv-x="1535" d="M87 359q0 61 21 116t50 95.5t82.5 87.5t93.5 75.5t107 72.5q-142 254 -142 426q0 68 21.5 129t65.5 112t119.5 82t173.5 31q159 0 246.5 -82t87.5 -201q0 -59 -20.5 -115t-50 -99.5t-80 -92t-93 -80.5t-106.5 -78q156 -258 402 -515q91 112 143.5 250t52.5 269 q0 70 -37.5 105.5t-114.5 44.5v59h334l12 -35q-14 -25 -25 -52.5t-17.5 -48t-18.5 -61.5t-21 -67q-51 -158 -108 -289t-140 -239q234 -241 372 -308l-33 -49q-211 33 -457 229q-191 -159 -450 -159q-86 0 -167.5 23t-150.5 68.5t-110.5 122t-41.5 173.5zM287 437 q0 -169 94 -261t240 -92q162 0 310 110q-264 235 -448 539q-94 -70 -145 -141t-51 -155zM497 1288q0 -149 124 -377q192 159 192 345q0 60 -13 111t-53 92.5t-103 41.5q-67 0 -107 -60t-40 -153z" />
<glyph unicode="'" horiz-adv-x="433" d="M145 1007v550h184v-86l-86 -464h-98z" />
<glyph unicode="(" horiz-adv-x="657" d="M105 630q0 126 20.5 247.5t53 215t72.5 177.5t79.5 143.5t72 103t53.5 63.5l21 22l78 -29q-11 -16 -29.5 -45t-65.5 -126t-83.5 -200t-66.5 -259t-30 -313q0 -125 18.5 -247.5t47.5 -219.5t64 -184.5t70 -150.5t64 -109.5t48 -69.5l18 -23l-75 -34q-9 8 -24.5 23.5 t-60 68.5t-85.5 111.5t-90.5 152t-85 191.5t-60 228t-24.5 263z" />
<glyph unicode=")" horiz-adv-x="657" d="M49 -374q14 16 36 46t78.5 130.5t100.5 210t79 278t35 339.5q0 157 -28.5 311.5t-68.5 263t-80.5 196t-69.5 129.5l-28 43l79 29q15 -15 40 -42.5t89 -122.5t113 -199.5t89 -269.5t40 -338q0 -133 -23.5 -262.5t-61.5 -229.5t-83.5 -190t-91.5 -153.5t-84 -110.5t-61 -69 l-24 -23z" />
<glyph unicode="*" horiz-adv-x="1150" d="M160.5 891.5q-10.5 18.5 -15.5 41.5t1 45.5t25 28.5l272 74q14 4 27 5.5t20 -0.5l7 -1q-7 -24 -30 -44l-201 -196q-17 -17 -39 -10.5t-39 22.5t-27.5 34.5zM160.5 1368q10.5 18 28 34.5t39 23.5t38.5 -9l201 -198q11 -9 18 -20t10 -18l2 -7q-23 -4 -54 5l-270 75 q-20 6 -26.5 27.5t-1.5 45t15.5 41.5zM481 719l70 273q3 13 8.5 26t10.5 17l5 6q16 -18 22 -49l71 -273q8 -29 -25 -47.5t-68.5 -18.5t-68.5 18.5t-25 47.5zM481 1541q-8 30 25 47.5t68.5 17.5t68.5 -17.5t25 -47.5l-71 -273q-3 -14 -8.5 -26.5t-9.5 -17.5l-4 -5 q-18 18 -24 49zM651 1085q23 5 54 -4l271 -74q20 -6 26 -28.5t1 -45.5t-15.5 -41.5t-28 -35t-39 -23.5t-38.5 9l-200 199q-11 9 -18 20t-10 17zM651 1174q8 24 31 45l200 196q17 17 39 10t39 -23t27.5 -34t15.5 -41.5t0 -45t-25 -27.5l-273 -75q-14 -5 -28 -6t-20 0z" />
<glyph unicode="+" horiz-adv-x="1212" d="M84 521v128h458v490h137v-490h451v-128h-451v-521h-137v521h-458z" />
<glyph unicode="," horiz-adv-x="539" d="M119 -339q76 65 118.5 123t42.5 125q0 106 -151 191v82l179 96q105 -108 105 -262q0 -94 -34 -172.5t-80 -129.5t-121 -113z" />
<glyph unicode="-" horiz-adv-x="840" d="M145 506v155h550v-155h-550z" />
<glyph unicode="." horiz-adv-x="546" d="M133 112q0 58 41 99t99.5 41t99 -41t40.5 -99t-40.5 -99t-99 -41t-99.5 41t-41 99z" />
<glyph unicode="/" horiz-adv-x="820" d="M-60 -457l777 2014h149l-775 -2014h-151z" />
<glyph unicode="0" horiz-adv-x="1318" d="M136 532q0 114 34.5 218.5t99.5 189t170.5 135t236.5 50.5q98 0 181.5 -30t142.5 -82t100.5 -121.5t61.5 -149t20 -163.5q0 -114 -34.5 -220.5t-99.5 -193.5t-171 -140t-236 -53q-98 0 -181.5 31t-142.5 85t-100.5 126t-61.5 153t-20 165zM334 553q0 -121 38 -227.5 t113.5 -175t173.5 -68.5q99 0 175.5 69.5t113.5 176t37 229.5q0 117 -37.5 220t-113.5 171t-173 68q-99 0 -175.5 -68.5t-114 -173t-37.5 -221.5z" />
<glyph unicode="1" horiz-adv-x="860" d="M124 1018v80h611l-9 -75l-207 -27v-779q0 -31 -3 -62t-6 -46l-4 -16l241 -23l-9 -70l-602 -11v78q110 0 153 34t43 116v663q0 81 -42.5 109.5t-165.5 28.5z" />
<glyph unicode="2" horiz-adv-x="1094" d="M116 929q6 8 17.5 21t50 47t82 60t112 47t138.5 21q84 0 156 -30t122.5 -98.5t50.5 -163.5q0 -255 -490 -668h338q57 0 98.5 15.5t68 48t39.5 60t30 75.5h67l-71 -364h-787l-19 72q4 4 56 50t66.5 59.5t65 61t71 69.5t63.5 69.5t63 77t50 75t43.5 81t24.5 77.5t11 81 q0 104 -57.5 153.5t-145.5 49.5q-66 0 -138 -27.5t-131 -70.5z" />
<glyph unicode="3" horiz-adv-x="938" d="M54 929q5 8 16.5 21t49 47t79.5 60t106 47t132 21q144 0 239 -78.5t95 -210.5q0 -87 -60 -173t-137.5 -143t-157.5 -90q188 -20 297 -111.5t109 -227.5q0 -112 -44.5 -204.5t-115.5 -154t-163 -104.5t-185.5 -62t-184.5 -19l-49 3l-15 81q73 0 144 12t145 43t128.5 77.5 t89 122t34.5 170.5q0 61 -21 109.5t-54.5 78.5t-79.5 49t-92.5 26.5t-97.5 7.5l-67 -4v109q85 8 168 54t139 127t56 174q0 90 -50 147.5t-143 57.5q-62 0 -128 -28.5t-101 -57.5l-37 -28z" />
<glyph unicode="4" horiz-adv-x="1192" d="M51 149l704 943l123 38l4 -7q-18 -89 -18 -254v-652h257l-29 -137h-228v-386q0 -41 -3 -72.5t-6 -43.5l-2 -12l-180 -19l-10 7q12 44 12 128v398h-608zM220 217h455v472q0 62 9 151z" />
<glyph unicode="5" horiz-adv-x="956" d="M98 -369q239 0 397 116.5t158 292.5q0 72 -30 133t-78 100t-106 70.5t-115.5 47.5t-105.5 27t-79 13l-30 3l36 664h492q41 0 81.5 3.5t61.5 6.5l20 4l-32 -181h-537l-19 -331q14 -2 36.5 -5.5t90 -20.5t128 -39t134.5 -64t127.5 -94t90 -130.5t36.5 -171.5 q0 -143 -96 -266.5t-251 -192.5t-328 -69l-68 3z" />
<glyph unicode="6" horiz-adv-x="1199" d="M129 651q0 115 22.5 227t67 216.5t115.5 193.5t161 155.5t209.5 104.5t257.5 38l14 -82q-132 -8 -240.5 -60.5t-180.5 -133.5t-121.5 -186.5t-71 -217t-21.5 -229.5q0 -164 37.5 -305.5t110.5 -231t167 -89.5q77 0 135.5 59t86.5 145.5t28 183.5q0 74 -13.5 144.5 t-43 135.5t-76 105.5t-111 54.5t-148.5 -19l-17 74q98 58 218 58q98 0 175.5 -39.5t124 -106.5t70.5 -152t24 -182q0 -99 -31 -194t-90 -173t-154 -125.5t-210 -47.5q-121 0 -217 54.5t-155.5 149.5t-91 216t-31.5 259z" />
<glyph unicode="7" horiz-adv-x="1105" d="M65 762l68 336h771q41 0 78 2t54 5l17 2l12 -64q-79 -106 -114 -188l-494 -1109q-8 -20 -22 -52.5t-20 -45.5t-16.5 -34.5t-18 -30t-18.5 -19t-23 -14t-27 -3.5q-42 0 -61.5 22.5t-19.5 54.5q0 10 1.5 18t5 19t6 17t11 21t14 23t19.5 29.5t22 34.5q51 79 86 137 t124.5 229t189.5 392l170 376q-89 -9 -152 -9h-354q-113 0 -144 -12q-44 -15 -73 -77q-11 -24 -24 -60h-68z" />
<glyph unicode="8" horiz-adv-x="1181" d="M127 361q0 81 25.5 150t75.5 125t100 96t122 85q-82 69 -135 125t-93 132.5t-40 155.5q0 153 123 254.5t314 101.5q174 0 281 -89.5t107 -235.5q0 -58 -20 -111t-45 -89t-75 -77t-80 -61.5t-89 -58.5q53 -42 76.5 -61.5t70 -60.5t69.5 -66t56 -65t48.5 -73t27.5 -74.5 t12 -82.5q0 -164 -140.5 -286.5t-342.5 -122.5q-84 0 -161 22.5t-142.5 67.5t-105 122.5t-39.5 176.5zM315 390q0 -155 78.5 -245.5t192.5 -90.5q66 0 129.5 30t107 92t43.5 142q0 60 -25.5 118.5t-75 111.5t-100.5 97.5t-121 100.5q-20 14 -30 22q-199 -152 -199 -378z M374 1281q0 -95 66.5 -178.5t194.5 -187.5q182 136 182 330q0 122 -62.5 190.5t-152.5 68.5q-87 0 -157.5 -61.5t-70.5 -161.5z" />
<glyph unicode="9" horiz-adv-x="1230" d="M142 586q0 99 31.5 193.5t89.5 173t150.5 125.5t203.5 47q121 0 216.5 -54t155.5 -147t91.5 -212t31.5 -255q0 -137 -32 -267t-99.5 -246.5t-164 -204.5t-235.5 -140t-303 -52l-15 81q133 8 241 59t180 129t121.5 180t71 211.5t21.5 224.5q0 161 -37.5 300t-110.5 227 t-166 88q-72 0 -128 -59t-83.5 -146t-27.5 -183q0 -68 13.5 -136t42.5 -133t73.5 -106t107 -55t144.5 21l16 -74q-100 -60 -216 -60q-125 0 -214 67.5t-129.5 171.5t-40.5 231z" />
<glyph unicode=":" horiz-adv-x="639" d="M180 112q0 58 41 99t99 41t98.5 -41t40.5 -99t-40.5 -99t-98.5 -41t-99 41t-41 99zM180 911q0 58 41 99t99 41t98.5 -41t40.5 -99t-40.5 -99t-98.5 -41t-99 41t-41 99z" />
<glyph unicode=";" horiz-adv-x="632" d="M171 -339q76 64 118.5 121.5t42.5 126.5q0 106 -152 191v82l179 96q106 -109 106 -262q0 -71 -17 -131.5t-52.5 -111t-73 -88.5t-93.5 -84zM176 911q0 58 40 99t98.5 41t99.5 -41t41 -99t-41 -99t-99.5 -41t-98.5 41t-40 99z" />
<glyph unicode="&#x3c;" horiz-adv-x="1212" d="M65 528v107l995 535l36 -136l-862 -453l862 -476l-36 -133z" />
<glyph unicode="=" horiz-adv-x="1212" d="M84 299v129h1046v-129h-1046zM84 742v129h1046v-129h-1046z" />
<glyph unicode="&#x3e;" horiz-adv-x="1212" d="M116 105l862 476l-862 453l36 136l995 -535v-107l-995 -556z" />
<glyph unicode="?" horiz-adv-x="818" d="M112 1431l37 206q13 -5 35.5 -13.5t87 -35.5t124 -57t131 -74.5t123.5 -88t87.5 -98.5t35.5 -107q0 -39 -24 -81t-62 -82.5t-84.5 -85.5t-92 -98t-83.5 -111.5t-62 -134.5t-24 -160h-58q-12 53 -12 118q0 88 30 167.5t72 136t83.5 105t71 93.5t29.5 82q0 44 -46 93 t-111 88t-130.5 70.5t-112.5 50.5zM180 112q0 58 41 99t99 41t98.5 -41t40.5 -99t-40.5 -99t-98.5 -41t-99 41t-41 99z" />
<glyph unicode="@" horiz-adv-x="1909" d="M82 430q0 189 74.5 365t200.5 306.5t301 209.5t367 79q219 0 398 -98t281.5 -272.5t102.5 -389.5q0 -83 -15.5 -162.5t-52 -158t-90 -140.5t-135.5 -106.5t-184 -57.5l-245 -36l-4 10q19 68 19 126v91q-55 -104 -138 -164t-178 -60q-128 0 -219 110t-91 303 q0 139 51 264.5t136 215.5t201 142.5t243 52.5q123 0 207 -21q-31 -112 -31 -206v-626q0 -58 20 -83.5t65 -25.5q25 0 53 8.5t61 27t61.5 53.5t52.5 83t38 121t14 162q0 209 -74 372t-224 259.5t-356 96.5q-220 0 -391 -109.5t-262.5 -295t-91.5 -413.5q0 -167 51 -308 t136.5 -236t195.5 -150.5t230 -62.5l-24 -94q-212 10 -385.5 120.5t-271 294.5t-97.5 403zM677 441q0 -165 53.5 -242.5t131.5 -77.5q99 0 228 124v722q-9 0 -24 -2.5t-57.5 -15t-81.5 -32t-87 -60t-82 -93t-57.5 -136.5t-23.5 -187z" />
<glyph unicode="A" horiz-adv-x="1453" d="M-31 0v67q121 12 158 106l552 1377l96 21l519 -1326q23 -58 43 -93.5t42.5 -53t41 -24.5t50.5 -11l-10 -63h-100l-354 -7v79q57 2 86.5 22.5t11.5 68.5l-143 374h-558l-30 -23l-162 -421l198 -28l-9 -65h-432zM418 635h507l-201 532q-30 76 -47 143z" />
<glyph unicode="B" horiz-adv-x="1406" d="M103 1499v58h546q277 0 411 -95t134 -246q0 -122 -78.5 -218t-200.5 -165q43 -9 84.5 -22t100.5 -44t102 -71t74.5 -107t31.5 -148q0 -194 -164.5 -317.5t-468.5 -123.5h-210l-338 -7v74q79 9 123 45.5t44 99.5v1116q0 62 -11 88.5t-49.5 45.5t-130.5 37zM488 91h149 q104 0 182 18t125.5 47t76.5 71t40 85t11 94q0 352 -478 351h-8h-63l-24 -24v-513q0 -31 -2.5 -63.5t-6.5 -49.5zM499 847h241q85 5 154.5 108t69.5 217q0 55 -18.5 105t-56 93.5t-104 69.5t-152.5 26h-110l-24 -23v-596z" />
<glyph unicode="C" horiz-adv-x="1584" d="M105 762q0 176 63 329t175.5 261.5t271.5 171t345 62.5q105 0 301.5 -27.5t202.5 -27.5l-70 -355h-80q0 87 -34 152t-92.5 100.5t-125.5 52t-142 16.5q-176 0 -313 -88t-210.5 -240t-73.5 -340q0 -155 51.5 -287t141.5 -222.5t214.5 -141.5t265.5 -51q82 0 160.5 17 t132 41.5t95.5 48.5t62 41l20 17l33 -49q-3 -6 -10.5 -15.5t-34 -38t-56.5 -54.5t-80.5 -56.5t-106.5 -53.5t-133 -38t-160 -15q-158 0 -303 53.5t-259 151.5t-182.5 250t-68.5 335z" />
<glyph unicode="D" horiz-adv-x="1740" d="M103 1499v58h639q143 0 267.5 -21.5t241 -74t199.5 -133.5t132.5 -207t49.5 -285q0 -260 -123 -450t-343.5 -288t-512.5 -98h-188l-338 -7v74q79 9 123 45.5t44 99.5v1116q0 62 -11 88.5t-49.5 45.5t-130.5 37zM488 91h165q160 0 287 35t212.5 96.5t142 149t81.5 189 t25 221.5q0 316 -173.5 500t-494.5 184h-210l-24 -23v-1221q0 -30 -2.5 -63.5t-6.5 -50.5z" />
<glyph unicode="E" horiz-adv-x="1365" d="M103 1499v58h962q42 0 84 2.5t63 4.5l20 2l-71 -390h-80q4 91 -8 147t-45 88t-79 43.5t-120 11.5h-306l-24 -23v-607h432l20 133l85 14v-411h-109v172h-404l-24 -22v-500q0 -30 -2.5 -63.5t-6.5 -50.5l-2 -17h367q52 0 87 3.5t66.5 18.5t50.5 30t45 54.5t44 76t52 107.5 h79l-85 -381h-729l-338 -7v74q79 9 123 45.5t44 99.5v1116q0 62 -11 88.5t-49.5 45.5t-130.5 37z" />
<glyph unicode="F" horiz-adv-x="1239" d="M103 1499v58h938q42 0 84 2.5t63 4.5l22 2l-73 -390h-79q4 91 -7.5 147t-45 88t-79.5 43.5t-120 11.5h-283l-24 -23v-619h416l19 134l86 13v-410h-109v172h-388l-24 -23v-490q0 -31 -2.5 -63t-6.5 -48l-2 -16l256 -21l-9 -65l-608 -14v74q78 9 122.5 49.5t44.5 103.5 v1108q0 62 -11 88.5t-49.5 45.5t-130.5 37z" />
<glyph unicode="G" horiz-adv-x="1662" d="M107 747q0 127 32 247.5t101.5 228t169.5 188t245 128t319 47.5q87 0 197 -11t208 -25t118 -16l-71 -358h-79q-1 75 -24 132.5t-60 92t-89 57t-104.5 31t-111.5 8.5q-120 0 -221.5 -37t-174.5 -102t-124.5 -153t-76.5 -190.5t-25 -214.5q0 -209 89 -375t252.5 -259.5 t375.5 -93.5q101 0 233 28v339q0 48 -4.5 70.5t-26.5 44.5t-63.5 33t-119.5 23v58h497l11 -33q-3 -2 -9.5 -5.5t-22 -20.5t-27.5 -40t-21.5 -64.5t-9.5 -91.5v-380q-13 -2 -116.5 -18t-148 -22.5t-125 -13.5t-140.5 -7q-140 0 -268 31.5t-234.5 96.5t-184.5 157t-122 217.5 t-44 272.5z" />
<glyph unicode="H" horiz-adv-x="1869" d="M119 1499v58h182q93 0 159 2.5t85 4.5l18 2l12 -9q-10 -10 -22.5 -30t-34 -93t-21.5 -159v-435h869l24 24v464q0 35 -0.5 50t-6 35.5t-15 29t-30 20.5t-49 19.5t-73.5 16.5v58h183q93 0 158 2t85 3l18 2l11 -9q-3 -3 -8 -10t-18.5 -32.5t-23.5 -55.5t-18 -79t-8 -103 v-1055q0 -31 -3 -63t-5 -48l-4 -16l210 -21l-9 -65l-563 -14v74q77 9 123 47.5t46 97.5v530h-869l-24 -23v-499q0 -31 -3 -63t-6 -48l-2 -16l209 -21l-9 -65l-562 -14v74q79 9 123.5 49.5t44.5 103.5v1108q0 35 -0.5 50t-6 35.5t-15 29t-30 20.5t-49 19.5t-72.5 16.5z" />
<glyph unicode="I" horiz-adv-x="771" d="M119 1499v58h182q93 0 159 2.5t85 4.5l18 2l12 -9q-10 -10 -22.5 -30t-34 -93t-21.5 -159v-1063q0 -30 -3 -59.5t-6 -44.5l-2 -15l222 -21l-10 -65l-574 -14v74q78 9 123 47.5t45 97.5v1116q0 35 -0.5 50t-6 35.5t-15 29t-30 20.5t-49 19.5t-72.5 16.5z" />
<glyph unicode="J" horiz-adv-x="715" d="M23 -325q98 14 173 141t75 300v1212q0 35 -0.5 50t-5.5 35.5t-14.5 29t-30 20.5t-49.5 19.5t-73 16.5v58h182q94 0 159 2.5t83 4.5l20 2l11 -9q-4 -3 -9 -10.5t-18 -33t-23.5 -55.5t-18 -79.5t-7.5 -103.5v-1037q0 -290 -114 -454.5t-312 -164.5z" />
<glyph unicode="K" horiz-adv-x="1500" d="M119 1499v58h182q93 0 159 2.5t85 4.5l18 2l12 -9q-10 -10 -22.5 -30t-34 -93t-21.5 -159v-411h45q42 25 79 63l455 452q24 24 28.5 48t-18 44.5t-75.5 27.5v58h437l11 -33q-4 -1 -14 -4t-41 -17t-64.5 -34t-83 -59.5t-98.5 -88.5l-441 -439v-22l564 -650 q76 -87 107.5 -107t91.5 -25l26 -3l-9 -75h-343q-3 2 -15.5 26t-54.5 84.5t-113 143.5l-436 508h-38v-550q0 -30 -3 -59.5t-6 -44.5l-2 -15l209 -21l-9 -65l-562 -14v74q78 9 123 47.5t45 97.5v1116q0 35 -0.5 50t-6 35.5t-15 29t-30 20.5t-49 19.5t-72.5 16.5z" />
<glyph unicode="L" horiz-adv-x="1316" d="M114 1499v58h182q94 0 159 2.5t83 4.5l19 2l13 -9q-9 -10 -21.5 -30t-34.5 -93t-22 -159v-1055q0 -31 -2.5 -63.5t-6.5 -49.5l-2 -16h390q43 0 77 6t60.5 14.5t50.5 30.5t41 41.5t40 63t39.5 78.5t46.5 103h79l-95 -428h-753l-326 -7v74q156 17 156 145v1116 q0 35 -0.5 50t-5.5 35.5t-15 29t-30.5 20.5t-49 19.5t-72.5 16.5z" />
<glyph unicode="M" horiz-adv-x="2101" d="M103 -7v74q161 17 168 145l44 1116q2 62 -8.5 88.5t-49 45.5t-130.5 37v58h185q84 0 148 2.5t87 4.5l23 2l9 -9q30 -121 67 -214l358 -915q27 -65 45 -134l452 1102l52 161h60q91 0 154.5 2.5t80.5 4.5l17 2l13 -9q-4 -3 -9.5 -11t-19.5 -35.5t-24 -58t-17.5 -82 t-5.5 -107.5l45 -1058q1 -32 -0.5 -61.5t-4.5 -43.5l-2 -13l205 -15l-9 -65l-559 -14v74q80 9 125 44.5t44 93.5l-51 1152l-561 -1357l-72 28l-539 1326q-5 -46 -7 -91l-42 -1051q-1 -28 -5 -59.5t-9 -48.5l-3 -17l215 -15l-9 -65z" />
<glyph unicode="N" horiz-adv-x="1787" d="M105 1499v58h71q50 0 108 2.5t91 4.5l33 2q29 -53 87 -120l846 -976q38 -48 92 -125v972q0 32 -1 48t-6.5 38.5t-17.5 33.5t-32.5 24t-53.5 20t-79 11v65h443l11 -33q-6 -2 -17 -6t-38.5 -22.5t-49 -42t-38.5 -68t-17 -99.5v-1297h-62l-992 1172q-49 57 -84 111v-1060 q0 -31 -3 -62t-6 -47l-2 -16l209 -15l-9 -65l-459 -14v74q80 9 123.5 45.5t43.5 99.5v1051q0 121 -38 167.5t-153 68.5z" />
<glyph unicode="O" horiz-adv-x="1855" d="M105 759q0 127 35.5 247.5t106.5 225.5t171 184t237.5 124.5t297.5 45.5q179 0 330 -58.5t253 -159t158.5 -238.5t56.5 -297q0 -133 -38.5 -260t-114.5 -235.5t-178.5 -190.5t-238.5 -128.5t-287 -46.5q-176 0 -325 63t-250 171t-157.5 251.5t-56.5 301.5zM336 820 q0 -105 25 -211.5t77 -204t123 -173.5t169.5 -121t209.5 -45q108 0 202 41t161.5 111t117.5 161t74.5 193t24.5 204q0 134 -41 260.5t-116 229t-192.5 165t-257.5 62.5q-132 0 -242.5 -56.5t-182.5 -151t-112 -214.5t-40 -250z" />
<glyph unicode="P" horiz-adv-x="1311" d="M103 1499v58h579q86 0 163 -11.5t154 -41.5t132 -76.5t89 -123.5t34 -177q0 -108 -39 -195t-101.5 -142t-143 -89t-162 -45t-159.5 -3v66q98 3 172.5 33t118 81t64.5 112.5t21 132.5q0 83 -25 148.5t-68 110t-103.5 74t-127.5 42.5t-144 13h-34l-24 -23v-1231 q0 -30 -2.5 -59.5t-6.5 -44.5l-2 -15l222 -21l-10 -65l-573 -14v74q77 9 122 47.5t45 97.5v1116q0 62 -11 88.5t-49.5 45.5t-130.5 37z" />
<glyph unicode="Q" horiz-adv-x="1855" d="M105 759q0 127 35.5 247.5t106.5 225.5t171 184t237.5 124.5t297.5 45.5q179 0 330 -58.5t253 -159t158.5 -238.5t56.5 -297q0 -183 -72.5 -350.5t-211.5 -294t-322 -181.5q37 -31 92.5 -92t104 -113t108.5 -103t134.5 -81.5t155.5 -30.5q44 0 89 9v-61q-14 -8 -37.5 -19 t-90 -29.5t-126.5 -18.5q-63 0 -127.5 21.5t-109.5 47.5t-100 76.5t-80 77.5t-70.5 82t-51.5 62q-38 45 -67.5 72.5t-61 42t-49.5 19t-64 10.5t-75 12q-279 56 -446.5 270t-167.5 498zM336 820q0 -105 25 -211.5t77 -204t123 -173.5t169.5 -121t209.5 -45q108 0 202 41 t161.5 111t117.5 161t74.5 193t24.5 204q0 134 -41 260.5t-116 229t-192.5 165t-257.5 62.5q-132 0 -242.5 -56.5t-182.5 -151t-112 -214.5t-40 -250z" />
<glyph unicode="R" horiz-adv-x="1466" d="M103 1499v58h541q153 0 267.5 -29.5t181 -82.5t98.5 -119t32 -145q0 -77 -31 -149.5t-82 -125.5t-98.5 -89.5t-96.5 -61.5v-31l337 -493q36 -52 64.5 -84t55 -45.5t43 -17.5t44.5 -6l26 -3l-10 -75h-338l-10 7q-49 116 -144 256l-290 428h-170l-24 -23v-456 q0 -30 -2.5 -59.5t-6.5 -44.5l-2 -15l210 -21l-9 -65l-562 -14v74q77 9 122 47.5t45 97.5v1116q0 62 -11 88.5t-49.5 45.5t-130.5 37zM499 782h196q117 0 209 90t92 249q0 69 -20.5 129t-64 109.5t-120.5 78t-181 28.5h-87l-24 -23v-661z" />
<glyph unicode="S" horiz-adv-x="1181" d="M103 212q0 40 53 209h80q0 -82 20.5 -146.5t53 -104t77.5 -65t90.5 -35.5t97.5 -10q126 0 211 60t85 186q0 82 -40.5 150t-105 118t-142 96t-155.5 94.5t-142.5 103.5t-105 135t-40.5 176q0 181 135 294t386 113q74 0 153.5 -9t155 -22.5t77.5 -13.5l-73 -365h-80 q18 138 -51 229.5t-210 91.5q-127 0 -208.5 -61t-81.5 -182q0 -82 40.5 -149.5t105 -114.5t142 -91t155.5 -92t142.5 -102.5t105 -137.5t40.5 -184t-41.5 -181.5t-114 -129.5t-165.5 -74.5t-200 -25.5q-80 0 -157 14t-144 41.5t-108 75t-41 109.5z" />
<glyph unicode="T" horiz-adv-x="1504" d="M14 1176l73 395q60 -14 156 -14h1092q42 0 84 3.5t63 7.5l22 3l-73 -395h-79q6 119 -20 183t-78 85.5t-149 21.5h-232l-24 -23v-1223q0 -31 -2.5 -63t-5.5 -48l-3 -16l234 -21l-10 -65l-585 -14v74q78 9 122.5 49.5t44.5 103.5v1246h-231q-125 0 -190 -56.5t-130 -233.5 h-79z" />
<glyph unicode="U" horiz-adv-x="1715" d="M58 1499v58h183q93 0 158 2.5t84 4.5l19 2l12 -9q-9 -10 -21.5 -30t-34 -93t-21.5 -159v-707q0 -123 39 -219.5t106 -154t148.5 -87t171.5 -29.5t173.5 30t152 87t110 149.5t41.5 206.5v766q0 32 -1 48t-6 38t-17 33.5t-32.5 24.5t-53 20t-79.5 11v65h454l11 -33 q-7 -2 -17.5 -6t-38 -22.5t-49 -42t-38.5 -68t-17 -99.5v-729q0 -139 -51.5 -251t-140.5 -184.5t-205 -111t-249 -38.5q-95 0 -182 18t-168 62t-139.5 108.5t-93.5 164t-35 223.5v780q0 35 -0.5 50t-5.5 35.5t-14.5 29t-30 20.5t-49 19.5t-73.5 16.5z" />
<glyph unicode="V" horiz-adv-x="1432" d="M-9 1499v58h142q65 0 125.5 2.5t88.5 4.5l27 2l9 -9q-22 -45 -27 -103t13 -111l343 -922q36 -109 45 -145l419 1020q35 80 8 128.5t-119 74.5v58h357l9 -33q-8 -6 -21.5 -19t-53 -76.5t-77.5 -153.5l-537 -1296l-76 28l-537 1363q-18 45 -52.5 77.5t-60.5 41.5z" />
<glyph unicode="W" horiz-adv-x="2243" d="M-14 1499v58h143q65 0 125.5 2.5t87.5 4.5l27 2l9 -9q-21 -45 -27 -102t13 -112l336 -902q22 -60 44 -149l309 971l-40 107q-18 45 -52 77.5t-60 41.5l-25 10v58h142q65 0 125.5 2.5t87.5 4.5l28 2l9 -9q-22 -45 -27 -103t13 -111l329 -906q22 -67 41 -143l319 1002 q27 82 2 129.5t-114 73.5v58h354l9 -33q-3 -2 -8.5 -6t-24 -22.5t-35.5 -43.5t-40.5 -72t-42.5 -105l-411 -1296l-91 28l-429 1109l-361 -1137l-90 28l-537 1363q-18 45 -52 77.5t-61 41.5z" />
<glyph unicode="X" horiz-adv-x="1453" d="M21 0v67q129 12 191 96l421 601l-428 632q-26 39 -65 65t-65 32l-26 6v58h145q66 0 124 2.5t83 4.5l24 2l9 -9q-3 -10 -7.5 -27t-1.5 -61.5t25 -78.5l318 -477l306 446q19 32 21 59.5t-27 49.5t-85 31v58h396l13 -37q-3 -2 -9.5 -3.5t-26 -11t-39 -23.5t-46.5 -40.5 t-52 -59.5l-393 -560l502 -738l120 -19l-9 -65h-106l-371 -9v74q72 8 87 28t-15 65l-341 512l-399 -570l214 -28l-9 -72h-478z" />
<glyph unicode="Y" horiz-adv-x="1365" d="M9 1499v58h112q65 0 125 2.5t87 4.5l26 2l10 -9q-4 -10 -10.5 -26.5t-6.5 -61t22 -79.5l289 -468q30 -49 68 -131l347 563q18 32 19.5 60.5t-27 52t-85.5 32.5v58h381l9 -33q-10 -3 -27.5 -11t-60 -44.5t-73.5 -86.5l-427 -689v-481q0 -30 -3 -59.5t-7 -44.5l-2 -15 l210 -21l-9 -65l-563 -14v74q77 9 122.5 47.5t45.5 97.5v477l-448 707q-25 40 -55.5 66t-50.5 31z" />
<glyph unicode="Z" horiz-adv-x="1423" d="M65 75q49 52 129 166l780 1111q46 63 91 114h-514q-145 0 -211 -55.5t-133 -234.5h-78l58 381h958q41 0 78 2.5t54 4.5l17 2l9 -84q-33 -47 -117 -165l-773 -1112q-41 -59 -93 -114h589q43 0 76.5 6t60.5 14.5t51 30.5t41 41.5t39.5 63t39 78.5t46.5 103h80l-96 -428 h-1018q-41 0 -78 -2.5t-54 -4.5l-17 -2z" />
<glyph unicode="[" horiz-adv-x="671" d="M198 -361v1918h428v-105h-276v-1708h276v-105h-428z" />
<glyph unicode="\" horiz-adv-x="820" d="M-44 1557h149l777 -2014h-151z" />
<glyph unicode="]" horiz-adv-x="671" d="M47 -256h276v1708h-276v105h427v-1918h-427v105z" />
<glyph unicode="^" horiz-adv-x="1283" d="M84 584l500 1002h116l500 -1002h-153l-407 817l-406 -817h-150z" />
<glyph unicode="_" horiz-adv-x="1223" d="M28 -87h1168v-114h-1168v114z" />
<glyph unicode="`" horiz-adv-x="1167" d="M394 1575v64l203 -21l199 -399l-72 -40z" />
<glyph unicode="a" d="M65 207q0 65 31.5 122t82 98.5t119.5 74t140.5 53t147.5 31.5l80 11q1 51 2.5 105t-7.5 107t-24 94.5t-48 67t-81 25.5q-44 0 -85.5 -22.5t-69.5 -55.5t-49.5 -66t-32.5 -56l-10 -23h-74l-40 174q7 6 20 14.5t57 31.5t90.5 40t119 31t145.5 14q162 0 220 -72.5t58 -261.5 v-537q0 -60 12.5 -84.5t50.5 -24.5q27 0 59.5 11.5t51.5 22.5l18 13l29 -49q-4 -5 -12 -13.5t-34.5 -30t-54 -37.5t-67.5 -29.5t-79 -13.5q-71 0 -114.5 42t-43.5 124v56q-5 -9 -15 -24t-44.5 -53t-73 -68t-102 -53.5t-130.5 -23.5q-112 0 -177.5 68t-65.5 167zM271 250 q0 -68 38 -106.5t92 -38.5q99 0 265 140v276l-73 -13q-56 -9 -108 -26t-102 -47t-81 -78t-31 -107z" />
<glyph unicode="b" horiz-adv-x="1210" d="M9 1557v63q120 26 214 52.5t128 39.5l34 13l7 -7q-23 -86 -23 -266v-374q0 -46 -2 -85t-5 -60t-3 -27q62 77 138 124.5t194 47.5q137 0 237 -74.5t147.5 -188t47.5 -245.5q0 -113 -37.5 -218t-109.5 -191t-190 -137.5t-265 -51.5q-68 0 -195.5 14t-162.5 14l-7 7 q22 102 22 234v1158q0 44 -2 68t-8.5 47.5t-21 33t-39.5 9.5h-98zM369 93q72 -33 170 -33q171 0 276 121.5t105 320.5q0 116 -35 214t-109 162.5t-174 64.5q-70 0 -135 -27.5t-98 -58.5v-764z" />
<glyph unicode="c" horiz-adv-x="1029" d="M89 504q0 107 33.5 209t94.5 184t158 131.5t213 49.5q56 0 118 -10.5t120 -31t95 -56t37 -78.5q0 -36 -24.5 -60.5t-64.5 -24.5q-32 0 -60 19t-49.5 46t-45.5 53.5t-60 45.5t-82 19q-134 0 -213 -124.5t-79 -303.5q0 -88 22.5 -164.5t67 -140.5t121 -101t175.5 -37 q49 0 95 9.5t76.5 24t53.5 28.5t35 23l10 11l26 -49q-4 -8 -13 -22t-42 -49t-72.5 -62t-107 -49t-143.5 -22q-119 0 -215.5 45t-156 120.5t-91.5 169.5t-32 197z" />
<glyph unicode="d" horiz-adv-x="1257" d="M87 479q0 113 38 218.5t110 191.5t188.5 137.5t260.5 51.5q38 0 79 -3t63 -7l23 -3v334q0 36 -0.5 55.5t-4.5 43t-11 34t-20.5 18t-32.5 7.5h-98v63q119 26 213.5 52.5t128.5 39.5l34 13l7 -7q-24 -86 -24 -266v-1230q0 -33 4 -56.5t13.5 -37.5t18 -22.5t27.5 -12t31 -4 t37 -0.5h65l-7 -63q-113 -11 -206.5 -22.5t-129.5 -17.5l-37 -4l-8 7q11 65 11 123v49q-127 -189 -334 -189q-104 0 -189.5 43t-138.5 115t-82 162t-29 187zM290 548q0 -116 34 -214t108 -162.5t174 -64.5q77 0 141.5 32.5t101.5 70.5v656q0 124 -167 124 q-179 0 -285.5 -119.5t-106.5 -322.5z" />
<glyph unicode="e" d="M89 504q0 240 141.5 407t350.5 167q104 0 193 -42t149.5 -132t63.5 -213q-60 -23 -107 -30l-581 -84l-23 -29q3 -83 26.5 -155.5t67 -132.5t116.5 -95.5t167 -35.5q54 0 105 11.5t85.5 28t62 33t39.5 27.5l13 12l25 -49q-5 -10 -15 -24.5t-45.5 -52t-77.5 -67t-113 -53 t-148 -23.5q-120 0 -216.5 44t-156 119.5t-91 169.5t-31.5 199zM280 661l491 63q0 6 -1.5 15.5t-7.5 37t-15 52.5t-26.5 55.5t-40 52.5t-57.5 37.5t-77 15.5q-112 0 -181 -93.5t-85 -235.5z" />
<glyph unicode="f" horiz-adv-x="762" d="M84 931v71l147 51v63q0 266 126.5 425t350.5 159q97 0 173.5 -35.5t76.5 -102.5q0 -36 -27 -62.5t-71 -26.5q-28 0 -59 18.5t-56.5 41t-65 41.5t-82.5 19q-90 0 -132 -96t-42 -318v-128h328l-18 -113h-287l-23 -23v-703q0 -31 -3 -62t-6 -47l-4 -16l246 -22l-10 -58 l-559 -14v67q144 16 144 152v719h-147z" />
<glyph unicode="g" horiz-adv-x="1127" d="M56 -271q0 37 12 71t26.5 57.5t44.5 48t49 38.5t57.5 32t53.5 24.5t51 20.5q-194 50 -194 150q0 29 13 52.5t41.5 44t50 33.5t62.5 32t53 26q-125 35 -202.5 122.5t-77.5 220.5q0 175 127 275.5t309 100.5q71 0 161.5 -23t146.5 -23h113q33 0 72 7.5t60 14.5l22 8 l-22 -151h-123q-23 0 -43.5 1.5t-29.5 4.5l-9 1q4 -4 10.5 -10t23 -28.5t29 -47t23 -63.5t10.5 -80q0 -159 -130 -254.5t-314 -95.5q-63 0 -114 9q-59 -68 -59 -98q0 -11 4.5 -20t15.5 -16.5t23 -13.5t32 -12.5t37.5 -11t45.5 -10t50 -10t56 -11.5t59 -12 q67 -13 118.5 -27.5t108.5 -39t93.5 -54t61 -74t24.5 -99.5q0 -110 -89 -202t-224 -141t-280 -49q-81 0 -157.5 17t-140.5 49.5t-102.5 88.5t-38.5 127zM241 -243q0 -104 86 -163t208 -59q136 0 247.5 67t111.5 169q0 35 -16.5 64.5t-50.5 51.5t-69 38t-87 29t-90 21 t-93.5 18t-81.5 16q-165 -112 -165 -252zM299 708q0 -121 59.5 -204t180.5 -83q118 0 176 77t58 191q0 123 -64 215t-181 92q-114 0 -171.5 -83t-57.5 -205z" />
<glyph unicode="h" horiz-adv-x="1311" d="M42 1557v63q120 26 214 52.5t128 39.5l34 13l7 -7q-24 -86 -24 -266v-452q0 -47 -2 -86.5t-4.5 -61t-2.5 -26.5q72 104 190 178t254 74q266 0 266 -314v-552q0 -31 -2.5 -62t-6.5 -47l-3 -16l198 -22l-9 -58l-502 -14v67q134 16 134 152v500q0 125 -42.5 174.5 t-119.5 49.5q-80 0 -177 -44t-171 -115v-565q0 -31 -2.5 -62t-6.5 -47l-2 -16l187 -22l-9 -58l-503 -14v67q145 16 145 152v1187q0 36 -0.5 55.5t-4.5 43t-11 34t-20.5 18t-33.5 7.5h-98z" />
<glyph unicode="i" horiz-adv-x="646" d="M58 938v64q152 35 249.5 62.5t118.5 36.5l22 11l2 -7q-25 -78 -25 -267v-626q0 -31 -2.5 -62t-6.5 -47l-3 -16l199 -22l-10 -58l-513 -14v67q145 16 145 152v568q0 44 -2 68t-8.5 47.5t-21 33t-39.5 9.5h-105zM182 1443q0 50 38 88t88 38t88 -38t38 -88t-38 -88t-88 -38 t-88 38t-38 88z" />
<glyph unicode="j" horiz-adv-x="585" d="M-33 -497q98 14 172.5 141t74.5 300v836q0 36 -0.5 55.5t-4.5 43t-10.5 34t-20.5 18t-33 7.5h-105v64q150 35 247.5 62.5t120.5 36.5l22 11l2 -7q-26 -69 -26 -258v-782q0 -293 -108 -455.5t-303 -162.5zM163 1443q0 50 38 88t88.5 38t88.5 -38t38 -88t-38 -88t-88.5 -38 t-88.5 38t-38 88z" />
<glyph unicode="k" horiz-adv-x="1206" d="M42 1557v63q120 26 214 52.5t128 39.5l34 13l7 -7q-24 -86 -24 -266v-828h29l236 198q4 4 18.5 16t21 18.5l18 18t17 19.5t10 18.5t4.5 21.5q0 37 -78 58v59h428l11 -38q-15 -3 -40.5 -11.5t-90.5 -42t-114 -74.5l-271 -232v-23q21 -30 37 -46l346 -374 q79 -87 113.5 -110.5t97.5 -27.5l25 -2l-9 -70l-337 -7q-31 83 -96 161l-347 392h-29v-334q0 -31 -2.5 -62t-6.5 -47l-2 -16l187 -22l-9 -58l-503 -14v67q145 16 145 152v1187q0 36 -0.5 55.5t-4.5 43t-11 34t-20.5 18t-33.5 7.5h-98z" />
<glyph unicode="l" horiz-adv-x="622" d="M42 1557v63q120 26 214 52.5t128 39.5l34 13l7 -7q-24 -86 -24 -266v-1240q0 -31 -2.5 -62t-6.5 -47l-2 -16l198 -22l-9 -58l-514 -14v67q145 16 145 152v1187q0 36 -0.5 55.5t-4.5 43t-11 34t-20.5 18t-33.5 7.5h-98z" />
<glyph unicode="m" horiz-adv-x="1969" d="M60 938v64q102 21 195.5 48t136.5 44l42 18l7 -7q-21 -76 -28 -283q74 107 183.5 181.5t239.5 74.5q116 0 180.5 -66.5t64.5 -200.5q73 115 185 191t242 76q121 0 185.5 -73.5t64.5 -240.5v-552q0 -31 -3 -62t-6 -47l-3 -16l199 -22l-9 -58l-503 -14v67q74 8 103.5 46 t29.5 106v500q0 127 -33 175.5t-102 48.5q-57 0 -135 -28.5t-143 -84.5t-65 -118v-493q0 -31 -3 -62t-7 -47l-2 -16l187 -22l-9 -58l-490 -14v67q74 8 103 46t29 106v500q0 128 -33 176t-104 48q-78 0 -169.5 -44t-166.5 -119v-561q0 -31 -3 -62t-6 -47l-4 -16l187 -22 l-9 -58l-501 -14v67q144 16 144 152v568q0 44 -1.5 68t-8.5 47.5t-21 33t-39 9.5h-101z" />
<glyph unicode="n" horiz-adv-x="1334" d="M58 938v64q102 21 195.5 48t136.5 44l42 18l7 -7q-21 -78 -23 -285q71 107 189 182.5t255 75.5q265 0 265 -314v-552q0 -31 -3 -61.5t-5 -45.5l-3 -16l198 -24l-9 -58l-503 -14v67q74 8 104 46t30 106v500q0 126 -42 175t-119 49q-82 0 -179 -44.5t-169 -118.5v-561 q0 -31 -2.5 -61.5t-6.5 -45.5l-3 -16l187 -24l-9 -58l-502 -14v67q145 16 145 152v568q0 44 -2 68t-8.5 47.5t-21 33t-39.5 9.5h-105z" />
<glyph unicode="o" horiz-adv-x="1241" d="M89 502q0 85 18 165t61 155.5t104.5 131.5t155.5 90t209 34q166 0 284.5 -68t175.5 -182t57 -260q0 -89 -21 -173.5t-67 -161.5t-109.5 -135t-156 -92t-200.5 -34q-240 0 -375.5 148.5t-135.5 381.5zM303 555q0 -72 11.5 -142t37.5 -136t63.5 -115.5t93.5 -80t124 -30.5 q143 0 224 128t81 323q0 91 -18.5 176t-56.5 159t-103.5 118.5t-149.5 44.5q-103 0 -174 -65.5t-102 -163.5t-31 -216z" />
<glyph unicode="p" horiz-adv-x="1246" d="M47 938v64q101 21 193 48t132 44l41 18l8 -7q-15 -60 -24 -209q29 39 54.5 64t66.5 56t95.5 46.5t119.5 15.5q137 0 235.5 -74.5t144 -187.5t45.5 -246q0 -90 -22.5 -176t-71 -163t-117.5 -134.5t-169.5 -91t-220.5 -33.5q-60 0 -156 14v-269q0 -31 -2.5 -64.5 t-6.5 -51.5l-2 -17h245l-9 -56q-370 -44 -537 -100v68q75 41 98 87.5t23 131.5v1065q0 36 -0.5 55.5t-4.5 43t-11 34t-20.5 18t-33.5 7.5h-93zM401 187q0 -127 169 -127q180 0 282.5 120t102.5 322q0 116 -32.5 214t-103.5 162.5t-170 64.5q-121 0 -248 -98v-658z" />
<glyph unicode="q" horiz-adv-x="1210" d="M87 479q0 114 40.5 220.5t115.5 191.5t193.5 136t263.5 51q63 0 184 -13t169 -14l7 -8q-21 -85 -21 -232v-1103q0 -29 -3 -62.5t-5 -51.5l-4 -17h176l-9 -56q-132 -17 -254.5 -41.5t-180.5 -40.5l-57 -16v69q80 44 112.5 93.5t32.5 129.5v257q0 46 3 85.5t5 61t2 26.5 q-130 -173 -331 -173q-102 0 -187 43t-139 115t-83.5 162t-29.5 187zM290 544q0 -114 36.5 -212t111 -161.5t172.5 -63.5q68 0 133 27.5t104 59.5v764q-74 32 -170 32q-164 0 -275.5 -123.5t-111.5 -322.5z" />
<glyph unicode="r" horiz-adv-x="875" d="M58 938v64q102 21 196.5 48t137.5 44l45 18l6 -7q-20 -77 -27 -297q58 110 144 190t171 80q49 0 87.5 -26t38.5 -81q0 -51 -32 -82.5t-78 -31.5q-27 0 -57.5 19.5t-56.5 19.5q-89 0 -208 -134v-550q0 -31 -2.5 -62t-6.5 -47l-3 -16l222 -22l-9 -58l-537 -14v67 q145 16 145 152v568q0 44 -2 68t-8.5 47.5t-21 33t-39.5 9.5h-105z" />
<glyph unicode="s" horiz-adv-x="900" d="M91 131q0 21 7.5 65.5t15.5 77.5l7 34h71q4 -71 29.5 -123.5t65 -80.5t81 -40.5t87.5 -12.5q87 0 140.5 43t53.5 116q0 50 -30 91.5t-76.5 72t-103.5 59.5t-114.5 61t-104.5 69.5t-76.5 94t-29.5 124.5q0 133 100 214.5t281 81.5q62 0 135 -10t116 -21l41 -11l-47 -240 h-72q0 54 -17.5 94t-41.5 60.5t-56.5 32.5t-53.5 14.5t-42 2.5q-88 0 -131 -44.5t-43 -106.5q0 -50 29.5 -89.5t76 -68t103 -54.5t113.5 -57.5t104 -69.5t76.5 -97.5t29.5 -134.5q0 -143 -102.5 -224.5t-271.5 -81.5q-48 0 -101 6.5t-112.5 22.5t-98 49.5t-38.5 80.5z" />
<glyph unicode="t" horiz-adv-x="809" d="M56 931v71q102 21 158 72l87 254l105 -2l7 -7q-21 -68 -21 -234v-34h365l-17 -113h-322l-24 -23v-592q0 -108 36.5 -159.5t126.5 -51.5q47 0 99.5 12.5t82.5 23.5l29 13l30 -45q-6 -5 -15.5 -15t-43.5 -35t-70.5 -44.5t-92.5 -34.5t-113 -15q-260 0 -260 306v502l7 151 h-154z" />
<glyph unicode="u" horiz-adv-x="1304" d="M49 938v66q100 19 189 40t127 33l39 13l9 -7q-21 -65 -21 -245v-499q0 -126 40.5 -175.5t118.5 -49.5q81 0 172 45t166 121v500q0 36 -0.5 55.5t-4.5 43t-11 34t-20.5 18t-32.5 7.5h-78v66q100 19 187.5 40t124.5 33l38 13l10 -7q-21 -65 -21 -245v-616q0 -33 4 -56.5 t13.5 -37.5t18 -22.5t27.5 -12t31 -4t37 -0.5h65l-7 -63q-113 -11 -208.5 -23t-135.5 -18l-39 -6l-9 7q20 68 20 126v122q-74 -109 -186 -185.5t-247 -76.5q-264 0 -264 313v495q0 36 -0.5 55.5t-4.5 43t-11 34t-21 18t-33 7.5h-82z" />
<glyph unicode="v" horiz-adv-x="1065" d="M5 992v59h107q65 0 123.5 2.5t83.5 4.5l26 2l10 -9q-22 -47 -22 -105.5t19 -109.5l178 -493q24 -74 42 -145l275 624q56 130 -116 170v59h316l11 -38q-4 -1 -11 -6.5t-29.5 -36.5t-43.5 -79l-409 -922l-98 31l-334 857q-20 53 -52.5 86.5t-54.5 41.5z" />
<glyph unicode="w" horiz-adv-x="1704" d="M5 992v59h107q65 0 122.5 2.5t82.5 4.5l24 2l9 -9q-2 -4 -4.5 -11.5t-8 -31t-7.5 -48t2 -58.5t16 -66l182 -493l38 -126l216 516q25 66 9 124q-19 53 -51 86.5t-53 41.5l-23 7v59h107q65 0 122.5 2.5t82.5 4.5l24 2l9 -9q-2 -4 -4.5 -11.5t-8 -31t-7 -48t2.5 -58.5 t15 -66l179 -484q19 -57 40 -132l254 604q28 66 -7 108.5t-109 59.5v59h313l12 -38q-5 -2 -13 -8t-30 -37.5t-42 -78.5l-392 -920l-87 31l-267 686l-307 -717l-86 31l-334 857q-20 53 -52.5 86.5t-54.5 41.5z" />
<glyph unicode="x" horiz-adv-x="1141" d="M38 -7v67q42 5 77 24t49 32.5t34 37.5l288 360l-250 355q-35 50 -79 80.5t-70 36.5l-27 6v59h113q70 0 130 2.5t85 4.5l25 2l10 -9q-3 -9 -6 -24.5t4 -60t34 -84.5l157 -231l181 231q31 38 8.5 68t-103.5 42v59h367l11 -38q-9 -1 -24.5 -6.5t-57.5 -35t-79 -75.5 l-254 -319l355 -505l105 -9l-9 -56l-451 -14v72q74 0 89.5 21.5t-17.5 65.5l-198 287l-279 -352l178 -22l-9 -58z" />
<glyph unicode="y" horiz-adv-x="1076" d="M2 992v59h110q65 0 124.5 2.5t87.5 4.5l26 2l9 -9q-22 -41 -22 -105t20 -110l189 -475q32 -94 45 -139l264 602q27 64 -12.5 105.5t-116.5 62.5v59h325l11 -38q-4 -2 -12 -8.5t-31 -38.5t-41 -77l-403 -917q-7 -16 -27 -62.5t-34.5 -80t-40 -85t-48.5 -88.5t-55.5 -79 t-64 -68.5t-71 -44t-80.5 -17.5q-48 0 -75.5 28.5t-27.5 69.5q0 40 28 68t86 28q88 0 150.5 48.5t97.5 125.5l75 176q-31 91 -56 151l-299 715q-21 52 -54 85.5t-55 41.5z" />
<glyph unicode="z" horiz-adv-x="1024" d="M75 51q25 23 83 112l454 699q23 36 83 112h-310q-50 0 -91.5 -21.5t-67.5 -55t-41.5 -63t-23.5 -59.5h-68l43 276h613q44 0 84 2.5t58 4.5l18 2l18 -60q-10 -6 -80 -113l-441 -691q-25 -41 -86 -116h284q64 0 116 24t81 58t48.5 68t26.5 58l6 24h69l-64 -312h-635 q-45 0 -84.5 -2.5t-56.5 -4.5l-18 -2z" />
<glyph unicode="{" horiz-adv-x="811" d="M16 572v81q62 1 110 28.5t79 63.5t52.5 100.5t32.5 112t16 130t5.5 121t0.5 115.5v33q0 189 130 281.5t347 92.5l11 -85q-73 -6 -123.5 -17t-86.5 -35t-57 -53t-33 -78t-15.5 -100.5t-3.5 -130.5q0 -515 -259 -615v-5q39 -15 74 -43.5t69.5 -79.5t59.5 -120.5 t40.5 -172.5t15.5 -227q0 -78 3.5 -129.5t15.5 -100t33 -77t57 -52.5t86.5 -36t123.5 -17l-11 -85q-477 0 -477 374q0 241 -12 346q-48 375 -284 380z" />
<glyph unicode="|" horiz-adv-x="543" d="M196 -526v2275h152v-2275h-152z" />
<glyph unicode="}" horiz-adv-x="811" d="M11 -443q63 4 108.5 15t80.5 25.5t58.5 40.5t38 54.5t22 73t10.5 90.5t3 113q0 124 15.5 227t40.5 172.5t59.5 120.5t69.5 79.5t74 43.5v5q-259 100 -259 615q0 79 -4 131t-15.5 100.5t-33 77.5t-57.5 53t-87 35t-124 17l12 85q216 0 346 -92.5t130 -281.5 q0 -235 13 -337q47 -361 284 -367v-81q-62 -1 -110.5 -29.5t-79 -66t-52.5 -105t-32.5 -117t-16 -134t-6 -124t-0.5 -117.5v-33q0 -374 -476 -374z" />
<glyph unicode="~" horiz-adv-x="1374" d="M154 408q0 185 79 274t217 89q74 0 133 -25.5t96.5 -60.5t70.5 -71t74.5 -61t90.5 -25t84.5 23.5t51.5 62t23 74.5t7 74h138q0 -185 -79.5 -274t-217.5 -89q-74 0 -132.5 25t-96 61t-71 71.5t-75 60.5t-90.5 25t-84.5 -23.5t-51 -62t-22.5 -74.5t-7 -74h-138z" />
<glyph unicode="&#xa1;" horiz-adv-x="637" d="M176 -557q25 74 38 251l78 946h58l103 -1121q-93 -25 -160 -46t-89 -29l-22 -9zM185 938q0 58 41 99t99 41t99 -41t41 -99t-41 -99t-99 -41t-99 41t-41 99z" />
<glyph unicode="&#xa2;" horiz-adv-x="1007" d="M89 640q0 91 28 176t81 154.5t138.5 114.5t191.5 52l11 210h94l-12 -210q71 -8 137.5 -28t117.5 -58.5t51 -83.5q0 -41 -24 -65t-67 -24q-31 0 -60 20t-48.5 45.5t-49.5 55t-61 44.5l-36 -716q46 -4 72 -4q151 0 272 102l26 -49q-5 -8 -14 -22t-42 -50.5t-73 -64.5 t-107 -52t-143 -26l-9 -212h-93l9 216q-188 28 -289 162.5t-101 312.5zM280 717q0 -117 53 -216.5t155 -145.5l38 703q-112 -10 -179 -110t-67 -231z" />
<glyph unicode="&#xa3;" horiz-adv-x="1187" d="M96 67q4 3 12.5 7.5t31 22.5t40 40.5t34.5 60t22 80.5l35 292h-144v93h156l25 206q12 102 41 181.5t79.5 141.5t128 94.5t181.5 32.5q65 0 124 -12t104 -43.5t45 -75.5q0 -41 -26 -68.5t-70 -27.5q-31 0 -61.5 20t-52 44.5t-57.5 44.5t-78 20q-86 0 -121 -73t-53 -286 l-20 -199h432l-13 -93h-428v-9q-8 -103 -29.5 -197.5t-39.5 -137.5l-18 -44q21 -9 56 -22.5t132 -36.5t178 -23q54 0 100.5 10t90 31.5t74 61t42.5 93.5l16 76h72q-7 -70 -19 -125t-39 -114.5t-65 -99.5t-101 -65.5t-145 -25.5q-74 0 -180 25l-196 49q-82 17 -102 17 q-81 0 -166 -33z" />
<glyph unicode="&#xa5;" horiz-adv-x="1192" d="M67 1232v60h94l215 6l7 -6q-3 -8 -7 -20.5t-4 -46.5t16 -60l189 -310q37 -70 65 -129l245 395q16 26 17 47.5t-21 39.5t-70 24v60h299l9 -38q-6 -1 -15.5 -4.5t-37 -27.5t-52.5 -64l-278 -434h305v-94h-350v-158h350v-94h-350v-166q0 -31 -3 -62t-6 -47l-2 -16l198 -22 l-9 -58l-514 -14v67q145 16 145 152v166h-337v94h337v158h-337v94h278l-272 432q-18 30 -44.5 49t-42.5 24z" />
<glyph unicode="&#xa6;" horiz-adv-x="588" d="M210 404h168v-836h-168v836zM210 766v836h168v-836h-168z" />
<glyph unicode="&#xa7;" horiz-adv-x="1092" d="M40 -404l38 63q3 -3 10.5 -9.5t34.5 -22t58 -26.5t83 -21t108 -10q82 0 145 28.5t99.5 78t57.5 116t20 141.5t-12 155l-121 668q-9 47 -13.5 75.5t-11.5 85.5t-6.5 95.5t7.5 90.5t23 87.5t46 68t73 48.5l12 -12q-48 -140 -9 -360l147 -829q15 -99 13 -193.5t-32.5 -179 t-79.5 -148.5t-129.5 -101.5t-182.5 -37.5q-66 0 -129 15.5t-106.5 37t-77 44t-49.5 36.5zM205 925q-15 99 -13 193.5t32.5 179.5t80.5 148.5t130 101.5t182 38q66 0 129 -15.5t106 -37t76.5 -44t49.5 -37.5l16 -16l-36 -63q-4 3 -11.5 9.5t-34.5 21.5t-58 26.5t-83 21 t-108 9.5q-82 0 -145 -28.5t-99.5 -78t-58 -115.5t-20.5 -141t12 -155l122 -667q9 -46 13.5 -75t11 -85.5t6 -96.5t-7.5 -91t-23 -87t-46 -68.5t-73 -48.5l-12 13q48 139 9 359z" />
<glyph unicode="&#xa8;" horiz-adv-x="1167" d="M245 1443q0 50 38 88t88.5 38t88 -38t37.5 -88t-37.5 -88t-88 -38t-88.5 38t-38 88zM668 1443q0 50 37.5 88t88 38t88.5 -38t38 -88t-38 -88t-88.5 -38t-88 38t-37.5 88z" />
<glyph unicode="&#xa9;" horiz-adv-x="1773" d="M82 777q0 163 64 312.5t171.5 258t257 172t312.5 63.5q218 0 403.5 -108t294 -294t108.5 -403.5t-108.5 -403.5t-294 -294t-403.5 -108q-163 0 -312.5 63.5t-257 172t-171.5 257.5t-64 312zM189 777.5q0 -193.5 92 -356.5t252.5 -258.5t353.5 -95.5t353.5 95.5t253 258.5 t92.5 356.5t-92.5 356.5t-253 258.5t-353.5 95.5t-353.5 -95.5t-252.5 -258.5t-92 -356.5zM425 768q0 72 19 142t59.5 134.5t98 113.5t140.5 78t183 29q52 0 109 -12t113 -29.5t72 -20.5l-40 -248h-72q0 70 -19 118t-52.5 70.5t-68 31t-78.5 8.5q-125 0 -205 -104t-80 -255 q0 -181 99.5 -288.5t251.5 -107.5q70 0 138.5 28t102.5 57l34 29l26 -68q-50 -72 -153 -118t-192 -46q-129 0 -238.5 54t-178.5 160t-69 244z" />
<glyph unicode="&#xaa;" horiz-adv-x="905" d="M103 978q0 76 58 135.5t147.5 93t199.5 45.5v67v25.5t-0.5 29t-2.5 35t-6 32.5t-11 32.5t-16 23.5t-23 19t-31 6q-27 0 -54.5 -16.5t-46.5 -40.5t-34.5 -48.5t-22.5 -41.5l-8 -16h-65l-29 133q5 4 14.5 10t40.5 22.5t64.5 28.5t85.5 22.5t104 10.5q119 0 161 -51t42 -185 v-372q0 -40 6 -56t24 -16q16 0 39 10.5t37 20.5l15 10l31 -43l-9.5 -9.5t-26.5 -23t-40 -28.5t-49.5 -22t-56.5 -10q-55 0 -89.5 33t-34.5 103q-3 -5 -10.5 -14.5t-31 -32.5t-48.5 -41.5t-63 -33t-76 -14.5q-85 0 -134.5 47.5t-49.5 119.5zM274 1009q0 -46 20 -72t51.5 -26 t72 23.5t65.5 45.5l25 24v184q-96 -12 -165 -58.5t-69 -120.5z" />
<glyph unicode="&#xab;" horiz-adv-x="1210" d="M87 581v10q30 21 55.5 43.5t129 126t312.5 317.5l67 -22l-306 -470q25 -34 306 -470l-67 -23q-196 202 -301 307t-134.5 132t-61.5 49zM542 581v10q30 21 55 43.5t129 126t313 317.5l68 -22l-307 -470q26 -34 307 -470l-68 -23q-197 202 -301.5 307t-134.5 132t-61 49z " />
<glyph unicode="&#xac;" horiz-adv-x="1212" d="M56 780v129h1046v-650h-138v521h-908z" />
<glyph unicode="&#xad;" horiz-adv-x="840" d="M145 506v155h550v-155h-550z" />
<glyph unicode="&#xae;" horiz-adv-x="975" d="M84 1239.5q0 166.5 118.5 285.5t285 119t285 -119t118.5 -285.5t-118.5 -285t-285 -118.5t-285 118.5t-118.5 285zM163 1239q0 -138 95 -236.5t230 -98.5q132 0 228.5 99t96.5 236t-96.5 235.5t-228.5 98.5q-135 0 -230 -98.5t-95 -235.5zM294 1415v28h173q168 0 168 -98 q0 -55 -78 -102q13 -22 34 -55l51 -74q24 -33 57 -38h3l-2 -33l-123 -2q-12 31 -38 71l-62 93h-40v-93l-5 -29l58 -7l-2 -29l-187 -6v35q19 1 30.5 11.5t11.5 24.5v258q0 22 -8 29.5t-41 15.5zM437 1245h51q8 1 18 8.5t20.5 27t10.5 45.5q0 35 -20 56t-60 21h-20v-158z" />
<glyph unicode="&#xaf;" horiz-adv-x="1167" d="M318 1375v138h531v-138h-531z" />
<glyph unicode="&#xb0;" horiz-adv-x="751" d="M91 1305.5q0 116.5 83.5 198.5t202 82t201.5 -82t83 -198.5t-83 -198.5t-201.5 -82t-202 82t-83.5 198.5zM207 1305q0 -73 49.5 -123t120 -50t119 50t48.5 123t-48.5 122.5t-119 49.5t-120 -49.5t-49.5 -122.5z" />
<glyph unicode="&#xb1;" horiz-adv-x="1212" d="M84 0v129h1046v-129h-1046zM84 742v129h458v432h137v-432h451v-129h-451v-462h-137v462h-458z" />
<glyph unicode="&#xb2;" horiz-adv-x="771" d="M49 938q6 5 39 35t44.5 40.5t43 40.5t47 46t43 45t45.5 51.5t38.5 50.5t38.5 54q86 135 86 252q0 74 -44.5 112.5t-109.5 38.5q-122 0 -213 -80l-44 50q4 6 14 17t41 39.5t65.5 50t87 39.5t105.5 18q70 0 129.5 -24t101.5 -79t42 -131q0 -39 -13.5 -82t-29 -78.5 t-51.5 -85t-58 -78t-73.5 -83t-71 -75t-76.5 -75.5q-25 -26 -38 -38h268q65 0 90.5 26.5t47.5 98.5h66l-40 -256h-603z" />
<glyph unicode="&#xb3;" horiz-adv-x="746" d="M47 974q0 55 67 55q31 0 57 -17t42.5 -37.5t45 -37.5t64.5 -17q63 0 114 70t51 149q0 82 -60 134.5t-162 52.5l-61 -5v82q96 7 162.5 67.5t66.5 138.5q0 58 -33 83.5t-81 25.5q-99 0 -180 -56l-44 49q4 6 12 14t35.5 30t57.5 38.5t78.5 30.5t98.5 14q59 0 110 -19 t88.5 -64.5t37.5 -110.5q0 -66 -68.5 -132t-155.5 -113q125 -17 206 -85t81 -158q0 -83 -56.5 -152t-142.5 -105.5t-179 -36.5q-90 0 -171 29.5t-81 82.5z" />
<glyph unicode="&#xb4;" horiz-adv-x="1167" d="M372 1219l198 399l203 21v-64l-330 -396z" />
<glyph unicode="&#xb5;" horiz-adv-x="1259" d="M154 1029l215 49l9 -6q-17 -65 -17 -246v-487q0 -125 39.5 -175t107.5 -50q86 0 174 44.5t165 121.5v504q0 65 -4 126.5t-9 90.5l-3 28l216 49l9 -6q-17 -65 -17 -246v-604q0 -77 14 -105t70 -28h89l7 -56q-137 -61 -212 -61q-150 0 -150 140v122q-74 -112 -176 -187 t-224 -75q-110 0 -186 75q6 -110 48 -275.5t42 -208.5q0 -51 -27.5 -83.5t-67.5 -32.5q-61 0 -83 42t-22 126q0 33 5 116.5t5 135.5v917q0 65 -4.5 126.5t-9.5 90.5z" />
<glyph unicode="&#xb6;" horiz-adv-x="1500" d="M47 962q0 90 26 175.5t81 162t132.5 133.5t188 90.5t240.5 33.5h504q138 0 184 9l-21 -130h-172v-1436h-134v1436h-174v-1238q0 -287 -24 -385q-39 -157 -130 -261.5t-225 -104.5q-54 0 -82 30.5t-28 65.5q0 51 31 75.5t70 24.5q20 0 55.5 -9.5t51.5 -9.5q45 0 73 27.5 t42 86.5t18.5 126.5t4.5 170.5v337h-33q-170 0 -303 49.5t-213.5 133t-121.5 187.5t-41 220z" />
<glyph unicode="&#xb7;" horiz-adv-x="588" d="M154 593q0 58 41 99t99 41t99 -41t41 -99t-41 -99t-99 -41t-99 41t-41 99z" />
<glyph unicode="&#xb8;" horiz-adv-x="1167" d="M367 -470l34 76q9 -7 24.5 -17t59 -26t80.5 -16q54 0 87.5 23.5t33.5 60.5q0 26 -28 48t-62 36.5t-62 39.5t-28 56q0 29 23 76.5t46 80.5l22 32h73q-28 -72 -28 -105q0 -22 20 -39t49 -30t58 -29.5t49 -47.5t20 -74q0 -89 -75.5 -158.5t-183.5 -69.5q-58 0 -111 21 t-77 42z" />
<glyph unicode="&#xb9;" horiz-adv-x="624" d="M49 1735q120 32 217.5 60t134.5 40l38 12l7 -9q-18 -49 -18 -159v-654l-5 -70l183 -12l-6 -61l-528 -9v65l99 5q38 2 57 15.5t22.5 28t3.5 38.5v610q0 36 -5.5 51.5t-16.5 15t-27 -4.5l-147 -33z" />
<glyph unicode="&#xba;" horiz-adv-x="958" d="M98 1181q0 75 22 144.5t66.5 129t123 95.5t180.5 36q178 0 276 -100.5t98 -257.5q0 -78 -25 -151.5t-73 -133t-126 -96t-175 -36.5q-173 0 -270 104t-97 266zM274 1221q0 -86 21 -161t71 -128.5t122 -53.5q92 0 144 87t52 216q0 86 -20 159.5t-69.5 126.5t-122.5 53 q-98 0 -148 -87.5t-50 -211.5z" />
<glyph unicode="&#xbb;" horiz-adv-x="1210" d="M105 116l305 470q-25 30 -305 470l68 22q209 -214 312.5 -317.5t129 -126t55.5 -43.5v-10q-32 -22 -61.5 -49t-134.5 -132t-301 -307zM561 116l305 470q-25 30 -305 470l67 22q209 -214 312.5 -317.5t128.5 -126t56 -43.5v-10q-32 -22 -61.5 -49t-134.5 -132t-301 -307z " />
<glyph unicode="&#xbc;" horiz-adv-x="1876" d="M78 1482q119 32 216.5 60.5t135.5 39.5l37 13l7 -9q-19 -50 -19 -160v-653l-5 -71l185 -11l-7 -61l-528 -9v65l98 5q29 1 47 8.5t25.5 20.5t10 24.5t2.5 28.5v609q0 36 -6 52t-16.5 15.5t-26.5 -3.5l-147 -34zM455 0l918 1593l109 -38l-894 -1555h-133zM1076 348l450 588 l134 26q-9 -64 -9 -164v-434h158l-25 -98h-133v-126l-5 -70l126 -12l-5 -53l-392 -10v56q48 5 76.5 29.5t28.5 59.5v126h-390zM1183 364h297v376z" />
<glyph unicode="&#xbd;" horiz-adv-x="2012" d="M72 1482q120 32 217 60.5t135 39.5l39 13l7 -9q-20 -50 -20 -160v-653l-4 -71l184 -11l-6 -61l-528 -9v65l98 5q28 1 46.5 8.5t26 20.5t9.5 24.5t2 28.5v609q0 36 -5.5 52t-16.5 15.5t-27 -3.5l-147 -34zM453 0l917 1593l110 -38l-894 -1555h-133zM1279 60q6 5 39 35 t44.5 40.5t43.5 40.5t47 46t42.5 45t46 51.5t39 50.5t37.5 54q86 136 86 252q0 74 -44.5 112.5t-109.5 38.5q-120 0 -212 -79l-44 49q4 7 14 17.5t40.5 39t65 50.5t87 39.5t105.5 17.5q70 0 130 -24t102 -78.5t42 -131.5q0 -34 -7.5 -69t-28 -74t-35.5 -67.5t-52.5 -74 t-53.5 -67t-65.5 -72.5t-62.5 -64l-67 -67l-14 -14l-12.5 -12.5l-13.5 -13.5h269q65 0 91 27t47 98h65l-40 -256h-602z" />
<glyph unicode="&#xbe;" horiz-adv-x="1860" d="M72 722q0 55 68 55q31 0 57 -17t42 -37.5t44.5 -37.5t64.5 -17q64 0 115 70t51 149q0 82 -60 134.5t-162 52.5l-61 -5v82q96 7 162 67.5t66 138.5q0 58 -33 83.5t-81 25.5q-99 0 -180 -56l-44 49q4 6 12 14t35.5 30t57.5 38.5t78.5 30.5t99.5 14q58 0 109 -19t89 -64.5 t38 -110.5q0 -66 -69 -133t-155 -112q124 -17 205 -85t81 -158q0 -83 -55.5 -152t-142 -105.5t-179.5 -36.5q-90 0 -171.5 29.5t-81.5 82.5zM434 0l918 1593l109 -38l-893 -1555h-134zM1056 348l450 588l133 26q-9 -64 -9 -164v-434h159l-27 -98h-132v-126l-6 -70l127 -12 l-5 -53l-392 -10v56q48 5 76.5 29.5t28.5 59.5v126h-390zM1163 364h296v376z" />
<glyph unicode="&#xbf;" horiz-adv-x="762" d="M26 -112q0 39 24 81t61.5 82.5t84 85.5t92.5 97.5t83.5 111t61.5 134.5t24 160h59q12 -53 12 -117q0 -88 -29.5 -167.5t-72 -136t-84.5 -105t-71.5 -93.5t-29.5 -81q0 -45 46 -94t111 -87.5t130.5 -71t112.5 -50.5l45 -18l-37 -205q-13 5 -35.5 13.5t-87 35.5t-123.5 57 t-130.5 74.5t-123.5 88t-87.5 98.5t-35.5 107zM339 938q0 58 41 99t99 41t99 -41t41 -99t-41 -99t-99 -41t-99 41t-41 99z" />
<glyph unicode="&#xc0;" horiz-adv-x="1453" d="M-31 0v67q121 12 158 106l552 1377l96 21l519 -1326q23 -58 43 -93.5t42.5 -53t41 -24.5t50.5 -11l-10 -63h-100l-354 -7v79q57 2 86.5 22.5t11.5 68.5l-143 374h-558l-30 -23l-162 -421l198 -28l-9 -65h-432zM418 635h507l-201 532q-30 76 -47 143zM428 1831v58l76 121 h12l413 -245l-31 -77z" />
<glyph unicode="&#xc1;" horiz-adv-x="1453" d="M-31 0v67q121 12 158 106l552 1377l96 21l519 -1326q23 -58 43 -93.5t42.5 -53t41 -24.5t50.5 -11l-10 -63h-100l-354 -7v79q57 2 86.5 22.5t11.5 68.5l-143 374h-558l-30 -23l-162 -421l198 -28l-9 -65h-432zM418 635h507l-201 532q-30 76 -47 143zM528 1765l412 245h13 l76 -121v-58l-472 -143z" />
<glyph unicode="&#xc2;" horiz-adv-x="1453" d="M-31 0v67q121 12 158 106l552 1377l96 21l519 -1326q23 -58 43 -93.5t42.5 -53t41 -24.5t50.5 -11l-10 -63h-100l-354 -7v79q57 2 86.5 22.5t11.5 68.5l-143 374h-558l-30 -23l-162 -421l198 -28l-9 -65h-432zM361 1731l307 303h123l305 -303l-64 -55l-299 189h-9 l-299 -189zM418 635h507l-201 532q-30 76 -47 143z" />
<glyph unicode="&#xc3;" horiz-adv-x="1453" d="M-31 0v67q121 12 158 106l552 1377l96 21l519 -1326q23 -58 43 -93.5t42.5 -53t41 -24.5t50.5 -11l-10 -63h-100l-354 -7v79q57 2 86.5 22.5t11.5 68.5l-143 374h-558l-30 -23l-162 -421l198 -28l-9 -65h-432zM315 1728q1 10 3 28.5t17 63.5t37 80t67 63.5t105 28.5 q48 0 106 -22t102.5 -47.5t95 -47t86.5 -21.5q46 0 78 34t41 68l9 36l83 -7q-2 -12 -4 -30t-17.5 -65.5t-39.5 -83.5t-74 -65.5t-116 -29.5q-54 0 -110.5 21.5t-94.5 47.5t-83 47.5t-80 21.5q-28 0 -51.5 -14t-37.5 -34t-24.5 -40.5t-13.5 -34.5l-5 -15zM418 635h507 l-201 532q-30 76 -47 143z" />
<glyph unicode="&#xc4;" horiz-adv-x="1453" d="M-31 0v67q121 12 158 106l552 1377l96 21l519 -1326q23 -58 43 -93.5t42.5 -53t41 -24.5t50.5 -11l-10 -63h-100l-354 -7v79q57 2 86.5 22.5t11.5 68.5l-143 374h-558l-30 -23l-162 -421l198 -28l-9 -65h-432zM332 1851.5q0 50.5 37.5 88.5t87.5 38t88.5 -38t38.5 -88.5 t-38.5 -88.5t-88.5 -38t-87.5 38t-37.5 88.5zM418 635h507l-201 532q-30 76 -47 143zM871 1851.5q0 50.5 37.5 88.5t88 38t88.5 -38t38 -88.5t-38 -88.5t-88.5 -38t-88 38t-37.5 88.5z" />
<glyph unicode="&#xc5;" horiz-adv-x="1453" d="M-31 0v67q121 12 158 106l552 1377l96 21l519 -1326q23 -58 43 -93.5t42.5 -53t41 -24.5t50.5 -11l-10 -63h-100l-354 -7v79q57 2 86.5 22.5t11.5 68.5l-143 374h-558l-30 -23l-162 -421l198 -28l-9 -65h-432zM418 635h507l-201 532q-30 76 -47 143zM508 1849 q0 75 58 130t162.5 55t161.5 -55t57 -130q0 -79 -56.5 -134t-162.5 -55t-163 56t-57 133zM619 1846.5q0 -44.5 28 -75.5t81 -31q52 0 82 31.5t30 75.5t-28.5 75.5t-83.5 31.5t-82 -31.5t-27 -76z" />
<glyph unicode="&#xc6;" horiz-adv-x="2054" d="M-44 0v67q45 5 78 23.5t46 36t32 46.5l663 1193q31 48 7.5 78.5t-119.5 54.5v58h1090q43 0 85 2.5t64 4.5l20 2l-73 -390h-80q5 91 -7 147t-45 88t-79.5 43.5t-120.5 11.5h-305l-24 -23v-630h432l19 156l86 14v-411h-110v150h-403l-24 -24v-476q0 -30 -3 -63.5t-6 -50.5 l-3 -17h368q52 0 87 3.5t66 18.5t50.5 30t45 54.5t44 76t52.5 107.5h79l-86 -381h-728l-339 -7v74q80 9 124 45.5t44 99.5v510h-422l-35 -24l-334 -605l198 -28l-9 -65h-425zM588 813h395v639q-50 -19 -94 -98z" />
<glyph unicode="&#xc7;" horiz-adv-x="1584" d="M105 762q0 176 63 329t175.5 261.5t271.5 171t345 62.5q105 0 301.5 -27.5t202.5 -27.5l-70 -355h-80q0 87 -34 152t-92.5 100.5t-125.5 52t-142 16.5q-176 0 -313 -88t-210.5 -240t-73.5 -340q0 -155 51.5 -287t141.5 -222.5t214.5 -141.5t265.5 -51q82 0 160.5 17 t132 41.5t95.5 48.5t62 41l20 17l33 -49q-3 -6 -10.5 -15.5t-34 -38t-56.5 -54.5t-80.5 -56.5t-106.5 -53.5t-133 -38t-160 -15h-33q-16 -54 -16 -77q0 -22 20 -39t49 -30t58 -29.5t49 -47.5t20 -74q0 -89 -75.5 -158.5t-183.5 -69.5q-58 0 -111.5 21t-77.5 42l-24 20l35 76 q9 -7 24.5 -17t58.5 -26t80 -16q54 0 88 23.5t34 60.5q0 26 -28 48t-62 36.5t-62 39.5t-28 56q0 60 75 168q-142 18 -267.5 78t-223.5 157t-155 238.5t-57 309.5z" />
<glyph unicode="&#xc8;" horiz-adv-x="1365" d="M103 1499v58h962q42 0 84 2.5t63 4.5l20 2l-71 -390h-80q4 91 -8 147t-45 88t-79 43.5t-120 11.5h-306l-24 -23v-607h432l20 133l85 14v-411h-109v172h-404l-24 -22v-500q0 -30 -2.5 -63.5t-6.5 -50.5l-2 -17h367q52 0 87 3.5t66.5 18.5t50.5 30t45 54.5t44 76t52 107.5 h79l-85 -381h-729l-338 -7v74q79 9 123 45.5t44 99.5v1116q0 62 -11 88.5t-49.5 45.5t-130.5 37zM416 1831v58l76 121h12l414 -245l-31 -77z" />
<glyph unicode="&#xc9;" horiz-adv-x="1365" d="M103 1499v58h962q42 0 84 2.5t63 4.5l20 2l-71 -390h-80q4 91 -8 147t-45 88t-79 43.5t-120 11.5h-306l-24 -23v-607h432l20 133l85 14v-411h-109v172h-404l-24 -22v-500q0 -30 -2.5 -63.5t-6.5 -50.5l-2 -17h367q52 0 87 3.5t66.5 18.5t50.5 30t45 54.5t44 76t52 107.5 h79l-85 -381h-729l-338 -7v74q79 9 123 45.5t44 99.5v1116q0 62 -11 88.5t-49.5 45.5t-130.5 37zM516 1765l413 245h11l78 -121v-58l-472 -143z" />
<glyph unicode="&#xca;" horiz-adv-x="1365" d="M103 1499v58h962q42 0 84 2.5t63 4.5l20 2l-71 -390h-80q4 91 -8 147t-45 88t-79 43.5t-120 11.5h-306l-24 -23v-607h432l20 133l85 14v-411h-109v172h-404l-24 -22v-500q0 -30 -2.5 -63.5t-6.5 -50.5l-2 -17h367q52 0 87 3.5t66.5 18.5t50.5 30t45 54.5t44 76t52 107.5 h79l-85 -381h-729l-338 -7v74q79 9 123 45.5t44 99.5v1116q0 62 -11 88.5t-49.5 45.5t-130.5 37zM350 1731l306 303h124l303 -303l-63 -55l-298 189h-10l-299 -189z" />
<glyph unicode="&#xcb;" horiz-adv-x="1365" d="M103 1499v58h962q42 0 84 2.5t63 4.5l20 2l-71 -390h-80q4 91 -8 147t-45 88t-79 43.5t-120 11.5h-306l-24 -23v-607h432l20 133l85 14v-411h-109v172h-404l-24 -22v-500q0 -30 -2.5 -63.5t-6.5 -50.5l-2 -17h367q52 0 87 3.5t66.5 18.5t50.5 30t45 54.5t44 76t52 107.5 h79l-85 -381h-729l-338 -7v74q79 9 123 45.5t44 99.5v1116q0 62 -11 88.5t-49.5 45.5t-130.5 37zM320 1851.5q0 50.5 38 88.5t88 38t88 -38t38 -88.5t-38 -88.5t-88 -38t-88 38t-38 88.5zM860 1851.5q0 50.5 37.5 88.5t87.5 38t88.5 -38t38.5 -88.5t-38.5 -88.5t-88.5 -38 t-87.5 38t-37.5 88.5z" />
<glyph unicode="&#xcc;" horiz-adv-x="771" d="M78 1831v58l76 121h11l414 -245l-31 -77zM119 1499v58h182q93 0 159 2.5t85 4.5l18 2l12 -9q-10 -10 -22.5 -30t-34 -93t-21.5 -159v-1063q0 -30 -3 -59.5t-6 -44.5l-2 -15l222 -21l-10 -65l-574 -14v74q78 9 123 47.5t45 97.5v1116q0 35 -0.5 50t-6 35.5t-15 29 t-30 20.5t-49 19.5t-72.5 16.5z" />
<glyph unicode="&#xcd;" horiz-adv-x="771" d="M119 1499v58h182q93 0 159 2.5t85 4.5l18 2l12 -9q-10 -10 -22.5 -30t-34 -93t-21.5 -159v-1063q0 -30 -3 -59.5t-6 -44.5l-2 -15l222 -21l-10 -65l-574 -14v74q78 9 123 47.5t45 97.5v1116q0 35 -0.5 50t-6 35.5t-15 29t-30 20.5t-49 19.5t-72.5 16.5zM178 1765l413 245 h11l77 -121v-58l-472 -143z" />
<glyph unicode="&#xce;" horiz-adv-x="771" d="M11 1731l307 303h123l303 -303l-62 -55l-299 189h-9l-299 -189zM119 1499v58h182q93 0 159 2.5t85 4.5l18 2l12 -9q-10 -10 -22.5 -30t-34 -93t-21.5 -159v-1063q0 -30 -3 -59.5t-6 -44.5l-2 -15l222 -21l-10 -65l-574 -14v74q78 9 123 47.5t45 97.5v1116q0 35 -0.5 50 t-6 35.5t-15 29t-30 20.5t-49 19.5t-72.5 16.5z" />
<glyph unicode="&#xcf;" horiz-adv-x="771" d="M40 1851.5q0 50.5 37.5 88.5t87.5 38t88.5 -38t38.5 -88.5t-38.5 -88.5t-88.5 -38t-87.5 38t-37.5 88.5zM119 1499v58h182q93 0 159 2.5t85 4.5l18 2l12 -9q-10 -10 -22.5 -30t-34 -93t-21.5 -159v-1063q0 -30 -3 -59.5t-6 -44.5l-2 -15l222 -21l-10 -65l-574 -14v74 q78 9 123 47.5t45 97.5v1116q0 35 -0.5 50t-6 35.5t-15 29t-30 20.5t-49 19.5t-72.5 16.5zM463 1851.5q0 50.5 37.5 88.5t87.5 38t88.5 -38t38.5 -88.5t-38.5 -88.5t-88.5 -38t-87.5 38t-37.5 88.5z" />
<glyph unicode="&#xd0;" horiz-adv-x="1740" d="M82 742v98h212v488q0 62 -11 88.5t-49.5 45.5t-130.5 37v58h639q143 0 267.5 -21.5t241 -74t199.5 -133.5t132.5 -207t49.5 -285q0 -260 -123 -450t-343.5 -288t-512.5 -98h-188l-338 -7v74q79 9 123 45.5t44 99.5v530h-212zM488 91h165q160 0 287 35t212.5 96.5t142 149 t81.5 189t25 221.5q0 316 -173.5 500t-494.5 184h-210l-24 -23v-603h388v-98h-388v-520q0 -30 -2.5 -63.5t-6.5 -50.5z" />
<glyph unicode="&#xd1;" horiz-adv-x="1787" d="M105 1499v58h71q50 0 108 2.5t91 4.5l33 2q29 -53 87 -120l846 -976q38 -48 92 -125v972q0 32 -1 48t-6.5 38.5t-17.5 33.5t-32.5 24t-53.5 20t-79 11v65h443l11 -33q-6 -2 -17 -6t-38.5 -22.5t-49 -42t-38.5 -68t-17 -99.5v-1297h-62l-992 1172q-49 57 -84 111v-1060 q0 -31 -3 -62t-6 -47l-2 -16l209 -15l-9 -65l-459 -14v74q80 9 123.5 45.5t43.5 99.5v1051q0 121 -38 167.5t-153 68.5zM506 1728q1 10 3.5 28.5t17.5 63.5t37 80t67 63.5t104 28.5q48 0 106 -22t102.5 -47.5t95.5 -47t86 -21.5q47 0 79 34t41 68l9 36l81 -7q0 -6 -1 -15.5 t-7.5 -38t-15.5 -54.5t-28.5 -57.5t-44.5 -54.5t-65 -38.5t-88 -15.5q-53 0 -109.5 21.5t-95 47.5t-83.5 47.5t-80 21.5q-27 0 -50.5 -14t-38 -34t-24.5 -40.5t-13 -34.5l-5 -15z" />
<glyph unicode="&#xd2;" horiz-adv-x="1855" d="M105 759q0 127 35.5 247.5t106.5 225.5t171 184t237.5 124.5t297.5 45.5q179 0 330 -58.5t253 -159t158.5 -238.5t56.5 -297q0 -133 -38.5 -260t-114.5 -235.5t-178.5 -190.5t-238.5 -128.5t-287 -46.5q-176 0 -325 63t-250 171t-157.5 251.5t-56.5 301.5zM336 820 q0 -105 25 -211.5t77 -204t123 -173.5t169.5 -121t209.5 -45q108 0 202 41t161.5 111t117.5 161t74.5 193t24.5 204q0 134 -41 260.5t-116 229t-192.5 165t-257.5 62.5q-132 0 -242.5 -56.5t-182.5 -151t-112 -214.5t-40 -250zM621 1831v58l77 121h12l413 -245l-31 -77z" />
<glyph unicode="&#xd3;" horiz-adv-x="1855" d="M105 759q0 127 35.5 247.5t106.5 225.5t171 184t237.5 124.5t297.5 45.5q179 0 330 -58.5t253 -159t158.5 -238.5t56.5 -297q0 -133 -38.5 -260t-114.5 -235.5t-178.5 -190.5t-238.5 -128.5t-287 -46.5q-176 0 -325 63t-250 171t-157.5 251.5t-56.5 301.5zM336 820 q0 -105 25 -211.5t77 -204t123 -173.5t169.5 -121t209.5 -45q108 0 202 41t161.5 111t117.5 161t74.5 193t24.5 204q0 134 -41 260.5t-116 229t-192.5 165t-257.5 62.5q-132 0 -242.5 -56.5t-182.5 -151t-112 -214.5t-40 -250zM722 1765l412 245h13l76 -121v-58l-472 -143z " />
<glyph unicode="&#xd4;" horiz-adv-x="1855" d="M105 759q0 127 35.5 247.5t106.5 225.5t171 184t237.5 124.5t297.5 45.5q179 0 330 -58.5t253 -159t158.5 -238.5t56.5 -297q0 -133 -38.5 -260t-114.5 -235.5t-178.5 -190.5t-238.5 -128.5t-287 -46.5q-176 0 -325 63t-250 171t-157.5 251.5t-56.5 301.5zM336 820 q0 -105 25 -211.5t77 -204t123 -173.5t169.5 -121t209.5 -45q108 0 202 41t161.5 111t117.5 161t74.5 193t24.5 204q0 134 -41 260.5t-116 229t-192.5 165t-257.5 62.5q-132 0 -242.5 -56.5t-182.5 -151t-112 -214.5t-40 -250zM555 1731l307 303h123l303 -303l-62 -55 l-299 189h-9l-299 -189z" />
<glyph unicode="&#xd5;" horiz-adv-x="1855" d="M105 759q0 127 35.5 247.5t106.5 225.5t171 184t237.5 124.5t297.5 45.5q179 0 330 -58.5t253 -159t158.5 -238.5t56.5 -297q0 -133 -38.5 -260t-114.5 -235.5t-178.5 -190.5t-238.5 -128.5t-287 -46.5q-176 0 -325 63t-250 171t-157.5 251.5t-56.5 301.5zM336 820 q0 -105 25 -211.5t77 -204t123 -173.5t169.5 -121t209.5 -45q108 0 202 41t161.5 111t117.5 161t74.5 193t24.5 204q0 134 -41 260.5t-116 229t-192.5 165t-257.5 62.5q-132 0 -242.5 -56.5t-182.5 -151t-112 -214.5t-40 -250zM508 1728q2 10 4 28.5t17 63.5t37 80t67 63.5 t105 28.5q47 0 105.5 -22t103 -47.5t95 -47t85.5 -21.5q47 0 79 34t41 68l9 36l82 -7q-1 -12 -3 -30t-17.5 -65.5t-39.5 -83.5t-74 -65.5t-116 -29.5q-54 0 -110.5 21.5t-94.5 47.5t-83 47.5t-81 21.5q-27 0 -50.5 -14t-37.5 -34t-24.5 -40.5t-13.5 -34.5l-5 -15z" />
<glyph unicode="&#xd6;" horiz-adv-x="1855" d="M105 759q0 127 35.5 247.5t106.5 225.5t171 184t237.5 124.5t297.5 45.5q179 0 330 -58.5t253 -159t158.5 -238.5t56.5 -297q0 -133 -38.5 -260t-114.5 -235.5t-178.5 -190.5t-238.5 -128.5t-287 -46.5q-176 0 -325 63t-250 171t-157.5 251.5t-56.5 301.5zM336 820 q0 -105 25 -211.5t77 -204t123 -173.5t169.5 -121t209.5 -45q108 0 202 41t161.5 111t117.5 161t74.5 193t24.5 204q0 134 -41 260.5t-116 229t-192.5 165t-257.5 62.5q-132 0 -242.5 -56.5t-182.5 -151t-112 -214.5t-40 -250zM526 1851.5q0 50.5 37.5 88.5t87.5 38t88 -38 t38 -88.5t-38 -88.5t-88 -38t-87.5 38t-37.5 88.5zM1065 1851.5q0 50.5 37.5 88.5t87.5 38t88.5 -38t38.5 -88.5t-38.5 -88.5t-88.5 -38t-87.5 38t-37.5 88.5z" />
<glyph unicode="&#xd7;" horiz-adv-x="1212" d="M82 152l432 432l-432 434l91 96l433 -437l435 437l91 -96l-432 -434l432 -432l-93 -96l-433 434l-430 -434z" />
<glyph unicode="&#xd8;" horiz-adv-x="1855" d="M105 759q0 127 35.5 247.5t106.5 225.5t171 184t237.5 124.5t297.5 45.5q239 0 434 -109l114 150h131l-159 -208q133 -101 205.5 -253.5t72.5 -332.5q0 -133 -38.5 -260t-114.5 -235.5t-178.5 -190.5t-238.5 -128.5t-287 -46.5q-246 0 -431 117l-122 -159h-134l169 222 q-130 110 -200.5 268.5t-70.5 338.5zM336 820q0 -134 41 -268.5t118 -243.5l791 1037q-162 147 -373 147q-132 0 -242.5 -56.5t-182.5 -151t-112 -214.5t-40 -250zM568 225q159 -160 372 -160q108 0 202 41t161.5 111t117.5 161t74.5 193t24.5 204q0 134 -42 263t-119 230z " />
<glyph unicode="&#xd9;" horiz-adv-x="1715" d="M58 1499v58h183q93 0 158 2.5t84 4.5l19 2l12 -9q-9 -10 -21.5 -30t-34 -93t-21.5 -159v-707q0 -123 39 -219.5t106 -154t148.5 -87t171.5 -29.5t173.5 30t152 87t110 149.5t41.5 206.5v766q0 32 -1 48t-6 38t-17 33.5t-32.5 24.5t-53 20t-79.5 11v65h454l11 -33 q-7 -2 -17.5 -6t-38 -22.5t-49 -42t-38.5 -68t-17 -99.5v-729q0 -139 -51.5 -251t-140.5 -184.5t-205 -111t-249 -38.5q-95 0 -182 18t-168 62t-139.5 108.5t-93.5 164t-35 223.5v780q0 35 -0.5 50t-5.5 35.5t-14.5 29t-30 20.5t-49 19.5t-73.5 16.5zM584 1831v58l77 121h12 l412 -245l-29 -77z" />
<glyph unicode="&#xda;" horiz-adv-x="1715" d="M58 1499v58h183q93 0 158 2.5t84 4.5l19 2l12 -9q-9 -10 -21.5 -30t-34 -93t-21.5 -159v-707q0 -123 39 -219.5t106 -154t148.5 -87t171.5 -29.5t173.5 30t152 87t110 149.5t41.5 206.5v766q0 32 -1 48t-6 38t-17 33.5t-32.5 24.5t-53 20t-79.5 11v65h454l11 -33 q-7 -2 -17.5 -6t-38 -22.5t-49 -42t-38.5 -68t-17 -99.5v-729q0 -139 -51.5 -251t-140.5 -184.5t-205 -111t-249 -38.5q-95 0 -182 18t-168 62t-139.5 108.5t-93.5 164t-35 223.5v780q0 35 -0.5 50t-5.5 35.5t-14.5 29t-30 20.5t-49 19.5t-73.5 16.5zM684 1765l414 245h11 l77 -121v-58l-471 -143z" />
<glyph unicode="&#xdb;" horiz-adv-x="1715" d="M58 1499v58h183q93 0 158 2.5t84 4.5l19 2l12 -9q-9 -10 -21.5 -30t-34 -93t-21.5 -159v-707q0 -123 39 -219.5t106 -154t148.5 -87t171.5 -29.5t173.5 30t152 87t110 149.5t41.5 206.5v766q0 32 -1 48t-6 38t-17 33.5t-32.5 24.5t-53 20t-79.5 11v65h454l11 -33 q-7 -2 -17.5 -6t-38 -22.5t-49 -42t-38.5 -68t-17 -99.5v-729q0 -139 -51.5 -251t-140.5 -184.5t-205 -111t-249 -38.5q-95 0 -182 18t-168 62t-139.5 108.5t-93.5 164t-35 223.5v780q0 35 -0.5 50t-5.5 35.5t-14.5 29t-30 20.5t-49 19.5t-73.5 16.5zM519 1731l305 303h123 l305 -303l-64 -55l-299 189h-9l-299 -189z" />
<glyph unicode="&#xdc;" horiz-adv-x="1715" d="M58 1499v58h183q93 0 158 2.5t84 4.5l19 2l12 -9q-9 -10 -21.5 -30t-34 -93t-21.5 -159v-707q0 -123 39 -219.5t106 -154t148.5 -87t171.5 -29.5t173.5 30t152 87t110 149.5t41.5 206.5v766q0 32 -1 48t-6 38t-17 33.5t-32.5 24.5t-53 20t-79.5 11v65h454l11 -33 q-7 -2 -17.5 -6t-38 -22.5t-49 -42t-38.5 -68t-17 -99.5v-729q0 -139 -51.5 -251t-140.5 -184.5t-205 -111t-249 -38.5q-95 0 -182 18t-168 62t-139.5 108.5t-93.5 164t-35 223.5v780q0 35 -0.5 50t-5.5 35.5t-14.5 29t-30 20.5t-49 19.5t-73.5 16.5zM488 1851.5 q0 50.5 38 88.5t88.5 38t88 -38t37.5 -88.5t-37.5 -88.5t-88 -38t-88.5 38t-38 88.5zM1027 1851.5q0 50.5 38.5 88.5t88.5 38t87.5 -38t37.5 -88.5t-37.5 -88.5t-87.5 -38t-88.5 38t-38.5 88.5z" />
<glyph unicode="&#xdd;" horiz-adv-x="1365" d="M9 1499v58h112q65 0 125 2.5t87 4.5l26 2l10 -9q-4 -10 -10.5 -26.5t-6.5 -61t22 -79.5l289 -468q30 -49 68 -131l347 563q18 32 19.5 60.5t-27 52t-85.5 32.5v58h381l9 -33q-10 -3 -27.5 -11t-60 -44.5t-73.5 -86.5l-427 -689v-481q0 -30 -3 -59.5t-7 -44.5l-2 -15 l210 -21l-9 -65l-563 -14v74q77 9 122.5 47.5t45.5 97.5v477l-448 707q-25 40 -55.5 66t-50.5 31zM495 1765l414 245h11l76 -121v-58l-470 -143z" />
<glyph unicode="&#xde;" horiz-adv-x="1308" d="M119 1499v58h182q93 0 159 2.5t85 4.5l18 2l12 -9q-10 -10 -22.5 -30t-34 -93t-21.5 -159v-75h182q108 0 204.5 -21.5t181.5 -65.5t136 -123t51 -184q0 -100 -39 -181t-101.5 -132t-143 -83t-162.5 -41.5t-160 -1.5v65q98 2 173 30t118 74.5t64.5 101.5t21.5 119 q0 121 -67 202.5t-169 115.5t-232 34h-34l-24 -24v-873q0 -30 -3 -59.5t-6 -44.5l-2 -15l222 -21l-10 -65l-574 -14v74q78 9 123 47.5t45 97.5v1116q0 35 -0.5 50t-6 35.5t-15 29t-30 20.5t-49 19.5t-72.5 16.5z" />
<glyph unicode="&#xdf;" horiz-adv-x="1295" d="M84 931v71l147 51v54q0 81 16.5 159.5t55.5 153.5t96 131t143 90.5t191 34.5q154 0 248.5 -73t94.5 -193q0 -53 -26.5 -108.5t-65 -101t-76 -90.5t-64.5 -95.5t-27 -96.5t24 -88t61.5 -77t84 -70t92 -74t83 -82.5t61.5 -102t24 -125.5q0 -80 -33 -144.5t-87.5 -103 t-122 -59t-140.5 -20.5q-48 0 -98 8.5t-99.5 27t-81.5 53.5t-32 81q0 26 8.5 58.5t16.5 52.5l8 21h70q17 -113 71.5 -168t138.5 -55q37 0 72.5 10t67 29t51 53.5t19.5 78.5q0 47 -22.5 91t-58.5 79.5t-80 71t-88 73.5t-80 79t-58.5 94.5t-22.5 114t23 117.5t57 102 t67.5 89.5t57 98.5t23.5 111q0 109 -62 172t-162 63q-247 0 -247 -431v-1023q0 -31 2.5 -59.5t4.5 -40.5l2 -13l-7 -6l-338 -12v67q144 16 144 145v726h-147z" />
<glyph unicode="&#xe0;" d="M65 207q0 65 31.5 122t82 98.5t119.5 74t140.5 53t147.5 31.5l80 11q1 51 2.5 105t-7.5 107t-24 94.5t-48 67t-81 25.5q-44 0 -85.5 -22.5t-69.5 -55.5t-49.5 -66t-32.5 -56l-10 -23h-74l-40 174q7 6 20 14.5t57 31.5t90.5 40t119 31t145.5 14q162 0 220 -72.5t58 -261.5 v-537q0 -60 12.5 -84.5t50.5 -24.5q27 0 59.5 11.5t51.5 22.5l18 13l29 -49q-4 -5 -12 -13.5t-34.5 -30t-54 -37.5t-67.5 -29.5t-79 -13.5q-71 0 -114.5 42t-43.5 124v56q-5 -9 -15 -24t-44.5 -53t-73 -68t-102 -53.5t-130.5 -23.5q-112 0 -177.5 68t-65.5 167zM205 1575v64 l203 -21l198 -399l-71 -40zM271 250q0 -68 38 -106.5t92 -38.5q99 0 265 140v276l-73 -13q-56 -9 -108 -26t-102 -47t-81 -78t-31 -107z" />
<glyph unicode="&#xe1;" d="M65 207q0 65 31.5 122t82 98.5t119.5 74t140.5 53t147.5 31.5l80 11q1 51 2.5 105t-7.5 107t-24 94.5t-48 67t-81 25.5q-44 0 -85.5 -22.5t-69.5 -55.5t-49.5 -66t-32.5 -56l-10 -23h-74l-40 174q7 6 20 14.5t57 31.5t90.5 40t119 31t145.5 14q162 0 220 -72.5t58 -261.5 v-537q0 -60 12.5 -84.5t50.5 -24.5q27 0 59.5 11.5t51.5 22.5l18 13l29 -49q-4 -5 -12 -13.5t-34.5 -30t-54 -37.5t-67.5 -29.5t-79 -13.5q-71 0 -114.5 42t-43.5 124v56q-5 -9 -15 -24t-44.5 -53t-73 -68t-102 -53.5t-130.5 -23.5q-112 0 -177.5 68t-65.5 167zM271 250 q0 -68 38 -106.5t92 -38.5q99 0 265 140v276l-73 -13q-56 -9 -108 -26t-102 -47t-81 -78t-31 -107zM421 1219l198 399l203 21v-64l-330 -396z" />
<glyph unicode="&#xe2;" d="M65 207q0 65 31.5 122t82 98.5t119.5 74t140.5 53t147.5 31.5l80 11q1 51 2.5 105t-7.5 107t-24 94.5t-48 67t-81 25.5q-44 0 -85.5 -22.5t-69.5 -55.5t-49.5 -66t-32.5 -56l-10 -23h-74l-40 174q7 6 20 14.5t57 31.5t90.5 40t119 31t145.5 14q162 0 220 -72.5t58 -261.5 v-537q0 -60 12.5 -84.5t50.5 -24.5q27 0 59.5 11.5t51.5 22.5l18 13l29 -49q-4 -5 -12 -13.5t-34.5 -30t-54 -37.5t-67.5 -29.5t-79 -13.5q-71 0 -114.5 42t-43.5 124v56q-5 -9 -15 -24t-44.5 -53t-73 -68t-102 -53.5t-130.5 -23.5q-112 0 -177.5 68t-65.5 167zM198 1219 l272 411h91l268 -411l-70 -45l-245 272l-245 -272zM271 250q0 -68 38 -106.5t92 -38.5q99 0 265 140v276l-73 -13q-56 -9 -108 -26t-102 -47t-81 -78t-31 -107z" />
<glyph unicode="&#xe3;" d="M65 207q0 65 31.5 122t82 98.5t119.5 74t140.5 53t147.5 31.5l80 11q1 51 2.5 105t-7.5 107t-24 94.5t-48 67t-81 25.5q-44 0 -85.5 -22.5t-69.5 -55.5t-49.5 -66t-32.5 -56l-10 -23h-74l-40 174q7 6 20 14.5t57 31.5t90.5 40t119 31t145.5 14q162 0 220 -72.5t58 -261.5 v-537q0 -60 12.5 -84.5t50.5 -24.5q27 0 59.5 11.5t51.5 22.5l18 13l29 -49q-4 -5 -12 -13.5t-34.5 -30t-54 -37.5t-67.5 -29.5t-79 -13.5q-71 0 -114.5 42t-43.5 124v56q-5 -9 -15 -24t-44.5 -53t-73 -68t-102 -53.5t-130.5 -23.5q-112 0 -177.5 68t-65.5 167zM176 1312 q0 6 -1 16t2 40t8 56.5t19.5 59.5t35 57t55 40t79.5 16q43 0 80 -17.5t62.5 -42.5t48 -50.5t49 -43t54.5 -17.5q43 0 67.5 39.5t28.5 78.5l2 39h87q-3 -1 -0.5 -16t-2 -42t-9 -58t-20 -62.5t-36 -57.5t-56.5 -42.5t-80 -16.5t-81 18t-61.5 43t-46.5 50t-48.5 42.5 t-54.5 17.5q-42 0 -66 -36.5t-27 -72.5l-3 -38h-85zM271 250q0 -68 38 -106.5t92 -38.5q99 0 265 140v276l-73 -13q-56 -9 -108 -26t-102 -47t-81 -78t-31 -107z" />
<glyph unicode="&#xe4;" d="M65 207q0 65 31.5 122t82 98.5t119.5 74t140.5 53t147.5 31.5l80 11q1 51 2.5 105t-7.5 107t-24 94.5t-48 67t-81 25.5q-44 0 -85.5 -22.5t-69.5 -55.5t-49.5 -66t-32.5 -56l-10 -23h-74l-40 174q7 6 20 14.5t57 31.5t90.5 40t119 31t145.5 14q162 0 220 -72.5t58 -261.5 v-537q0 -60 12.5 -84.5t50.5 -24.5q27 0 59.5 11.5t51.5 22.5l18 13l29 -49q-4 -5 -12 -13.5t-34.5 -30t-54 -37.5t-67.5 -29.5t-79 -13.5q-71 0 -114.5 42t-43.5 124v56q-5 -9 -15 -24t-44.5 -53t-73 -68t-102 -53.5t-130.5 -23.5q-112 0 -177.5 68t-65.5 167zM176 1443 q0 50 37.5 88t87.5 38t88.5 -38t38.5 -88t-38.5 -88t-88.5 -38t-87.5 38t-37.5 88zM271 250q0 -68 38 -106.5t92 -38.5q99 0 265 140v276l-73 -13q-56 -9 -108 -26t-102 -47t-81 -78t-31 -107zM597 1443q0 50 38.5 88t88.5 38t87.5 -38t37.5 -88t-37.5 -88t-87.5 -38 t-88.5 38t-38.5 88z" />
<glyph unicode="&#xe5;" d="M65 207q0 65 31.5 122t82 98.5t119.5 74t140.5 53t147.5 31.5l80 11q1 51 2.5 105t-7.5 107t-24 94.5t-48 67t-81 25.5q-44 0 -85.5 -22.5t-69.5 -55.5t-49.5 -66t-32.5 -56l-10 -23h-74l-40 174q7 6 20 14.5t57 31.5t90.5 40t119 31t145.5 14q162 0 220 -72.5t58 -261.5 v-537q0 -60 12.5 -84.5t50.5 -24.5q27 0 59.5 11.5t51.5 22.5l18 13l29 -49q-4 -5 -12 -13.5t-34.5 -30t-54 -37.5t-67.5 -29.5t-79 -13.5q-71 0 -114.5 42t-43.5 124v56q-5 -9 -15 -24t-44.5 -53t-73 -68t-102 -53.5t-130.5 -23.5q-112 0 -177.5 68t-65.5 167zM271 250 q0 -68 38 -106.5t92 -38.5q99 0 265 140v276l-73 -13q-56 -9 -108 -26t-102 -47t-81 -78t-31 -107zM294 1448q0 77 57 133t163 56t162.5 -55.5t56.5 -134t-57 -137t-162 -58.5t-162.5 58.5t-57.5 137.5zM404 1446q0 -48 28.5 -82t81.5 -34q51 0 81.5 34.5t30.5 81.5 q0 45 -28.5 78t-83.5 33q-56 0 -83 -32.5t-27 -78.5z" />
<glyph unicode="&#xe6;" horiz-adv-x="1655" d="M60 212q0 105 83 188.5t219 137t320 81.5v58q0 74 -6 125.5t-21 98.5t-47.5 71t-81.5 24q-35 0 -66.5 -12.5t-55.5 -31.5t-46 -43t-36 -48t-25 -43.5t-17 -32.5l-4 -12h-75l-40 174q7 6 20 14.5t56 31.5t90 40t119 31t145 14q114 0 171 -37t80 -119q126 156 323 156 q105 0 192 -42t144 -129.5t61 -208.5q-67 -21 -107 -28l-593 -105q1 -68 14 -129.5t42 -118.5t72 -98t107 -65.5t142 -24.5q54 0 105 11.5t85.5 28t61.5 33t40 27.5l13 12l25 -49q-6 -10 -16.5 -24.5t-49 -52t-83 -67t-117.5 -53t-154 -23.5q-151 0 -260 78t-154 226 q-44 -129 -150 -216.5t-244 -87.5q-131 0 -206 68t-75 172zM266 250q0 -66 35 -105.5t98 -39.5q42 0 88.5 20t90.5 58.5t72.5 108t28.5 158.5v85q-60 -11 -105.5 -21.5t-107.5 -34t-102 -52t-69 -74.5t-29 -103zM864 651l481 84q-1 11 -3 28t-16 61t-34.5 77.5t-63 61 t-98.5 27.5q-111 0 -181 -97.5t-85 -241.5z" />
<glyph unicode="&#xe7;" horiz-adv-x="1029" d="M89 504q0 107 33.5 209t94.5 184t158 131.5t213 49.5q56 0 118 -10.5t120 -31t95 -56t37 -78.5q0 -36 -24.5 -60.5t-64.5 -24.5q-32 0 -60 19t-49.5 46t-45.5 53.5t-60 45.5t-82 19q-134 0 -213 -124.5t-79 -303.5q0 -88 22.5 -164.5t67 -140.5t121 -101t175.5 -37 q49 0 95 9.5t76.5 24t53.5 28.5t35 23l10 11l26 -49q-4 -8 -13 -22t-42 -49t-72.5 -62t-107 -49t-143.5 -22h-14q-19 -50 -19 -79q0 -22 20 -39t49 -30t58 -29.5t49 -47.5t20 -74q0 -89 -75.5 -158.5t-183.5 -69.5q-58 0 -111 21t-77 42l-24 20l34 75q9 -7 24.5 -16.5 t59 -25.5t80.5 -16q54 0 87.5 23.5t33.5 59.5q0 27 -28 49t-61.5 36.5t-61.5 39.5t-28 55q0 11 3 22.5t6 22t9.5 25t11 23.5t13 24t12 21t12 20.5t9.5 15.5q-190 31 -296.5 180t-106.5 342z" />
<glyph unicode="&#xe8;" d="M89 504q0 240 141.5 407t350.5 167q104 0 193 -42t149.5 -132t63.5 -213q-60 -23 -107 -30l-581 -84l-23 -29q3 -83 26.5 -155.5t67 -132.5t116.5 -95.5t167 -35.5q54 0 105 11.5t85.5 28t62 33t39.5 27.5l13 12l25 -49q-5 -10 -15 -24.5t-45.5 -52t-77.5 -67t-113 -53 t-148 -23.5q-120 0 -216.5 44t-156 119.5t-91 169.5t-31.5 199zM250 1575v64l203 -21l198 -399l-72 -40zM280 661l491 63q0 6 -1.5 15.5t-7.5 37t-15 52.5t-26.5 55.5t-40 52.5t-57.5 37.5t-77 15.5q-112 0 -181 -93.5t-85 -235.5z" />
<glyph unicode="&#xe9;" d="M89 504q0 240 141.5 407t350.5 167q104 0 193 -42t149.5 -132t63.5 -213q-60 -23 -107 -30l-581 -84l-23 -29q3 -83 26.5 -155.5t67 -132.5t116.5 -95.5t167 -35.5q54 0 105 11.5t85.5 28t62 33t39.5 27.5l13 12l25 -49q-5 -10 -15 -24.5t-45.5 -52t-77.5 -67t-113 -53 t-148 -23.5q-120 0 -216.5 44t-156 119.5t-91 169.5t-31.5 199zM280 661l491 63q0 6 -1.5 15.5t-7.5 37t-15 52.5t-26.5 55.5t-40 52.5t-57.5 37.5t-77 15.5q-112 0 -181 -93.5t-85 -235.5zM465 1219l198 399l203 21v-64l-329 -396z" />
<glyph unicode="&#xea;" d="M89 504q0 240 141.5 407t350.5 167q104 0 193 -42t149.5 -132t63.5 -213q-60 -23 -107 -30l-581 -84l-23 -29q3 -83 26.5 -155.5t67 -132.5t116.5 -95.5t167 -35.5q54 0 105 11.5t85.5 28t62 33t39.5 27.5l13 12l25 -49q-5 -10 -15 -24.5t-45.5 -52t-77.5 -67t-113 -53 t-148 -23.5q-120 0 -216.5 44t-156 119.5t-91 169.5t-31.5 199zM243 1219l271 411h90l269 -411l-69 -45l-247 272l-245 -272zM280 661l491 63q0 6 -1.5 15.5t-7.5 37t-15 52.5t-26.5 55.5t-40 52.5t-57.5 37.5t-77 15.5q-112 0 -181 -93.5t-85 -235.5z" />
<glyph unicode="&#xeb;" d="M89 504q0 240 141.5 407t350.5 167q104 0 193 -42t149.5 -132t63.5 -213q-60 -23 -107 -30l-581 -84l-23 -29q3 -83 26.5 -155.5t67 -132.5t116.5 -95.5t167 -35.5q54 0 105 11.5t85.5 28t62 33t39.5 27.5l13 12l25 -49q-5 -10 -15 -24.5t-45.5 -52t-77.5 -67t-113 -53 t-148 -23.5q-120 0 -216.5 44t-156 119.5t-91 169.5t-31.5 199zM220 1443q0 50 37.5 88t88 38t88.5 -38t38 -88t-38 -88t-88.5 -38t-88 38t-37.5 88zM280 661l491 63q0 6 -1.5 15.5t-7.5 37t-15 52.5t-26.5 55.5t-40 52.5t-57.5 37.5t-77 15.5q-112 0 -181 -93.5t-85 -235.5 zM642 1443q0 50 38 88t88.5 38t88 -38t37.5 -88t-37.5 -88t-88 -38t-88.5 38t-38 88z" />
<glyph unicode="&#xec;" horiz-adv-x="646" d="M0 1575v64l203 -21l198 -399l-72 -40zM58 938v64q152 35 249.5 62.5t118.5 36.5l22 11l2 -7q-25 -78 -25 -267v-626q0 -31 -2.5 -62t-6.5 -47l-3 -16l199 -22l-10 -58l-513 -14v67q145 16 145 152v568q0 44 -2 68t-8.5 47.5t-21 33t-39.5 9.5h-105z" />
<glyph unicode="&#xed;" horiz-adv-x="646" d="M58 938v64q152 35 249.5 62.5t118.5 36.5l22 11l2 -7q-25 -78 -25 -267v-626q0 -31 -2.5 -62t-6.5 -47l-3 -16l199 -22l-10 -58l-513 -14v67q145 16 145 152v568q0 44 -2 68t-8.5 47.5t-21 33t-39.5 9.5h-105zM214 1219l199 399l204 21v-64l-330 -396z" />
<glyph unicode="&#xee;" horiz-adv-x="646" d="M-7 1219l270 411h92l269 -411l-71 -45l-245 272l-245 -272zM58 938v64q152 35 249.5 62.5t118.5 36.5l22 11l2 -7q-25 -78 -25 -267v-626q0 -31 -2.5 -62t-6.5 -47l-3 -16l199 -22l-10 -58l-513 -14v67q145 16 145 152v568q0 44 -2 68t-8.5 47.5t-21 33t-39.5 9.5h-105z " />
<glyph unicode="&#xef;" horiz-adv-x="646" d="M-18 1443q0 50 37.5 88t87.5 38t88.5 -38t38.5 -88t-38.5 -88t-88.5 -38t-87.5 38t-37.5 88zM58 938v64q152 35 249.5 62.5t118.5 36.5l22 11l2 -7q-25 -78 -25 -267v-626q0 -31 -2.5 -62t-6.5 -47l-3 -16l199 -22l-10 -58l-513 -14v67q145 16 145 152v568q0 44 -2 68 t-8.5 47.5t-21 33t-39.5 9.5h-105zM381 1443q0 50 37.5 88t87.5 38t88.5 -38t38.5 -88t-38.5 -88t-88.5 -38t-87.5 38t-37.5 88z" />
<glyph unicode="&#xf0;" horiz-adv-x="1227" d="M87 486q0 110 36.5 215.5t102 190t168.5 135.5t225 51q109 0 212 -39q-74 201 -207 351l-316 -192l-47 81l294 178q-159 145 -361 210l23 61q256 -51 460 -197l310 189l45 -81l-277 -171q170 -155 264.5 -368t94.5 -441q0 -196 -63 -350.5t-187.5 -245.5t-293.5 -91 q-116 0 -210 42.5t-152.5 115t-89.5 163.5t-31 193zM290 530q0 -83 18.5 -165.5t54 -153.5t94 -115.5t131.5 -44.5q137 0 230 146t93 403q0 54 -6 104t-23.5 104.5t-46 94.5t-77.5 65.5t-114 25.5q-158 0 -256 -131t-98 -333z" />
<glyph unicode="&#xf1;" horiz-adv-x="1334" d="M58 938v64q102 21 195.5 48t136.5 44l42 18l7 -7q-21 -78 -23 -285q71 107 189 182.5t255 75.5q265 0 265 -314v-552q0 -31 -3 -61.5t-5 -45.5l-3 -16l198 -24l-9 -58l-503 -14v67q74 8 104 46t30 106v500q0 126 -42 175t-119 49q-82 0 -179 -44.5t-169 -118.5v-561 q0 -31 -2.5 -61.5t-6.5 -45.5l-3 -16l187 -24l-9 -58l-502 -14v67q145 16 145 152v568q0 44 -2 68t-8.5 47.5t-21 33t-39.5 9.5h-105zM341 1312q0 6 -0.5 16t2 40t8 56.5t19.5 59.5t34.5 57t55.5 40t79 16t81 -17.5t62 -42.5t47.5 -50.5t49 -43t54.5 -17.5q44 0 68.5 39.5 t26.5 78.5l3 39h87q-2 -1 0 -16t-2 -42t-8.5 -58t-20 -62.5t-36 -57.5t-56 -42.5t-80.5 -16.5q-43 0 -80 18t-61.5 43t-47 50t-48.5 42.5t-55 17.5q-42 0 -66 -36.5t-26 -72.5l-3 -38h-87z" />
<glyph unicode="&#xf2;" horiz-adv-x="1241" d="M89 502q0 85 18 165t61 155.5t104.5 131.5t155.5 90t209 34q166 0 284.5 -68t175.5 -182t57 -260q0 -89 -21 -173.5t-67 -161.5t-109.5 -135t-156 -92t-200.5 -34q-240 0 -375.5 148.5t-135.5 381.5zM303 555q0 -72 11.5 -142t37.5 -136t63.5 -115.5t93.5 -80t124 -30.5 q143 0 224 128t81 323q0 91 -18.5 176t-56.5 159t-103.5 118.5t-149.5 44.5q-103 0 -174 -65.5t-102 -163.5t-31 -216zM308 1575v64l204 -21l198 -399l-73 -40z" />
<glyph unicode="&#xf3;" horiz-adv-x="1241" d="M89 502q0 85 18 165t61 155.5t104.5 131.5t155.5 90t209 34q166 0 284.5 -68t175.5 -182t57 -260q0 -89 -21 -173.5t-67 -161.5t-109.5 -135t-156 -92t-200.5 -34q-240 0 -375.5 148.5t-135.5 381.5zM303 555q0 -72 11.5 -142t37.5 -136t63.5 -115.5t93.5 -80t124 -30.5 q143 0 224 128t81 323q0 91 -18.5 176t-56.5 159t-103.5 118.5t-149.5 44.5q-103 0 -174 -65.5t-102 -163.5t-31 -216zM523 1219l199 399l203 21v-64l-330 -396z" />
<glyph unicode="&#xf4;" horiz-adv-x="1241" d="M89 502q0 85 18 165t61 155.5t104.5 131.5t155.5 90t209 34q166 0 284.5 -68t175.5 -182t57 -260q0 -89 -21 -173.5t-67 -161.5t-109.5 -135t-156 -92t-200.5 -34q-240 0 -375.5 148.5t-135.5 381.5zM301 1219l271 411h91l268 -411l-69 -45l-245 272l-245 -272zM303 555 q0 -72 11.5 -142t37.5 -136t63.5 -115.5t93.5 -80t124 -30.5q143 0 224 128t81 323q0 91 -18.5 176t-56.5 159t-103.5 118.5t-149.5 44.5q-103 0 -174 -65.5t-102 -163.5t-31 -216z" />
<glyph unicode="&#xf5;" horiz-adv-x="1241" d="M89 502q0 85 18 165t61 155.5t104.5 131.5t155.5 90t209 34q166 0 284.5 -68t175.5 -182t57 -260q0 -89 -21 -173.5t-67 -161.5t-109.5 -135t-156 -92t-200.5 -34q-240 0 -375.5 148.5t-135.5 381.5zM278 1312q0 6 -0.5 16t2.5 40t8 56.5t19 59.5t35 57t55.5 40t79.5 16 q43 0 80 -17.5t62 -42.5t48 -50.5t49 -43t55 -17.5q43 0 67.5 39.5t27.5 78.5l3 39h86q-2 -1 0.5 -16t-2.5 -42t-9.5 -58t-19.5 -62.5t-35.5 -57.5t-56.5 -42.5t-81 -16.5q-43 0 -80 18t-61.5 43t-47 50t-48.5 42.5t-55 17.5q-42 0 -66 -36.5t-26 -72.5l-3 -38h-86zM303 555 q0 -72 11.5 -142t37.5 -136t63.5 -115.5t93.5 -80t124 -30.5q143 0 224 128t81 323q0 91 -18.5 176t-56.5 159t-103.5 118.5t-149.5 44.5q-103 0 -174 -65.5t-102 -163.5t-31 -216z" />
<glyph unicode="&#xf6;" horiz-adv-x="1241" d="M89 502q0 85 18 165t61 155.5t104.5 131.5t155.5 90t209 34q166 0 284.5 -68t175.5 -182t57 -260q0 -89 -21 -173.5t-67 -161.5t-109.5 -135t-156 -92t-200.5 -34q-240 0 -375.5 148.5t-135.5 381.5zM278 1443q0 50 37.5 88t88 38t88.5 -38t38 -88t-38 -88t-88.5 -38 t-88 38t-37.5 88zM303 555q0 -72 11.5 -142t37.5 -136t63.5 -115.5t93.5 -80t124 -30.5q143 0 224 128t81 323q0 91 -18.5 176t-56.5 159t-103.5 118.5t-149.5 44.5q-103 0 -174 -65.5t-102 -163.5t-31 -216zM700 1443q0 50 38 88t88.5 38t88.5 -38t38 -88t-38 -88 t-88.5 -38t-88.5 38t-38 88z" />
<glyph unicode="&#xf7;" horiz-adv-x="1212" d="M84 521v128h1046v-128h-1046zM467 138q0 58 40.5 99t99 41t99.5 -41t41 -99t-41 -99t-99.5 -41t-99 41t-40.5 99zM467 1032q0 58 40.5 99t99 41t99.5 -41t41 -99t-41 -99.5t-99.5 -41.5t-99 41.5t-40.5 99.5z" />
<glyph unicode="&#xf8;" horiz-adv-x="1241" d="M89 502q0 85 18 165t61 155.5t104.5 131.5t155.5 90t209 34q166 0 283 -69l84 112h121l-125 -168q154 -140 154 -385q0 -89 -21 -173.5t-67 -161.5t-109.5 -135t-156 -92t-200.5 -34q-154 0 -277 70l-82 -112h-125l129 170q-156 146 -156 402zM303 555q0 -174 56 -299 l470 631q-87 113 -219 113q-103 0 -174 -65.5t-102 -163.5t-31 -216zM413 163q82 -112 220 -112q143 0 224 128t81 323q0 159 -56 291z" />
<glyph unicode="&#xf9;" horiz-adv-x="1304" d="M49 938v66q100 19 189 40t127 33l39 13l9 -7q-21 -65 -21 -245v-499q0 -126 40.5 -175.5t118.5 -49.5q81 0 172 45t166 121v500q0 36 -0.5 55.5t-4.5 43t-11 34t-20.5 18t-32.5 7.5h-78v66q100 19 187.5 40t124.5 33l38 13l10 -7q-21 -65 -21 -245v-616q0 -33 4 -56.5 t13.5 -37.5t18 -22.5t27.5 -12t31 -4t37 -0.5h65l-7 -63q-113 -11 -208.5 -23t-135.5 -18l-39 -6l-9 7q20 68 20 126v122q-74 -109 -186 -185.5t-247 -76.5q-264 0 -264 313v495q0 36 -0.5 55.5t-4.5 43t-11 34t-21 18t-33 7.5h-82zM332 1575v64l203 -21l198 -399l-72 -40z " />
<glyph unicode="&#xfa;" horiz-adv-x="1304" d="M49 938v66q100 19 189 40t127 33l39 13l9 -7q-21 -65 -21 -245v-499q0 -126 40.5 -175.5t118.5 -49.5q81 0 172 45t166 121v500q0 36 -0.5 55.5t-4.5 43t-11 34t-20.5 18t-32.5 7.5h-78v66q100 19 187.5 40t124.5 33l38 13l10 -7q-21 -65 -21 -245v-616q0 -33 4 -56.5 t13.5 -37.5t18 -22.5t27.5 -12t31 -4t37 -0.5h65l-7 -63q-113 -11 -208.5 -23t-135.5 -18l-39 -6l-9 7q20 68 20 126v122q-74 -109 -186 -185.5t-247 -76.5q-264 0 -264 313v495q0 36 -0.5 55.5t-4.5 43t-11 34t-21 18t-33 7.5h-82zM546 1219l198 399l203 21v-64l-328 -396z " />
<glyph unicode="&#xfb;" horiz-adv-x="1304" d="M49 938v66q100 19 189 40t127 33l39 13l9 -7q-21 -65 -21 -245v-499q0 -126 40.5 -175.5t118.5 -49.5q81 0 172 45t166 121v500q0 36 -0.5 55.5t-4.5 43t-11 34t-20.5 18t-32.5 7.5h-78v66q100 19 187.5 40t124.5 33l38 13l10 -7q-21 -65 -21 -245v-616q0 -33 4 -56.5 t13.5 -37.5t18 -22.5t27.5 -12t31 -4t37 -0.5h65l-7 -63q-113 -11 -208.5 -23t-135.5 -18l-39 -6l-9 7q20 68 20 126v122q-74 -109 -186 -185.5t-247 -76.5q-264 0 -264 313v495q0 36 -0.5 55.5t-4.5 43t-11 34t-21 18t-33 7.5h-82zM325 1219l270 411h91l269 -411l-70 -45 l-245 272l-246 -272z" />
<glyph unicode="&#xfc;" horiz-adv-x="1304" d="M49 938v66q100 19 189 40t127 33l39 13l9 -7q-21 -65 -21 -245v-499q0 -126 40.5 -175.5t118.5 -49.5q81 0 172 45t166 121v500q0 36 -0.5 55.5t-4.5 43t-11 34t-20.5 18t-32.5 7.5h-78v66q100 19 187.5 40t124.5 33l38 13l10 -7q-21 -65 -21 -245v-616q0 -33 4 -56.5 t13.5 -37.5t18 -22.5t27.5 -12t31 -4t37 -0.5h65l-7 -63q-113 -11 -208.5 -23t-135.5 -18l-39 -6l-9 7q20 68 20 126v122q-74 -109 -186 -185.5t-247 -76.5q-264 0 -264 313v495q0 36 -0.5 55.5t-4.5 43t-11 34t-21 18t-33 7.5h-82zM301 1443q0 50 38 88t88.5 38t88 -38 t37.5 -88t-37.5 -88t-88 -38t-88.5 38t-38 88zM724 1443q0 50 37.5 88t87.5 38t88.5 -38t38.5 -88t-38.5 -88t-88.5 -38t-87.5 38t-37.5 88z" />
<glyph unicode="&#xfd;" horiz-adv-x="1076" d="M2 992v59h110q65 0 124.5 2.5t87.5 4.5l26 2l9 -9q-22 -41 -22 -105t20 -110l189 -475q32 -94 45 -139l264 602q27 64 -12.5 105.5t-116.5 62.5v59h325l11 -38q-4 -2 -12 -8.5t-31 -38.5t-41 -77l-403 -917q-7 -16 -27 -62.5t-34.5 -80t-40 -85t-48.5 -88.5t-55.5 -79 t-64 -68.5t-71 -44t-80.5 -17.5q-48 0 -75.5 28.5t-27.5 69.5q0 40 28 68t86 28q88 0 150.5 48.5t97.5 125.5l75 176q-31 91 -56 151l-299 715q-21 52 -54 85.5t-55 41.5zM470 1219l198 399l203 21v-64l-329 -396z" />
<glyph unicode="&#xfe;" horiz-adv-x="1212" d="M9 1557v63q120 26 214 52.5t128 39.5l34 13l7 -7q-23 -86 -23 -266v-347l-5 -209q29 39 54 64t66.5 56t96 46.5t119.5 15.5q137 0 235.5 -74.5t144 -187.5t45.5 -246q0 -114 -37 -219t-108 -191t-188.5 -137t-265.5 -51q-61 0 -157 14v-269q0 -31 -3 -64.5t-6 -51.5 l-3 -17h245l-9 -56q-370 -44 -537 -100v68q75 42 98.5 88t23.5 131v1684q0 44 -2 68t-8.5 47.5t-21 33t-39.5 9.5h-98zM369 187q0 -127 168 -127q180 0 282.5 120t102.5 322q0 116 -32 214t-103 162.5t-170 64.5q-121 0 -248 -98v-658z" />
<glyph unicode="&#xff;" horiz-adv-x="1076" d="M2 992v59h110q65 0 124.5 2.5t87.5 4.5l26 2l9 -9q-22 -41 -22 -105t20 -110l189 -475q32 -94 45 -139l264 602q27 64 -12.5 105.5t-116.5 62.5v59h325l11 -38q-4 -2 -12 -8.5t-31 -38.5t-41 -77l-403 -917q-7 -16 -27 -62.5t-34.5 -80t-40 -85t-48.5 -88.5t-55.5 -79 t-64 -68.5t-71 -44t-80.5 -17.5q-48 0 -75.5 28.5t-27.5 69.5q0 40 28 68t86 28q88 0 150.5 48.5t97.5 125.5l75 176q-31 91 -56 151l-299 715q-21 52 -54 85.5t-55 41.5zM225 1443q0 50 37.5 88t87.5 38t88.5 -38t38.5 -88t-38.5 -88t-88.5 -38t-87.5 38t-37.5 88z M646 1443q0 50 38.5 88t88.5 38t87.5 -38t37.5 -88t-37.5 -88t-87.5 -38t-88.5 38t-38.5 88z" />
<glyph unicode="&#x152;" horiz-adv-x="2315" d="M105 755q0 159 58.5 307.5t164.5 265t271 187.5t361 71q72 0 192.5 -14.5t177.5 -14.5h684q43 0 85 2.5t62 4.5l22 2l-73 -390h-79q5 91 -7 147t-45 88t-79 43.5t-120 11.5h-307l-23 -23v-607h432l18 133l87 14v-411h-109v172h-405l-23 -22v-500q0 -30 -3 -63.5t-6 -50.5 l-2 -17h366q52 0 87 3.5t66 18.5t50.5 30t45 54.5t44 76t52.5 107.5h80l-87 -381h-822q-85 0 -203.5 -14t-188.5 -14q-186 0 -342.5 63t-261 170t-162.5 249.5t-58 300.5zM336 824q0 -108 25 -214t78 -205t129 -174.5t186 -120.5t240 -45q35 0 68.5 4t79.5 17t74.5 45.5 t28.5 80.5v1140q0 140 -258 140q-132 0 -241.5 -37t-184 -100t-126.5 -149.5t-75.5 -182t-23.5 -199.5z" />
<glyph unicode="&#x153;" horiz-adv-x="1941" d="M89 502q0 85 18 165t61 155.5t104.5 131.5t155.5 90t209 34q148 0 254.5 -58.5t164.5 -164.5q67 105 170 164t224 59q104 0 193 -42t149 -132t64 -213q-60 -23 -107 -30l-579 -86l-25 -29q3 -83 26.5 -155.5t66.5 -132.5t116 -94.5t168 -34.5q53 0 104.5 11.5t85.5 28 t61.5 33t40.5 27.5l12 12l25 -49q-5 -10 -15.5 -24.5t-48.5 -52t-82.5 -67t-117.5 -53t-154 -23.5q-260 0 -390 226q-72 -106 -184 -166t-259 -60q-240 0 -375.5 148.5t-135.5 381.5zM303 555q0 -72 11.5 -142t37.5 -136t63.5 -115.5t93.5 -80t124 -30.5q143 0 224 128 t81 323q0 91 -18.5 176t-56.5 159t-103.5 118.5t-149.5 44.5q-103 0 -174 -65.5t-102 -163.5t-31 -216zM1149 661l490 63q0 6 -1 15.5t-7.5 37t-15.5 52.5t-26 55.5t-40 52.5t-57.5 37.5t-76.5 15.5q-112 0 -181 -93.5t-85 -235.5z" />
<glyph unicode="&#x178;" horiz-adv-x="1365" d="M9 1499v58h112q65 0 125 2.5t87 4.5l26 2l10 -9q-4 -10 -10.5 -26.5t-6.5 -61t22 -79.5l289 -468q30 -49 68 -131l347 563q18 32 19.5 60.5t-27 52t-85.5 32.5v58h381l9 -33q-10 -3 -27.5 -11t-60 -44.5t-73.5 -86.5l-427 -689v-481q0 -30 -3 -59.5t-7 -44.5l-2 -15 l210 -21l-9 -65l-563 -14v74q77 9 122.5 47.5t45.5 97.5v477l-448 707q-25 40 -55.5 66t-50.5 31zM299 1851.5q0 50.5 38 88.5t88 38t88 -38t38 -88.5t-38 -88.5t-88 -38t-88 38t-38 88.5zM838 1851.5q0 50.5 38 88.5t88.5 38t88 -38t37.5 -88.5t-37.5 -88.5t-88 -38 t-88.5 38t-38 88.5z" />
<glyph unicode="&#x2c6;" horiz-adv-x="1167" d="M269 1219l270 411h91l268 -411l-69 -45l-245 272l-245 -272z" />
<glyph unicode="&#x2dc;" horiz-adv-x="1167" d="M245 1312q0 6 -0.5 16t2.5 40t8 56.5t19 59.5t34.5 57t55.5 40t79 16t81 -17.5t62 -42.5t48 -50.5t49 -43t55 -17.5q43 0 67.5 39.5t26.5 78.5l4 39h86q-2 -1 0.5 -16t-1.5 -42t-9 -58t-20 -62.5t-35.5 -57.5t-56.5 -42.5t-81 -16.5q-43 0 -80 18t-61.5 43t-47 50 t-48.5 42.5t-54 17.5q-43 0 -67 -36.5t-26 -72.5l-3 -38h-87z" />
<glyph unicode="&#x2000;" horiz-adv-x="1017" />
<glyph unicode="&#x2001;" horiz-adv-x="2034" />
<glyph unicode="&#x2002;" horiz-adv-x="1017" />
<glyph unicode="&#x2003;" horiz-adv-x="2034" />
<glyph unicode="&#x2004;" horiz-adv-x="678" />
<glyph unicode="&#x2005;" horiz-adv-x="508" />
<glyph unicode="&#x2006;" horiz-adv-x="339" />
<glyph unicode="&#x2007;" horiz-adv-x="339" />
<glyph unicode="&#x2008;" horiz-adv-x="254" />
<glyph unicode="&#x2009;" horiz-adv-x="406" />
<glyph unicode="&#x200a;" horiz-adv-x="113" />
<glyph unicode="&#x2010;" horiz-adv-x="840" d="M145 506v155h550v-155h-550z" />
<glyph unicode="&#x2011;" horiz-adv-x="840" d="M145 506v155h550v-155h-550z" />
<glyph unicode="&#x2012;" horiz-adv-x="840" d="M145 506v155h550v-155h-550z" />
<glyph unicode="&#x2013;" horiz-adv-x="1250" d="M147 528v128h958v-128h-958z" />
<glyph unicode="&#x2014;" horiz-adv-x="2161" d="M147 528v128h1867v-128h-1867z" />
<glyph unicode="&#x2018;" horiz-adv-x="470" d="M100 1347q0 96 59.5 190t172.5 170l51 -56q-152 -120 -152 -203t157 -160v-81l-181 -95q-107 100 -107 235z" />
<glyph unicode="&#x2019;" horiz-adv-x="468" d="M103 1531v82l180 96q107 -100 107 -236q0 -96 -59.5 -190t-172.5 -169l-51 56q152 119 152 203q0 82 -156 158z" />
<glyph unicode="&#x201a;" horiz-adv-x="543" d="M129 100v82l179 96q108 -101 108 -236q0 -96 -59 -190.5t-172 -169.5l-52 57q152 120 152 203q0 82 -156 158z" />
<glyph unicode="&#x201c;" horiz-adv-x="849" d="M100 1347q0 96 59.5 190t172.5 170l51 -56q-152 -120 -152 -203t157 -160v-81l-181 -95q-107 100 -107 235zM479 1347q0 96 59 190t172 170l52 -56q-152 -120 -152 -203t156 -160v-81l-180 -95q-107 100 -107 235z" />
<glyph unicode="&#x201d;" horiz-adv-x="847" d="M103 1531v82l180 96q107 -100 107 -236q0 -96 -59.5 -190t-172.5 -169l-51 56q152 119 152 203q0 82 -156 158zM481 1531v82l180 96q107 -100 107 -236q0 -96 -59 -190t-172 -169l-51 56q151 119 151 203q0 82 -156 158z" />
<glyph unicode="&#x201e;" horiz-adv-x="916" d="M129 100v82l179 96q108 -101 108 -236q0 -96 -59 -190.5t-172 -169.5l-52 57q152 120 152 203q0 82 -156 158zM502 100v82l180 96q107 -100 107 -236q0 -96 -59.5 -190.5t-172.5 -169.5l-51 57q153 121 153 203q0 43 -39 81.5t-118 76.5z" />
<glyph unicode="&#x2022;" horiz-adv-x="882" d="M119 597.5q0 136.5 92.5 229.5t229.5 93t230 -93t93 -229.5t-93 -229t-230 -92.5t-229.5 92.5t-92.5 229z" />
<glyph unicode="&#x2026;" horiz-adv-x="1806" d="M133 112q0 58 41 99t99.5 41t99 -41t40.5 -99t-40.5 -99t-99 -41t-99.5 41t-41 99zM764 112q0 58 41 99t99 41t98.5 -41t40.5 -99t-40.5 -99t-98.5 -41t-99 41t-41 99zM1394 112q0 58 41 99t99.5 41t99 -41t40.5 -99t-40.5 -99t-99 -41t-99.5 41t-41 99z" />
<glyph unicode="&#x202f;" horiz-adv-x="406" />
<glyph unicode="&#x2039;" horiz-adv-x="767" d="M87 581v10q32 22 55.5 42.5t133 127.5t319.5 317l68 -22l-306 -470q26 -34 306 -470l-68 -23q-293 295 -378 375.5t-130 112.5z" />
<glyph unicode="&#x203a;" horiz-adv-x="767" d="M105 116l305 470q-25 30 -305 470l68 22q210 -210 319.5 -317t133.5 -127.5t56 -42.5v-10q-46 -32 -131 -112.5t-378 -375.5z" />
<glyph unicode="&#x205f;" horiz-adv-x="508" />
<glyph unicode="&#x20ac;" horiz-adv-x="1234" d="M78 463v92h118q-2 18 -2 57q0 32 4 103h-120v93h136q25 105 74 195.5t121 162t172 112.5t215 41q81 0 173.5 -19t145.5 -38l52 -19l-75 -251h-69q0 117 -58 177.5t-194 60.5q-147 0 -238.5 -119t-116.5 -303h623l-28 -93h-603v-26q0 -71 10 -134h549l-29 -92h-501 q41 -161 136.5 -262t237.5 -101q93 0 171 19.5t110 38.5l31 20l33 -51q-6 -7 -16.5 -17.5t-49 -37t-80 -47t-109 -37t-137.5 -16.5q-119 0 -217.5 38.5t-165.5 107.5t-110.5 155.5t-63.5 189.5h-129z" />
<glyph unicode="&#x2122;" horiz-adv-x="1664" d="M63 1382l30 180q38 -5 80 -5h427l79 5l-28 -180h-49q0 67 -24 92t-79 25h-67v-465l-4 -51l93 -9l-2 -43l-281 -4v47q31 1 48 18t17 42v465h-58q-44 0 -72 -24.5t-59 -92.5h-51zM712 927v47q30 1 47.5 17t20.5 41l18 416q1 24 -3.5 34.5t-20 18.5t-52.5 16v40h82l176 5 q2 -2 33 -91l101 -290l13 -54l138 365l23 65h29l171 5l4 -5q-3 -4 -8 -12.5t-13 -39.5t-7 -66l18 -412l-2 -47l84 -6l-7 -43l-269 -4v47q32 1 49 15.5t17 37.5l-16 461l-211 -559l-58 9l-198 537l-18 -443l-6 -52l87 -6l-5 -43z" />
<glyph unicode="&#xe000;" horiz-adv-x="1060" d="M0 1060h1060v-1060h-1060v1060z" />
</font>
</defs>
</svg>
