<?xml version="1.0" encoding="utf-8"?>
<!-- Generator: Adobe Illustrator 19.0.0, SVG Export Plug-In . SVG Version: 6.00 Build 0)  -->
<svg version="1.1" xmlns="http://www.w3.org/2000/svg" xmlns:xlink="http://www.w3.org/1999/xlink" x="0px" y="0px"
	 viewBox="0 0 512 512" style="enable-background:new 0 0 512 512;" xml:space="preserve">
<style type="text/css">
	.st0{fill:#333333;}
</style>
<g id="Layer_1">
</g>
<g id="Layer_2">
	<g id="XMLID_2_">
		<path id="XMLID_23_" class="st0" d="M460.1,129.7L262.4,15.4c-4.3-2.5-9.5-2.5-13.8,0L50.9,129.7c-4.3,2.5-6.9,7-6.9,11.9v228.7
			c0,4.9,2.6,9.4,6.9,11.9l197.7,114.3c4.3,2.5,9.5,2.5,13.8,0l197.7-114.3c4.3-2.5,6.9-7,6.9-11.9V141.6
			C467,136.7,464.4,132.2,460.1,129.7z M118.4,280.3c-4.9,4.1-12.1,6.2-21.4,6.2c-5.9,0-15.3-0.2-28-0.5l-1-0.7v-79.7l1-0.7
			c12.2-0.3,21-0.5,26.1-0.5c8.6,0,15.3,1.8,20,5.5c4.7,3.7,7,9,7,16c0,3.6-1,6.9-3,10c-2,3-4.7,5.2-7.9,6.5
			c4.1,1.3,7.6,3.8,10.4,7.6c2.8,3.8,4.3,8.1,4.3,12.9C125.8,270.4,123.4,276.2,118.4,280.3z M183.5,262h-32.7
			c0.3,4,1.3,7.7,3.1,10.2c1.8,2.4,4.8,3.5,9,3.5c4.7,0,10.1-1.4,16-4.1c1.1,1.1,2.1,2.5,2.8,4.2c0.8,1.7,1.3,3.4,1.5,5.1
			c-2.9,2.1-6.4,3.7-10.5,4.9c-4,1.2-8.1,1.8-12.3,1.8c-3.8,0-7.3-0.6-10.2-1.7c-3-1.1-5.4-2.7-7.3-4.5c-1.9-1.9-3.4-4.2-4.6-6.9
			c-1.2-2.7-2-5.5-2.5-8.4c-0.5-2.9-0.7-6-0.7-9.3c0-4.5,0.5-8.6,1.5-12.4c1-3.7,2.5-7,4.6-9.9s4.7-5,8-6.6
			c3.3-1.6,7.1-2.4,11.4-2.4c7.6,0,13.5,2.3,17.8,7c4.3,4.7,6.4,10.9,6.4,18.3C184.8,254.6,184.4,258,183.5,262z M242.4,262h-32.7
			c0.3,4,1.3,7.7,3.1,10.2c1.8,2.4,4.8,3.5,9,3.5c4.7,0,10.1-1.4,16-4.1c1.1,1.1,2.1,2.5,2.8,4.2c0.8,1.7,1.3,3.4,1.5,5.1
			c-2.9,2.1-6.4,3.7-10.5,4.9c-4,1.2-8.1,1.8-12.3,1.8c-3.8,0-7.3-0.6-10.2-1.7c-3-1.1-5.4-2.7-7.3-4.5c-1.9-1.9-3.4-4.2-4.6-6.9
			c-1.2-2.7-2-5.5-2.5-8.4c-0.5-2.9-0.7-6-0.7-9.3c0-4.5,0.5-8.6,1.5-12.4c1-3.7,2.5-7,4.6-9.9s4.7-5,8-6.6
			c3.3-1.6,7.1-2.4,11.4-2.4c7.6,0,13.5,2.3,17.8,7c4.3,4.7,6.4,10.9,6.4,18.3C243.8,254.6,243.3,258,242.4,262z M293.4,218
			c-0.6,0-1.8,0-3.6,0c-1.8,0-3,0-3.6,0h-0.1c0,1-0.1,2.7-0.1,4.5c0,1.8-0.1,3.4-0.1,4.4v58.9c-2,0.4-5,0.6-8.1,0.6
			c-3,0-4.9-0.2-7.9-0.6V227c0-1,0.2-2.6,0.3-4.4c0-1.8,0.3-3.5,0.3-4.5h-0.1c-0.6,0-1.8,0-3.6,0c-1.8,0-3,0-3.5,0h-13.2
			c-0.4-2-0.6-4.2-0.6-6.5s0.2-4.5,0.6-6.5h56.7c0.5,2,0.8,4,0.8,6.2c0,2.6-0.7,4.2-2.1,5.3c-1.4,1.1-3.6,1.5-6.5,1.5H293.4z
			 M372.6,285.9c-2.5,0.4-6.4,0.6-11.5,0.6c-3.4,0-5.9-0.5-7.4-1.4c-1.6-0.9-2.6-3-3.1-6l-2.4-14.6c-1.8-10-3.1-17.9-3.9-23.5
			l-0.7,0c-0.3,2-1.7,9.8-4.1,23.3l-3.8,21.6c-2.7,0.4-6.7,0.6-11.9,0.6c-3,0-5.2-0.5-6.8-1.6c-1.6-1-2.7-3.1-3.4-6.1L301.6,228
			c3-1.3,6-1.9,8.7-1.9c2.2,0,3.9,0.5,5,1.6c1.1,1,1.9,2.7,2.3,4.9l4.5,21.8c1.6,7.5,2.8,13.8,3.5,19.1c0.1,0.4,0.2,0.6,0.4,0.8
			c0.1,0.1,0.3,0.2,0.6,0.2l8.2-46.9c2.5-0.5,5.6-0.7,9.3-0.7c3.9,0,6.9,0.2,9.3,0.6l8.2,46c0,0.5,0.1,0.7,0.2,0.8
			c0.1,0.1,0.3,0.2,0.7,0.2c1.2-7.3,2.5-14,3.7-20l5.9-27.2c1.7-0.5,3.7-0.7,6.2-0.7c3.6,0,6.3,0.4,8,1.3l0.5,1L372.6,285.9z
			 M441.8,270.4c-1.3,3.9-3.4,7.4-6.5,10.4c-4.6,4.5-10.7,6.7-18.2,6.7c-7.4,0-13.4-2.2-18-6.7c-3-3-5.2-6.5-6.5-10.4
			c-1.3-3.9-1.9-8.5-1.9-13.8c0-5.3,0.6-9.9,1.9-13.9c1.3-4,3.4-7.5,6.4-10.5c4.6-4.4,10.6-6.6,18-6.6c7.5,0,13.5,2.2,18.2,6.6
			c3,3,5.2,6.5,6.4,10.5c1.3,4,1.9,8.7,1.9,13.9C443.7,261.9,443,266.5,441.8,270.4z"/>
		<path id="XMLID_29_" class="st0" d="M219.6,236.9c-6.2,0-9.5,4.1-10,14.1H229v-1.9c0-3.7-0.6-6.6-2.2-8.9
			C225.2,237.9,222.9,236.9,219.6,236.9z"/>
		<path id="XMLID_30_" class="st0" d="M160.6,236.9c-6.2,0-9.5,4.1-10,14.1H170v-1.9c0-3.7-0.6-6.6-2.2-8.9
			C166.2,237.9,163.9,236.9,160.6,236.9z"/>
		<path id="XMLID_31_" class="st0" d="M100.3,236.9c1.6-0.6,2.8-1.6,3.7-2.7c0.8-1.1,1.4-2.3,1.8-3.5c0.3-1.2,0.5-2.5,0.5-4
			c0-1.4-0.2-2.7-0.5-3.9c-0.3-1.2-0.9-2.3-1.7-3.4s-2-1.9-3.6-2.5c-1.6-0.6-3.6-0.9-5.9-0.9c-4.8,0-8.5,0-10.5-0.1V238h10.5
			C96.8,238,98.7,237.5,100.3,236.9z"/>
		<path id="XMLID_32_" class="st0" d="M106.9,253.7c-1-1.3-2.5-2.5-4.4-3.3c-1.9-0.8-4.2-1.4-6.8-1.4H84v26c3-0.1,7-0.1,12.1-0.1
			c2.1,0,4-0.3,5.7-0.8c1.7-0.6,3-1.3,3.9-2.1c1-0.8,1.8-1.8,2.4-3c0.6-1.2,1-2.3,1.2-3.4c0.2-1.1,0.3-2.2,0.3-3.4
			c0-1.5-0.2-2.9-0.7-4.3C108.6,256.4,107.9,255,106.9,253.7z"/>
		<path id="XMLID_33_" class="st0" d="M426.6,245.3c-0.5-1.7-1.1-3.2-1.9-4.3s-1.8-2.1-3-2.8c-1.3-0.7-2.7-1-4.4-1
			c-2.1,0-3.9,0.5-5.4,1.5c-1.4,1-2.5,2.5-3.3,4.4c-0.8,1.9-1.3,3.9-1.6,6.1c-0.3,2.2-0.5,4.7-0.5,7.5c0,2.8,0.2,5.3,0.5,7.4
			c0.3,2.1,0.8,4.2,1.6,6.1s1.9,3.3,3.3,4.3c1.4,1,3.2,1.5,5.4,1.5c1.7,0,3.2-0.3,4.4-1c1.3-0.7,2.3-1.6,3-2.8s1.4-2.6,1.9-4.3
			c0.5-1.7,0.8-3.4,1-5.2c0.2-1.8,0.3-3.8,0.3-6c0-2.2-0.1-4.3-0.3-6.1C427.4,248.8,427.1,247,426.6,245.3z"/>
	</g>
</g>
</svg>
