<?xml version="1.0" encoding="utf-8"?>
<!-- Generator: Adobe Illustrator 19.0.0, SVG Export Plug-In . SVG Version: 6.00 Build 0)  -->
<svg version="1.1" id="Layer_3" xmlns="http://www.w3.org/2000/svg" xmlns:xlink="http://www.w3.org/1999/xlink" x="0px" y="0px"
	 viewBox="-255 129 512 512" style="enable-background:new -255 129 512 512;" xml:space="preserve">
<style type="text/css">
	.st0{fill:#FCFCFC;}
</style>
<path class="st0" d="M207.4,262.9c-3.5-5.3-8.1-9.9-13.8-13.1L20.9,149.9c-12.6-7.2-28.2-7.2-40.8,0l-172.7,99.9
	c-12.6,7.2-20.4,20.8-20.4,35.3v199.8c0,13.8,7.1,26.8,18.6,34.2c3.5,5.3,8.1,9.9,13.8,13.1l172.7,100c6.3,3.6,13.3,5.4,20.4,5.4
	c7.1,0,14.1-1.8,20.4-5.4l172.7-99.9C218.2,525,226,511.5,226,497V297.1C226,283.3,218.9,270.3,207.4,262.9z M212,485
	c0,13.8-7.4,26.6-19.4,33.6L19.9,618.5c-12,6.9-26.8,6.9-38.8,0l-172.7-100c-12-6.9-19.4-19.7-19.4-33.6V285.1
	c0-13.9,7.4-26.7,19.4-33.6l172.7-99.9c12-6.9,26.8-6.9,38.8,0l172.7,99.9c12,6.9,19.4,19.7,19.4,33.6V485z"/>
</svg>
