<?xml version="1.0" encoding="utf-8"?>
<!-- Generator: Adobe Illustrator 19.0.0, SVG Export Plug-In . SVG Version: 6.00 Build 0)  -->
<svg version="1.1" id="Layer_1" xmlns="http://www.w3.org/2000/svg" xmlns:xlink="http://www.w3.org/1999/xlink" x="0px" y="0px"
	 viewBox="0 0 512 579" style="enable-background:new 0 0 512 579;" xml:space="preserve">
<style type="text/css">
	.st0{fill:#FCFCFC;}
</style>
<path class="st0" d="M87.2,274.6c1.8-2.2,2.7-4.8,2.7-7.9c0-3.1-0.9-5.7-2.7-7.8c-1.8-2.1-4.9-3.1-9.2-3.1h-5.5
	c-1.6,0-3-0.1-4.2-0.1v22.2H78C82.4,277.8,85.5,276.8,87.2,274.6 M91,315.8c1.7-2.1,2.6-5.1,2.6-8.8c0-3.6-1.1-6.7-3.4-9.4
	c-2.2-2.7-5.8-4-10.6-4H68.3v26.9c2.4-0.1,5-0.1,8,0c3,0.1,5.7-0.1,8.3-0.7C87.1,319.2,89.3,317.9,91,315.8 M143.8,292.7h18.1v-1.5
	c0-3.4-0.7-6.2-2.3-8.4c-1.5-2.2-3.8-3.3-6.8-3.3c-2.9,0-5.1,1-6.5,3.1C144.9,284.7,144.1,288.1,143.8,292.7 M209.5,292.7h18.1v-1.5
	c0-3.4-0.8-6.2-2.3-8.4c-1.5-2.2-3.8-3.3-6.8-3.3c-2.9,0-5.1,1-6.5,3.1C210.6,284.7,209.8,288.1,209.5,292.7 M444.6,315.7
	c1.3-3.5,1.9-8.6,1.9-15.1c0-6.6-0.6-11.6-1.9-15.1c-1.3-3.4-3.9-5.2-7.8-5.2c-2,0-3.7,0.5-4.9,1.4c-1.2,1-2.2,2.3-3,3.9
	c-0.7,1.7-1.3,3.6-1.5,5.7c-0.3,2.2-0.4,4.5-0.4,7c0,3.9,0.1,7.2,0.3,10c0.2,2.8,0.7,5.1,1.4,7c0.7,1.9,1.7,3.3,2.9,4.2
	c1.2,0.9,2.9,1.4,4.9,1.4C440.6,321,443.3,319.2,444.6,315.7 M468.8,300.7c0,5.5-0.7,10.5-2.1,15c-1.4,4.5-3.5,8.3-6.2,11.5
	c-2.7,3.2-6,5.6-10,7.3c-4,1.7-8.5,2.5-13.7,2.5c-5.1,0-9.7-0.9-13.6-2.6c-3.9-1.7-7.2-4.2-9.9-7.4c-2.7-3.2-4.8-7-6.1-11.5
	c-1.4-4.5-2.1-9.5-2.1-14.9c0-5.5,0.7-10.5,2.1-15c1.4-4.5,3.4-8.3,6.1-11.5c2.7-3.2,6-5.7,9.9-7.4c3.9-1.7,8.5-2.6,13.6-2.6
	c9.1,0,16.5,2.7,22.1,8.1C465.4,279,468.8,288.4,468.8,300.7 M403.7,268.6l-16.1,66.4c-3.4,0.6-8,0.8-13.8,0.8
	c-5.8,0-9.7-0.6-11.7-1.9c-2-1.3-3.3-3.9-3.9-7.9l-2.2-14.7c-1.4-8.5-2.6-17.2-3.6-26.1h-0.8c-0.1,0.7-1.3,9.3-3.6,25.8l-3.9,24
	c-4.4,0.6-9.3,0.8-14.6,0.8c-5.3,0-9-0.7-11.1-2.1c-2.1-1.4-3.5-4-4.3-8l-13.4-58.3c4.5-1.7,8.4-2.5,11.7-2.5c3.4,0,5.8,0.7,7.3,2.2
	c1.5,1.5,2.5,3.8,3.2,7l4.3,22.2c2,10,3.2,17.2,3.6,21.5c0.1,0.8,0.5,1.2,1.1,1.2l7.6-52.2c3.2-0.6,7.4-1,12.7-1
	c5.2,0,9.4,0.3,12.5,1l7.7,51c0.1,0.8,0.5,1.2,1.1,1.2c1.7-10.9,2.9-18.5,3.7-22.7l6.2-30.1c2.2-0.6,5.2-1,9-1
	c4.7,0,8.2,0.6,10.6,1.8L403.7,268.6z M311,249.7c0,3.4-0.9,5.9-2.8,7.4c-1.8,1.5-4.8,2.3-8.8,2.3h-4l-8.7-0.1h-0.1l0.1,10.2v65.6
	c-3.1,0.6-6.8,0.8-11.1,0.8c-4.3,0-7.9-0.3-10.8-0.8v-75.8l-8.8,0.1h-14.2c-0.6-2.7-0.8-5.8-0.8-9.2c0-3.5,0.3-6.6,0.8-9.2H310
	C310.7,243.3,311,246.2,311,249.7 M239.6,272.5c2.5,2.6,4.4,5.7,5.7,9.2c1.3,3.6,2,7.5,2,11.7c0,5.6-0.6,10.3-1.8,14.2h-35.8
	c0.2,4.1,1.2,7.3,3.2,9.5c1.9,2.3,5.1,3.4,9.5,3.4c2.2,0,4.7-0.3,7.6-0.9c2.9-0.6,6.2-1.6,10-3.1c3,3.1,4.9,7.4,5.6,12.7
	c-7.4,5.2-16.4,7.9-27,7.9c-5.8,0-10.6-0.9-14.5-2.8c-3.9-1.8-7.1-4.4-9.5-7.7c-2.4-3.3-4.2-7.2-5.2-11.7c-1-4.5-1.5-9.4-1.5-14.7
	c0-5.1,0.6-9.9,1.9-14.3c1.2-4.4,3.1-8.2,5.7-11.4c2.5-3.2,5.7-5.7,9.7-7.6c3.9-1.8,8.5-2.8,13.7-2.8c4.4,0,8.4,0.7,11.9,2.2
	C234.1,267.9,237.1,269.9,239.6,272.5 M181.6,293.4c0,5.6-0.6,10.3-1.8,14.2h-35.8c0.2,4.1,1.2,7.3,3.2,9.5c1.9,2.3,5.1,3.4,9.5,3.4
	c2.2,0,4.7-0.3,7.6-0.9c2.9-0.6,6.2-1.6,9.9-3.1c3,3.1,4.9,7.4,5.6,12.7c-7.4,5.2-16.4,7.9-27,7.9c-5.8,0-10.6-0.9-14.5-2.8
	c-3.9-1.8-7.1-4.4-9.5-7.7c-2.4-3.3-4.2-7.2-5.2-11.7c-1-4.5-1.5-9.4-1.5-14.7c0-5.1,0.6-9.9,1.9-14.3c1.2-4.4,3.1-8.2,5.7-11.4
	c2.5-3.2,5.7-5.7,9.7-7.6c3.9-1.8,8.5-2.8,13.7-2.8c4.4,0,8.4,0.7,11.9,2.2c3.5,1.5,6.5,3.5,9,6.1c2.5,2.6,4.4,5.7,5.7,9.2
	C180.9,285.3,181.6,289.2,181.6,293.4 M115.8,308c0,9.5-3,16.5-9,21c-6,4.5-14.5,6.8-25.6,6.8c-3.4,0-7.9-0.1-13.5-0.1
	c-5.6-0.1-12.4-0.2-20.4-0.4l-1-1v-92.8l1-1c7.4-0.2,13.8-0.3,19.1-0.4c5.3-0.1,9.5-0.1,12.7-0.1c10,0,17.9,2.1,23.6,6.3
	c5.7,4.2,8.6,10.5,8.6,18.8c0,4-1.1,7.8-3.4,11.3c-2.3,3.5-5.2,6-8.8,7.6c2.3,0.7,4.5,1.9,6.5,3.5c2.1,1.6,3.8,3.5,5.3,5.7
	c1.5,2.2,2.6,4.5,3.5,7C115.4,302.8,115.8,305.4,115.8,308 M512,414.6V164.5c0-14.1-7.5-27.1-19.7-34.1L275.7,5.3
	c-12.2-7-27.2-7-39.4,0L19.7,130.3C7.5,137.4,0,150.4,0,164.5v250.1c0,14.1,7.5,27.1,19.7,34.1l216.6,125c12.2,7,27.2,7,39.4,0
	l216.6-125C504.5,441.6,512,428.6,512,414.6"/>
</svg>
