<?xml version="1.0" encoding="UTF-8" standalone="no"?>
<!DOCTYPE svg PUBLIC "-//W3C//DTD SVG 1.1//EN" "http://www.w3.org/Graphics/SVG/1.1/DTD/svg11.dtd">
<svg width="100%" height="100%" viewBox="0 0 512 579" version="1.1" xmlns="http://www.w3.org/2000/svg" xmlns:xlink="http://www.w3.org/1999/xlink" xml:space="preserve" style="fill-rule:evenodd;clip-rule:evenodd;stroke-linejoin:round;stroke-miterlimit:1.41421;">
    <path d="M87.2,274.6C89,272.4 89.9,269.8 89.9,266.7C89.9,263.6 89,261 87.2,258.9C85.4,256.8 82.3,255.8 78,255.8L72.5,255.8C70.9,255.8 69.5,255.7 68.3,255.7L68.3,277.9L78,277.9C82.4,277.8 85.5,276.8 87.2,274.6M91,315.8C92.7,313.7 93.6,310.7 93.6,307C93.6,303.4 92.5,300.3 90.2,297.6C88,294.9 84.4,293.6 79.6,293.6L68.3,293.6L68.3,320.5C70.7,320.4 73.3,320.4 76.3,320.5C79.3,320.6 82,320.4 84.6,319.8C87.1,319.2 89.3,317.9 91,315.8M143.8,292.7L161.9,292.7L161.9,291.2C161.9,287.8 161.2,285 159.6,282.8C158.1,280.6 155.8,279.5 152.8,279.5C149.9,279.5 147.7,280.5 146.3,282.6C144.9,284.7 144.1,288.1 143.8,292.7M209.5,292.7L227.6,292.7L227.6,291.2C227.6,287.8 226.8,285 225.3,282.8C223.8,280.6 221.5,279.5 218.5,279.5C215.6,279.5 213.4,280.5 212,282.6C210.6,284.7 209.8,288.1 209.5,292.7M444.6,315.7C445.9,312.2 446.5,307.1 446.5,300.6C446.5,294 445.9,289 444.6,285.5C443.3,282.1 440.7,280.3 436.8,280.3C434.8,280.3 433.1,280.8 431.9,281.7C430.7,282.7 429.7,284 428.9,285.6C428.2,287.3 427.6,289.2 427.4,291.3C427.1,293.5 427,295.8 427,298.3C427,302.2 427.1,305.5 427.3,308.3C427.5,311.1 428,313.4 428.7,315.3C429.4,317.2 430.4,318.6 431.6,319.5C432.8,320.4 434.5,320.9 436.5,320.9C440.6,321 443.3,319.2 444.6,315.7M468.8,300.7C468.8,306.2 468.1,311.2 466.7,315.7C465.3,320.2 463.2,324 460.5,327.2C457.8,330.4 454.5,332.8 450.5,334.5C446.5,336.2 442,337 436.8,337C431.7,337 427.1,336.1 423.2,334.4C419.3,332.7 416,330.2 413.3,327C410.6,323.8 408.5,320 407.2,315.5C405.8,311 405.1,306 405.1,300.6C405.1,295.1 405.8,290.1 407.2,285.6C408.6,281.1 410.6,277.3 413.3,274.1C416,270.9 419.3,268.4 423.2,266.7C427.1,265 431.7,264.1 436.8,264.1C445.9,264.1 453.3,266.8 458.9,272.2C465.4,279 468.8,288.4 468.8,300.7M403.7,268.6L387.6,335C384.2,335.6 379.6,335.8 373.8,335.8C368,335.8 364.1,335.2 362.1,333.9C360.1,332.6 358.8,330 358.2,326L356,311.3C354.6,302.8 353.4,294.1 352.4,285.2L351.6,285.2C351.5,285.9 350.3,294.5 348,311L344.1,335C339.7,335.6 334.8,335.8 329.5,335.8C324.2,335.8 320.5,335.1 318.4,333.7C316.3,332.3 314.9,329.7 314.1,325.7L300.7,267.4C305.2,265.7 309.1,264.9 312.4,264.9C315.8,264.9 318.2,265.6 319.7,267.1C321.2,268.6 322.2,270.9 322.9,274.1L327.2,296.3C329.2,306.3 330.4,313.5 330.8,317.8C330.9,318.6 331.3,319 331.9,319L339.5,266.8C342.7,266.2 346.9,265.8 352.2,265.8C357.4,265.8 361.6,266.1 364.7,266.8L372.4,317.8C372.5,318.6 372.9,319 373.5,319C375.2,308.1 376.4,300.5 377.2,296.3L383.4,266.2C385.6,265.6 388.6,265.2 392.4,265.2C397.1,265.2 400.6,265.8 403,267L403.7,268.6ZM311,249.7C311,253.1 310.1,255.6 308.2,257.1C306.4,258.6 303.4,259.4 299.4,259.4L295.4,259.4L286.7,259.3L286.6,259.3L286.7,269.5L286.7,335.1C283.6,335.7 279.9,335.9 275.6,335.9C271.3,335.9 267.7,335.6 264.8,335.1L264.8,259.3L256,259.4L241.8,259.4C241.2,256.7 241,253.6 241,250.2C241,246.7 241.3,243.6 241.8,241L310,241C310.7,243.3 311,246.2 311,249.7M239.6,272.5C242.1,275.1 244,278.2 245.3,281.7C246.6,285.3 247.3,289.2 247.3,293.4C247.3,299 246.7,303.7 245.5,307.6L209.7,307.6C209.9,311.7 210.9,314.9 212.9,317.1C214.8,319.4 218,320.5 222.4,320.5C224.6,320.5 227.1,320.2 230,319.6C232.9,319 236.2,318 240,316.5C243,319.6 244.9,323.9 245.6,329.2C238.2,334.4 229.2,337.1 218.6,337.1C212.8,337.1 208,336.2 204.1,334.3C200.2,332.5 197,329.9 194.6,326.6C192.2,323.3 190.4,319.4 189.4,314.9C188.4,310.4 187.9,305.5 187.9,300.2C187.9,295.1 188.5,290.3 189.8,285.9C191,281.5 192.9,277.7 195.5,274.5C198,271.3 201.2,268.8 205.2,266.9C209.1,265.1 213.7,264.1 218.9,264.1C223.3,264.1 227.3,264.8 230.8,266.3C234.1,267.9 237.1,269.9 239.6,272.5M181.6,293.4C181.6,299 181,303.7 179.8,307.6L144,307.6C144.2,311.7 145.2,314.9 147.2,317.1C149.1,319.4 152.3,320.5 156.7,320.5C158.9,320.5 161.4,320.2 164.3,319.6C167.2,319 170.5,318 174.2,316.5C177.2,319.6 179.1,323.9 179.8,329.2C172.4,334.4 163.4,337.1 152.8,337.1C147,337.1 142.2,336.2 138.3,334.3C134.4,332.5 131.2,329.9 128.8,326.6C126.4,323.3 124.6,319.4 123.6,314.9C122.6,310.4 122.1,305.5 122.1,300.2C122.1,295.1 122.7,290.3 124,285.9C125.2,281.5 127.1,277.7 129.7,274.5C132.2,271.3 135.4,268.8 139.4,266.9C143.3,265.1 147.9,264.1 153.1,264.1C157.5,264.1 161.5,264.8 165,266.3C168.5,267.8 171.5,269.8 174,272.4C176.5,275 178.4,278.1 179.7,281.6C180.9,285.3 181.6,289.2 181.6,293.4M115.8,308C115.8,317.5 112.8,324.5 106.8,329C100.8,333.5 92.3,335.8 81.2,335.8C77.8,335.8 73.3,335.7 67.7,335.7C62.1,335.6 55.3,335.5 47.3,335.3L46.3,334.3L46.3,241.5L47.3,240.5C54.7,240.3 61.1,240.2 66.4,240.1C71.7,240 75.9,240 79.1,240C89.1,240 97,242.1 102.7,246.3C108.4,250.5 111.3,256.8 111.3,265.1C111.3,269.1 110.2,272.9 107.9,276.4C105.6,279.9 102.7,282.4 99.1,284C101.4,284.7 103.6,285.9 105.6,287.5C107.7,289.1 109.4,291 110.9,293.2C112.4,295.4 113.5,297.7 114.4,300.2C115.4,302.8 115.8,305.4 115.8,308M512,414.6L512,164.5C512,150.4 504.5,137.4 492.3,130.4L275.7,5.3C263.5,-1.7 248.5,-1.7 236.3,5.3L19.7,130.3C7.5,137.4 0,150.4 0,164.5L0,414.6C0,428.7 7.5,441.7 19.7,448.7L236.3,573.7C248.5,580.7 263.5,580.7 275.7,573.7L492.3,448.7C504.5,441.6 512,428.6 512,414.6" style="fill:rgb(92,166,178);fill-rule:nonzero;"/>
</svg>
