<?xml version="1.0" encoding="utf-8"?>
<!-- Generator: Adobe Illustrator 19.0.0, SVG Export Plug-In . SVG Version: 6.00 Build 0)  -->
<svg version="1.1" id="Layer_1" xmlns="http://www.w3.org/2000/svg" xmlns:xlink="http://www.w3.org/1999/xlink" x="0px" y="0px"
	 viewBox="-615 377 48 48" style="enable-background:new -615 377 48 48;" xml:space="preserve">
<defs>
    <filter id="f1" x="0" y="0" width="200%" height="200%">
      <feOffset result="offOut" in="SourceGraphic" dx="20" dy="20" />
      <feBlend in="SourceGraphic" in2="offOut" mode="normal" />
    </filter>
</defs>
<g filter="url(#f1)" id="close">
	<path class="st0" d="M-600.6,391l9.3,9.3l9.3-9.3l2.4,2.4l-9.3,9.3l9.3,9.3l-2.4,2.4l-9.3-9.3l-9.3,9.3l-2.4-2.4l9.3-9.3l-9.3-9.3
		L-600.6,391z"/>
	<path class="st1" d="M-615,377h48c0,0,0,28.5,0,48h-48V377z"/>
</g>
<g filter="url(#f1)"  d="tok">
	<path d="M-609,412.7c3,0,36,0,36,0v-4h-36C-609,408.7-609,410.7-609,412.7z"/>
	<path d="M-609,404.7c3,0,36,0,36,0v-4h-36C-609,400.7-609,402.7-609,404.7z"/>
	<path d="M-609,396.7c3,0,36,0,36,0v-4h-36C-609,392.7-609,394.7-609,396.7z"/>
</g>
</svg>
