<?xml version="1.0" encoding="utf-8"?>
<!-- Generator: Adobe Illustrator 19.0.0, SVG Export Plug-In . SVG Version: 6.00 Build 0)  -->
<svg version="1.1" id="Layer_1" xmlns="http://www.w3.org/2000/svg" xmlns:xlink="http://www.w3.org/1999/xlink" x="0px" y="0px"
	 viewBox="0 0 976 425.4" style="enable-background:new 0 0 976 425.4;" xml:space="preserve">
<style type="text/css">
	.st0{fill:#E20916;}
	.st1{fill:#054D7E;}
</style>
<path id="XMLID_136_" class="st0" d="M832,200c-25.5,0-51-0.4-76.5,0.2c-8.4,0.2-10.3-2.4-10.2-10.5c0.5-23,0.1-45.9,0.2-68.9
	c0.1-22.7,14.5-38.7,36.9-39c52.1-0.6,104.3-0.6,156.4,0c22.9,0.3,36.7,16.4,36.9,40.1c0.2,18.4,0.2,18.4-18.1,18.4
	c-48.8,0-97.7,0-146.5,0.1c-4.2,0-10.1-2.2-10,5.9c0,7.8,5.7,6.2,10,6.2c51,0.1,102.1,0.3,153.1-0.1c8.7-0.1,12.1,1.6,11.8,11.1
	c-0.7,22.6-0.1,45.2-0.3,67.8c-0.2,24.6-14.9,39.4-39.7,39.5c-49.9,0.2-99.9,0.1-149.8,0c-26-0.1-40.5-14.8-40.7-40.7
	c0-2.6,0.3-5.2-0.1-7.6c-1.2-8.2,1.9-10.4,10.2-10.4c50.3,0.4,100.6,0.2,150.9,0.2c2.2,0,4.4-0.1,6.6,0c4,0.1,7-0.3,7.2-5.6
	c0.2-5.6-2.6-6.7-7.4-6.7C886,200.1,859,200,832,200z"/>
<path id="XMLID_133_" class="st1" d="M139.1,180.8c0-26.6-0.1-53.2,0.1-79.8c0.1-14.9,4.2-19.4,18.6-19.3
	c24.7,0.2,49.5-1.7,74.2,1.2c41.5,4.9,62.5,38.8,48.9,78.5c-3.6,10.4-9.8,19.3-19.7,23.8c-9.6,4.4-8.4,9-4.2,16.6
	c10.6,19.5,20.2,39.5,30.6,59.2c3.9,7.5,2.8,10.4-6.1,10c-10.5-0.5-21.1-0.4-31.7,0c-8.4,0.3-13.5-3.1-17.1-10.7
	c-8.9-19.1-18.5-37.9-27.4-57.1c-3-6.4-6.4-10.2-14-8.8c-8.2,1.6-4.7,8-4.8,12.3c-0.4,18.6-0.4,37.1,0,55.7c0.1,6.8-2.2,8.9-8.8,8.6
	c-9.8-0.5-19.7-0.5-29.5,0c-7.3,0.4-9.3-2.3-9.2-9.4C139.3,234.7,139.1,207.8,139.1,180.8z M205.6,155.8c5.8-0.3,11.7-0.1,17.4-0.9
	c8.7-1.2,13.6-6.1,13.7-15.4c0.1-9.5-4.1-15.5-13.6-16.6c-7.6-0.9-15.2-0.8-22.9-0.9c-14-0.1-14,0-14,14.2
	C186.1,155.6,186.1,155.6,205.6,155.8z"/>
<path id="XMLID_132_" class="st1" d="M574.9,176.2c0-25.1-0.1-50.3,0-75.4c0.1-14.5,4.3-18.9,19-19c30.6-0.2,61.2,0.1,91.8-0.2
	c6.6-0.1,8.7,2,8.8,8.7c0.7,29.4-1.4,31.7-30.8,31.7c-11.3,0-22.6,0.2-33.9-0.1c-5.6-0.1-7.4,1.9-7.7,7.6
	c-1.5,26.2-1.6,26.2,24.8,26.2c9.8,0,19.7,0.3,29.5-0.1c5.6-0.2,7.9,1.7,7.6,7.5c-0.4,8-0.4,16,0,24c0.3,6-2.5,7.4-7.9,7.4
	c-15.3-0.2-30.6,0.2-45.9-0.2c-6.2-0.1-7.9,2.2-8.2,8.2c-1.1,28.3-1.3,28.3,27.3,28.3c13.1,0,26.2,0.1,39.3-0.1c5-0.1,7.6,1.6,7,6.9
	c0,0.4,0,0.7,0,1.1c1.4,29.7-1.1,32.2-31.2,32.2c-22.6,0-45.2,0-67.8,0c-18.4,0-21.9-3.5-22-21.5C574.8,225,574.9,200.6,574.9,176.2
	z"/>
<path id="XMLID_131_" class="st1" d="M-0.8,176.1c0-25.1-0.1-50.3,0-75.4c0.1-14.5,4.4-18.8,19-18.9c30.6-0.2,61.2,0.1,91.8-0.2
	c6.8-0.1,8.5,2.3,8.6,8.8c0.6,29.6-1.1,31.6-30.8,31.6c-11.3,0-22.6,0.2-33.9-0.1c-5.6-0.1-7.4,2.1-7.7,7.6
	c-1.5,26.1-1.7,26.1,23.9,26.1c10.2,0,20.4,0.3,30.6-0.1c5.7-0.2,7.9,1.7,7.6,7.5c-0.3,8-0.3,16,0,24c0.3,5.9-2.4,7.5-7.8,7.4
	c-15.3-0.2-30.6,0.1-45.9-0.2c-6-0.1-8.1,1.9-8.4,8.1c-1.3,28.4-1.5,28.4,27.3,28.4c12.8,0,25.5,0.2,38.2-0.1c6-0.1,8.1,1.7,8.3,8
	c1,29.8-1.1,32.2-31.3,32.2c-23.3,0-46.6,0.1-69.9,0c-15.5-0.1-19.6-4.1-19.7-19.4C-0.9,226.4-0.8,201.2-0.8,176.1z"/>
<path id="XMLID_130_" class="st1" d="M334.6,230.5c9.8,0,19.7,0.2,29.5-0.1c6.8-0.2,13.5-1.4,15.5-9.3c2.2-8.4-3.3-13.1-9.6-16.4
	c-8.4-4.4-17.1-8.1-25.7-12.1c-18.5-8.7-35.4-19.3-42.4-40.1c-11.8-35,6.5-65.5,43.1-70.8c18.1-2.6,36.4-2,54.4,1.6
	c18.5,3.8,25.3,15.1,21.6,33.7c-1.1,5.4-4.5,4.9-8.1,4.9c-15.7,0.1-31.3-0.1-47,0.2c-6.8,0.1-14.8-0.5-16.6,8.7
	c-1.7,8.7,5.2,12.3,11.4,15.2c12.2,5.8,24.9,10.4,36.8,16.8c25.9,13.8,37.1,36.6,32.2,63.3c-4.6,25-20.1,39.8-48.8,44.3
	c-20.3,3.2-40.7,2.6-60.8-2c-18.6-4.2-23.2-11.1-22.6-30c0.2-6.6,2.9-8,8.6-7.8c9.5,0.3,18.9,0.1,28.4,0.1
	C334.6,230.7,334.6,230.6,334.6,230.5z"/>
<path id="XMLID_129_" class="st1" d="M473.1,195.9c0-20.8-0.6-41.6,0.2-62.3c0.4-10.1-3.1-13.1-12.4-11.7c-2.1,0.3-4.4,0.3-6.5,0
	c-6.7-0.8-17,3.4-19.5-2.1c-3.9-8.9-2.9-20,0.2-29.9c2.1-6.5,8.3-8,14.3-8c34.6-0.2,69.2-0.1,103.8-0.2c5.2,0,7.4,1.9,6.9,7
	c-0.1,0.7,0,1.5,0,2.2c0.7,29.9,0.1,30.9-29.7,30.9c-8.6,0-10.2,3.1-10.1,10.8c0.3,42.6,0,85.2,0.3,127.9
	c0.1,7.9-1.7,11.3-10.2,10.6c-9.1-0.7-18.2-0.7-27.3,0c-8.6,0.7-10.4-2.8-10.2-10.7C473.4,238.9,473.1,217.4,473.1,195.9z"/>
<path id="XMLID_128_" class="st0" d="M861,70.8c-19.3,0.2-34.5-14.9-34.9-34.5C825.8,16.2,840.9,0.1,860.4,0
	c19.3-0.1,35.2,16,35,35.7C895.3,55,880,70.6,861,70.8z"/>
<path id="XMLID_127_" class="st1" d="M62.5,377.8c0,25.5-2.2,27.6-28.2,25.8c-18-1.3-28.1-9.6-32.1-27.3c-3.1-13.7-3-27.6,0.1-41.3
	c5.2-22.9,32.5-35.6,53.9-25.4c3.4,1.6,5.3,3.9,4.8,7.7c-0.6,4.3-4.3,3.1-6.9,3.2c-4.7,0.2-9.5,0-14.2,0.1
	c-16.2,0.3-21.7,4.9-23.9,20.7c-1.5,10.9-1.6,21.8,0.7,32.6c2.9,13.3,13.9,19.9,27.2,17.2c4.1-0.8,4.2-3.2,4.3-6.2
	c0-6.2,0.1-12.4,0-18.6c-0.1-6.1,0.8-11,8.6-10.9c8.1,0.1,5.4,6.1,5.7,10.3C62.8,369.8,62.5,373.8,62.5,377.8z"/>
<path id="XMLID_124_" class="st1" d="M262.5,376.2c0-13.1-0.1-26.2,0.1-39.3c0.1-8.2,4.7-11.2,10.7-5.9c4.8,4.2,7.2,1.9,11.1,0.1
	c13.4-6.4,27-1.4,32.4,12.3c5.8,14.8,5.7,30.1,0.2,44.9c-5.4,14.4-18.3,19.4-33,12.4c-6.9-3.3-8.2-1.5-7.9,5c0.2,4-0.1,8,0.1,12
	c0.2,4.5-0.5,7.6-6.3,7.7c-5.8,0.1-7.5-2.2-7.4-7.7C262.7,403.9,262.5,390,262.5,376.2z M275.9,365.8c0,4,0.4,8-0.1,11.9
	c-0.9,7.8,2.3,12.5,10,14.1c7.9,1.6,14.8,0.2,17.9-8.2c4.2-11.6,4.2-23.5,0.1-35.1c-2.7-7.5-8.8-10.3-16.6-8.8
	c-7.7,1.4-12.4,5.4-11.3,14.2C276.3,357.8,275.9,361.8,275.9,365.8z"/>
<path id="XMLID_123_" class="st1" d="M246,367.1c0,9.1,0.1,18.2,0,27.3c-0.1,8.7-4.8,11.9-11,6.7c-4.1-3.4-6-2.6-10-0.8
	c-19.6,9.4-34.3,0.1-34.6-21.5c-0.2-13.5-0.1-27,0-40.5c0-4.6-1.1-9.6,6.6-9.7c7.4-0.1,7.1,4.2,7,9.2c-0.1,13.1-0.2,26.2,0,39.4
	c0.2,11.5,4,15.5,13.7,15.2c10.6-0.3,14.7-4.5,14.7-15.5c0.1-13.5,0.1-27,0-40.5c0-4.4,0.3-7.7,6.2-7.8c5.9-0.1,7.6,2.3,7.4,7.8
	C245.8,346.7,246,356.9,246,367.1z"/>
<path id="XMLID_120_" class="st1" d="M177.4,366.3c0,27.9-13.5,41.1-37.3,36.7c-0.4-0.1-0.7-0.1-1.1-0.2
	c-18.3-4.1-27.3-29-19.4-54.3c5.3-17.1,23.1-25.1,40.4-18C171.8,335.4,177.4,346.8,177.4,366.3z M164,366.2
	c-0.9-5.7-1.3-11.5-2.7-17.1c-1.7-6.7-6.3-10.2-13.5-10.4c-7.1-0.2-12.2,2.9-14.1,9.6c-3.5,12.1-3.6,24.4,0.3,36.4c2,6.2,7,9,13.5,9
	c6.5,0,11.2-3,13.4-9.2C163,378.7,163.6,372.5,164,366.2z"/>
<path id="XMLID_119_" class="st1" d="M84.1,402.9c-5.5,0.9-6.8-2-6.7-6.9c0.1-20-0.1-39.9,0.1-59.9c0.1-7.3,5.3-10.2,10.2-5
	c4.2,4.4,6.5,3.8,10.5,0.7c2.9-2.2,6.5-3.2,10.2-3.3c4.3-0.1,6.9,1.5,6.9,6.3c0,4-0.5,6.5-5.6,7.3c-18.7,3.1-18.6,3.4-18.6,22.5
	c0,10.5-0.2,21.1,0.1,31.6C91.2,401.2,89.5,403.7,84.1,402.9z"/>
</svg>
