<svg width="768" height="1024" style="opacity: 1;"><defs><path d="M-6.935577799999997 -59.9957423C-3.105163900000001 -62.20723276 3.0986864999999995 -62.21097249 6.935577800000004 -59.9957423L48.490048 -36.0042577C52.320462000000006 -33.7927672 55.425625999999994 -28.421945 55.425625999999994 -23.9914846L55.425625999999994 23.991484600000007C55.425625999999994 28.414465500000006 52.326938999999996 33.7890275 48.490048 36.00425799999999L6.935577800000004 59.99574200000001C3.1051638999999938 62.207233 -3.0986864999999995 62.210972 -6.935577799999997 59.99574200000001L-48.490048099999996 36.00425799999999C-52.3204619 33.7927672 -55.42562584 28.421944999999994 -55.42562584 23.991484600000007L-55.42562584 -23.9914846C-55.42562584 -28.4144655 -52.3269393 -33.7890275 -48.490048099999996 -36.0042577L-6.935577799999997 -59.9957423z" id="hex" transform="scale(1)"></path></defs><g transform="translate(476.15999999999997,389.12)"><g class="nodes"><g id="hex-masthead" class="hex" style="transform: translate3d(1px, 3px, 0px);"><use xmlns:xlink="http://www.w3.org/1999/xlink" xlink:href="#hex" fill="#a6c85d" transform="scale(1)"></use></g><g id="hex-team" class="hex" style="transform: translate3d(-5px, -2px, 0px);"><use xmlns:xlink="http://www.w3.org/1999/xlink" xlink:href="#hex" fill="#ff6b67" transform="scale(1)"></use></g><g id="hex-projects" class="hex" style="transform: translate3d(8px, -1px, 0px);"><use xmlns:xlink="http://www.w3.org/1999/xlink" xlink:href="#hex" fill="#ffdb69" transform="scale(1)"></use></g><g id="hex-3" class="hex" style="transform: translate3d(2px, -5px, 0px);"><use xmlns:xlink="http://www.w3.org/1999/xlink" xlink:href="#hex" fill="#ff9e4f" transform="scale(1)"></use></g><g id="hex-footer" class="hex" style="transform: translate3d(-6px, 6px, 0px);"><use xmlns:xlink="http://www.w3.org/1999/xlink" xlink:href="#hex" fill="#5ca6b2" transform="scale(1)"></use></g></g><g></g></g></svg>