<?xml version="1.0" encoding="UTF-8" standalone="no"?>
<!DOCTYPE svg PUBLIC "-//W3C//DTD SVG 1.1//EN" "http://www.w3.org/Graphics/SVG/1.1/DTD/svg11.dtd">
<svg width="100%" height="100%" viewBox="0 0 1500 1000" version="1.1" xmlns="http://www.w3.org/2000/svg" xmlns:xlink="http://www.w3.org/1999/xlink" xml:space="preserve" style="fill-rule:evenodd;clip-rule:evenodd;stroke-linejoin:round;stroke-miterlimit:1.41421;">
    <path d="M0,0L1500,0L1500,1000L0,1000L0,0ZM397.342,461.748C397.342,455.119 398.189,449.161 399.884,443.874C401.579,438.586 403.856,434.336 406.715,431.123C409.574,427.91 412.736,425.456 416.202,423.761C419.668,422.066 423.273,421.218 427.018,421.218C435.215,421.218 442.324,423.9 448.345,429.263C450.672,425.519 454.24,423.141 459.046,422.129C460.311,422.888 461.538,424.09 462.727,425.734C463.917,427.379 464.663,428.909 464.966,430.326C462.082,433.058 460.64,437.992 460.64,445.126L460.64,491.12C460.64,499.722 460.046,506.54 458.857,511.574C457.668,516.609 455.808,520.72 453.278,523.908C450.698,527.095 447.194,529.613 442.766,531.46C438.339,533.306 433.241,534.23 427.473,534.23C418.315,534.23 409.359,532.509 400.605,529.069C400.706,526.994 401.137,524.793 401.896,522.466C402.655,520.138 403.616,518.291 404.78,516.925C407.917,518.443 411.446,519.632 415.367,520.492C419.289,521.353 422.818,521.783 425.955,521.783C429.042,521.783 431.736,521.403 434.038,520.644C436.34,519.885 438.187,518.886 439.579,517.646C440.97,516.407 442.083,514.825 442.918,512.903C443.753,510.98 444.322,509.019 444.626,507.021C444.929,505.022 445.081,502.732 445.081,500.152L445.081,493.017C438.858,498.583 431.951,501.366 424.361,501.366C415.557,501.366 408.853,497.799 404.248,490.665C399.644,483.53 397.342,473.891 397.342,461.748ZM796.184,478.673C796.184,474.17 797.031,470.16 798.726,466.643C800.421,463.126 802.724,460.306 805.633,458.18C808.542,456.055 811.806,454.461 815.424,453.399C819.042,452.336 822.9,451.805 826.998,451.805C831.653,451.805 835.322,451.906 838.003,452.109L838.003,449.149C838.003,442.621 834.639,439.358 827.909,439.358C823.406,439.358 815.791,441.028 805.064,444.367C801.876,440.623 799.903,434.981 799.144,427.442C804.254,425.418 810.174,423.761 816.904,422.471C823.633,421.18 829.579,420.535 834.74,420.535C838.282,420.535 841.634,421.016 844.796,421.977C847.959,422.939 850.893,424.419 853.6,426.417C856.307,428.416 858.458,431.199 860.052,434.766C861.645,438.333 862.442,442.47 862.442,447.175L862.442,478.673C862.442,483.429 863.884,486.819 866.769,488.843C866.313,490.968 865.339,493.27 863.846,495.75C862.354,498.229 860.848,500.051 859.331,501.214C852.196,501.063 846.605,498.33 842.557,493.017C835.979,499.241 828.415,502.353 819.864,502.353C816.018,502.353 812.54,501.644 809.428,500.228C806.316,498.811 803.824,496.951 801.952,494.649C800.08,492.347 798.65,489.83 797.664,487.097C796.677,484.365 796.184,481.557 796.184,478.673ZM1019.85,469.034C1021.17,464.581 1021.83,459.268 1021.83,453.095C1021.83,443.431 1018.94,435.512 1013.18,429.339C1007.41,423.166 999.513,420.08 989.495,420.08C983.474,420.08 978.199,421.142 973.67,423.267C969.142,425.393 965.511,428.365 962.779,432.185C960.047,436.006 958.01,440.382 956.669,445.316C955.328,450.249 954.658,455.726 954.658,461.748C954.658,466.099 954.974,470.147 955.607,473.891C956.239,477.635 957.378,481.291 959.022,484.858C960.667,488.426 962.766,491.474 965.322,494.004C967.877,496.534 971.204,498.558 975.302,500.076C979.401,501.594 984.081,502.353 989.343,502.353C994.858,502.353 1000.37,501.569 1005.89,500C1011.4,498.431 1016.06,496.256 1019.85,493.473C1019.55,490.892 1018.83,488.286 1017.69,485.655C1016.55,483.024 1015.15,480.874 1013.48,479.204C1005.64,482.291 998.881,483.834 993.214,483.834C988.458,483.834 985.042,482.544 982.968,479.963C980.893,477.383 979.654,473.74 979.249,469.034L1019.85,469.034ZM1249.98,461.596C1249.98,447.732 1253.67,437.106 1261.06,429.719C1266.72,424.052 1274.21,421.218 1283.52,421.218C1292.88,421.218 1300.4,424.052 1306.06,429.719C1313.45,437.106 1317.14,447.732 1317.14,461.596C1317.14,475.46 1313.45,486.085 1306.06,493.473C1300.35,499.19 1292.83,502.049 1283.52,502.049C1274.26,502.049 1266.77,499.19 1261.06,493.473C1253.67,486.085 1249.98,475.46 1249.98,461.596ZM245.091,466.757C245.85,462.405 246.229,458.307 246.229,454.461C246.229,444.797 243.51,436.841 238.07,430.592C232.631,424.343 225.079,421.218 215.415,421.218C208.382,421.218 202.386,423.002 197.427,426.569C192.469,430.136 188.813,434.93 186.46,440.952C184.107,446.973 182.931,453.905 182.931,461.748C182.931,466.15 183.247,470.235 183.88,474.005C184.512,477.775 185.6,481.418 187.143,484.934C188.686,488.451 190.647,491.449 193.025,493.928C195.403,496.408 198.465,498.381 202.209,499.848C205.953,501.316 210.203,502.049 214.96,502.049C220.323,502.049 225.598,501.265 230.784,499.696C235.971,498.128 240.436,496.003 244.18,493.321C243.826,491.55 243.194,489.691 242.283,487.743C241.372,485.794 240.284,484.239 239.019,483.075C231.48,487.022 224.295,488.995 217.464,488.995C211.241,488.995 206.763,487.047 204.03,483.151C201.298,479.255 199.755,473.79 199.401,466.757L245.091,466.757ZM619.266,466.757C620.025,462.405 620.405,458.307 620.405,454.461C620.405,444.797 617.685,436.841 612.246,430.592C606.806,424.343 599.255,421.218 589.59,421.218C582.557,421.218 576.561,423.002 571.603,426.569C566.644,430.136 562.988,434.93 560.635,440.952C558.283,446.973 557.106,453.905 557.106,461.748C557.106,466.15 557.422,470.235 558.055,474.005C558.687,477.775 559.775,481.418 561.318,484.934C562.862,488.451 564.822,491.449 567.201,493.928C569.579,496.408 572.64,498.381 576.384,499.848C580.128,501.316 584.379,502.049 589.135,502.049C594.498,502.049 599.773,501.265 604.96,499.696C610.146,498.128 614.611,496.003 618.356,493.321C618.001,491.55 617.369,489.691 616.458,487.743C615.547,485.794 614.459,484.239 613.195,483.075C605.655,487.022 598.47,488.995 591.64,488.995C585.416,488.995 580.938,487.047 578.206,483.151C575.473,479.255 573.93,473.79 573.576,466.757L619.266,466.757ZM541.547,466.757C542.306,462.405 542.686,458.307 542.686,454.461C542.686,444.797 539.966,436.841 534.527,430.592C529.087,424.343 521.535,421.218 511.871,421.218C504.838,421.218 498.842,423.002 493.883,426.569C488.925,430.136 485.269,434.93 482.916,440.952C480.563,446.973 479.387,453.905 479.387,461.748C479.387,466.15 479.703,470.235 480.336,474.005C480.968,477.775 482.056,481.418 483.599,484.934C485.143,488.451 487.103,491.449 489.481,493.928C491.86,496.408 494.921,498.381 498.665,499.848C502.409,501.316 506.66,502.049 511.416,502.049C516.779,502.049 522.054,501.265 527.24,499.696C532.427,498.128 536.892,496.003 540.636,493.321C540.282,491.55 539.65,489.691 538.739,487.743C537.828,485.794 536.74,484.239 535.475,483.075C527.936,487.022 520.751,488.995 513.92,488.995C507.697,488.995 503.219,487.047 500.487,483.151C497.754,479.255 496.211,473.79 495.857,466.757L541.547,466.757ZM1033.89,479.204C1033.89,470.704 1036.64,464.278 1042.13,459.926C1047.62,455.575 1054.82,453.399 1063.72,453.399C1068.88,453.399 1073.87,453.753 1078.67,454.461L1078.67,448.39C1078.67,439.181 1074.42,434.576 1065.92,434.576C1059.85,434.576 1051.71,436.55 1041.49,440.496C1040.22,439.282 1039.16,437.549 1038.3,435.297C1037.44,433.046 1036.96,430.883 1036.86,428.808C1041.41,426.784 1046.66,425.089 1052.6,423.723C1058.55,422.357 1064.03,421.674 1069.04,421.674C1076.98,421.674 1083.22,423.849 1087.74,428.201C1092.27,432.552 1094.54,439.029 1094.54,447.631L1094.54,479.508C1094.54,482.746 1094.84,485.415 1095.45,487.515C1096.06,489.615 1097.19,491.398 1098.86,492.866C1098.41,494.434 1097.6,496.015 1096.43,497.609C1095.27,499.203 1094.06,500.354 1092.79,501.063C1086.77,499.899 1082.62,496.686 1080.34,491.424C1073.06,498.507 1065.24,502.049 1056.89,502.049C1053.15,502.049 1049.77,501.379 1046.76,500.038C1043.75,498.697 1041.33,496.926 1039.51,494.725C1037.69,492.524 1036.3,490.095 1035.34,487.439C1034.38,484.783 1033.89,482.038 1033.89,479.204ZM314.386,425.696C317.017,423.419 320.381,422.281 324.48,422.281C327.516,422.281 329.692,423.103 331.007,424.748C332.323,426.392 332.98,428.935 332.98,432.375L332.98,471.994C332.98,477.357 333.664,481.19 335.03,483.492C336.396,485.794 338.926,486.946 342.619,486.946C345.706,486.946 349.02,486.098 352.562,484.403C356.104,482.708 359.266,480.393 362.049,477.458L362.049,423.192C364.984,422.787 367.691,422.584 370.17,422.584C372.397,422.584 375.078,422.787 378.215,423.192L378.215,478.217C378.215,485.402 379.683,490.336 382.618,493.017C382.162,494.535 381.365,496.066 380.227,497.609C379.088,499.152 377.861,500.304 376.546,501.063C370.069,499.899 365.718,496.18 363.491,489.906C355.497,497.546 346.844,501.366 337.534,501.366C330.653,501.366 325.517,499.026 322.127,494.346C318.737,489.665 317.042,483.53 317.042,475.94L317.042,439.661C317.042,433.438 316.157,428.783 314.386,425.696ZM906.691,448.997L904.186,448.997L904.186,400.195C904.186,394.781 903.199,390.998 901.226,388.848C899.253,386.697 895.837,385.622 890.98,385.622L881.644,385.622L880.582,386.685L880.582,500C883.972,500.607 887.843,500.911 892.194,500.911C896.748,500.911 900.745,500.607 904.186,500L904.186,469.034C905.097,468.933 906.716,468.882 909.043,468.882C911.32,468.882 913.117,469.439 914.432,470.552C915.748,471.665 916.937,473.815 917.999,477.003L922.705,490.361C924.071,494.409 925.64,497.23 927.411,498.824C929.182,500.417 931.762,501.214 935.152,501.214C938.188,501.214 941.161,500.506 944.07,499.089C946.98,497.672 949.446,495.851 951.47,493.625C950.104,492.663 948.928,491.411 947.941,489.868C946.954,488.324 946.233,486.971 945.778,485.807C945.323,484.643 944.715,482.847 943.956,480.418L940.086,469.034C937.809,462.456 933.558,458.003 927.335,455.676C930.573,453.449 933.23,450.388 935.304,446.492L947.22,423.343L946.309,422.129C940.339,421.927 935.835,421.825 932.799,421.825C926.677,421.825 922.123,424.785 919.138,430.705L911.017,446.189C910.41,447.352 909.815,448.111 909.233,448.466C908.651,448.82 907.804,448.997 906.691,448.997ZM1336.04,500L1336.04,423.495L1336.95,422.584L1343.03,422.584C1348.64,422.584 1351.6,425.797 1351.91,432.223C1359.55,425.291 1367.77,421.825 1376.57,421.825C1381.28,421.825 1385.23,422.977 1388.41,425.279C1391.6,427.581 1393.88,430.592 1395.24,434.311C1396.61,438.03 1397.29,442.368 1397.29,447.327L1397.29,483.53C1397.29,489.804 1398.15,494.51 1399.87,497.647C1397.04,499.924 1393.67,501.063 1389.78,501.063C1386.69,501.063 1384.5,500.228 1383.21,498.558C1381.92,496.888 1381.28,494.308 1381.28,490.816L1381.28,451.35C1381.28,445.986 1380.58,442.153 1379.19,439.851C1377.8,437.549 1375.28,436.398 1371.64,436.398C1368.45,436.398 1365.06,437.258 1361.47,438.978C1357.88,440.699 1354.74,443.051 1352.06,446.037L1352.06,500C1350.09,500.405 1347.43,500.607 1344.09,500.607C1340.8,500.607 1338.12,500.405 1336.04,500ZM129.195,457.27C131.523,457.27 133.56,457.586 135.305,458.218C137.051,458.851 138.518,459.787 139.707,461.027C140.896,462.266 141.87,463.569 142.629,464.935C143.388,466.301 144.147,467.996 144.906,470.02L152.724,490.968C154.09,494.662 155.507,497.268 156.974,498.786C158.441,500.304 160.642,501.063 163.577,501.063C165.753,501.063 167.89,500.607 169.99,499.696C172.09,498.786 173.671,497.546 174.734,495.977C172.052,493.852 169.725,490.108 167.751,484.745L160.921,466.605C158.391,459.572 154.722,455.17 149.915,453.399C155.785,451.577 160.566,448.137 164.26,443.077C167.954,438.017 169.801,432.021 169.801,425.089C169.801,414.919 166.663,407.063 160.389,401.523C154.115,395.982 145.488,393.212 134.508,393.212C130.359,393.212 124.047,393.288 115.572,393.44C107.096,393.592 102.277,393.667 101.113,393.667L100.127,394.806L100.127,500C102.201,500.405 104.908,500.607 108.248,500.607C111.486,500.607 114.218,500.405 116.445,500L116.445,457.27L129.195,457.27ZM1170.74,500L1170.74,386.685L1171.65,385.774L1177.87,385.774C1181.11,385.774 1183.35,386.558 1184.59,388.127C1185.83,389.695 1186.45,392.327 1186.45,396.02L1186.45,432.223C1189.89,429.086 1193.74,426.594 1197.99,424.748C1202.24,422.901 1206.56,421.977 1210.96,421.977C1215.67,421.977 1219.62,423.128 1222.8,425.431C1225.99,427.733 1228.27,430.743 1229.63,434.462C1231,438.181 1231.68,442.52 1231.68,447.479L1231.68,483.53C1231.68,489.754 1232.49,494.459 1234.11,497.647C1231.28,499.924 1227.96,501.063 1224.17,501.063C1221.08,501.063 1218.9,500.228 1217.61,498.558C1216.32,496.888 1215.67,494.308 1215.67,490.816L1215.67,451.35C1215.67,445.986 1214.96,442.153 1213.55,439.851C1212.13,437.549 1209.57,436.398 1205.88,436.398C1202.79,436.398 1199.45,437.271 1195.86,439.016C1192.27,440.762 1189.13,443.102 1186.45,446.037L1186.45,500C1184.48,500.405 1181.82,500.607 1178.48,500.607C1175.39,500.607 1172.81,500.405 1170.74,500ZM756.034,421.066C756.135,427.847 756.54,439.814 757.248,456.966L759.753,500.152C762.738,500.658 766.305,500.911 770.454,500.911C775.767,500.911 780.018,500.506 783.205,499.696L775.008,393.971C770.303,393.161 764.711,392.757 758.235,392.757C752.365,392.757 747.129,393.161 742.524,393.971L733.189,432.072C733.087,432.527 732.607,434.766 731.747,438.789C730.886,442.811 730.052,446.821 729.242,450.818C728.432,454.815 727.825,457.952 727.42,460.23L726.358,460.23C726.004,457.953 725.422,454.816 724.612,450.818C723.803,446.821 722.955,442.811 722.07,438.789C721.184,434.766 720.691,432.527 720.59,432.072L711.406,393.971C706.7,393.161 701.463,392.757 695.695,392.757C689.117,392.757 683.526,393.161 678.922,393.971L670.725,499.696C673.913,500.506 678.112,500.911 683.324,500.911C687.574,500.911 691.192,500.658 694.177,500.152L696.53,456.966C697.34,442.293 697.744,430.326 697.744,421.066L698.807,421.066L714.062,484.289C717.807,484.896 722.057,485.2 726.813,485.2C731.671,485.2 735.972,484.896 739.716,484.289L755.123,421.066L756.034,421.066ZM1133.93,399.436L1127.86,399.436C1124.62,399.436 1122.39,400.22 1121.18,401.788C1119.96,403.357 1119.36,405.988 1119.36,409.682L1119.36,423.343L1107.82,423.04C1107.41,425.013 1107.21,426.986 1107.21,428.96C1107.21,431.186 1107.41,433.21 1107.82,435.032L1119.36,434.88L1119.36,484.593C1119.36,489.906 1120.75,493.903 1123.53,496.585C1126.31,499.266 1130.36,500.607 1135.67,500.607C1141.24,500.607 1147.03,500.253 1153.05,499.545C1153.26,498.836 1153.36,497.698 1153.36,496.129C1153.36,493.043 1152.95,490.336 1152.14,488.008L1141.37,488.008C1137.17,488.008 1135.07,485.731 1135.07,481.177L1135.07,434.728L1154.12,435.032C1154.67,433.159 1154.95,431.136 1154.95,428.96C1154.95,427.037 1154.67,425.064 1154.12,423.04L1135.07,423.495L1135.07,400.498L1133.93,399.436ZM255.565,428.96C255.565,426.835 255.767,424.861 256.172,423.04L268.771,423.192C268.113,416.26 267.784,411.655 267.784,409.378C267.784,402.294 269.922,396.488 274.198,391.96C278.473,387.431 284.33,385.167 291.768,385.167C295.108,385.167 298.624,385.508 302.318,386.192C306.012,386.875 309.123,387.722 311.653,388.734C311.653,390.657 311.312,392.643 310.629,394.692C309.946,396.741 309.047,398.373 307.934,399.587C302.723,398.019 298.27,397.235 294.576,397.235C290.984,397.235 288.163,398.373 286.114,400.65C284.064,402.927 283.04,406.14 283.04,410.289C283.04,413.78 283.394,418.132 284.102,423.343L306.037,423.04C306.442,424.861 306.644,426.835 306.644,428.96C306.644,431.186 306.442,433.21 306.037,435.032L285.241,434.728L285.241,500C283.015,500.405 280.358,500.607 277.272,500.607C274.185,500.607 271.605,500.405 269.53,500L269.53,434.728L256.172,435.032C255.767,433.21 255.565,431.186 255.565,428.96ZM1266.6,461.596C1266.6,465.492 1266.86,469.008 1267.39,472.146C1267.92,475.283 1268.8,478.23 1270.01,480.988C1271.23,483.745 1272.99,485.896 1275.29,487.439C1277.59,488.982 1280.34,489.754 1283.52,489.754C1286.71,489.754 1289.47,488.982 1291.8,487.439C1294.12,485.896 1295.91,483.758 1297.15,481.026C1298.39,478.293 1299.28,475.333 1299.84,472.146C1300.4,468.958 1300.67,465.441 1300.67,461.596C1300.67,457.801 1300.4,454.31 1299.84,451.122C1299.28,447.934 1298.39,444.962 1297.15,442.204C1295.91,439.446 1294.12,437.296 1291.8,435.753C1289.47,434.209 1286.71,433.438 1283.52,433.438C1280.34,433.438 1277.59,434.209 1275.29,435.753C1272.99,437.296 1271.23,439.446 1270.01,442.204C1268.8,444.962 1267.92,447.922 1267.39,451.084C1266.86,454.246 1266.6,457.75 1266.6,461.596ZM1049.91,477.914C1049.91,481.203 1050.83,483.922 1052.68,486.073C1054.53,488.223 1057.07,489.298 1060.31,489.298C1063.34,489.298 1066.48,488.502 1069.72,486.908C1072.96,485.314 1075.94,482.999 1078.67,479.963L1078.67,465.163C1074.58,464.758 1069.92,464.556 1064.71,464.556C1060.05,464.556 1056.42,465.732 1053.82,468.085C1051.21,470.438 1049.91,473.714 1049.91,477.914ZM429.644,434.121C434.815,434.157 439.961,436.485 445.081,441.103L445.081,478.825C442.754,481.658 440.047,483.897 436.96,485.542C433.874,487.186 430.762,488.008 427.625,488.008C423.526,488.008 420.174,485.845 417.568,481.519C414.963,477.193 413.66,470.653 413.66,461.899C413.66,452.792 415.114,445.885 418.024,441.179C420.933,436.474 424.766,434.121 429.522,434.121L429.644,434.121ZM819.864,477.155C819.864,479.28 820.522,481.026 821.837,482.392C823.153,483.758 824.873,484.441 826.998,484.441C830.742,484.441 834.411,482.948 838.003,479.963L838.003,467.516C833.854,467.313 831.071,467.212 829.655,467.212C823.127,467.212 819.864,470.526 819.864,477.155ZM527.278,455.069L495.857,455.069C496.262,448.086 497.792,442.685 500.449,438.864C503.105,435.044 506.862,433.134 511.719,433.134C516.982,433.134 520.89,434.994 523.446,438.713C526.001,442.432 527.278,447.226 527.278,453.095L527.278,455.069ZM604.998,455.069L573.576,455.069C573.981,448.086 575.511,442.685 578.168,438.864C580.824,435.044 584.581,433.134 589.439,433.134C594.701,433.134 598.61,434.994 601.165,438.713C603.72,442.432 604.998,447.226 604.998,453.095L604.998,455.069ZM230.822,455.069L199.401,455.069C199.805,448.086 201.336,442.685 203.992,438.864C206.649,435.044 210.406,433.134 215.263,433.134C220.525,433.134 224.434,434.994 226.989,438.713C229.545,442.432 230.822,447.226 230.822,453.095L230.822,455.069ZM999.589,452.26L979.097,452.26C979.401,447.099 980.349,443.33 981.943,440.952C983.537,438.574 986.004,437.384 989.343,437.384C992.784,437.384 995.352,438.624 997.047,441.103C998.742,443.583 999.589,446.745 999.589,450.591L999.589,452.26ZM116.445,444.063C124.54,443.861 130.309,443.76 133.749,443.76C137.392,443.76 140.517,443.229 143.123,442.166C145.728,441.103 147.689,439.636 149.005,437.764C150.32,435.892 151.269,433.931 151.851,431.882C152.433,429.833 152.724,427.568 152.724,425.089C152.724,412.541 146.399,406.266 133.749,406.266C125.755,406.266 119.986,406.216 116.445,406.115L116.445,444.063Z" style="fill:rgb(248,130,122);"/>
</svg>
