<?xml version="1.0" encoding="UTF-8" standalone="no"?>
<!DOCTYPE svg PUBLIC "-//W3C//DTD SVG 1.1//EN" "http://www.w3.org/Graphics/SVG/1.1/DTD/svg11.dtd">
<svg width="100%" height="100%" viewBox="0 0 1500 1000" version="1.1" xmlns="http://www.w3.org/2000/svg" xmlns:xlink="http://www.w3.org/1999/xlink" xml:space="preserve" style="fill-rule:evenodd;clip-rule:evenodd;stroke-linejoin:round;stroke-miterlimit:1.41421;">
    <g id="Artboard1" transform="matrix(1,0,0,1.08267,0,0)">
        <rect x="0" y="0" width="1500" height="923.642" style="fill:none;"/>
        <g transform="matrix(1,0,0,0.923642,0,0)">
            <rect x="0" y="0" width="1500" height="1000" style="fill:rgb(250,175,100);"/>
        </g>
        <g transform="matrix(3.26212,0,0,3.01303,-1684.25,-561.31)">
            <path d="M818.028,363.568C819.155,363.568 819.9,363.303 820.26,362.773C820.621,362.243 820.802,361.358 820.802,360.118L820.802,346.384C823.688,348.278 826.62,349.225 829.597,349.225C830.837,349.225 832.061,349.011 833.267,348.583C834.474,348.154 835.641,347.472 836.768,346.536C837.896,345.6 838.883,344.45 839.728,343.086C840.574,341.721 841.256,340.024 841.775,337.995C842.294,335.965 842.553,333.732 842.553,331.297C842.553,325.997 841.544,321.763 839.525,318.594C837.507,315.426 834.637,313.842 830.916,313.842C828.909,313.842 827.037,314.264 825.301,315.11C823.564,315.956 822.064,317.078 820.802,318.476L820.802,318.138C820.802,316.852 820.61,315.916 820.227,315.33C819.843,314.744 819.088,314.45 817.96,314.45L816.167,314.45L815.727,314.89L815.727,363.162L816.167,363.568L818.028,363.568ZM549.266,344.591C549.401,343.08 549.875,341.558 550.687,340.024C551.498,338.491 552.457,337.239 553.562,336.269C558.523,339.291 563.203,340.802 567.601,340.802C569.472,340.802 570.876,340.357 571.812,339.466C572.748,338.575 573.216,337.487 573.216,336.202C573.216,334.059 571.761,332.357 568.852,331.094L560.7,327.609C557.542,326.189 555.101,324.48 553.376,322.485C551.651,320.489 550.788,317.935 550.788,314.823C550.788,312.004 551.538,309.478 553.038,307.245C554.537,305.012 556.561,303.299 559.11,302.103C561.658,300.908 564.488,300.31 567.601,300.31C570.6,300.31 573.526,300.699 576.379,301.477C579.232,302.256 581.741,303.186 583.906,304.268C583.793,305.869 583.404,307.414 582.738,308.903C582.073,310.391 581.211,311.62 580.151,312.59C578.211,311.665 576.074,310.87 573.74,310.205C571.406,309.54 569.382,309.207 567.668,309.207C565.819,309.207 564.438,309.619 563.524,310.442C562.611,311.265 562.154,312.207 562.154,313.266C562.154,314.191 562.459,314.997 563.068,315.685C563.677,316.373 564.725,317.021 566.214,317.63L574.535,321.182C577.895,322.648 580.478,324.554 582.282,326.899C584.086,329.244 584.988,331.906 584.988,334.882C584.988,339.257 583.415,342.826 580.269,345.589C577.123,348.352 572.63,349.733 566.789,349.733C563.947,349.733 560.953,349.276 557.807,348.363C554.661,347.449 551.814,346.192 549.266,344.591ZM588.844,339.179C588.844,337.171 589.222,335.384 589.978,333.817C590.733,332.25 591.759,330.992 593.056,330.045C594.353,329.098 595.807,328.387 597.42,327.914C599.032,327.44 600.752,327.204 602.578,327.204C604.653,327.204 606.288,327.249 607.484,327.339L607.484,326.02C607.484,323.11 605.984,321.656 602.984,321.656C600.977,321.656 597.583,322.4 592.802,323.888C591.381,322.22 590.502,319.705 590.164,316.345C592.441,315.443 595.08,314.704 598.079,314.129C601.079,313.554 603.729,313.266 606.029,313.266C607.608,313.266 609.102,313.481 610.511,313.909C611.921,314.338 613.229,314.997 614.435,315.888C615.642,316.779 616.6,318.019 617.31,319.609C618.021,321.199 618.376,323.043 618.376,325.14L618.376,339.179C618.376,341.298 619.019,342.809 620.304,343.711C620.101,344.659 619.667,345.685 619.002,346.79C618.337,347.895 617.666,348.707 616.989,349.225C613.809,349.158 611.317,347.94 609.513,345.572C606.581,348.346 603.21,349.733 599.399,349.733C597.685,349.733 596.134,349.417 594.747,348.786C593.36,348.154 592.25,347.325 591.415,346.299C590.581,345.273 589.944,344.151 589.504,342.933C589.064,341.716 588.844,340.464 588.844,339.179ZM678.217,334.882C678.804,332.898 679.097,330.53 679.097,327.779C679.097,323.471 677.811,319.942 675.241,317.19C672.67,314.439 669.152,313.064 664.686,313.064C662.003,313.064 659.652,313.537 657.633,314.484C655.615,315.431 653.997,316.756 652.779,318.459C651.561,320.162 650.653,322.112 650.056,324.311C649.458,326.51 649.159,328.951 649.159,331.635C649.159,333.574 649.3,335.379 649.582,337.047C649.864,338.716 650.372,340.346 651.104,341.936C651.837,343.525 652.773,344.884 653.912,346.012C655.051,347.139 656.534,348.041 658.361,348.718C660.187,349.395 662.273,349.733 664.619,349.733C667.077,349.733 669.535,349.383 671.993,348.684C674.451,347.985 676.526,347.015 678.217,345.775C678.082,344.625 677.761,343.463 677.253,342.291C676.746,341.118 676.12,340.16 675.376,339.415C671.88,340.791 668.87,341.479 666.344,341.479C664.224,341.479 662.702,340.904 661.777,339.754C660.853,338.604 660.3,336.98 660.12,334.882L678.217,334.882ZM922.183,332.142C922.183,329.098 922.567,326.386 923.334,324.007C924.1,321.628 925.121,319.739 926.395,318.341C927.669,316.942 929.051,315.888 930.539,315.178C932.027,314.467 933.561,314.112 935.14,314.112C937.891,314.112 940.777,315.059 943.799,316.954L943.799,298.179L944.239,297.773L946.1,297.773C947.182,297.773 947.904,298.038 948.265,298.568C948.626,299.098 948.806,299.983 948.806,301.224L948.806,339.111C948.806,342.787 949.449,345.268 950.734,346.553C950.554,347.049 950.255,347.551 949.838,348.058C949.42,348.566 948.964,348.932 948.468,349.158C946.303,348.391 944.893,346.846 944.239,344.523C942.954,346.012 941.426,347.218 939.656,348.143C937.885,349.068 935.951,349.53 933.854,349.53C930.133,349.53 927.258,347.951 925.228,344.794C923.198,341.637 922.183,337.42 922.183,332.142ZM876.55,333.225C876.775,331.849 876.888,330.327 876.888,328.658C876.888,326.583 876.601,324.655 876.025,322.874C875.45,321.092 874.622,319.525 873.539,318.172C872.457,316.818 871.058,315.758 869.344,314.992C867.631,314.225 865.691,313.842 863.526,313.842C859.196,313.842 855.802,315.493 853.344,318.797C850.886,322.101 849.657,326.38 849.657,331.635C849.657,333.62 849.798,335.463 850.08,337.166C850.361,338.868 850.835,340.492 851.5,342.037C852.166,343.582 853.011,344.895 854.037,345.978C855.063,347.06 856.366,347.923 857.944,348.566C859.523,349.209 861.316,349.53 863.323,349.53C865.601,349.53 867.862,349.169 870.106,348.447C872.349,347.726 874.295,346.79 875.941,345.64C875.873,345.053 875.659,344.416 875.298,343.728C874.937,343.041 874.52,342.494 874.047,342.088C870.483,344.027 867.134,344.997 864,344.997C858.272,344.997 855.295,341.073 855.069,333.225L876.55,333.225ZM773.916,344.32C773.984,343.554 774.255,342.776 774.728,341.986C775.202,341.197 775.743,340.566 776.352,340.092C778.494,341.535 780.778,342.691 783.202,343.559C785.626,344.428 787.955,344.862 790.187,344.862C793.412,344.839 795.972,344.151 797.866,342.798C799.806,341.422 800.776,339.528 800.776,337.115C800.776,333.529 798.329,330.665 793.435,328.523L785.35,325.005C782.283,323.652 779.955,322.045 778.365,320.184C776.775,318.324 775.98,316.052 775.98,313.368C775.98,309.782 777.367,306.749 780.141,304.268C782.914,301.788 786.545,300.547 791.033,300.547C795.611,300.547 800.2,301.652 804.801,303.862C804.801,304.652 804.604,305.458 804.209,306.281C803.814,307.104 803.301,307.775 802.67,308.294C798.385,306.129 794.574,305.046 791.236,305.046C788.327,305.046 785.959,305.774 784.132,307.228C782.306,308.683 781.392,310.56 781.392,312.861C781.392,314.62 781.979,316.052 783.151,317.157C784.324,318.262 785.981,319.277 788.124,320.201L795.938,323.618C802.816,326.595 806.256,330.767 806.256,336.134C806.256,340.193 804.88,343.441 802.129,345.876C799.377,348.312 795.329,349.53 789.984,349.53C787.143,349.53 784.307,349.062 781.477,348.126C778.647,347.19 776.126,345.922 773.916,344.32ZM723.648,331.703C723.648,325.614 725.272,320.9 728.519,317.563C730.932,315.082 734.09,313.842 737.991,313.842C741.96,313.842 745.151,315.082 747.564,317.563C750.789,320.878 752.402,325.591 752.402,331.703C752.402,337.814 750.789,342.528 747.564,345.843C745.106,348.301 741.915,349.53 737.991,349.53C734.135,349.53 730.978,348.301 728.519,345.843C725.272,342.505 723.648,337.792 723.648,331.703ZM887.442,314.45L887.003,314.89L887.003,348.684C887.679,348.819 888.559,348.887 889.641,348.887C890.633,348.887 891.468,348.819 892.144,348.684L892.144,324.091C893.498,322.535 895.166,321.255 897.151,320.252C899.135,319.248 901.019,318.747 902.8,318.747C904.74,318.747 906.07,319.339 906.792,320.523C907.513,321.707 907.874,323.708 907.874,326.527L907.874,345.707C907.874,346.88 908.072,347.737 908.466,348.278C908.861,348.819 909.532,349.09 910.479,349.09C911.945,349.09 913.039,348.729 913.76,348.008C913.242,346.7 912.982,344.726 912.982,342.088L912.982,324.937C912.982,321.712 912.266,319.102 910.834,317.106C909.402,315.11 907.141,314.112 904.052,314.112C901.909,314.112 899.778,314.558 897.658,315.448C895.538,316.339 893.7,317.529 892.144,319.017L892.144,318.07C892.144,316.807 891.958,315.888 891.586,315.313C891.214,314.738 890.476,314.45 889.371,314.45L887.442,314.45ZM622.029,317.799C622.029,316.469 622.165,315.217 622.435,314.045L627.848,314.112C627.622,312.421 627.51,310.876 627.51,309.478C627.51,306.005 628.626,303.124 630.859,300.835C633.091,298.546 635.989,297.401 639.552,297.401C643.161,297.401 646.712,298.055 650.208,299.363C650.208,299.476 650.208,299.589 650.208,299.702C650.208,300.852 649.994,302.058 649.565,303.321C649.114,304.719 648.55,305.779 647.874,306.501C645.641,305.847 643.86,305.52 642.529,305.52C639.439,305.52 637.895,307.11 637.895,310.29C637.895,311.643 637.985,312.939 638.165,314.18L647.231,314.045C647.524,315.33 647.671,316.582 647.671,317.799C647.671,319.13 647.524,320.438 647.231,321.723L638.943,321.588L638.943,348.684C637.365,348.955 635.583,349.09 633.599,349.09C631.794,349.09 630.058,348.955 628.389,348.684L628.389,321.656L622.435,321.723C622.165,320.528 622.029,319.22 622.029,317.799ZM711.741,344.726C709.959,344.726 709.068,343.757 709.068,341.817L709.068,318.544L717.864,318.611C717.999,317.935 718.067,317.269 718.067,316.615C718.067,315.984 717.999,315.33 717.864,314.653L709.068,314.823L709.068,304.404L708.629,303.998L706.768,303.998C705.686,303.998 704.964,304.263 704.603,304.793C704.242,305.323 704.062,306.208 704.062,307.448L704.062,314.721L699.157,314.653C699.022,315.33 698.954,315.984 698.954,316.615C698.954,317.269 699.022,317.935 699.157,318.611L704.062,318.544L704.062,343.204C704.062,345.053 704.62,346.474 705.736,347.466C706.853,348.459 708.392,348.955 710.354,348.955C712.902,348.955 715.236,348.819 717.356,348.549C717.446,348.368 717.491,348.019 717.491,347.5C717.491,346.44 717.334,345.516 717.018,344.726L711.741,344.726ZM728.993,331.703C728.993,333.529 729.145,335.221 729.45,336.777C729.754,338.333 730.239,339.787 730.904,341.141C731.569,342.494 732.511,343.559 733.729,344.337C734.947,345.115 736.39,345.504 738.059,345.504C739.705,345.504 741.137,345.115 742.355,344.337C743.573,343.559 744.52,342.499 745.196,341.157C745.873,339.816 746.369,338.361 746.685,336.794C747.001,335.226 747.158,333.529 747.158,331.703C747.158,329.898 747.001,328.213 746.685,326.645C746.369,325.078 745.873,323.618 745.196,322.265C744.52,320.912 743.573,319.84 742.355,319.051C741.137,318.262 739.705,317.867 738.059,317.867C736.39,317.867 734.947,318.262 733.729,319.051C732.511,319.84 731.569,320.912 730.904,322.265C730.239,323.618 729.754,325.078 729.45,326.645C729.145,328.213 728.993,329.898 728.993,331.703ZM927.393,332.142C927.393,336.472 928.098,339.714 929.507,341.868C930.917,344.022 932.681,345.098 934.801,345.098C936.38,345.098 937.981,344.625 939.605,343.678C941.229,342.73 942.627,341.422 943.799,339.754L943.799,321.656C940.71,319.581 937.992,318.544 935.647,318.544C933.347,318.544 931.396,319.682 929.795,321.96C928.194,324.238 927.393,327.632 927.393,332.142ZM820.802,341.682C823.801,343.757 826.564,344.794 829.089,344.794C831.39,344.794 833.34,343.666 834.942,341.411C836.543,339.156 837.343,335.785 837.343,331.297C837.343,326.944 836.633,323.697 835.212,321.554C833.791,319.412 832.032,318.341 829.935,318.341C828.289,318.341 826.637,318.831 824.979,319.812C823.322,320.793 821.929,322.152 820.802,323.888L820.802,341.682ZM599.399,338.502C599.399,339.449 599.692,340.227 600.278,340.836C600.865,341.445 601.631,341.749 602.578,341.749C604.247,341.749 605.882,341.084 607.484,339.754L607.484,334.206C605.634,334.116 604.394,334.071 603.762,334.071C600.853,334.071 599.399,335.548 599.399,338.502ZM871.712,329.301L855.069,329.301C855.25,325.783 856.067,322.986 857.522,320.912C858.976,318.837 860.978,317.799 863.526,317.799C866.3,317.799 868.358,318.786 869.7,320.759C871.041,322.733 871.712,325.275 871.712,328.387L871.712,329.301ZM669.185,327.406L660.052,327.406C660.187,325.106 660.61,323.426 661.32,322.366C662.031,321.306 663.13,320.776 664.619,320.776C666.152,320.776 667.297,321.329 668.052,322.434C668.808,323.539 669.185,324.948 669.185,326.662L669.185,327.406Z" style="fill:white;"/>
        </g>
        <g transform="matrix(10.7602,0,0,9.93856,-2875.8,-104.718)">
            <path d="M320.315,65.069L320.315,42.915C320.315,41.668 319.65,40.515 318.569,39.892L299.384,28.815C298.303,28.191 296.972,28.191 295.892,28.815L276.706,39.892C275.626,40.515 274.961,41.668 274.961,42.915L274.961,65.069C274.961,66.316 275.626,67.469 276.706,68.093L295.892,79.169C296.972,79.793 298.303,79.793 299.384,79.169L318.569,68.093C319.65,67.469 320.315,66.316 320.315,65.069" style="fill:white;fill-rule:nonzero;"/>
        </g>
        <g transform="matrix(3.26212,0,0,3.01303,-1684.25,-561.31)">
            <path d="M549.266,344.591C549.401,343.08 549.875,341.558 550.687,340.024C551.498,338.491 552.457,337.239 553.562,336.269C558.523,339.291 563.203,340.802 567.601,340.802C569.472,340.802 570.876,340.357 571.812,339.466C572.748,338.575 573.216,337.487 573.216,336.202C573.216,334.059 571.761,332.357 568.852,331.094L560.7,327.609C557.542,326.189 555.101,324.48 553.376,322.485C551.651,320.489 550.788,317.935 550.788,314.823C550.788,312.004 551.538,309.478 553.038,307.245C554.537,305.012 556.561,303.299 559.11,302.103C561.658,300.908 564.488,300.31 567.601,300.31C570.6,300.31 573.526,300.699 576.379,301.477C579.232,302.256 581.741,303.186 583.906,304.268C583.793,305.869 583.404,307.414 582.738,308.903C582.073,310.391 581.211,311.62 580.151,312.59C578.211,311.665 576.074,310.87 573.74,310.205C571.406,309.54 569.382,309.207 567.668,309.207C565.819,309.207 564.438,309.619 563.524,310.442C562.611,311.265 562.154,312.207 562.154,313.266C562.154,314.191 562.459,314.997 563.068,315.685C563.677,316.373 564.725,317.021 566.214,317.63L574.535,321.182C577.895,322.648 580.478,324.554 582.282,326.899C584.086,329.244 584.988,331.906 584.988,334.882C584.988,339.257 583.415,342.826 580.269,345.589C577.123,348.352 572.63,349.733 566.789,349.733C563.947,349.733 560.953,349.276 557.807,348.363C554.661,347.449 551.814,346.192 549.266,344.591ZM588.844,339.179C588.844,337.171 589.222,335.384 589.978,333.817C590.733,332.25 591.759,330.992 593.056,330.045C594.353,329.098 595.807,328.387 597.42,327.914C599.032,327.44 600.752,327.204 602.578,327.204C604.653,327.204 606.288,327.249 607.484,327.339L607.484,326.02C607.484,323.11 605.984,321.656 602.984,321.656C600.977,321.656 597.583,322.4 592.802,323.888C591.381,322.22 590.502,319.705 590.164,316.345C592.441,315.443 595.08,314.704 598.079,314.129C601.079,313.554 603.729,313.266 606.029,313.266C607.608,313.266 609.102,313.481 610.511,313.909C611.921,314.338 613.229,314.997 614.435,315.888C615.642,316.779 616.6,318.019 617.31,319.609C618.021,321.199 618.376,323.043 618.376,325.14L618.376,339.179C618.376,341.298 619.019,342.809 620.304,343.711C620.101,344.659 619.667,345.685 619.002,346.79C618.337,347.895 617.666,348.707 616.989,349.225C613.809,349.158 611.317,347.94 609.513,345.572C606.581,348.346 603.21,349.733 599.399,349.733C597.685,349.733 596.134,349.417 594.747,348.786C593.36,348.154 592.25,347.325 591.415,346.299C590.581,345.273 589.944,344.151 589.504,342.933C589.064,341.716 588.844,340.464 588.844,339.179ZM678.217,334.882C678.804,332.898 679.097,330.53 679.097,327.779C679.097,323.471 677.811,319.942 675.241,317.19C672.67,314.439 669.152,313.064 664.686,313.064C662.003,313.064 659.652,313.537 657.633,314.484C655.615,315.431 653.997,316.756 652.779,318.459C651.561,320.162 650.653,322.112 650.056,324.311C649.458,326.51 649.159,328.951 649.159,331.635C649.159,333.574 649.3,335.379 649.582,337.047C649.864,338.716 650.372,340.346 651.104,341.936C651.837,343.525 652.773,344.884 653.912,346.012C655.051,347.139 656.534,348.041 658.361,348.718C660.187,349.395 662.273,349.733 664.619,349.733C667.077,349.733 669.535,349.383 671.993,348.684C674.451,347.985 676.526,347.015 678.217,345.775C678.082,344.625 677.761,343.463 677.253,342.291C676.746,341.118 676.12,340.16 675.376,339.415C671.88,340.791 668.87,341.479 666.344,341.479C664.224,341.479 662.702,340.904 661.777,339.754C660.853,338.604 660.3,336.98 660.12,334.882L678.217,334.882ZM622.029,317.799C622.029,316.469 622.165,315.217 622.435,314.045L627.848,314.112C627.622,312.421 627.51,310.876 627.51,309.478C627.51,306.005 628.626,303.124 630.859,300.835C633.091,298.546 635.989,297.401 639.552,297.401C643.161,297.401 646.712,298.055 650.208,299.363C650.208,299.476 650.208,299.589 650.208,299.702C650.208,300.852 649.994,302.058 649.565,303.321C649.114,304.719 648.55,305.779 647.874,306.501C645.641,305.847 643.86,305.52 642.529,305.52C639.439,305.52 637.895,307.11 637.895,310.29C637.895,311.643 637.985,312.939 638.165,314.18L647.231,314.045C647.524,315.33 647.671,316.582 647.671,317.799C647.671,319.13 647.524,320.438 647.231,321.723L638.943,321.588L638.943,348.684C637.365,348.955 635.583,349.09 633.599,349.09C631.794,349.09 630.058,348.955 628.389,348.684L628.389,321.656L622.435,321.723C622.165,320.528 622.029,319.22 622.029,317.799ZM599.399,338.502C599.399,339.449 599.692,340.227 600.278,340.836C600.865,341.445 601.631,341.749 602.578,341.749C604.247,341.749 605.882,341.084 607.484,339.754L607.484,334.206C605.634,334.116 604.394,334.071 603.762,334.071C600.853,334.071 599.399,335.548 599.399,338.502ZM669.185,327.406L660.052,327.406C660.187,325.106 660.61,323.426 661.32,322.366C662.031,321.306 663.13,320.776 664.619,320.776C666.152,320.776 667.297,321.329 668.052,322.434C668.808,323.539 669.185,324.948 669.185,326.662L669.185,327.406Z" style="fill:rgb(250,175,100);"/>
        </g>
    </g>
</svg>
