<?xml version="1.0" encoding="utf-8"?>
<!-- Generator: Adobe Illustrator 19.0.0, SVG Export Plug-In . SVG Version: 6.00 Build 0)  -->
<svg version="1.1" id="Layer_1" xmlns="http://www.w3.org/2000/svg" xmlns:xlink="http://www.w3.org/1999/xlink" x="0px" y="0px"
	 viewBox="0 0 2212.5 686.2" style="enable-background:new 0 0 2212.5 686.2;" xml:space="preserve">
<style type="text/css">
	.st0{fill:#0283C8;}
	.st1{fill:#0182C8;}
	.st2{fill:#0383C8;}
	.st3{fill:#0583C7;}
	.st4{fill:#0383C7;}
	.st5{fill:#0483C7;}
	.st6{fill:#0784C7;}
	.st7{fill:#0683C6;}
	.st8{fill:#0683C7;}
	.st9{fill:#0783C6;}
	.st10{fill:#0C84C5;}
	.st11{fill:#0B83C5;}
	.st12{fill:#0D84C4;}
	.st13{fill:#3981A2;}
	.st14{fill:#3B8DB5;}
	.st15{fill:#2381B4;}
	.st16{fill:#177AB0;}
	.st17{fill:#1D6D9C;}
	.st18{fill:#FCFDFE;}
</style>
<path class="st0" d="M1088.3,420.8c-11-19.7-22-39.4-33-59.2c-18.1-32.6-36.2-65.3-54.3-97.9c-0.6-1.1-2-1.8-3-2.6
	c-0.2-0.1-0.4-0.1-0.5,0c-0.1-0.1-0.2-0.1-0.3-0.1c-0.1,0-0.2,0.1-0.2,0.2c-0.1,1.4-0.1,2.7-0.1,4.1c0,49.4,0,98.9,0,148.3
	c0,3.4-0.1,6.7-0.1,10.1c-26.9,0-53.7,0-80.6,0c-4,0-4.7-0.9-4.7-5.3c0-95.3,0-190.7,0-286c0-1.3,0.1-2.6,0.2-4.2c1.9,0,3.4,0,4.9,0
	c21.2,0,42.5,0,63.7,0c8.4,0,16.7-0.1,25.1-0.2c11.5,20.8,23.1,41.6,34.6,62.5c16.8,30.5,33.5,61,50.3,91.5c0.5,0.9,0.9,1.8,1.3,2.7
	c1.2,1.7,2.2,1.4,2.7-0.4c0.3-1.2,0.1-2.5,0.1-3.7c0-49.2,0-98.5,0-147.7c0-1.4,0-2.9,0-4.7c1.8,0,3,0,4.3,0
	c25.2,0,50.5,0.1,75.7-0.1c3.5,0,4.1,1.1,4.1,4.3c-0.1,95.7-0.1,191.4,0,287.1c0,3.7-1.3,4.2-4.5,4.2c-24.7-0.1-49.5-0.1-74.2-0.1
	C1095.6,423.7,1091.4,424.4,1088.3,420.8z"/>
<path class="st0" d="M2070.3,129.6c31.9,5.4,62.7,25.1,70.2,61.2c5.5,26.4,1.8,51.5-14.2,73.9c-6.7,9.5-15.9,16.1-27,20.5
	c0.6,0.6,1,1,1.5,1.3c19.4,9.8,30.7,26.2,35.7,46.6c3,12.2,3.7,24.9,5.4,37.3c1.8,14,3.3,28,5.3,41.9c0.6,4,2.5,7.7,3.8,11.8
	c-30.7,0-61.2,0-92.4,0c-1.7-10.6-3.5-21.2-5-31.7c-1.9-14.1-3.2-28.3-5.4-42.3c-1.5-9.4-5.9-17.7-13.5-24c-1.4-0.9-2.8-1.8-4.2-2.8
	c0,0-0.3-0.1-0.3-0.1c-2.1-2.8-5-3.6-8.3-2.9l-0.4,0c0,0-0.3-0.1-0.3-0.1c-1.1-0.5-2.2-1.5-3.3-1.5c-17.9-0.1-35.9-0.1-53.8-0.1
	c-1,0-1.9,0.9-2.9,1.4c0,0,0,0.1,0,0.1c-0.5,1.4-1.4,2.7-1.4,4.1c-0.1,31.5-0.1,63-0.1,94.5c0,1.6-0.2,3.1-0.2,4.6
	c-0.9,0.1-1.2,0.3-1.6,0.3c-27.5,0-55,0-82.5,0c-3.3,0-4.2-1.8-4.2-4.8c0-96.9,0-193.7,0.1-290.6c1.9,0,3.7-0.1,5.6-0.1
	c57.6,0,115.2,0,172.8,0C2056.6,128.7,2063.4,129.2,2070.3,129.6z M1961.5,256.8c1,0.1,1.8,0.2,2.5,0.2c16.2,0,32.5,0.2,48.7,0
	c8.3-0.1,16.4-1.3,23.9-5.2c12.8-6.8,15.6-21.3,12.2-35c-1.6-6.7-5.7-12-12-14.4c-6.3-2.4-13.1-4.6-19.8-4.9
	c-17.7-0.8-35.5-0.5-53.2-0.7c-0.7,0-1.4,0.2-2.3,0.3C1961.5,216.9,1961.5,236.6,1961.5,256.8z"/>
<path class="st1" d="M1328.4,307.1c0,37.3,0,74.5,0,111.8c0,1.1-0.1,2.2-0.1,3.4c-1.7,0.5-3.5,1.4-5.2,1.4
	c-27.5,0.1-55,0.1-82.4,0.1c-1.2,0-2.4-0.1-3.8-0.2c0-1.9,0-3.4,0-4.9c0-93.9,0-187.9,0-281.8c0-1.9,0.1-3.8,0-5.6
	c-0.2-2.4,0.9-3,3.1-3c29.5,0.1,59,0.1,88.4,0.1c0,29.8,0.1,59.7,0.1,89.5c0,4,0,7.9,0,12.4c28.6,0,56.9,0,85.2,0
	c2.9-0.4,1.7-2.7,1.7-4.1c0.1-32.6,0.1-65.2,0.1-97.8c28.6,0,57.2,0,85.8-0.1c3.7,0,4.2,1.3,4.2,4.5c-0.1,95.4-0.1,190.9-0.1,286.3
	c0,1.5,0,2.9,0,4.8c-29.8,0-59.1,0-88.5,0c-0.5-2-1.5-3.9-1.5-5.9c-0.1-18.5-0.1-37-0.1-55.5c0-17.4,0-34.7,0-52.1
	c0-3.5-1.4-5.1-4.9-4.9c-1.9,0.1-3.7,0-5.6,0c-24.2,0-48.5,0-72.7,0C1330.6,305.3,1328.5,304.3,1328.4,307.1z"/>
<path class="st0" d="M675.8,128.3c0,3.2,0.1,6.5,0.1,9.7c0,51.8-0.2,103.7,0.1,155.5c0.1,10.7,1,21.5,3,32
	c3.6,18.8,16.3,29.7,35.4,30.6c7.6,0.4,15.6-0.1,22.9-2.1c16-4.4,22.7-17.2,25.5-32.5c0.8-4.4,1.2-8.9,1.8-13.3
	c0.3,0.3,0.6,0.6,1.2,1.3c0-1.8,0-3,0-4.2c0-57.5,0-114.9-0.1-172.4c0-3.9,1.1-4.7,4.8-4.7c28.4,0.2,56.7,0.1,85.1,0.1
	c0,2.5,0.1,5,0.1,7.5c0,58,0.1,116,0,173.9c0,19.1-2.3,37.9-9.3,55.8c-11,28.6-31.9,46.8-60.5,56.6c-17.7,6.1-36.1,8.6-54.8,9.1
	c-22.3,0.6-44.4-0.3-66.2-6c-32-8.4-57-25.4-70.7-56.6c-5.9-13.5-9-27.7-10-42.4c0-2.6,0-5.1,0-7.7c0-62.3,0-124.7-0.1-187
	c0-2.3,0.5-3.3,3.1-3.3C616.8,128.3,646.3,128.3,675.8,128.3z"/>
<path class="st2" d="M1830.8,318.9c-1,14.3-5,27.7-11.4,40.5c-19,38-49.8,60.9-91.3,68.8c-40.4,7.7-79.4,3-115.5-18
	c-30.5-17.8-50.3-44.6-60.6-78c-12.6-40.7-12.4-81.6,2.5-121.7c16.3-43.5,47.6-71.3,92.2-83.8c32.8-9.2,66-9.3,98.9-0.2
	c42.4,11.7,67.9,40.1,79.1,82c2,7.7,3.1,15.7,4.5,23.5c0.3,1.7,0.3,3.4,0.4,5.4c-29.7,0-59.1,0-88,0c-2.6-7-4.3-14.1-7.6-20.5
	c-9.2-17.8-24.8-24.5-44.1-23.6c-22.4,1.1-36.6,13.7-45,33.5c-9.2,21.6-10.4,44.3-7.6,67.4c1.8,15.4,6,30.1,15.3,42.9
	c17.7,24.7,54.4,23.3,69.3,10.2c8.4-7.4,12.8-17.1,15.8-27.5c1.1-3.8,2-7.7,3-11.6c26.6,0,53.1,0,79.7,0c3.2,0,7.6-1,9.3,0.7
	c1.7,1.6,0.7,6,0.9,9.2C1830.7,318.4,1830.8,318.6,1830.8,318.9z"/>
<path class="st3" d="M369.9,295.7c-0.5-10.2-0.5-20.5-1.7-30.6c-0.6-5.3-3.2-10.4-4.9-15.5c-3.7-10.7-8.3-21.2-11-32.2
	c-4.6-18.4-9.1-36.8-16.1-54.5c-3.5-8.8-6-18.1-5.4-27.8c0.1-1.6,0.4-3.2,0.9-4.8c1.9-5.5,5-6.7,9.6-3.1c3,2.4,5.9,5.6,7.4,9.1
	c3.5,7.9,6,16.1,9,24.2c2,5.5,3.8,11.1,6.2,16.4c2.5,5.7,6.6,8.8,10,7.4c4.3-1.8,3.8-6.4,4.1-10c0.9-9-2.3-17.1-6-25.2
	c-6-13-16.5-21.6-27.6-29.9c-11.2-8.4-21.9-17.4-32.2-26.7c-7.2-6.5-12.3-14.8-13.7-24.8c-0.3-1.8-0.1-3.8,0.4-5.5
	c1.3-4.2,4.1-5.6,7.7-3.2c6.8,4.5,14.1,8.9,19.6,14.8c19.1,20.6,41.8,37.1,61.6,56.8c8.5,8.4,16.1,17.7,23.8,26.8
	c3.4,4,4.5,9,4.7,14.3c1.1,28.4-0.8,56.7-2.9,84.9c-1.5,21.2-3.7,42.3-5.6,63.4c0,0.4-0.1,0.7-0.1,1.1c-0.3,9.2-0.3,9.5-9.2,10.7
	c-6.4,0.9-12.9,1.4-19.3,0.9c-7.5-0.6-9.6-3-9.9-10.5c-0.4-8.9-0.1-17.7-0.1-26.6C369.5,295.7,369.7,295.7,369.9,295.7z"/>
<path class="st3" d="M171,190.6c0-5.6,0-11.2,0-16.9c0-7.4,2.1-14.2,7.1-19.6c9.9-10.7,19.7-21.6,30.3-31.5
	c11.5-10.7,24-20.3,36-30.4c1.6-1.3,3.1-2.9,4.4-4.5c8.5-10.5,18.3-19.4,29.6-26.7c0.7-0.5,1.5-1.1,2.3-1.3c2.2-0.5,5.5-1.8,6.4-0.9
	c1.6,1.6,2.4,4.7,2.2,7.1c-0.5,7.1-3.6,13.4-7.8,19.2c-7.7,10.8-18,18.9-28.5,26.9c-7.9,6.1-16.5,11.4-23.7,18.3
	c-11.9,11.2-19.3,25.1-20.1,41.8c-0.1,2.9,0.6,5.9,1.4,8.8c1,3.9,4.1,5.3,7.2,2.7c2.6-2.1,5-5,6.2-8.1c3.4-8.6,5.8-17.5,9.2-26.1
	c2.5-6.5,5.6-12.7,9.1-18.8c2-3.4,5.8-6,9.8-4.8c4.1,1.3,4.8,5.7,5.1,9.7c0.8,9.1-1.6,17.7-4.6,26c-7.9,21.6-13.6,43.8-19.3,66
	c-2.2,8.7-5.7,16.9-10.6,24.6c-3.9,6.1-4.4,13.5-4.5,20.6c-0.2,15.9,0,31.7-0.1,47.6c0,8.4-0.5,12-11.8,12.6
	c-8.2,0.5-16.6-1.4-24.8-2.4c-0.7-0.1-1.7-1.4-1.7-2.3c-2.3-27.2-4.7-54.5-6.7-81.8c-1.3-18.6-1.9-37.2-2.9-55.7
	C170.6,190.6,170.8,190.6,171,190.6z"/>
<path class="st2" d="M324.7,290.2c-2.6,0.8-5.1,2.2-7.7,2.4c-5.7,0.4-5.5,0.1-5.5,5.7c0,10.3-0.2,20.7-0.4,31
	c-2.1,0.5-4.1,1.4-6.2,1.4c-9.1,0.2-18.3,0.1-27.4,0.2c-0.5-1.8-1.5-3.6-1.5-5.4c-0.2-8.7,0-17.4-0.1-26.1c0-2.1-0.4-4.2-0.6-6.3
	c-1.6-0.5-3.2-1.3-4.8-1.4c-5.8-0.2-7.2-1.5-7.2-7c0-8.2-0.2-16.5,0-24.7c0.8-27.8-1.8-55.6,1.4-83.4c2.5-2.7,4.9-5.5,7.7-7.9
	c1.6-1.5,3.9-2.2,5.8-3.4c7-4.4,8.2-9.6,3.5-16.4c-5.9-8.3-6.8-17.2-4.1-26.7c1.9-6.6,7.6-9.5,17.7-9.3c8.1,0.2,13.1,3.7,14.9,10
	c2.6,9.5,1.1,17.9-5.1,25.7c-5.9,7.3-4.6,12.6,3.7,17.2c2.8,1.6,5.8,3,8.5,4.8c4.1,2.8,6.7,6.6,7.6,11.6c0,3.9,0.1,7.7,0.1,11.6
	C324.8,226,324.7,258.1,324.7,290.2z"/>
<path class="st3" d="M569.4,597.7c-0.1-0.9-0.2-1.7-0.2-2.6c0-42.1,0-84.2,0-126.3c0-1.1,0.1-2.2,0.2-3.8c7.7,0,15.3,0.2,22.9-0.1
	c4.1-0.2,6.4,1.2,8.6,4.7c16.7,27.1,33.7,54,50.7,80.9c0.7,1.1,1.5,2.2,2.9,4.3c0-30.4,0-59.8,0-89.5c9.7,0,19,0,28.5,0
	c0,44.2,0,88.3,0,132.9c-0.9,0.1-2,0.3-3,0.3c-8,0-16-0.1-24,0.1c-2.5,0.1-3.8-1-5-2.9c-17.1-27.7-34.3-55.4-51.5-83.1
	c-0.6-1-0.7-4.2-3.4-1.9c-2.3-0.6-1.1,1.3-1.1,1.9c-0.1,26.9-0.1,53.8,0,80.7c0,3.7-1.1,4.6-4.6,4.5
	C583.3,597.5,576.3,597.7,569.4,597.7z"/>
<path class="st4" d="M822,465.8c15.8,0.7,29.6,13.9,31.3,30.6c0.5,4.9,0.4,10-0.2,14.9c-1.3,10.4-7.1,17.9-16.2,22.9
	c-0.9,0.5-1.7,1-2.5,1.6c-0.1,0.1-0.1,0.2-0.2,0.3c2.8,1.9,5.8,3.4,8.2,5.6c7,6.3,8.9,14.8,9.6,23.7c0.6,8,1.3,15.9,2.2,23.9
	c0.4,3,1.5,6,2.4,9.5c-3.3,0-6.5,0-9.7,0c-4.9,0-9.8-0.2-14.6,0.1c-3.2,0.2-4.6-1.2-5-4.1c-1.1-7.5-2.1-15.1-3.2-22.6
	c-0.5-3.7-0.9-7.5-1.7-11.1c-1.3-5.7-4.4-10.3-10.1-12.6c-0.9-0.5-1.7-1.4-2.6-1.4c-9.7-0.3-19.4-0.6-29.2-0.8c-2.8-0.1-5.5,0-9,0
	c-0.4,3.3-1.1,6.9-1.2,10.6c-0.2,12.5-0.1,25,0,37.5c0,2.8-0.7,3.7-3.6,3.6c-6.5-0.2-13-0.3-19.5,0c-3.5,0.2-4.1-1.1-4.1-4.3
	c0.1-41.2,0.1-82.5,0-123.7c0-3.4,1.1-4.1,4.3-4.1C772.3,465.8,797.1,465.8,822,465.8z M772.2,524.8c13.4,0,26.5,0.3,39.5-0.1
	c4.9-0.2,8.9-3.1,11.3-7.7c7.5-14.2-0.5-28.1-16.4-28.6c-0.4,0-0.7,0-1.1,0c-10.1,0-20.2,0-30.3,0c-0.9,0-1.9,0.2-2.9,0.3
	C772.2,500.9,772.2,512.8,772.2,524.8z"/>
<path class="st5" d="M548.3,562.6c-2.4,15-10,26.4-23.9,32.7c-20.3,9.2-41.3,9.6-62,1.7c-16.3-6.2-24.7-19.2-27.4-36
	c-0.6-3.6-0.9-7.2-0.9-10.8c-0.1-27.4,0-54.7,0-82.1c0-0.9,0.1-1.7,0.2-2.8c9.9,0,19.7,0,30.1,0c0,1.5,0,2.9,0,4.4
	c0,26.6-0.1,53.2,0.1,79.9c0,3.8,0.5,7.8,1.4,11.5c1.8,7.5,6.6,12.6,14.1,14.6c8.5,2.3,17.1,2.1,25.5-0.6c5.3-1.7,8.9-5.4,11.4-10.2
	c0.9-1.4,2.4-2.6,2.7-4.1c0.8-5.1,1.6-10.3,1.6-15.5c0.2-24.9,0.1-49.7,0.1-74.6c0-1.5,0-2.9,0-4.8c9.3,2,18.3-2.3,27,1.7
	c0,30.2,0,60.4,0,90.6C548.2,559.6,548.3,561.1,548.3,562.6z"/>
<path class="st6" d="M1656.8,608.2c6.4,8.6,16.6,11.9,26.9,8.7c5.4-1.7,9.3-5.2,11.8-10.2c2.6-5.2,3.7-20.7,1.7-25.8
	c-0.6,0.5-1.2,0.9-1.5,1.5c-7.8,12.3-19.6,15.6-33.2,14c-17.6-2-28.8-12.6-33.5-32c-4.2-17.1-3-33.8,7-49
	c10.1-15.3,30.8-21.1,47.1-13.7c5.1,2.4,9.2,5.9,12.2,10.7c0.5,0.8,1.2,1.4,2.6,1.9c0-3.8,0-7.5,0-11.6c8.7,0,16.8,0,25.2,0
	c0.1,1.2,0.2,2.3,0.2,3.4c0,29.4,0.1,58.7,0,88.1c-0.1,14.6-4.8,27-18.1,34.8c-7.8,4.6-16.5,6.3-25.5,6.8c-14,0.8-27.5-1-39.2-9.5
	c-5.4-3.9-9.3-9-10.8-15.7c0.1-1.2,0.3-2.4,0.4-3.9c6.8,0,13.4-0.1,20,0.1C1652.4,606.9,1654.6,607.7,1656.8,608.2z M1698.2,545.4
	c-0.5-2.3-1.1-7.1-2.7-11.5c-3.1-8.8-10.5-13.5-20.4-13.5c-9.4,0-16,4.1-19,12.9c-4,11.7-3.4,23.5,2.7,34.4
	c6.1,10.8,20.5,12.6,29.6,4.1C1695.5,565.3,1698,557,1698.2,545.4z"/>
<path class="st3" d="M1493.6,598.5c2.5-6.7,4.7-12.8,7-19c13.9-37.2,27.8-74.3,41.6-111.5c0.9-2.4,2-3.2,4.6-3.2
	c7.7,0.2,15.5,0.3,23.2,0c3.1-0.1,4.3,1.1,5.3,3.8c13.5,35.3,27.2,70.5,40.8,105.8c3,7.8,6,15.6,9.3,24.1c-2.2,0-3.8,0-5.5,0
	c-7.9,0-15.7-0.1-23.6,0.1c-2.5,0-3.5-0.8-4.2-3.1c-2.2-7.4-4.7-14.7-6.8-22.2c-0.7-2.5-2-3.2-4.5-3.2c-14.2,0.1-28.5,0.1-42.7,0
	c-2.4,0-3.8,0.6-4.6,3.1c-2.6,7.5-5.5,15-8.4,22.4c-0.5,1.1-1.8,2.7-2.8,2.7C1512.9,598.6,1503.6,598.5,1493.6,598.5z M1559.5,499.3
	c-6.1,16.4-11.8,31.7-17.5,47.2c11.3,0,22.1,0,33.2,0C1570,530.9,1565,515.7,1559.5,499.3z"/>
<path class="st7" d="M1177.9,615.6c4.9,0.7,9.8,2.3,14.6,2c8.9-0.5,15.1-5.8,17-14.4c1.5-6.7,1.4-13.7,2-20.6
	c-0.5-0.3-1.1-0.5-1.6-0.8c-0.3,0.7-0.5,1.4-0.9,1.9c-14.8,19.7-52.7,18.3-63.9-10c-8.1-20.4-8.2-40.7,4.6-59.3
	c12.1-17.5,38.4-21.2,54.1-8.1c2.5,2.1,5.1,4,7.1,5.6c0-2,0-5.4,0-9.2c8.4,0,16.5,0,25,0c0.1,1.2,0.2,2.3,0.2,3.5
	c0,28.9,0,57.7,0,86.6c0,11.7-2.5,22.6-11.4,31.1c-6.4,6.1-14.2,9.2-22.7,10.6c-13.8,2.3-27.4,2.3-40.3-3.8c-6.5-3.1-11.9-7.4-15-14
	c-0.3-1.4-0.3-2.9-0.9-4.2c-1.7-3.9-0.6-5.8,3.6-5.9c5.5,0,10.9,0.1,16.4,0c2.5-0.1,3.9,0.9,5.2,3.2
	C1172.4,612.5,1174.1,615.5,1177.9,615.6z M1211.2,546.3c-0.7-2.9-1.3-7.8-2.8-12.3c-3.1-8.9-10.5-13.6-20.2-13.6
	c-8.7,0-15.6,4.7-18.9,13.3c-4.1,10.8-3.4,21.7,1.3,32c6.1,13.2,22.6,15.6,32.8,5.1C1209.3,564.4,1210.7,556.4,1211.2,546.3z"/>
<path class="st8" d="M178.1,465c8,0,15.7,0,23.3,0c1,0,2,0.1,3.5,0.2c0,16.5,0,32.9,0,50c1.3-0.9,2-1.1,2.3-1.6
	c9-13.4,21.8-16.5,36.8-13.8c12.5,2.2,20.3,9.7,23.1,22c1.1,4.7,1.7,9.6,1.8,14.5c0.2,19.7,0.1,39.5,0.1,59.2c0,0.9-0.1,1.7-0.2,2.9
	c-8.8,0-17.4,0-26.5,0c0-1.5,0-2.8,0-4.1c-0.1-17.6-0.1-35.2-0.3-52.8c0-2.5-0.3-5-0.8-7.4c-1.7-8.3-5.1-12-11.7-13.2
	c-8.5-1.5-16.3,1.7-20.2,8.3c-3.6,6.1-4.2,13-4.3,19.9c-0.1,15.4,0,30.7,0,46.1c0,1-0.1,2-0.2,3.6c-3.9,0-7.7,0-11.5,0
	c-3.6,0-7.3-0.2-10.9,0.1c-3.3,0.2-4.5-0.6-4.5-4.2c0.2-14.2,0.1-28.5,0.1-42.7c0-27.6,0-55.2,0-82.9
	C177.9,467.7,178,466.6,178.1,465z"/>
<path class="st6" d="M1831.5,570c-3,9.8-8,17.6-15.9,23.4c-30.9,22.5-74.8,3.6-79.5-34.1c-3-24.1,6.9-45.1,26.8-55.2
	c22.7-11.6,58-6.2,67.9,29.6c1.7,6.2,2,12.8,2.9,19.2c0.5,3.5-0.6,5-4.6,4.9c-20.6-0.2-41.2-0.1-61.9-0.1c-1.5,0-2.9,0-4.4,0
	c0.1,11.4,6.1,20.6,15,23.3c11.1,3.4,23.2-0.1,29.2-8.8c1.3-1.8,2.5-2.4,4.6-2.4C1818.1,570,1824.5,570,1831.5,570z M1762.7,539.3
	c14.6,0,28.9,0,43.3,0c-2.8-12.7-9.9-19-20.9-18.9C1772.8,520.4,1765.2,526.7,1762.7,539.3z"/>
<path class="st6" d="M963.9,557.8c-23.1,0-45.9,0-68.5,0c-1.7,10.2,4.6,20.5,14,23.4c10.7,3.3,22.1-0.4,28.7-9.4
	c0.6-0.9,1.9-1.7,2.9-1.8c6.9-0.2,13.7-0.1,21-0.1c-0.3,1.3-0.4,2.2-0.7,3.1c-7.2,18.2-20.8,27.6-40,29c-13.8,1-26.7-1.5-37.4-11.1
	c-11-9.8-15.4-22.6-15.9-36.8c-0.8-20.9,6-38.4,24.8-49.5c19.9-11.7,56-8.7,67.8,26C963.5,539.3,964.6,548.1,963.9,557.8z
	 M936.7,539.4c-0.6-11.9-9.8-19.6-21.9-19c-11.4,0.6-20.1,8.8-19.8,19C908.9,539.4,922.7,539.4,936.7,539.4z"/>
<path class="st6" d="M1450.9,557.8c-22.9,0-45.6,0-68.2,0c-2.8,9.6,5.1,21.6,15.3,23.8c11.1,2.3,20.5-0.5,27.4-10
	c0.5-0.7,1.5-1.5,2.3-1.5c7-0.1,14-0.1,21.6-0.1c-0.7,2.1-1.2,3.7-1.9,5.2c-7.4,16.9-20.8,25.3-38.8,26.9c-10.8,0.9-21.3-0.5-30.8-6
	c-12.3-7.1-19-18.1-21.6-31.8c-3.1-16-1.5-31.4,8-45.2c11-15.9,26.7-22.1,45.6-19.8c19.6,2.4,32,14.1,38.2,32.5
	C1451.1,540.7,1451.9,549.9,1450.9,557.8z M1423.9,539.3c-1.1-12-9.7-19.5-21.4-19c-11.9,0.5-20.3,8.3-20.2,19
	C1396.1,539.3,1410,539.3,1423.9,539.3z"/>
<path class="st6" d="M375.7,570c-5.7,16.1-15.4,27.2-31.8,30.7c-20.9,4.4-39.4,0.2-52.9-17.6c-16-21.2-12.2-56.2,7.5-72.7
	c28.4-23.8,69-10.3,77,25.9c1.5,6.8,1.7,14,2.5,21.5c-23.9,0-46.7,0-69.8,0c0.1,8.6,2,15.8,9.1,20.6c10.5,7.2,26.5,4.2,33.9-6.2
	c0.7-1,2-2.2,3-2.2C361.1,569.9,368.1,570,375.7,570z M350.1,539.4c-0.3-11.9-8.4-19.2-20.7-19.1c-12,0.1-21,8.2-20.9,19.1
	C322.2,539.4,336,539.4,350.1,539.4z"/>
<path class="st6" d="M1344.3,570c-2.3,7.8-5.9,14-11.1,19.3c-10.6,10.8-24,13.8-38.5,12.7c-15.9-1.3-29.1-7.7-37.4-22
	c-11.2-19.3-11.1-53.4,11.9-71.2c20.6-15.9,61.6-16.5,74.1,23.2c2.6,8.3,3.6,16.7,2.8,25.8c-23,0-45.8,0-68.5,0
	c-1.5,9.4,3.6,18.8,11.8,22.5c10.9,4.8,23.8,1.3,31-8.5c0.5-0.7,1.4-1.6,2.2-1.6C1329.7,569.9,1336.7,570,1344.3,570z M1319.1,539.5
	c-0.9-13.2-9.5-20.2-23-19.1c-11.1,0.9-19.5,9.4-18.6,19.1C1291.2,539.5,1305,539.5,1319.1,539.5z"/>
<path class="st7" d="M2045,502.4c4.5,0,8.5,0,12.6,0c4,0,8,0.3,12-0.1c3.1-0.3,4.3,1.1,5.2,3.8c6.6,19.1,13.3,38.2,20,57.3
	c0.3,0.9,0.7,1.8,1.6,3.8c1.5-4.5,2.7-8,3.9-11.5c5.4-16.6,10.8-33.2,16.1-49.9c0.8-2.5,1.8-3.6,4.7-3.5c7.6,0.2,15.2,0.1,23.4,0.1
	c-1.9,5.3-3.5,10.1-5.2,14.8c-10.9,30.2-21.6,60.4-32.8,90.5c-2.2,6-5.6,11.8-9.6,16.7c-7,8.6-17.2,10.1-27.6,9.6
	c-5.1-0.2-10.1-1.3-15.4-2c0-6.9,0-13.8,0-21.3c4.5,0,9,0,13.4,0c9.9-0.1,15-7.3,11.5-16.6c-7.9-21.4-15.9-42.8-23.9-64.2
	c-3-8.1-6-16.1-9-24.2C2045.6,504.9,2045.4,503.9,2045,502.4z"/>
<path class="st7" d="M1844.1,598.6c0-32.1,0-63.9,0-95.9c8.8,0,17.3,0,26.3,0c0,3.5,0,6.9,0,11.1c1-0.7,1.4-0.9,1.6-1.2
	c10.6-13.2,24.6-15.8,40.2-12.6c13.9,2.8,21.6,11.7,23.3,26.5c0.7,5.8,0.8,11.7,0.8,17.6c0.1,17,0,34,0.1,51c0,2.7-0.6,3.8-3.5,3.7
	c-6.6-0.2-13.3-0.2-19.9,0c-3.2,0.1-3.7-1.1-3.7-3.9c0.1-16.9,0.1-33.7,0-50.6c0-3.7-0.5-7.5-1.4-11.1c-2.1-8-6.7-11.9-14.4-12.6
	c-8.8-0.8-16,2.8-19.5,9.7c-3.4,6.6-3.4,13.8-3.5,20.9c-0.1,14.5-0.1,29,0,43.5c0,3-0.6,4.2-3.9,4.1
	C1859.4,598.4,1851.9,598.6,1844.1,598.6z"/>
<path class="st9" d="M1100.8,502.6c9.3,0,17.9,0,26.7,0c0,31.9,0,63.6,0,95.6c-8.7,0-17.4,0-26.4,0c0-3.4,0-6.8,0-10.8
	c-1,0.6-1.6,0.8-1.9,1.2c-9.8,12.3-22.9,15.3-37.6,12.9c-15.1-2.4-22.9-10.2-25.5-25.3c-0.7-4.2-1.2-8.4-1.2-12.7
	c-0.1-19.5-0.1-39,0-58.5c0-0.6,0.1-1.2,0.2-2.2c8.8,0,17.6,0,26.6,0c0.1,1.1,0.2,2.2,0.2,3.3c0,17.5-0.2,35,0.1,52.5
	c0.1,4.6,1.2,9.4,2.6,13.8c1.5,4.5,5.3,6.8,9.9,7.7c14.8,2.9,24.8-4.4,25.5-19.5c0.8-15.1,0.5-30.2,0.7-45.3
	C1100.9,511.1,1100.8,507,1100.8,502.6z"/>
<path class="st5" d="M98.9,489.8c-13.2,0-26.4,0-39.9,0c0-8.2,0-16.3,0-24.6c36.7,0,73.3,0,110.1,0c0,8,0,16.1,0,24.6
	c-13.3,0-26.6,0-39.9,0c-0.3,1.5-0.9,3-0.9,4.5c-0.1,32.7,0,65.4,0,98.1c0,4.5-0.8,5.3-5.2,5.3c-5.6,0-11.2,0-16.9,0
	c-4.9,0-4.9,0-4.9-4.8c0-26.1,0-52.2,0-78.3c0-7.2,0-14.5,0-21.7C101.3,491.3,101.5,489.5,98.9,489.8z"/>
<path class="st9" d="M2045.3,536.3c-9.1,0-17.2,0.1-25.3-0.1c-0.8,0-2.1-1.2-2.4-2.1c-2.4-8.3-7.8-12.8-16.4-13.6
	c-8.9-0.8-16.7,1.8-20.9,10.1c-7.1,14-6.6,28.3,0.8,42c3.9,7.2,10.8,10.2,18.9,9.7c7.2-0.5,13-3.7,16-10.6c1.2-2.7,1.7-5.7,2.6-8.7
	c8.5,0,17.2,0,26.2,0c-1.6,11.4-6,21.1-14.5,28.5c-18.6,16.3-58.3,15.4-74.6-12c-12.4-20.9-8.4-56.2,11.9-70.9
	c16.2-11.8,34.1-12.4,52.4-5.7c10.9,4,18.9,11.6,22.7,22.8C2043.9,528.9,2044.4,532.3,2045.3,536.3z"/>
<path class="st6" d="M981.9,597.6c-0.1-8.6-0.2-17.2-0.2-25.8c0-15.9-0.1-31.7,0.1-47.6c0-2.9-0.7-4.1-3.7-3.9
	c-3.2,0.2-6.5,0.2-9.7-0.1c-1-0.1-2.6-1.3-2.6-2c-0.2-5.1-0.1-10.2-0.1-15.8c4.5,0,8.6-0.2,12.6,0.1c2.9,0.2,3.7-0.9,3.5-3.7
	c-0.4-6.7,0.1-13.3,3.4-19.3c5.7-10.1,15.2-13.6,26-14.3c4.9-0.3,10,0.3,14.9,0.6c2.6,0.1,3.9,1.2,3.8,4.2
	c-0.3,5.3-0.1,10.7-0.1,16.1c-16.6-3.6-23-0.5-20.8,16.2c6.1,0,12.3,0,18.8,0c0,6,0,11.7,0,17.8c-6.2,0-12.4,0-19.1,0
	c-0.1,1.8-0.2,3.3-0.2,4.7c0,23,0,46,0,69c0,1.3-0.2,2.7-0.4,4c0,0-0.2-0.3-0.2-0.3c0-25.1,0-50.3,0-75.4c-0.2,0-0.5,0-0.7,0
	c0,24.9,0,49.9,0,74.8c-5.7,0.2-11.4,0.6-17.1,0.7c-6.8,0.1-6.8,0-6.8-7c0-21.9,0-43.7,0-65.6c0-1-0.1-2-0.1-3c-0.2,0-0.4,0-0.6,0
	c0,1.2,0,2.4,0,3.7c0,22.6,0,45.2,0,67.8C982.5,595,982.1,596.3,981.9,597.6z"/>
<path class="st10" d="M282.1,410c-9.4-0.6-18.4,1.2-27.2,3.8c-9.4,2.8-18.7,6.3-28.2,8.7c-21.6,5.5-43.3,5.1-64.8-0.7
	c-2.6-0.7-4.9-2.4-7.4-3.7c0.1-0.3,0.2-0.7,0.4-1c2.5,0,5.1,0,7.6,0c11.6,0,22.2-4.5,33-7.7c24.9-7.3,50.4-10,76.3-7.8
	c4.3,0.4,8.7,1.2,12.9,2.3c5.8,1.6,11.2,1.7,17.2,0.2c21.2-5.5,42.7-4.1,64-0.4c13.3,2.3,26.2,7,39.5,10c7.7,1.7,15.7,2.2,23.6,3.1
	c1.2,0.1,2.4,0,3.6,0c0.1,0.3,0.3,0.7,0.4,1c-2.7,1.3-5.2,3.2-8,3.9c-26.2,6.8-52.1,5.7-77.7-3.5c-11.6-4.2-23.4-7.9-35.9-8.8
	c-1.9-0.1-3.9,0-5.9,0.3c16.9,7.9,32.2,17.7,45.2,31.9c-1.7,0.9-3.1,1.5-4.4,2.4c-2,1.3-3.4,0.9-5.1-0.9c-8.2-8.8-16.6-17.3-27-23.6
	c-3-1.8-6.2-3.3-9.2-5c-8.2-4.8-16-3.6-24.1,0.6c-12.6,6.4-22.9,15.4-32.5,25.5c-5,5.2-4.9,5.3-11.7,0.9
	C249.6,427.8,265.1,417.9,282.1,410z"/>
<path class="st11" d="M156.3,329.6c1.9,1,4.3,1.9,6.1,3.5c13.7,12.2,27,24.8,36,41.2c3.1,5.7,7.2,10.8,10.9,16.1
	c0.8,1.1,1.6,2.2,2.5,3.5c-0.8,0.4-1.3,0.8-1.8,0.9c-12.8,2.2-25.5,6.1-38.3,6c-21.4-0.1-40-8.7-54-25.6c-1-1.2-1.8-2.7-2.6-4.1
	c-0.2-0.4-0.3-0.9-0.6-1.8c0.8,0.3,1.3,0.3,1.6,0.5c7.6,4.3,15.6,7.3,24.3,8.2c17.2,1.7,33.4,7.2,49.8,12c2.5,0.7,5,1.3,7.5,1.9
	c0.2-0.3,0.3-0.7,0.5-1c-2-1.4-4-2.9-6.1-4.3c-3.2-2.2-6.4-4.3-9.6-6.5c-9-6.3-14.5-14.9-17.7-25.3
	C162.1,346.5,159.2,338.2,156.3,329.6z"/>
<path class="st11" d="M473.3,369.4c-7.9,13-19.6,20-32.6,25.8c-22.6,10.1-44.2,5.5-65.3-1.2c1.5-2.1,3.2-3.9,4.4-6
	c4-6.5,7.7-13.1,11.7-19.5c2.3-3.7,4.4-7.6,7.3-10.8c7.4-8.1,15.1-15.9,22.9-23.6c2.1-2.1,5.1-3.3,7.7-4.9
	c-2.9,8.4-5.3,16.4-8.3,24.1c-2.5,6.2-5.3,12.4-8.8,18c-4.2,6.7-10.9,10.8-17.6,14.9c-2.5,1.5-5,3.1-7.5,4.7
	c0.1,0.4,0.3,0.8,0.4,1.2c2.9-0.7,5.8-1.2,8.6-2c10.7-3.1,21.2-6.6,32-9.2c9.1-2.2,18.5-2.8,27.6-5
	C461.8,374.6,467.2,371.8,473.3,369.4z"/>
<path class="st10" d="M81.1,305.7c1.4,1.6,2.8,3.1,4.2,4.7c7.2,8,15.1,15.1,24.1,21.2c7.3,4.9,13.7,11.1,20.5,16.8
	c2.9,2.4,5.7,4.8,8.8,6.9c1.4,0.9,3.3,1,5,1.5c0.3-0.3,0.6-0.7,0.9-1c-1.2-2.8-2.2-5.7-3.6-8.4c-8.7-17.4-11.8-35.9-11-55.2
	c0-0.2,0.2-0.4,0.9-1.4c3.7,5.6,7.3,10.9,10.7,16.3c8.7,13.3,11.4,28.3,12.7,43.7c0.6,6.6,1.6,13.1,2.5,20.3
	c-12.7-6.1-26.8-5.4-38.9-11.9c-16.4-8.9-28.4-21.4-35.2-38.7c-1.8-4.5-2.3-9.5-3.3-14.2C80,306,80.5,305.8,81.1,305.7z"/>
<path class="st11" d="M455.5,292c1.5,22.5-4,43.7-14.9,63.7c4.1,1.6,6.6-0.1,8.8-1.8c6.6-5.3,13-10.8,19.6-16.2
	c2.3-1.9,4.6-3.9,7.1-5.4c10.6-6.3,19.7-14.5,27.8-23.7c0.8-0.9,1.7-1.8,3.3-3.5c-0.2,2.3-0.1,3.8-0.5,5.2
	c-5.1,19.9-16.4,35.2-34,45.9c-7.4,4.5-15.3,7.8-23.9,9.3c-6.5,1.1-12.8,3.1-19.3,4.7C430.9,341.8,434.4,314,455.5,292z"/>
<path class="st10" d="M90,195c0.8-1.6,1.6-3.2,2.3-4.9c6.9-17.7,20.5-29.7,35.2-40.7c-5.4,12.9-7.6,27.2-17.1,38.2
	c-2.5,2.9-5.6,5.4-7.8,8.6c-5.4,7.6-10.4,15.4-15.4,22.9c-16.8-18.2-16.3-82,1.9-95.1c0,3-0.2,5.8,0,8.6c0.6,6.6,1.7,13.1,2.2,19.7
	c0.4,5.9,0.3,11.9,0.1,17.9C91.1,178.4,90.5,186.7,90,195c-0.1,0.1-0.3,0.2-0.4,0.2c0,0.1,0.1,0.2,0.1,0.3
	C89.8,195.3,89.9,195.1,90,195z"/>
<path class="st10" d="M497.2,193.4c-6.6-23-0.3-45.9,0.2-69.3c1.4,1.8,3.2,3.5,4.3,5.5c5.7,10.7,8.1,22.3,8.9,34.2
	c1.3,19.3-2,37.8-11.7,54.9c-0.2,0.4-0.5,0.8-1,1.5c-1.7-3.6-3-7.1-5-10.1c-3.6-5.5-7.2-11.2-11.8-15.9
	c-6.9-7.2-11.5-15.6-15.3-24.6c-2.1-5-4-10.2-6-15.3c-0.4-1-0.4-2.1-0.7-3.9c9,5.3,16,11.8,22.5,18.8
	C488.3,176.3,493.2,184.5,497.2,193.4z"/>
<path class="st10" d="M115.3,236.6c9.3,26.5,10.5,53.2,2.2,80.4c-21.5-0.5-55-43-52.8-67.8c0.6,0.9,0.9,1.4,1.3,1.9
	c4.7,5.9,8.9,12.4,14.3,17.6c11.1,10.5,21.8,21.2,30.2,34.4c-0.1-1.7,0.3-3.7-0.4-5.2c-4.4-9-3.9-18.6-2.9-27.9
	c0.9-8.6,3.3-17.1,5.1-25.6c0.5-2.6,1.2-5.2,1.8-7.8C114.5,236.6,114.9,236.6,115.3,236.6z"/>
<path class="st10" d="M468.3,317.3c-4.6-27.4-7.3-54.5,3.5-80.9c0.5,0,1,0,1.5-0.1c1.8,12.6,4,25.1,5.1,37.7
	c0.8,8.3,0.8,16.7-3.3,24.6c-0.7,1.3-0.2,3.1-0.3,5c0.7-0.3,1.1-0.4,1.3-0.6c8.2-12.8,18.7-23.7,29.6-34.1c4.4-4.2,7.9-9.3,11.8-14
	c0.7-0.8,1.4-1.6,2.3-2.5C526.2,269.8,492.3,312.4,468.3,317.3z"/>
<path class="st12" d="M60.5,183.4c9.6,19.3,21.9,37.1,26.1,58.6c0.6,3.2,2.8,6.1,5.1,9.1c-1.2-21.8,8.4-39.2,20.6-56.5
	c3,7.8,3.9,15.2,1.7,22.5c-1.9,6.3-4.5,12.5-7.8,18.1c-4.9,8.3-8.8,16.8-10.6,26.2c-0.2,0.8-0.5,1.6-0.7,2.5
	C78.7,256.9,51.4,207.8,60.5,183.4z"/>
<path class="st12" d="M496.2,250.3c0.9-2.1,1.9-4.1,2.6-6.2c1.6-5.4,3-10.8,4.6-16.2c2.7-8.9,6.6-17.1,11.8-24.9
	c4-6,6.9-12.8,10.6-19.6c0.4,3.8,1.3,7.8,1.1,11.8c-0.7,18-7.5,34-17.2,48.8c-4.3,6.5-10,12-15.1,17.9c-0.8,0.9-1.9,1.5-3.4,2.6
	c-0.4-2-1-3.5-1.1-5c-0.6-6.7-3.2-12.7-6.7-18.4c-7.1-11.4-12.1-23.5-11.3-37.3c0.1-2.4,0.6-4.7,0.9-7c0.1-0.4,0.4-0.9,1-1.9
	c11.4,17.1,21.4,34.2,21.5,55.2C495.5,250.1,495.8,250.2,496.2,250.3z"/>
<path class="st12" d="M151.5,110.3c-9.1,14.2-17.4,28.5-32.3,37.6c-7,4.3-12.9,10.5-19.7,16.1c-0.8-3.4-2.3-7.1-2.4-10.8
	c-0.2-9.6-0.8-19.3,0.8-28.7c1.9-10.8,6.9-20.8,14.4-29.2c2.2-2.4,5.3-3.9,7.9-5.8c0.3,0.3,0.6,0.5,1,0.8c-0.7,2.4-1.6,4.8-2.1,7.3
	c-1.6,7.5-2.9,15.2-4.8,22.6c-1.7,6.5-4.1,12.8-6.1,19.2c-0.5,1.4-0.9,2.9-0.7,4.7C118.6,128.5,132.4,116.4,151.5,110.3z"/>
<path class="st12" d="M478.8,144c-0.2-0.9-0.1-2-0.5-2.8c-4.4-9.3-6.9-19-7.8-29.4c-0.6-7.2-3.2-14.2-5-21.5
	c5.3,1.6,9.1,5.3,12.2,9.8c7.2,10.3,10.8,21.8,11.5,34.3c0.6,10.2,0,20.1-3.5,30.8c-9.7-14.4-26.5-20.1-36.3-33.5
	c-5.1-7-10.4-13.9-15.2-21c19.3,5.4,32.7,18.1,43.5,34.2C478.1,144.5,478.4,144.2,478.8,144z"/>
<path class="st13" d="M1088.3,420.8c3.1,3.6,7.3,2.9,11.3,2.9c24.7,0,49.5,0,74.2,0.1c3.2,0,4.5-0.6,4.5-4.2
	c-0.1-95.7-0.1-191.4,0-287.1c0-3.2-0.6-4.3-4.1-4.3c-25.2,0.2-50.5,0.1-75.7,0.1c-1.2,0-2.5,0-4.3,0c0,1.8,0,3.3,0,4.7
	c0,49.2,0,98.5,0,147.7c0,1.2,0.2,2.6-0.1,3.7c-0.5,1.7-1.6,2.1-2.7,0.4c1.9,0.8,2.1-0.4,2.1-1.8c0-4.2,0-8.5,0-12.7
	c0-46.4,0-92.7,0-139.1c0-1.1,0-2.2,0-3.7c28.6,0,57,0,85.7,0c0,98.9,0,197.8,0,297c-1.1,0.1-2.1,0.2-3,0.2c-27.5,0-55,0-82.5,0.1
	C1090.6,424.6,1088.9,423.7,1088.3,420.8z"/>
<path class="st13" d="M1416.8,423.7c29.3,0,58.6,0,88.5,0c0-1.9,0-3.3,0-4.8c0-95.4,0-190.9,0.1-286.3c0-3.2-0.6-4.5-4.2-4.5
	c-28.6,0.2-57.2,0.1-85.8,0.1c-0.3,0-0.5,0-0.8,0c-0.2,0-0.4,0-0.6,0c0.8-0.4,1.7-1.2,2.5-1.2c29.2-0.1,58.5-0.1,87.7,0
	c0.6,0,1.2,0.2,2,0.3c0,99,0,197.9,0,297.1c-1.3,0.1-2.4,0.2-3.5,0.2c-28.4,0-56.7,0-85.1,0c-1.3,0-2.5-0.5-3.8-0.8
	C1414.8,423.7,1415.8,423.7,1416.8,423.7z"/>
<path class="st12" d="M464.3,122c-5.6-8.1-14.1-11.6-21.3-16.9c-7.3-5.3-12.8-12.8-16.1-21.6c-0.4-1.2-0.2-2.7-0.3-4.5
	c1.5,0.3,2.6,0.3,3.5,0.7c14.1,7.1,26.3,16.2,33.4,30.8C465.8,115.2,465.9,118,464.3,122z"/>
<path class="st12" d="M159.2,78.9c-0.1,2.4,0.3,4.5-0.4,6.2c-1.1,2.7-2.8,5.3-4.6,7.6c-5.6,7.2-11.6,13.8-20.1,18
	c-4.9,2.4-8.8,6.8-13.6,10.7c0-1.5-0.4-3.2,0.1-4.7c0.9-2.9,1.9-6,3.6-8.6c7.8-11.5,17.5-21.1,29.9-27.6c0.9-0.5,1.8-0.8,2.8-1.2
	C157.3,79.3,157.8,79.2,159.2,78.9z"/>
<path class="st14" d="M1871.3,128.4c0,96.9,0,193.7-0.1,290.6c0,3,1,4.8,4.2,4.8c27.5,0,55,0,82.5,0c0.4,0,0.7-0.1,1.6-0.3
	c0.1-1.5,0.2-3,0.2-4.6c0-31.5,0-63,0.1-94.5c0-1.4,0.9-2.7,1.4-4.1c0.1,5.5,0.2,11,0.2,16.5c0,27.5,0,55,0,82.5c0,1.6,0,3.2,0,5.3
	c-1.6,0-3,0-4.3,0c-27.5,0-55-0.1-82.5,0.1c-3.6,0-4.3-1.1-4.3-4.4c0.1-96.5,0.1-193,0.1-289.4c0-1.1,0.5-2.3,0.7-3.4
	c0.1,0.1,0.2,0.2,0.3,0.3C1871.3,127.9,1871.3,128.1,1871.3,128.4z"/>
<path class="st15" d="M822,465.8c-24.9,0-49.7,0.1-74.6,0c-3.2,0-4.3,0.6-4.3,4.1c0.1,41.2,0.1,82.5,0,123.7c0,3.2,0.6,4.4,4.1,4.3
	c6.5-0.3,13-0.2,19.5,0c2.9,0.1,3.6-0.9,3.6-3.6c-0.1-12.5-0.2-25,0-37.5c0-3.7,0.8-7.4,1.2-10.6c3.5,0,6.3-0.1,9,0
	c9.7,0.2,19.4,0.4,29.2,0.8c0.9,0,1.7,0.9,2.6,1.4c-12.5-0.4-24.9-0.7-37.4-1.1c-3-0.1-2.7,1.9-2.7,3.8c0,14.5,0,29,0,43.5
	c0,1.2,0,2.5,0,4.2c-4,0-7.7,0-11.4,0c-5.2,0-10.5-0.1-15.7,0.1c-2.8,0.1-3.6-0.7-3.6-3.6c0.1-39.9,0.1-79.7,0.1-119.6
	c0-3.3,0-6.7,0-10.2c1.3-0.1,2.3-0.3,3.2-0.3c23.6,0,47.2,0,70.9,0C817.8,465,819.9,465.5,822,465.8z"/>
<path class="st13" d="M1328.2,128.3c-29.5,0-59,0-88.4-0.1c-2.2,0-3.3,0.6-3.1,3c0.1,1.9,0,3.7,0,5.6c0,93.9,0,187.9,0,281.8
	c0,1.5,0,3,0,4.9c1.4,0.1,2.6,0.2,3.8,0.2c27.5,0,55,0,82.4-0.1c1.7,0,3.5-0.9,5.2-1.4c-0.4,0.7-0.6,1.6-1.2,2.2
	c-0.3,0.3-1.2,0.1-1.8,0.1c-29,0-58,0-86.9,0c-0.6,0-1.2-0.1-2.2-0.2c0-98.9,0-197.8,0-297.1c1.1-0.1,2.2-0.3,3.4-0.3
	c28.5,0,57,0,85.4,0C1326.1,127.1,1327.2,127.9,1328.2,128.3z"/>
<path class="st13" d="M1005.3,128.1c-8.4,0.1-16.7,0.1-25.1,0.2c-21.2,0-42.5,0-63.7,0c-1.5,0-3,0-4.9,0c-0.1,1.5-0.2,2.9-0.2,4.2
	c0,95.3,0,190.7,0,286c0,4.5,0.7,5.3,4.7,5.3c26.9,0,53.7,0,80.6,0c0,0,0.4,0,0.4,0l0.4-0.1c0.1,0.1,0.2,0.2,0.3,0.3
	c-0.8,0.2-1.6,0.6-2.4,0.6c-27.5,0-55,0-82.5,0c-0.6,0-1.2-0.1-2.1-0.2c0-99,0-197.8,0-297.3c1.3,0,2.6,0,3.9,0
	c28.7,0,57.5,0,86.2,0C1002.3,127,1003.8,127.7,1005.3,128.1z"/>
<path class="st16" d="M548.3,562.6c0-1.5-0.1-3-0.1-4.5c0-30.2,0-60.5,0-90.6c-8.7-4-17.7,0.3-27-1.7c0,1.9,0,3.3,0,4.8
	c0,24.9,0.1,49.7-0.1,74.6c0,5.2-0.8,10.4-1.6,15.5c-0.2,1.5-1.7,2.7-2.7,4.1c0.8-6.6,2.2-13.3,2.3-19.9c0.3-25.2,0.2-50.4,0-75.6
	c0-3.2,0.6-4.4,4.1-4.3c7.6,0.3,15.2,0.1,22.8,0.1c1.1,0,2.2,0.5,3.4,0.8c-0.2,0.7-0.5,1.4-0.5,2.1c0,30.3,0,60.6,0,91
	C548.8,560.1,548.6,561.3,548.3,562.6z M520.3,548.1c-0.1,0-0.3,0-0.4,0c0,0.5,0.1,1.1,0.1,1.6c0.1,0,0.2,0,0.3,0
	C520.3,549.2,520.3,548.7,520.3,548.1z"/>
<path class="st13" d="M675.8,128.3c-29.5,0-59,0-88.4-0.1c-2.6,0-3.1,1-3.1,3.3c0.1,62.3,0.1,124.7,0.1,187c0,2.6,0,5.1,0,7.7
	c-0.3-4.5-0.9-8.9-0.9-13.4c-0.1-60.7,0-121.4,0-182c0-1.1,0-2.2,0-3.8c1.7,0,3,0,4.3,0c28.2,0,56.4,0,84.6,0.1
	C673.5,127.1,674.6,127.9,675.8,128.3z"/>
<path class="st17" d="M855.5,128.3c-28.4,0-56.7,0.1-85.1-0.1c-3.7,0-4.8,0.8-4.8,4.7c0.1,57.5,0.1,114.9,0.1,172.4
	c0,1.2,0,2.5,0,4.2c-0.6-0.7-0.9-1-1.2-1.3c0.1-4.7,0.2-9.5,0.2-14.2c0-54.2,0-108.4,0-162.6c0-1.2,0-2.5,0-4.1
	c1.6-0.1,2.9-0.2,4.2-0.2c27.7,0,55.4,0,83.2,0C853.3,127.1,854.4,127.9,855.5,128.3z"/>
<path class="st16" d="M1416.8,423.7c-1,0-2,0-3,0c0-0.3,0-0.5,0-0.8c0.2-1.3,0.6-2.6,0.6-3.9c0-34.6,0-69.2,0-103.8
	c0-1.3-0.4-2.6-0.6-3.9c-0.1-1.2-0.3-2.5-0.4-3.9c-0.6-0.1-1.2-0.4-1.7-0.4c-27.8,0-55.6,0.1-83.4,0.1c0.1-2.8,2.3-1.8,3.6-1.8
	c24.2-0.1,48.5,0,72.7,0c1.9,0,3.8,0.1,5.6,0c3.5-0.2,4.9,1.4,4.9,4.9c-0.1,17.4,0,34.7,0,52.1c0,18.5,0,37,0.1,55.5
	C1415.3,419.7,1416.3,421.7,1416.8,423.7z"/>
<path class="st16" d="M98.9,489.8c2.6-0.3,2.3,1.5,2.3,3.2c0,7.2,0,14.5,0,21.7c0,26.1,0,52.2,0,78.3c0,4.8,0,4.8,4.9,4.8
	c5.6,0,11.2,0,16.9,0c4.4,0,5.2-0.8,5.2-5.3c0-32.7,0-65.4,0-98.1c0-1.5,0.6-3,0.9-4.5c-0.2,1.7-0.6,3.4-0.6,5.1c0,32.5,0,65,0,97.4
	c0,1.9,0,3.7,0,6.2c-4,0-7.7,0-11.4,0c-4.6,0-9.3-0.2-13.9,0.1c-3.2,0.2-4.1-1.1-3.3-4c0-1,0-1.9,0-2.9c0-1,0-2.1,0-3.1
	c0.1-1.1,0.4-2.2,0.4-3.3c0-30.3,0-60.5,0-90.8c0-1.1-0.3-2.2-0.4-3.3C99.7,490.8,99.3,490.3,98.9,489.8z"/>
<path class="st15" d="M264.7,176.7c-3.2,27.7-0.6,55.6-1.4,83.4c-0.2,8.2,0,16.5,0,24.7c0,5.6,1.4,6.8,7.2,7
	c1.6,0.1,3.2,0.9,4.8,1.4c-2.1-0.1-4.2-0.3-6.3-0.4c-5.8-0.3-7.2-1.8-7.2-7.6c0-27,0-54,0-81c0-5.7-0.3-11.5,0.2-17.2
	C262.2,183.5,263.7,180.2,264.7,176.7z"/>
<path class="st14" d="M2070.3,129.6c-6.8-0.5-13.7-0.9-20.5-1.4c-1.3-0.2-2.6-0.6-3.9-0.6c-8-0.1-16,0-24,0
	c-50.2,0-100.3,0-150.5,0.1c-0.1-0.1-0.2-0.2-0.3-0.3c1.2-0.1,2.4-0.4,3.7-0.4c57.1,0,114.3-0.1,171.4,0.1
	C2054.2,127.1,2062.3,128.7,2070.3,129.6z"/>
<path class="st14" d="M324.7,290.2c0-32.1,0.1-64.2,0.1-96.2c0-3.9-0.1-7.7-0.1-11.6c0.5,3,1.3,6.1,1.3,9.1c0.1,30.7,0.1,61.3,0,92
	C326,285.7,325.1,287.9,324.7,290.2z"/>
<path class="st17" d="M569.4,597.7c6.9,0,13.9-0.1,20.8,0.2c3.5,0.1,4.7-0.8,4.6-4.5c-0.2-26.9-0.1-53.8,0-80.7
	c0-0.6-1.2-2.5,1.1-1.9c0,13.6,0.1,27.2,0.1,40.9c0,14.4,0,28.7,0,43.1c0,1.1-0.1,2.2-0.2,3.8c-7.4,0-14.6,0.1-21.8,0
	C572.6,598.5,571,598,569.4,597.7z"/>
<path class="st15" d="M1830.8,318.9c0-0.2-0.1-0.5-0.1-0.7c-0.2-3.2,0.8-7.6-0.9-9.2c-1.8-1.7-6.1-0.7-9.3-0.7
	c-26.6,0-53.1,0-79.7,0c1.3-0.5,2.5-1.5,3.8-1.5c20.7-0.1,41.4-0.1,62.2-0.1c8.2,0,16.4,0,25.3,0
	C1831.6,311.1,1831.2,315,1830.8,318.9z"/>
<path class="st13" d="M997.4,261c0.2,0,0.4,0,0.5,0c0,52.2,0.1,104.3,0.1,156.5c0,2.1-0.2,4.2-0.4,6.3c-0.1-0.1-0.2-0.2-0.3-0.3
	c0-1.1,0.1-2.2,0.1-3.4C997.4,367.2,997.4,314.1,997.4,261z"/>
<path class="st1" d="M1413.9,311.3c0.2,1.3,0.6,2.6,0.6,3.9c0,34.6,0,69.2,0,103.8c0,1.3-0.4,2.6-0.6,3.9c0-25.2-0.1-50.5-0.1-75.7
	C1413.7,335.2,1413.8,323.3,1413.9,311.3z"/>
<path class="st15" d="M981.9,597.6c0.2-1.3,0.5-2.6,0.5-4c0-22.6,0-45.2,0-67.8c0-1.2,0-2.4,0-3.7c0.2,0,0.4,0,0.6,0
	c0,1,0.1,2,0.1,3c0,21.9,0,43.7,0,65.6c0,7,0,7.1,6.8,7c5.7-0.1,11.4-0.4,17.1-0.7c0.2,0.2,0.5,0.4,0.7,0.6c0,0,0.2,0.3,0.2,0.3
	c-1,0.2-2,0.7-3,0.7c-6.8,0.1-13.6,0.1-20.4,0C983.8,598.6,982.9,598,981.9,597.6z"/>
<path class="st16" d="M1414.5,128.3c0.3,0,0.5,0,0.8,0c0,32.6,0,65.2-0.1,97.8c0,1.4,1.3,3.7-1.7,4.1c0.1-0.5,0.2-1,0.3-1.4
	c0.2-1.1,0.6-2.1,0.6-3.2C1414.5,193.1,1414.5,160.7,1414.5,128.3z"/>
<path class="st1" d="M1414.5,128.3c0,32.4,0,64.8,0,97.2c0,1.1-0.4,2.1-0.6,3.2c-0.1-5.1-0.2-10.2-0.2-15.4c0-27.2,0-54.5,0-81.7
	c0-1.1,0.1-2.2,0.1-3.4C1414,128.3,1414.3,128.3,1414.5,128.3z"/>
<path class="st14" d="M1177.9,615.6c-3.8,0-5.5-3.1-7-5.7c-1.3-2.3-2.7-3.2-5.2-3.2c-5.5,0.1-10.9,0-16.4,0c-4.2,0-5.3,1.9-3.6,5.9
	c0.5,1.3,0.6,2.8,0.9,4.2c-1.3-3.5-2.6-7-4.2-11.4c6.2,0,11.2,0,16.3,0c2.2,0,4.5,0.2,6.7,0c3.2-0.3,5.1,0.5,6.6,3.8
	C1173.1,611.6,1175.9,613.4,1177.9,615.6z"/>
<path class="st5" d="M100.1,491.3c0.1,1.1,0.4,2.2,0.4,3.3c0,30.3,0,60.5,0,90.8c0,1.1-0.3,2.2-0.4,3.3c-0.1-1.4-0.2-2.7-0.2-4.1
	c0-29.2,0-58.4,0-87.7C99.9,495,100,493.2,100.1,491.3z"/>
<path class="st14" d="M549.1,558.8c0-30.3,0-60.6,0-91c0-0.7,0.3-1.4,0.5-2.1c0.1,1.1,0.3,2.2,0.3,3.3c0,27.3,0,54.7,0,82
	C549.8,553.7,549.3,556.3,549.1,558.8z"/>
<path class="st17" d="M277.4,330.9c9.1,0,18.3,0,27.4-0.2c2.1,0,4.1-0.9,6.2-1.4c-1.2,0.9-2.3,2.5-3.5,2.5
	c-9.3,0.2-18.6,0.1-27.9,0.1C279,331.8,278.2,331.2,277.4,330.9z"/>
<path class="st14" d="M1961.2,320.2c1-0.5,1.9-1.4,2.9-1.4c17.9-0.1,35.9,0,53.8,0.1c1.1,0,2.2,1,3.3,1.5
	c-18.4-0.2-36.8-0.5-55.3-0.7C1964.4,319.6,1962.8,320,1961.2,320.2z"/>
<path class="st14" d="M1656.8,608.2c-2.2-0.5-4.4-1.4-6.6-1.5c-6.6-0.2-13.2-0.1-20-0.1c-0.2,1.5-0.3,2.7-0.4,3.9
	c-0.4-1.5-0.8-3-1.4-5.2c4,0,7.4,0,10.8,0c4.7,0,9.4,0.1,14.2,0C1655.4,605.3,1656.6,606.1,1656.8,608.2z"/>
<path class="st14" d="M2021.9,320.4c3.3-0.6,6.2,0.2,8.3,2.9C2027.5,322.4,2024.7,321.4,2021.9,320.4z"/>
<path class="st14" d="M2030.6,323.5c1.4,0.9,2.8,1.8,4.2,2.8C2033.4,325.3,2032,324.4,2030.6,323.5z"/>
<path class="st5" d="M100.1,591.8c0,1,0,1.9,0,2.9C100.1,593.7,100.1,592.8,100.1,591.8z"/>
<path class="st17" d="M997.4,261c0,53.1,0,106.1,0,159.2c0,1.1-0.1,2.2-0.1,3.4c0,0-0.4,0.1-0.4,0.1s-0.4,0-0.4,0
	c0-3.4,0.1-6.7,0.1-10.1c0-49.4,0-98.9,0-148.3c0-1.4,0.1-2.7,0.1-4.1c0-0.1,0.2-0.2,0.2-0.2C997.2,260.9,997.3,261,997.4,261z"/>
<path class="st17" d="M1871.4,127.6c50.2,0,100.3,0,150.5-0.1c8,0,16,0,24,0c1.3,0,2.6,0.4,3.9,0.6c-57.6,0-115.2,0-172.8,0
	c-1.9,0-3.7,0.1-5.6,0.1C1871.3,128.1,1871.3,127.9,1871.4,127.6z"/>
<path class="st17" d="M1008,597.6c-0.2-0.2-0.5-0.4-0.7-0.6c0-24.9,0-49.9,0-74.8c0.2,0,0.5,0,0.7,0
	C1008,547.3,1008,572.5,1008,597.6z"/>
<path class="st18" d="M90,195c-0.1,0.2-0.2,0.3-0.3,0.5c0-0.1-0.1-0.2-0.1-0.3C89.7,195.1,89.9,195.1,90,195C90,195,90,195,90,195z"
	/>
<path class="st5" d="M520.3,548.1c0,0.5,0,1.1,0,1.6c-0.1,0-0.2,0-0.3,0c0-0.5-0.1-1.1-0.1-1.6C520,548.2,520.2,548.1,520.3,548.1z"
	/>
</svg>
