<?xml version="1.0" encoding="utf-8"?>
<!-- Generator: Adobe Illustrator 19.0.0, SVG Export Plug-In . SVG Version: 6.00 Build 0)  -->
<svg version="1.1" id="Layer_1" xmlns="http://www.w3.org/2000/svg" xmlns:xlink="http://www.w3.org/1999/xlink" x="0px" y="0px"
	 viewBox="-64 64 128 128" style="enable-background:new -64 64 128 128;" xml:space="preserve">
<g id="XMLID_2_">
	<path id="XMLID_3_" d="M63.9,127.9c0,3.7-2.2,6.7-6.7,9l-107.8,54c-1.5,0.7-2.9,1.1-4.4,1.1c-2.5,0-4.6-1-6.4-2.9
		c-1.7-1.9-2.6-4.2-2.6-6.7c0-3.5,1.7-6.1,5.1-7.9L34.2,128l-93-46.5c-3.4-1.8-5.1-4.4-5.1-7.9c0-2.5,0.9-4.7,2.6-6.7
		c1.7-1.9,3.8-2.9,6.4-2.9c1.4,0,2.9,0.4,4.4,1.1l107.8,54C61.7,121.3,63.9,124.3,63.9,127.9z"/>
</g>
</svg>
